<svg version="1.0" xmlns="http://www.w3.org/2000/svg"
     width="150.000000pt" height="150.000000pt" viewBox="0 0 150.000000 150.000000"
     preserveAspectRatio="xMidYMid meet">
  
  <g transform="translate(0.000000,150.000000) scale(0.100000,-0.100000)"
     fill="#0d6efd" stroke="none">
    <path d="M585 1352 c-219 -66 -383 -233 -439 -449 -19 -71 -21 -209 -5 -285
15 -73 78 -203 128 -265 58 -72 160 -145 255 -185 79 -32 85 -33 226 -33 139
0 148 1 222 31 192 78 334 236 383 429 22 86 20 234 -6 325 -51 188 -189 339
-377 413 -69 27 -90 31 -202 34 -98 2 -138 -1 -185 -15z m202 -374 c12 -13 78
-97 147 -187 128 -167 144 -200 107 -221 -12 -6 -124 -10 -295 -10 -236 0
-277 2 -290 16 -9 8 -16 24 -16 34 0 10 55 89 121 177 179 232 184 236 226
191z"/>
  </g>
</svg>
