<svg width="300" height="300" viewBox="0 0 300 300" fill="none" xmlns="http://www.w3.org/2000/svg">
<path d="M191.667 112.5H108.333C103.737 112.5 100 116.237 100 120.833V179.167C100 183.763 103.737 187.5 108.333 187.5H191.667C196.263 187.5 200 183.763 200 179.167V120.833C200 116.237 196.263 112.5 191.667 112.5Z" fill="#303C42"/>
<path d="M104.167 120.833C104.167 118.536 106.036 116.667 108.333 116.667H191.667C193.964 116.667 195.833 118.536 195.833 120.833V172.054L163.973 140.194C163.159 139.38 161.841 139.38 161.027 140.194L135.417 165.804L126.473 156.86C125.659 156.047 124.341 156.047 123.527 156.86L104.167 176.221V120.833Z" fill="#57C1EF"/>
<path d="M191.667 183.333H108.333C106.869 183.333 105.64 182.529 104.897 181.383L125 161.279L138.11 174.39C138.924 175.203 140.243 175.203 141.056 174.39C141.87 173.576 141.87 172.257 141.056 171.444L138.363 168.75L162.5 144.613L195.833 177.946V179.167C195.833 181.464 193.964 183.333 191.667 183.333Z" fill="#7CB342"/>
<path opacity="0.1" d="M194.32 176.432C193.569 177.534 192.367 178.304 190.937 178.304H107.975L104.897 181.382C105.64 182.529 106.869 183.333 108.333 183.333H191.667C193.964 183.333 195.833 181.464 195.833 179.167V177.946L194.32 176.432Z" fill="#010101"/>
<path d="M133.333 150C140.237 150 145.833 144.404 145.833 137.5C145.833 130.596 140.237 125 133.333 125C126.43 125 120.833 130.596 120.833 137.5C120.833 144.404 126.43 150 133.333 150Z" fill="#303C42"/>
<path d="M133.333 145.833C137.936 145.833 141.667 142.102 141.667 137.5C141.667 132.898 137.936 129.167 133.333 129.167C128.731 129.167 125 132.898 125 137.5C125 142.102 128.731 145.833 133.333 145.833Z" fill="#FFCB29"/>
<path opacity="0.1" d="M162.413 144.699L172.006 154.119L162.5 144.613L162.413 144.699Z" fill="#010101"/>
<path d="M191.667 112.5H108.333C103.737 112.5 100 116.237 100 120.833V179.167C100 183.763 103.737 187.5 108.333 187.5H191.667C196.263 187.5 200 183.763 200 179.167V120.833C200 116.237 196.263 112.5 191.667 112.5Z" fill="url(#paint0_linear_11_27)"/>
<defs>
<linearGradient id="paint0_linear_11_27" x1="97.0513" y1="125.31" x2="202.949" y2="174.69" gradientUnits="userSpaceOnUse">
<stop stop-color="white" stop-opacity="0.2"/>
<stop offset="1" stop-color="white" stop-opacity="0"/>
</linearGradient>
</defs>
</svg>
