<svg width="82" height="34" viewBox="0 0 82 34" fill="none" xmlns="http://www.w3.org/2000/svg">
<path d="M32.8904 19.4687C32.6568 19.4687 31.9243 20.7722 31.5465 20.7722C31.4715 20.7722 31.4571 20.6395 31.4571 20.5818C31.4571 20.478 31.4888 20.3771 31.5032 20.2733C31.7368 19.2062 31.9416 18.1392 32.204 17.0692C32.3482 16.4405 32.5126 15.8118 32.6741 15.1687C32.7001 15.0937 32.7174 15.0101 32.7174 14.9351C32.7174 14.6265 32.3511 14.6438 32.1319 14.6438C31.7801 14.6438 31.5609 14.6294 31.4744 15.0245C31.1399 16.4117 30.3612 17.6864 29.5883 18.8832C29.3403 19.2495 29.0779 19.6446 28.7981 19.9964C28.651 20.2012 28.0252 20.9596 27.734 20.9596C27.6157 20.9596 27.6157 20.7953 27.6157 20.726C27.6157 20.3165 27.7628 19.8205 27.8464 19.4398C28.0656 18.5343 28.2733 17.6258 28.4895 16.7203C28.5934 16.2934 28.7837 15.6359 28.7837 15.2149C28.7837 14.8919 28.5934 14.6294 28.2559 14.6294C27.4686 14.6294 26.1363 16.1925 25.6085 16.7808C25.5797 16.8097 25.5652 16.8385 25.5652 16.8962C25.5652 17.0144 25.7123 17.1038 25.8161 17.1038C26.0497 17.1038 26.9553 15.8609 27.2322 15.8609C27.3071 15.8609 27.336 15.9762 27.336 16.0195C27.336 16.0945 27.3216 16.1666 27.3071 16.2242C27.0591 17.3663 26.765 18.491 26.5169 19.633C26.4275 20.0137 26.2228 20.7578 26.2228 21.1384C26.2228 21.695 26.5025 22.0151 27.0707 22.0151C28.4319 22.0151 30.6554 18.0209 30.7419 17.8335H30.8025L30.4968 19.0332C30.3497 19.5898 30.0699 20.876 30.0699 21.3749C30.0699 21.695 30.2026 21.9892 30.566 21.9892C31.2668 21.9892 31.9704 21.199 32.3944 20.7001C32.5386 20.5242 33.1269 19.8637 33.1269 19.7196C33.1269 19.6157 33.0231 19.4715 32.8933 19.4715L32.8904 19.4687ZM24.3511 14.7448C21.8652 14.7448 19.2177 18.3555 19.2177 20.5645C19.2177 21.0462 19.3792 22.0844 20.0368 22.0844C20.7981 22.0844 21.9661 20.8702 22.4506 20.3598L22.8169 19.9935H22.8601L21.6547 25.5768C21.5249 26.1911 21.3172 26.3093 21.0692 26.3093H20.5126C20.3511 26.3093 20.2646 26.442 20.2646 26.5285C20.2646 26.6294 20.3079 26.7332 20.5588 26.7332H24.0973C24.2156 26.7332 24.2848 26.6612 24.2848 26.5141C24.2848 26.3843 24.2559 26.3093 24.0829 26.3093H23.2783C22.8255 26.3093 22.9265 25.8709 22.9265 25.8709L25.1701 15.4744C25.1846 15.3591 25.199 15.2552 25.199 15.1658C25.199 14.9149 25.0231 14.7419 24.3511 14.7419V14.7448ZM23.6907 16.1493L23.1226 18.6784C22.9611 19.4398 21.995 20.2733 21.4095 20.7722C21.2826 20.8875 21.0894 21.0202 20.9135 21.0202C20.6366 21.0202 20.6222 20.6539 20.6222 20.4492C20.6222 19.1629 21.7325 15.4946 23.4167 15.4946C23.6359 15.4946 23.7368 15.6532 23.7368 15.8724C23.7368 15.9618 23.7253 16.0627 23.6936 16.1521L23.6907 16.1493ZM18.6179 21.3461H17.7123C17.0692 19.9474 12.1233 9.0173 12.1233 9H8.3425L3.84355 19.7859L2.0411 21.2019C1.87671 21.3345 1.80173 21.349 1.59409 21.349H1.20764C1.0894 21.349 1 21.4384 1 21.5566V21.6921C1 21.8104 1.0894 21.9027 1.20764 21.9027H6.7765C6.8803 21.9027 6.9841 21.8133 6.9841 21.6921V21.5566C6.9841 21.4384 6.8803 21.349 6.7765 21.349H5.94016C5.76135 21.349 5.63158 21.274 5.53929 21.1702L4.54146 19.9791L5.51045 17.6864H9.6373L11.2149 21.349H10.0526C9.9488 21.349 9.8594 21.4384 9.8594 21.5566V21.6921C9.8594 21.8104 9.9488 21.9027 10.0526 21.9027H18.6179C18.7361 21.9027 18.8428 21.8133 18.8428 21.6921V21.5566C18.8428 21.4384 18.7361 21.349 18.6179 21.349V21.3461ZM5.76712 17.0894L7.5379 12.7953L9.3807 17.0894H5.76712ZM69.2048 19.4687C68.9712 19.4687 68.2386 20.7722 67.8753 20.7722C67.7859 20.7722 67.7714 20.6395 67.7714 20.5818C67.7714 20.478 67.8003 20.3771 67.832 20.2733C68.0512 19.2062 68.2559 18.1392 68.5184 17.0692C68.6655 16.4405 68.8385 15.8118 68.9885 15.1687C69.0173 15.0937 69.0317 15.0101 69.0317 14.9351C69.0317 14.6265 68.6655 14.6438 68.4607 14.6438C68.0945 14.6438 67.8753 14.6294 67.7887 15.0245C67.4542 16.4117 66.6784 17.6864 65.9027 18.8832C65.6547 19.2495 65.4066 19.6446 65.1154 19.9964C64.9683 20.2012 64.3367 20.9596 64.0454 20.9596C63.9445 20.9596 63.9301 20.7953 63.9301 20.726C63.9301 20.3165 64.0743 19.8205 64.1637 19.4398C64.3828 18.5343 64.602 17.6258 64.8068 16.7203C64.9077 16.2934 65.0981 15.6359 65.0981 15.2149C65.0981 14.8919 64.9077 14.6294 64.5732 14.6294C63.783 14.6294 62.4535 16.1925 61.9402 16.7808C61.9142 16.8097 61.8825 16.8385 61.8825 16.8962C61.8825 17.0144 62.0296 17.1038 62.1478 17.1038C62.3641 17.1038 63.2754 15.8609 63.5494 15.8609C63.6244 15.8609 63.6532 15.9762 63.6532 16.0195C63.6532 16.0945 63.6359 16.1666 63.6244 16.2242C63.3763 17.3663 63.0851 18.491 62.8342 19.633C62.7477 20.0137 62.5429 20.7578 62.5429 21.1384C62.5429 21.695 62.8198 22.0151 63.3908 22.0151C64.7491 22.0151 66.9726 18.0209 67.062 17.8335H67.1197L66.814 19.0332C66.6842 19.5898 66.39 20.876 66.39 21.3749C66.39 21.695 66.5227 21.9892 66.8861 21.9892C67.6042 21.9892 68.2906 21.199 68.7174 20.7001C68.8616 20.5242 69.447 19.8637 69.447 19.7196C69.447 19.6157 69.3461 19.4715 69.2134 19.4715L69.2048 19.4687ZM60.9712 19.5263C60.8097 19.5263 59.7974 20.8299 59.4946 20.8299C59.4052 20.8299 59.3908 20.726 59.3908 20.6539C59.3908 20.553 59.4225 20.4348 59.4369 20.3309L60.5184 15.9416C60.6222 15.4888 60.6511 15.3273 61.1615 15.3273L62.1709 15.31C62.4189 15.31 62.5198 15.261 62.5198 15.0043C62.5198 14.814 62.442 14.7592 62.3295 14.7592L61.2076 14.739C60.9308 14.7332 60.7981 14.6467 60.8414 14.416L61.1903 12.8241C61.2192 12.6626 61.1154 12.5444 60.9394 12.5444H60.2675C60.106 12.5444 60.0627 12.6626 60.0195 12.8068L59.6388 14.243C59.5667 14.5342 59.5379 14.7102 59.1716 14.7246L58.4131 14.7534C58.2516 14.7534 57.9892 14.7823 57.9892 14.987C57.9892 15.2091 58.0469 15.2956 58.2805 15.3071H58.9553C59.1312 15.3244 59.2754 15.3821 59.2754 15.5869C59.2754 15.6446 59.2754 15.7051 59.261 15.7455L57.9719 20.8356C57.9286 20.9971 57.9142 21.1442 57.9142 21.3057C57.9142 21.6835 58.0469 22.0209 58.4823 22.0209C59.0216 22.0209 59.6965 21.3922 60.0483 21.026L61.1154 19.9012C61.1442 19.8551 61.1759 19.8147 61.1759 19.7542C61.1759 19.6648 61.0577 19.5177 60.9712 19.5177V19.5263ZM80.7578 19.4687C80.5559 19.4687 79.7484 20.7866 79.411 20.7866C79.3244 20.7866 79.2783 20.6539 79.2783 20.5963C79.2783 20.4924 79.31 20.3482 79.3533 20.2444C79.6157 19.4686 80.6684 15.9445 80.6684 15.434C80.6684 14.9928 80.3309 14.6611 79.907 14.6611C78.6756 14.6611 77.1125 16.9712 76.527 17.8479L76.0166 18.6092H75.9733L76.6309 16.1089C76.6885 15.9041 76.7491 15.6388 76.7491 15.4225C76.7491 14.8803 76.5443 14.5717 75.9906 14.5717C75.6215 14.5717 75.3014 14.69 74.9928 14.9668C74.044 15.8435 72.801 17.5249 72.1146 18.6063H72.0685L72.3627 17.496C72.5645 16.7203 72.726 16.1348 72.8904 15.3302C72.9193 15.2437 72.9193 15.1543 72.9193 15.0678C72.9193 14.7909 72.7433 14.4823 72.4376 14.4823C71.7772 14.4823 70.2718 16.106 69.7873 16.7376C69.7614 16.7808 69.7325 16.8097 69.7325 16.8673C69.7325 16.9827 69.8767 17.1009 69.9949 17.1009C70.217 17.1009 71.137 15.7859 71.4427 15.7859C71.5148 15.7859 71.5321 15.858 71.5321 15.9157C71.5321 15.9878 71.5032 16.0743 71.4859 16.1493C71.31 16.925 71.0909 17.6979 70.9034 18.4881C70.6669 19.4225 70.4189 20.3742 70.1565 21.3115C70.1132 21.4124 70.0872 21.5133 70.0872 21.6287C70.0872 21.8508 70.2026 21.9229 70.4074 21.9229H70.8919C71.0678 21.9229 71.212 21.8652 71.2581 21.7008C71.434 21.1788 71.5811 20.7231 71.8291 20.2098C72.3396 19.186 72.9106 18.1622 73.6287 17.2711C73.9373 16.8875 74.7679 15.6446 75.2668 15.6446C75.4427 15.6446 75.411 15.9531 75.31 16.3165C75.1053 17.0952 74.9005 17.9546 74.6669 18.7765C74.4477 19.5811 74.2141 20.3828 73.9978 21.1903C73.9517 21.3374 73.9084 21.496 73.9084 21.6575C73.9084 21.8911 73.9978 21.92 74.2141 21.92H74.7707C75.1226 21.92 75.1975 21.6979 75.3129 21.2307C75.633 19.9762 76.2185 19.111 76.8039 18.2487C77.124 17.7988 78.4996 15.734 79.1428 15.734C79.3475 15.734 79.261 16.0858 79.0851 16.6568L77.9748 20.5328C77.8998 20.7924 77.8421 21.0577 77.8421 21.3374C77.8421 21.6575 77.9748 21.9805 78.3381 21.9805C79.0534 21.9805 79.8464 21.1904 80.2675 20.6914C80.4175 20.5155 81 19.8551 81 19.7109C81 19.6071 80.8991 19.4629 80.7664 19.4629L80.7578 19.4687ZM57.0952 19.4687C56.8616 19.4687 56.1291 20.7722 55.7628 20.7722C55.6763 20.7722 55.6763 20.6395 55.6763 20.5818C55.6763 20.478 55.6907 20.3771 55.7195 20.2733C55.9387 19.2062 56.1464 18.1392 56.4059 17.0692C56.5501 16.4405 56.726 15.8118 56.8731 15.1687C56.9019 15.0937 56.9164 15.0101 56.9164 14.9351C56.9164 14.6265 56.5472 14.6438 56.3454 14.6438C55.9791 14.6438 55.7743 14.6294 55.6734 15.0245C55.336 16.4117 54.5631 17.6864 53.7873 18.8832C53.5393 19.2495 53.2913 19.6446 53.0115 19.9964C52.8529 20.2012 52.2358 20.9596 51.9445 20.9596C51.8262 20.9596 51.8118 20.7953 51.8118 20.726C51.8118 20.3165 51.9733 19.8205 52.0598 19.4398C52.2646 18.5343 52.4838 17.6258 52.6885 16.7203C52.7924 16.2934 52.9827 15.6359 52.9827 15.2149C52.9827 14.8919 52.7924 14.6294 52.4694 14.6294C51.6647 14.6294 50.3353 16.1925 49.8248 16.7808C49.796 16.8097 49.7642 16.8385 49.7642 16.8962C49.7642 17.0144 49.9113 17.1038 50.0296 17.1038C50.2459 17.1038 51.1543 15.8609 51.434 15.8609C51.5032 15.8609 51.535 15.9762 51.535 16.0195C51.535 16.0945 51.5177 16.1666 51.5032 16.2242C51.2552 17.3663 50.964 18.491 50.7159 19.633C50.6294 20.0137 50.4247 20.7578 50.4247 21.1384C50.4247 21.695 50.7015 22.0151 51.2725 22.0151C52.6309 22.0151 54.8572 18.0209 54.9582 17.8335H55.0187L54.6957 19.0332C54.566 19.5898 54.2747 20.876 54.2747 21.3749C54.2747 21.695 54.4045 21.9892 54.7736 21.9892C55.4888 21.9892 56.1752 21.199 56.5991 20.7001C56.7462 20.5242 57.3317 19.8637 57.3317 19.7196C57.3317 19.6157 57.2307 19.4715 57.0981 19.4715L57.0952 19.4687ZM42.7909 14.5689C41.8104 14.5689 40.8298 15.3418 40.8298 16.3684C40.8298 16.677 40.9913 17.0692 41.1384 17.3345L42.6294 20.0714C42.7592 20.2906 42.863 20.5386 42.863 20.801C42.863 21.2999 42.4968 21.6085 42.0123 21.6085C41.075 21.6085 40.6828 20.1608 40.403 20.1608C40.1839 20.1608 39.7167 20.5847 39.7167 20.801C39.7167 20.9769 39.907 21.1702 40.0397 21.2855C40.5068 21.7095 41.1817 21.9892 41.8104 21.9892C42.9178 21.9892 43.8983 21.3143 43.8983 20.1579C43.8983 19.9243 43.8551 19.633 43.6705 19.2956L42.0757 16.3252C42.0007 16.2242 41.9257 15.9618 41.9257 15.6705C41.9257 15.3158 42.292 15.013 42.6294 15.013C43.3879 15.013 43.682 16.2127 44.0771 16.2127C44.2386 16.2127 44.6799 15.8753 44.6799 15.6994C44.6799 15.5696 44.6049 15.4658 44.5328 15.3648C44.1262 14.8515 43.4369 14.5746 42.7938 14.5746L42.7909 14.5689ZM40.1118 19.8061C40.1118 19.6878 40.0108 19.5407 39.881 19.5407C39.6763 19.5407 38.7102 20.9885 38.3439 20.9885C38.2285 20.9885 38.1824 20.8702 38.1824 20.7549C38.1824 20.6395 38.2113 20.5213 38.2401 20.4203L39.3389 15.6676C39.3533 15.5638 39.3677 15.4629 39.3677 15.3591C39.3677 14.8457 39.0332 14.6871 38.5804 14.6871C37.3086 14.6871 35.7859 16.0916 35.0245 16.9971C34.2372 17.9777 33.4758 19.3071 33.4758 20.5963C33.4758 21.1529 33.6633 21.9978 34.367 21.9978C34.8947 21.9978 35.2898 21.6633 35.682 21.3547C35.9041 21.1932 36.8385 20.2588 37.173 19.907H37.2019C37.1269 20.3165 36.8962 21.1182 36.8962 21.5306C36.8962 21.943 37.0548 22.0555 37.4355 22.0555C38.1363 22.0555 38.912 21.2942 39.336 20.7952C39.584 20.504 39.8464 20.2127 40.0829 19.8897C40.0973 19.8753 40.1089 19.832 40.1089 19.8032L40.1118 19.8061ZM38.0238 16.0483L37.4384 18.4766C37.3345 18.8688 37.2336 19.1485 36.9712 19.4687C36.6193 19.9099 36.2098 20.3454 35.7715 20.7116C35.6244 20.827 35.3908 21.0173 35.186 21.0173C34.9207 21.0173 34.8947 20.6655 34.8947 20.4751C34.8947 19.8782 34.9986 19.261 35.1572 18.6929C35.4513 17.6114 36.4895 15.4744 37.7614 15.4744C37.9373 15.4744 38.0699 15.5321 38.0699 15.7109C38.0699 15.7859 38.0411 15.9589 38.0267 16.0454L38.0238 16.0483ZM48.7001 14.5573C47.4283 14.5573 46.4016 15.7282 45.6864 16.9539C45.1009 17.9344 44.6943 18.987 44.6943 20.1291C44.6943 21.0346 45.2942 21.9978 46.2747 21.9978C47.4167 21.9978 48.2675 20.9625 48.7606 20.2156C48.8356 20.0973 49.026 19.7888 49.026 19.6475C49.026 19.5754 48.8933 19.4571 48.7751 19.4571C48.6741 19.4571 48.6568 19.5148 48.5991 19.5869C48.5126 19.7051 48.4376 19.8464 48.3511 19.9647C48.0887 20.3627 47.4311 21.2365 46.9063 21.2365C46.3353 21.2365 46.0699 20.6684 46.0699 19.8464C46.0699 18.5602 46.5977 16.5126 47.3994 15.5321C47.5753 15.3273 47.7945 15.1831 48.0858 15.1831C48.7318 15.1831 49.124 15.8407 49.3432 15.8407C49.5768 15.8407 49.9286 15.5032 49.9286 15.2696C49.9286 14.8601 49.0375 14.5544 48.7001 14.5544V14.5573Z" fill="#161616"/>
</svg>
