<svg width="92" height="34" viewBox="0 0 92 34" fill="none" xmlns="http://www.w3.org/2000/svg">
<path d="M1 22.7926V12.1816H4.9389C6.6274 12.1816 8.0262 12.6645 8.0262 14.9295C8.0262 16.1498 7.4233 17.0335 6.2177 17.2676V17.2969C7.7891 17.5164 8.2018 18.5318 8.2018 19.9862C8.2018 22.6755 5.8636 22.7926 4.9242 22.7926H1ZM3.2211 16.5185H4.7048C5.1905 16.5185 5.8665 16.1937 5.8665 15.1665C5.8665 14.3881 5.3369 13.8146 4.5877 13.8146H3.2211V16.5214V16.5185ZM3.2211 21.1626H4.4531C4.9242 21.1626 5.9836 21.148 5.9836 19.6643C5.9836 18.722 5.6295 18.1485 4.5145 18.1485H3.2211V21.1626Z" fill="black"/>
<path d="M9.87549 22.7926L12.8165 12.1816H15.7428L18.6224 22.7926H16.2842L15.696 20.4398H12.6672L12.0673 22.7926H9.87549ZM14.1538 14.2242H14.1275L13.112 18.8128H15.2278L14.1538 14.2242Z" fill="black"/>
<path d="M23.2811 22.968C20.5333 22.968 20.0182 21.3497 20.1353 19.512H22.3564C22.3564 20.5274 22.4003 21.379 23.6206 21.379C24.3697 21.379 24.7355 20.8932 24.7355 20.1733C24.7355 18.2624 20.267 18.1453 20.267 14.9849C20.267 13.3256 21.06 12 23.764 12C25.9236 12 26.9976 12.9716 26.8513 15.1927H24.6916C24.6916 14.3996 24.5599 13.589 23.6615 13.589C22.9417 13.589 22.5144 13.987 22.5144 14.7215C22.5144 16.7348 26.983 16.5593 26.983 19.8982C26.983 22.6461 24.9726 22.9709 23.2782 22.9709" fill="black"/>
<path d="M31.5248 12.1782H29.3066V22.7892H31.5248V12.1782Z" fill="black"/>
<path d="M34.0269 17.484C34.0269 14.6776 34.0269 12 37.6877 12C39.9527 12 40.8628 13.2496 40.775 15.5292H38.5978C38.5978 14.1187 38.3491 13.589 37.6877 13.589C36.4382 13.589 36.2772 14.7654 36.2772 17.484C36.2772 20.2026 36.4382 21.379 37.6877 21.379C38.7149 21.379 38.671 20.0563 38.7032 19.2193H40.8921C40.8921 22.0579 39.7596 22.968 37.6877 22.968C34.0269 22.968 34.0269 20.2611 34.0269 17.484Z" fill="black"/>
<path d="M51.8691 16.4273V12.1782H54.0902V22.7921H51.8691V18.0573H49.3261V22.7921H47.1079V12.1782H49.3261V16.4273H51.8691Z" fill="black"/>
<path d="M56.6475 17.484C56.6475 14.6776 56.6475 12 60.3083 12C63.9692 12 63.9692 14.6776 63.9692 17.484C63.9692 20.2904 63.9692 22.968 60.3083 22.968C56.6475 22.968 56.6475 20.2611 56.6475 17.484ZM61.7159 17.484C61.7159 14.7654 61.5579 13.589 60.3054 13.589C59.0529 13.589 58.892 14.7654 58.892 17.484C58.892 20.2026 59.0558 21.379 60.3054 21.379C61.555 21.379 61.7159 20.2026 61.7159 17.484Z" fill="black"/>
<path d="M73.6378 12.1782V19.7048C73.6378 21.2909 72.7423 22.9677 70.0384 22.9677C67.5978 22.9677 66.4214 21.7006 66.4214 19.7048V12.1782H68.6396V19.5585C68.6396 20.8636 69.1985 21.3787 70.0062 21.3787C70.9777 21.3787 71.4167 20.732 71.4167 19.5585V12.1782H73.6378Z" fill="black"/>
<path d="M79.0633 22.968C76.3155 22.968 75.8005 21.3497 75.9175 19.512H78.1357C78.1357 20.5274 78.1796 21.379 79.4028 21.379C80.1519 21.379 80.5177 20.8932 80.5177 20.1733C80.5177 18.2624 76.0492 18.1453 76.0492 14.9849C76.0492 13.3256 76.8422 12 79.5462 12C81.7058 12 82.7798 12.9716 82.6335 15.1927H80.4738C80.4738 14.3996 80.3422 13.589 79.4438 13.589C78.7239 13.589 78.2966 13.987 78.2966 14.7215C78.2966 16.7348 82.7681 16.5593 82.7681 19.8982C82.7681 22.6461 80.7518 22.9709 79.0633 22.9709" fill="black"/>
<path d="M85.0889 22.7921V12.1782H90.8831V13.8082H87.31V16.4273H90.6021V18.0573H87.31V21.1592H91.0001V22.7921H85.0889Z" fill="black"/>
</svg>
