<svg width="72" height="34" viewBox="0 0 72 34" fill="none" xmlns="http://www.w3.org/2000/svg">
<path d="M25.4684 24.4312C25.5929 24.618 25.8108 24.8566 26.2465 24.9111C26.812 24.9993 27.1985 24.7685 27.4968 24.5194C28.0649 24.0448 28.6589 23.2017 29.1518 21.8918C28.8976 21.3315 26.3659 15.6222 26.0079 14.8415C25.6655 14.0711 25.3568 13.2306 24.5864 13.2306V13.145H28.5422V13.2306C27.9585 13.2306 27.9093 13.5056 28.2672 14.3771C28.5915 15.1813 29.9896 18.4626 30.1945 18.9762C30.9312 16.9555 31.3774 15.7467 31.463 15.5263C31.7872 14.6365 31.795 13.2306 30.9909 13.2306V13.145H33.5589V13.2306C32.7885 13.3837 32.7184 14.1463 32.306 15.1916C32.0673 15.8427 30.2153 21.0488 29.9585 21.718C29.118 23.9955 27.8237 25.6556 26.5941 25.6556C26.1194 25.666 25.7978 25.5907 25.4658 25.3054" fill="black"/>
<path d="M62.9093 24.4312C63.0338 24.618 63.2517 24.8566 63.6875 24.9111C64.2529 24.9993 64.6394 24.7685 64.9377 24.5194C65.5058 24.0448 66.0998 23.2017 66.5927 21.8918C66.3385 21.3315 63.8068 15.6222 63.4488 14.8415C63.1064 14.0711 62.7977 13.2306 62.0273 13.2306V13.145H65.9831V13.2306C65.3995 13.2306 65.3502 13.5056 65.7081 14.3771C66.0324 15.1813 67.4305 18.4626 67.6354 18.9762C68.3721 16.9555 68.8183 15.7467 68.9039 15.5263C69.2281 14.6365 69.2359 13.2306 68.4318 13.2306V13.145H70.9998V13.2306C70.2294 13.3837 70.1593 14.1463 69.7469 15.1916C69.5083 15.8427 67.6562 21.0488 67.3994 21.718C66.559 23.9955 65.2646 25.6556 64.035 25.6556C63.5604 25.666 63.2387 25.5907 62.9067 25.3054" fill="black"/>
<path d="M24.2756 19.7463V20.675C23.6245 21.2041 22.9371 21.6451 21.596 21.7307C19.0514 21.8915 16.4963 20.6853 16.2992 17.749C16.0891 14.8127 18.2654 13.1785 20.8101 12.9554C21.5597 12.8828 22.4806 13.0669 23.059 13.2122C23.6245 13.3601 24.0655 13.4223 24.0655 12.5845H24.1277V15.6816H24.0655C24.0655 14.919 22.9968 13.3419 20.8204 13.5131C18.9398 13.6739 18.2888 15.6816 18.4366 17.6349C18.5974 19.6011 19.6532 21.0926 21.5934 21.0433C22.7477 21.02 23.6219 20.3689 24.273 19.7412L24.2756 19.7463Z" fill="black"/>
<path d="M6.2579 9.61734V9.70294C5.2826 9.70294 5.197 10.3359 5.1788 11.5861V20.9036C5.1788 23.8503 2.81576 24.7919 1 24.9631V24.8593C2.07908 24.465 2.52523 23.5572 2.52523 21.5183V11.5835C2.52523 10.3333 2.42148 9.70034 1.44616 9.70034V9.61475H6.2605L6.2579 9.61734Z" fill="black"/>
<path d="M15.0592 19.6535C15.0592 21.0413 15.2122 21.5211 16.1382 21.5211V21.6067H12.198V21.5211C12.3018 21.4693 12.3874 21.145 12.4367 20.494C11.9049 21.2981 11.2538 21.7779 9.90242 21.7779C8.08662 21.7779 6.87012 20.8182 6.87012 18.6082V15.096C6.87012 13.6926 6.71712 13.2283 5.79102 13.2283V13.1427H9.74682V13.2283C9.57562 13.3139 9.45621 14.0688 9.45621 15.7963V18.948C9.45621 20.1126 9.37062 20.9816 10.6028 20.9816C11.2876 20.9816 12.0424 20.4862 12.4367 19.6976C12.4704 19.3371 12.4704 19.4979 12.4704 18.948V15.0934C12.4704 13.6901 12.3174 13.2257 11.3913 13.2257V13.1401H15.3471V13.2257C15.1759 13.3113 15.0566 14.0662 15.0566 15.7937V19.6483L15.0592 19.6535Z" fill="black"/>
<path d="M51.463 19.6534C51.463 21.0411 51.616 21.521 52.542 21.521V21.6066H48.6018V21.521C48.7056 21.4691 48.7912 21.1449 48.8405 20.4938C48.3087 21.2979 47.6577 21.7778 46.3062 21.7778C44.4905 21.7778 43.2739 20.818 43.2739 18.608V15.0958C43.2739 13.6925 43.1209 13.2282 42.1948 13.2282V13.1426H46.1506V13.2282C45.9794 13.3138 45.8601 14.0686 45.8601 15.7962V18.9478C45.8601 20.1125 45.7745 21.163 47.0066 21.163C47.6914 21.163 48.4462 20.6676 48.8405 19.879C48.8742 19.5185 48.8742 19.4977 48.8742 18.9504V15.0958C48.8742 13.6925 48.7212 13.2282 47.7951 13.2282V13.1426H51.7509V13.2282C51.5797 13.3138 51.4604 14.0686 51.4604 15.7962V19.6508L51.463 19.6534Z" fill="black"/>
<path d="M42.6612 9.61734V9.70294C41.6859 9.70294 41.6003 10.3359 41.5822 11.5861V20.9036C41.5822 23.8503 39.2191 24.7919 37.4033 24.9631V24.8593C38.4824 24.465 38.9286 23.5572 38.9286 21.5183V11.5835C38.9286 10.3333 38.8248 9.70034 37.8495 9.70034V9.61475H42.6638L42.6612 9.61734Z" fill="black"/>
<path d="M61.4384 19.6533C61.4384 21.0411 61.5914 21.5209 62.5175 21.5209V21.6065H58.5617V21.5209C58.681 21.4691 58.7666 21.1111 58.8185 20.3381C58.3386 21.3497 57.5164 21.7777 56.541 21.7777C54.1598 21.7777 52.4634 20.2006 52.5853 17.3758C52.7046 14.634 54.4347 13.6406 56.2505 13.1788C57.2777 12.922 58.0325 12.9558 58.8548 13.0076V10.9532C58.8548 9.56548 58.7018 9.0856 57.7757 9.0856V9H61.7159V9.0856C61.5629 9.1712 61.441 9.92603 61.441 11.6536V19.6533H61.4384ZM58.8522 13.5887C58.1337 13.5212 57.1402 13.5368 56.6603 13.7417C55.5813 14.1879 55.2052 15.2177 55.1714 17.4095C55.1196 19.7389 55.7888 20.984 56.969 20.984C57.8432 20.984 58.4761 20.3511 58.8367 19.5444C58.8548 19.202 58.8548 18.8881 58.8548 18.4082V13.5861L58.8522 13.5887Z" fill="black"/>
</svg>
