<svg width="92" height="34" viewBox="0 0 92 34" fill="none" xmlns="http://www.w3.org/2000/svg">
<path d="M29.0539 21.6958V21.6014H29.1484H31.31V20.8081H29.1484H28.1494V25.9792H29.1484H31.31V25.1859H29.1484H29.0539V25.0915V23.8113V23.7169H29.1484H31.0645V22.9236H29.1484H29.0539V22.8291V21.6958Z" fill="black"/>
<path d="M1 20.8892H1.69676L2.49845 25.3551L4.2886 21.2858H4.6706L6.4964 25.3908L7.2624 20.8892H7.9088L6.9434 25.8966H6.0536L4.4586 22.0497L2.86782 25.8966H1.96959L1.0042 20.8892H1Z" fill="black" stroke="black" stroke-width="0.22" stroke-miterlimit="10"/>
<path d="M12.8759 26.0002C12.0763 26.0002 11.4467 25.7715 10.9913 25.3118C10.5359 24.8522 10.3071 24.2142 10.3071 23.3958C10.3071 22.5773 10.5359 21.9414 10.9934 21.4797C11.4509 21.018 12.0784 20.7871 12.8759 20.7871C13.6734 20.7871 14.303 21.018 14.7605 21.4797C15.218 21.9414 15.4468 22.5794 15.4468 23.3958C15.4468 24.2121 15.218 24.848 14.7605 25.3076C14.303 25.7694 13.6755 26.0002 12.8759 26.0002ZM12.878 21.3139C12.2946 21.3139 11.8413 21.4965 11.5181 21.8595C11.1928 22.2226 11.0333 22.7347 11.0333 23.3937C11.0333 24.0526 11.1949 24.5647 11.5181 24.9278C11.8413 25.2909 12.2946 25.4713 12.878 25.4713C13.4614 25.4713 13.9106 25.2909 14.2358 24.9278C14.5611 24.5647 14.7206 24.0526 14.7206 23.3937C14.7206 22.7347 14.559 22.2163 14.2358 21.8553C13.9126 21.4944 13.4593 21.3139 12.878 21.3139Z" fill="black" stroke="black" stroke-width="0.22" stroke-miterlimit="10"/>
<path d="M23.792 25.8966H23.0953V21.5964L21.4688 24.5346H21.0868L19.4604 21.5964V25.8966H18.814V20.8892H19.7038L21.2988 23.7706L22.8896 20.8892H23.7878V25.8966H23.792Z" fill="black" stroke="black" stroke-width="0.22" stroke-miterlimit="10"/>
<path d="M40.3006 25.8966H39.4926L36.6552 21.5502V25.8966H36.0088V20.8892H36.9742L39.6542 24.9963V20.8892H40.3006V25.8966Z" fill="black" stroke="black" stroke-width="0.22" stroke-miterlimit="10"/>
<path d="M14.5174 8.00146H13.1113V16.0331H14.5174V8.00146Z" fill="black"/>
<path d="M46.5134 16.0358C48.1105 16.0358 48.7653 14.934 48.7653 13.6706C48.7653 12.0567 47.3927 11.8783 47.3927 11.8783C47.3927 11.8783 48.5218 11.4376 48.5218 10.2246C48.5218 8.49319 47.164 8 46.0034 8L45.3129 8.0063L43.2437 8V16.0358H46.5134ZM44.7421 9.18575H46.0034C46.5805 9.18575 47.3361 9.47536 47.3361 10.2372C47.3361 10.999 46.5784 11.2781 46.0034 11.2886L44.7421 11.2949V9.18785V9.18575ZM44.7421 12.4723H46.5134C47.2836 12.4723 47.5753 12.9718 47.5753 13.6706C47.5753 14.3695 47.1766 14.8501 46.5134 14.8501H44.7421V12.4702V12.4723Z" fill="black"/>
<path d="M62.8729 8.00146H61.4668V16.0331H62.8729V8.00146Z" fill="black"/>
<path d="M87.8216 9.37819V9.23129H87.9685H91.3264V8.00146H87.9685H86.4155V16.0331H87.9685H91.3264V14.8012H87.9685H87.8216V14.6543V12.6647V12.5178H87.9685H90.9445V11.2859H87.9685H87.8216V11.139V9.37819Z" fill="black"/>
<path d="M32.2133 16.0358C34.5533 16.0358 35.6216 14.0043 35.6216 12.0169C35.6216 10.0294 34.6709 8 32.2133 8H29.1094V16.0358H32.2133ZM30.5155 9.18575H32.2133C33.5145 9.18575 34.4379 10.0294 34.4379 12.019C34.4379 13.7168 33.5145 14.8522 32.2133 14.8522H30.5155V9.18785V9.18575Z" fill="black"/>
<path d="M69.7861 16.0358C72.1261 16.0358 73.1943 14.0043 73.1943 12.0169C73.1943 10.0294 72.2436 8 69.7861 8H66.6821V16.0358H69.7861ZM68.0882 9.18575H69.7861C71.0872 9.18575 72.0107 10.0294 72.0107 12.019C72.0107 13.7168 71.0872 14.8522 69.7861 14.8522H68.0882V9.18785V9.18575Z" fill="black"/>
<path d="M54.594 12.8983L56.7808 16.0337H58.5206L56.3275 12.8983C56.3275 12.8983 57.9309 12.3505 57.9309 10.4492C57.9309 8.54775 56.6905 8 55.5782 8H52.2393V16.0358H53.637V12.9004H54.5961L54.594 12.8983ZM53.6349 9.18365H55.574C56.2645 9.18365 56.743 9.60548 56.743 10.4492C56.743 11.2928 56.2183 11.7146 55.574 11.7146H53.6349V9.18575V9.18365Z" fill="black"/>
<path d="M79.6962 13.0516H81.201V14.5081L81.1359 14.5375C80.8106 14.6781 80.4161 14.7515 79.9984 14.7515C78.3636 14.7515 77.2219 13.6309 77.2219 12.0296C77.2219 10.4283 78.3845 9.30759 79.9879 9.30759C80.8001 9.30759 81.6501 9.5993 82.3175 10.1093L82.3552 10.1387V8.657L82.3468 8.6528C81.8704 8.36948 81.0708 8.03369 79.9753 8.03369C77.5661 8.03369 75.8179 9.71893 75.8179 12.0422C75.8179 14.3654 77.5493 16.0086 79.9334 16.0086C80.8694 16.0086 81.8621 15.7421 82.5903 15.293L82.6029 15.2846V11.8659H79.692V13.0537L79.6962 13.0516Z" fill="black"/>
<path d="M9.3024 8.00146H9.231H7.8962L5.1491 12.6227L2.40611 8.00146H1.1658H1V16.0331H1.1658H2.40611V10.3604L4.6349 14.2219H5.1491H5.6003H5.6633L7.8962 10.3541V16.0331H9.231H9.3024V8.00146Z" fill="black"/>
<path d="M25.3004 8.00146H23.8943V8.00776V13.5063V13.9827L23.6257 13.5902L19.8019 8.00146H18.4H18.3286V16.0331H19.7347V16.0268V10.5304V10.054L20.0034 10.4464L23.825 16.0331H25.229H25.3004V8.00146Z" fill="black"/>
</svg>
