<svg width="92" height="34" viewBox="0 0 92 34" fill="none" xmlns="http://www.w3.org/2000/svg">
<path d="M10.9623 21.6468V21.5527H11.0564H13.2103V20.7622H11.0564H10.061V25.9147H11.0564H13.2103V25.1243H11.0564H10.9623V25.0302V23.7546V23.6605H11.0564H12.9656V22.8701H11.0564H10.9623V22.776V21.6468Z" fill="black"/>
<path d="M5.96015 25.8332H5.2659V21.5485L3.64527 24.476H3.26469L1.64407 21.5485V25.8332H1V20.8438H1.88664L3.47589 23.7149L5.06097 20.8438H5.95597V25.8332H5.96015Z" fill="black" stroke="black" stroke-width="0.22" stroke-miterlimit="10"/>
<path d="M21.9282 25.8332H21.1231L18.2959 21.5025V25.8332H17.6519V20.8438H18.6138L21.2841 24.9361V20.8438H21.9282V25.8332Z" fill="black" stroke="black" stroke-width="0.22" stroke-miterlimit="10"/>
<path d="M14.4689 8.00195H13.0679V16.0047H14.4689V8.00195Z" fill="black"/>
<path d="M46.3503 16.0069C47.9416 16.0069 48.594 14.9091 48.594 13.6502C48.594 12.0421 47.2264 11.8644 47.2264 11.8644C47.2264 11.8644 48.3515 11.4253 48.3515 10.2166C48.3515 8.49141 46.9985 8 45.8421 8L45.1541 8.00627L43.0923 8V16.0069H46.3503ZM44.5853 9.18149H45.8421C46.4172 9.18149 47.17 9.47006 47.17 10.2291C47.17 10.9882 46.4151 11.2663 45.8421 11.2768L44.5853 11.2831V9.18358V9.18149ZM44.5853 12.4562H46.3503C47.1177 12.4562 47.4084 12.9539 47.4084 13.6502C47.4084 14.3466 47.0111 14.8254 46.3503 14.8254H44.5853V12.4541V12.4562Z" fill="black"/>
<path d="M62.6506 8.00195H61.2495V16.0047H62.6506V8.00195Z" fill="black"/>
<path d="M87.5099 9.37582V9.22944H87.6563H91V8.00195H87.6563H86.1089V16.0047H87.6563H91V14.7793H87.6563H87.5099V14.6308V12.6484V12.5021H87.6563H90.6215V11.2767H87.6563H87.5099V11.1303V9.37582Z" fill="black"/>
<path d="M32.1011 16.0069C34.4327 16.0069 35.4971 13.9827 35.4971 12.0024C35.4971 10.0221 34.5498 8 32.1011 8H29.0083V16.0069H32.1011ZM30.4094 9.18149H32.1011C33.3976 9.18149 34.3177 10.0221 34.3177 12.0045C34.3177 13.6962 33.3976 14.8275 32.1011 14.8275H30.4094V9.18358V9.18149Z" fill="black"/>
<path d="M69.5386 16.0069C71.8702 16.0069 72.9346 13.9827 72.9346 12.0024C72.9346 10.0221 71.9873 8 69.5386 8H66.4458V16.0069H69.5386ZM67.8469 9.18149H69.5386C70.8351 9.18149 71.7552 10.0221 71.7552 12.0045C71.7552 13.6962 70.8351 14.8275 69.5386 14.8275H67.8469V9.18358V9.18149Z" fill="black"/>
<path d="M54.4009 12.8826L56.5799 16.0068H58.3134L56.1282 12.8826C56.1282 12.8826 57.7258 12.3369 57.7258 10.4423C57.7258 8.54774 56.49 8.00195 55.3817 8.00195H52.0547V16.0089H53.4474V12.8847H54.403L54.4009 12.8826ZM53.4453 9.18135H55.3775C56.0655 9.18135 56.5422 9.60166 56.5422 10.4423C56.5422 11.2829 56.0195 11.7032 55.3775 11.7032H53.4453V9.18344V9.18135Z" fill="black"/>
<path d="M79.4132 13.0336H80.9126V14.4848L80.8477 14.5141C80.5236 14.6542 80.1305 14.7274 79.7143 14.7274C78.0854 14.7274 76.9478 13.6107 76.9478 12.0152C76.9478 10.4197 78.1063 9.30301 79.7039 9.30301C80.5132 9.30301 81.3601 9.59367 82.025 10.1018L82.0627 10.1311V8.65475L82.0543 8.65057C81.5796 8.36827 80.7829 8.03369 79.6913 8.03369C77.2907 8.03369 75.5488 9.71287 75.5488 12.0277C75.5488 14.3426 77.274 15.98 79.6495 15.98C80.5822 15.98 81.5713 15.7144 82.2969 15.2669L82.3094 15.2585V11.8521H79.409V13.0357L79.4132 13.0336Z" fill="black"/>
<path d="M9.2725 8.00195H9.2014H7.87144L5.13416 12.6066L2.40105 8.00195H1.1652H1V16.0047H1.1652H2.40105V10.3524L4.62183 14.2001H5.13416H5.58375H5.64648L7.87144 10.3461V16.0047H9.2014H9.2725V8.00195Z" fill="black"/>
<path d="M25.2133 8.00195H23.8123V8.00823V13.4891V13.9617L23.5446 13.5706L19.7346 8.00195H18.3377H18.2666V16.0047H19.6677V15.9984V10.5218V10.0471L19.9353 10.4381L23.7433 16.0047H25.1422H25.2133V8.00195Z" fill="black"/>
</svg>
