<svg width="55" height="34" viewBox="0 0 55 34" fill="none" xmlns="http://www.w3.org/2000/svg">
<path d="M9.8984 17.0508C9.8984 20.2842 7.8955 22.1367 5.2773 22.1367C2.63867 22.1367 0.642578 20.2705 0.642578 17.0508C0.642578 13.8174 2.63867 11.9648 5.2773 11.9648C7.8955 11.9648 9.8984 13.8174 9.8984 17.0508ZM2.73438 17.0508C2.73438 19.1631 3.7393 20.3115 5.2773 20.3184C6.8018 20.3115 7.8135 19.1631 7.8066 17.0508C7.8135 14.9316 6.8018 13.79 5.2773 13.7832C3.7393 13.79 2.73438 14.9316 2.73438 17.0508ZM17.5 12.1016H19.5645V18.5273C19.5645 20.6943 17.917 22.1436 15.4629 22.1367C13.002 22.1436 11.375 20.6943 11.375 18.5273V12.1016H13.4258V18.3633C13.4326 19.5049 14.2393 20.3252 15.4629 20.332C16.7002 20.3252 17.5068 19.5049 17.5 18.3633V12.1016ZM20.8496 13.7969V12.1016H28.957V13.7969H25.9219V22H23.8848V13.7969H20.8496ZM30.2285 22V12.1016H32.2793V20.3047H36.5449V22H30.2285ZM37.8711 22V12.1016H44.5156V13.7969H39.9219V16.2031H44.1738V17.8984H39.9219V20.3047H44.5293V22H37.8711ZM45.7324 13.7969V12.1016H53.8398V13.7969H50.8047V22H48.7676V13.7969H45.7324Z" fill="#161616"/>
</svg>
