<svg width="88" height="34" viewBox="0 0 88 34" fill="none" xmlns="http://www.w3.org/2000/svg">
<path d="M4.4801 14.0028H1V11.1802H11.1835V14.0028H7.7034V22.7857H4.4801V14.0028Z" fill="#2C3A94"/>
<path d="M13.2998 11.1802H19.1805C19.9023 11.1802 20.523 11.2658 21.0368 11.4462C21.5445 11.6267 21.9787 11.8897 22.3151 12.226C22.5414 12.4554 22.7218 12.7306 22.8533 13.0395C22.9818 13.3484 23.049 13.7031 23.049 14.1007V14.1374C23.049 14.8101 22.8839 15.3606 22.5506 15.7735C22.2172 16.1863 21.7983 16.5074 21.2876 16.7276C21.9879 16.9569 22.5445 17.2933 22.9604 17.7306C23.364 18.1649 23.5781 18.7796 23.5781 19.5625V19.59C23.5781 20.5991 23.1897 21.379 22.4313 21.9478C21.6729 22.5105 20.5995 22.7887 19.2264 22.7887H13.2998V11.1832V11.1802ZM18.4068 15.8071C18.8931 15.8071 19.2692 15.7245 19.5292 15.5594C19.7799 15.3942 19.9114 15.1404 19.9114 14.7949V14.7612C19.9114 14.4401 19.7922 14.1955 19.5475 14.0181C19.309 13.8499 18.942 13.7612 18.4649 13.7612H16.3977V15.801H18.4068V15.8071ZM18.8625 20.2016C19.3549 20.2016 19.7341 20.1129 19.9971 19.9294C20.26 19.7459 20.3793 19.486 20.3793 19.1404V19.1098C20.3793 18.7887 20.2601 18.5349 20.0154 18.3453C19.7585 18.1557 19.364 18.067 18.8258 18.067H16.3977V20.2016H18.8625Z" fill="#2C3A94"/>
<path d="M25.2539 11.1802H28.471V15.5288H32.5995V11.1802H35.8166V22.7857H32.5995V18.3789H28.471V22.7857H25.2539V11.1802Z" fill="#2C3A94"/>
<path d="M41.8444 21.1066L43.0615 19.6509C44.1746 20.6112 45.3092 21.1555 46.7282 21.1555C47.985 21.1555 48.7863 20.5592 48.7863 19.6968V19.6662C48.7863 18.8405 48.3214 18.3849 46.1685 17.8925C43.6945 17.2962 42.3 16.5714 42.3 14.4277V14.3971C42.3 12.4094 43.9636 11.0332 46.2603 11.0332C47.9575 11.0332 49.2939 11.5439 50.4682 12.4919L49.3765 14.0363C48.3306 13.2564 47.2908 12.8436 46.2297 12.8436C45.037 12.8436 44.3398 13.4552 44.3398 14.2136V14.2473C44.3398 15.1402 44.8658 15.5408 47.1104 16.0668C49.563 16.6693 50.8199 17.5439 50.8199 19.4644V19.498C50.8199 21.6693 49.1104 22.9659 46.6762 22.9659C44.9025 22.9659 43.2327 22.3512 41.8413 21.1066H41.8444Z" fill="#161616"/>
<path d="M52.8047 11.2017H54.8444V16.0212H60.3796V11.2017H62.4163V22.798H60.3796V17.9142H54.8444V22.798H52.8047V11.2017Z" fill="#161616"/>
<path d="M64.4712 17.0275V17C64.4712 13.737 66.9911 11 70.5538 11C74.1164 11 76.5996 13.7034 76.5996 16.9694V17.003C76.5996 20.266 74.0828 23 70.5201 23C66.9574 23 64.4712 20.2936 64.4712 17.0306V17.0275ZM74.462 17.0275V17C74.462 14.7431 72.8229 12.8899 70.5201 12.8899C68.2174 12.8899 66.6058 14.7095 66.6058 16.9663V17C66.6058 19.2508 68.2541 21.107 70.5538 21.107C72.8535 21.107 74.462 19.2813 74.462 17.0306V17.0275Z" fill="#161616"/>
<path d="M78.6572 11.2017H83.2291C85.9447 11.2017 87.6389 12.7368 87.6389 15.0763V15.1099C87.6389 17.7093 85.5502 19.0671 82.9967 19.0671H80.6939V22.798H78.6572V11.2017ZM83.064 17.2292C84.6022 17.2292 85.5624 16.3668 85.5624 15.1588V15.1252C85.5624 13.7674 84.5869 13.0549 83.064 13.0549H80.6939V17.2292H83.064Z" fill="#161616"/>
</svg>
