<svg width="24" height="24" viewBox="0 0 24 24" fill="none" xmlns="http://www.w3.org/2000/svg">
<path d="M17.3463 12.5722C17.3552 11.8823 17.5402 11.2058 17.884 10.6058C18.2278 10.0057 18.7192 9.50152 19.3125 9.14015C18.9356 8.60687 18.4383 8.16799 17.8603 7.85839C17.2822 7.54878 16.6392 7.37698 15.9824 7.35662C14.5813 7.21092 13.223 8.18721 12.5091 8.18721C11.7813 8.18721 10.682 7.37109 9.49827 7.39521C8.7326 7.41972 7.9864 7.6403 7.33236 8.03546C6.67832 8.43063 6.13876 8.98689 5.76625 9.65007C4.15264 12.4179 5.35625 16.4856 6.90198 18.7229C7.67535 19.8184 8.57919 21.0422 9.76186 20.9988C10.9192 20.9512 11.3514 20.2677 12.7484 20.2677C14.1324 20.2677 14.5379 20.9988 15.7446 20.9712C16.9864 20.9512 17.7688 19.8708 18.5151 18.7649C19.0707 17.9843 19.4983 17.1215 19.782 16.2086C19.0605 15.9063 18.4448 15.4003 18.0117 14.7536C17.5785 14.107 17.3471 13.3483 17.3463 12.5722Z" fill="black"/>
<path d="M15.067 5.88535C15.7441 5.08007 16.0777 4.04502 15.9969 3C14.9625 3.10764 14.0069 3.59745 13.3206 4.37183C12.9851 4.75013 12.7281 5.19025 12.5644 5.667C12.4007 6.14376 12.3334 6.64782 12.3664 7.15035C12.8838 7.15563 13.3957 7.04452 13.8635 6.8254C14.3313 6.60628 14.7428 6.28486 15.067 5.88535Z" fill="black"/>
</svg>
