<svg width="24" height="24" viewBox="0 0 24 24" fill="none" xmlns="http://www.w3.org/2000/svg">
<path d="M11.929 3C6.6601 3 2.38965 6.46621 2.38965 10.7444C2.38965 13.5255 4.19866 15.9666 6.91218 17.3317C6.71447 18.098 6.19055 20.1027 6.08675 20.534C5.95824 21.0669 6.27952 21.0618 6.48711 20.9147C6.65022 20.803 9.10177 19.0927 10.1595 18.3518C10.7328 18.4381 11.326 18.4837 11.929 18.4837C17.1978 18.4837 21.4683 15.0175 21.4683 10.7393C21.4683 6.46621 17.1978 3 11.929 3Z" fill="#391B1B"/>
<path d="M8.08868 8.46143H5.30103C5.03907 8.46143 4.82654 8.67965 4.82654 8.94862C4.82654 9.21759 5.03907 9.43581 5.30103 9.43581H6.21048V12.8664C6.21048 12.9933 6.25991 13.1151 6.34887 13.2014C6.4329 13.2877 6.55152 13.3384 6.67509 13.3384H6.77888C6.90245 13.3384 7.02107 13.2877 7.1051 13.2014C7.19407 13.11 7.24349 12.9882 7.24349 12.8664V9.43581H8.09857C8.36053 9.43581 8.57306 9.21759 8.57306 8.94862C8.56318 8.67965 8.35064 8.46143 8.08868 8.46143Z" fill="#FAE300"/>
<path d="M14.7958 12.4296H13.5008V8.92282C13.5008 8.62847 13.2685 8.39502 12.9868 8.39502C12.7001 8.39502 12.4727 8.63354 12.4727 8.92282V12.6986C12.4727 12.7291 12.4777 12.7544 12.4826 12.7849C12.4777 12.8103 12.4727 12.8407 12.4727 12.8712C12.4727 13.1148 12.6655 13.3127 12.9027 13.3127H14.8007C15.038 13.3127 15.2307 13.1148 15.2307 12.8712C15.2258 12.6276 15.033 12.4296 14.7958 12.4296Z" fill="#FAE300"/>
<path d="M18.9429 12.5869L17.4948 10.6382L18.7996 9.29836C18.9775 9.11566 18.9775 8.82132 18.7996 8.63862C18.6217 8.45592 18.335 8.45592 18.1571 8.63862L16.5409 10.2981V8.92282C16.5409 8.62847 16.3086 8.39502 16.0268 8.39502C15.7402 8.39502 15.5128 8.63354 15.5128 8.92282V12.8153C15.5128 13.1097 15.7451 13.3431 16.0268 13.3431C16.3135 13.3431 16.5409 13.1046 16.5409 12.8153V11.6125L16.8325 11.3131L18.2016 13.1553C18.3548 13.3634 18.6415 13.4091 18.8441 13.2518C19.0517 13.0944 19.0962 12.8001 18.9429 12.5869Z" fill="#FAE300"/>
<path d="M12.0824 12.714L10.6935 8.80629L10.6885 8.80121C10.5996 8.56269 10.3425 8.39014 10.0361 8.39014C9.69504 8.39014 9.41826 8.60329 9.35894 8.88241C9.34906 8.90271 9.33917 8.92301 9.33423 8.94839L7.96511 12.714C7.88109 12.9627 8.0096 13.2317 8.24684 13.318C8.48903 13.4042 8.751 13.2723 8.83502 13.0287L9.07227 12.3334H10.9752L11.2124 13.0287C11.2965 13.2774 11.5584 13.4042 11.8006 13.318C12.0428 13.2317 12.1664 12.9627 12.0824 12.714ZM9.37377 11.4504L10.0114 9.57768C10.0163 9.57768 10.0262 9.57768 10.0311 9.57768L10.6687 11.4504H9.37377Z" fill="#FAE300"/>
</svg>
