<svg width="24" height="24" viewBox="0 0 24 24" fill="none" xmlns="http://www.w3.org/2000/svg">
<path d="M7 6.51073C7 5.66953 7.66953 5 8.51073 5H12.6223C15.9099 5 17.8927 6.9485 17.8927 9.75536V9.79828C17.8927 12.9828 15.412 14.6309 12.3305 14.6309H10.03V17.4807C10.03 18.3305 9.36052 18.9914 8.51931 18.9914C7.67811 18.9914 7.00858 18.3219 7.00858 17.4807V6.51073H7ZM12.4249 11.9356C13.9356 11.9356 14.8197 11.0343 14.8197 9.84979V9.80687C14.8197 8.45064 13.8755 7.72103 12.3648 7.72103H10.0215V11.927H12.4163L12.4249 11.9356Z" fill="#E72922"/>
</svg>
