<svg width="30" height="30" viewBox="0 0 30 30" fill="none" xmlns="http://www.w3.org/2000/svg">
<path d="M24.0732 11.3263V11.469C24.037 12.8933 23.4584 14.4024 22.2734 15.5992L22.2733 15.5992C21.4039 16.4777 19.5789 18.3155 17.9482 19.9518C17.1329 20.77 16.3664 21.5375 15.7924 22.1096C15.5053 22.3956 15.2667 22.6324 15.0943 22.8021C15.0608 22.8351 15.0298 22.8655 15.0016 22.8932C14.9733 22.8655 14.9422 22.835 14.9086 22.802C14.7361 22.6323 14.4974 22.3954 14.2102 22.1093C13.636 21.5371 12.8694 20.7694 12.054 19.9511C10.4234 18.3146 8.59883 16.4768 7.73032 15.5992L7.73011 15.599C6.50187 14.3604 5.925 12.79 5.925 11.3263C5.925 10.1292 6.31069 9.01204 7.02925 8.19831C7.74358 7.38936 8.80187 6.8625 10.1907 6.8625C11.0564 6.8625 11.9429 7.16269 12.7526 7.60325C13.5605 8.04291 14.2739 8.61263 14.7879 9.12656L14.9998 9.33851L15.212 9.12674C15.7269 8.61265 16.4404 8.04289 17.2482 7.60323C18.0576 7.16267 18.9436 6.8625 19.8093 6.8625C21.199 6.8625 22.2568 7.38978 22.9704 8.19887C23.6883 9.01279 24.0732 10.13 24.0732 11.3263Z" stroke="#888888" stroke-width="0.6"/>
</svg>
