<svg width="24" height="24" viewBox="0 0 24 24" fill="none" xmlns="http://www.w3.org/2000/svg">
<path d="M19.4107 8.5625H14.3965L15.1514 4.93098L15.1753 4.6767C15.1753 4.35089 15.0402 4.04893 14.8256 3.83438L13.9833 3L8.75455 8.2367C8.46053 8.52277 8.28571 8.92009 8.28571 9.35715V17.3036C8.28571 18.1777 9.00089 18.8929 9.875 18.8929H17.0268C17.6863 18.8929 18.2505 18.4955 18.4889 17.9234L20.8888 12.3212C20.9603 12.1384 21 11.9477 21 11.7411V10.1518C21 9.27768 20.2848 8.5625 19.4107 8.5625ZM19.4107 11.7411L17.0268 17.3036H9.875V9.35715L13.3237 5.90839L12.4417 10.1518H19.4107V11.7411ZM5 9.35715H6.69642V18.8929H5V9.35715Z" fill="#FF0D0D"/>
</svg>
