<svg width="29" height="29" viewBox="0 0 29 29" fill="none" xmlns="http://www.w3.org/2000/svg">
<circle cx="14.5" cy="14.5" r="14.5" fill="black"/>
<path d="M8.96599 17.2584C10.928 17.2584 11.729 16.1874 11.729 14.4054V10.3104H10.568V14.4954C10.568 15.7194 10.028 16.3134 8.96599 16.3134C7.90399 16.3134 7.35499 15.7284 7.35499 14.5134V14.4954V10.3104H6.19399V14.4054V14.4234C6.19399 16.1964 7.00399 17.2584 8.96599 17.2584ZM18.6989 17.1504L16.9799 14.2974C17.8619 13.9914 18.3659 13.3074 18.3659 12.3984C18.3659 11.1294 17.3759 10.3104 15.8009 10.3104H13.1819V17.1504H14.3429V14.4774H15.7919L17.3579 17.1504H18.6989ZM15.8279 11.3094C16.6649 11.3094 17.1689 11.7054 17.1689 12.3984C17.1689 13.0914 16.6649 13.4874 15.8279 13.4874H14.3429V11.3094H15.8279ZM20.8106 10.3104H19.6496V17.1504H23.8616V16.1514H20.8106V10.3104Z" fill="white"/>
</svg>
