<svg width="128" height="40" viewBox="0 0 128 40" fill="none" xmlns="http://www.w3.org/2000/svg">
<path d="M5.008 26L0.048 14.8H1.328L5.968 25.344H5.264L9.936 14.8H11.136L6.176 26H5.008ZM12.7615 26V14.8H13.9455V26H12.7615ZM18.6456 19.808H24.5656V20.816H18.6456V19.808ZM18.7736 24.976H25.5096V26H17.5896V14.8H25.2696V15.824H18.7736V24.976ZM30.6805 26L26.9045 14.8H28.1205L31.6565 25.344H31.0485L34.6965 14.8H35.7845L39.3845 25.344H38.8085L42.3765 14.8H43.5125L39.7365 26H38.4885L35.0485 16H35.3685L31.9125 26H30.6805ZM48.3133 26L53.4333 14.8H54.6013L59.7213 26H58.4733L53.7693 15.488H54.2493L49.5453 26H48.3133ZM50.3293 23.008L50.6813 22.048H57.1933L57.5453 23.008H50.3293ZM61.574 26V14.8H62.758V24.976H69.03V26H61.574ZM70.9959 26V14.8H72.1799V24.976H78.4519V26H70.9959Z" fill="#161616"/>
<line x1="87" y1="25.479" x2="126.979" y2="25.479" stroke="#161616"/>
<line y1="-0.5" x2="16.9809" y2="-0.5" transform="matrix(0.707535 0.706678 -0.707535 0.706678 114.985 14)" stroke="#161616"/>
</svg>
