<svg width="24" height="24" viewBox="0 0 24 24" fill="none" xmlns="http://www.w3.org/2000/svg">
<path d="M10.612 7.636H12.64V9.784L12.268 13.084H10.984L10.612 9.784V7.636ZM11.584 14.02C11.888 14.02 12.136 14.116 12.328 14.308C12.52 14.5 12.616 14.748 12.616 15.052C12.616 15.356 12.52 15.608 12.328 15.808C12.136 16 11.888 16.096 11.584 16.096C11.288 16.096 11.044 16 10.852 15.808C10.66 15.608 10.564 15.356 10.564 15.052C10.564 14.748 10.656 14.5 10.84 14.308C11.032 14.116 11.28 14.02 11.584 14.02Z" fill="#6688FF"/>
<circle cx="12" cy="12" r="8.2" stroke="#6688FF" stroke-width="1.6"/>
</svg>
