<svg width="84" height="84" viewBox="0 0 84 84" fill="none" xmlns="http://www.w3.org/2000/svg">
<path d="M29 26C29 23.4288 29.7624 20.9154 31.1909 18.7776C32.6194 16.6398 34.6497 14.9735 37.0251 13.9896C39.4006 13.0056 42.0144 12.7482 44.5362 13.2498C47.0579 13.7514 49.3743 14.9895 51.1924 16.8076C53.0105 18.6257 54.2486 20.9421 54.7502 23.4638C55.2518 25.9856 54.9944 28.5994 54.0104 30.9749C53.0265 33.3503 51.3602 35.3806 49.2224 36.8091C47.0846 38.2376 44.5712 39 42 39C38.5538 38.9947 35.2503 37.6234 32.8135 35.1865C30.3766 32.7497 29.0053 29.4462 29 26ZM42 41C34.312 41.0106 26.9419 44.0693 21.5056 49.5056C16.0693 54.9419 13.0106 62.312 13 70C13 70.2652 13.1054 70.5196 13.2929 70.7071C13.4804 70.8946 13.7348 71 14 71H70C70.2652 71 70.5196 70.8946 70.7071 70.7071C70.8946 70.5196 71 70.2652 71 70C70.9894 62.312 67.9307 54.9419 62.4944 49.5056C57.0581 44.0693 49.688 41.0106 42 41Z" fill="#161616"/>
</svg>
