<svg width="18" height="18" viewBox="0 0 18 18" fill="none" xmlns="http://www.w3.org/2000/svg">
<path d="M7.612 4.636H9.64V6.784L9.268 10.084H7.984L7.612 6.784V4.636ZM8.584 11.02C8.888 11.02 9.136 11.116 9.328 11.308C9.52 11.5 9.616 11.748 9.616 12.052C9.616 12.356 9.52 12.608 9.328 12.808C9.136 13 8.888 13.096 8.584 13.096C8.288 13.096 8.044 13 7.852 12.808C7.66 12.608 7.564 12.356 7.564 12.052C7.564 11.748 7.656 11.5 7.84 11.308C8.032 11.116 8.28 11.02 8.584 11.02Z" fill="#6688FF"/>
<circle cx="9" cy="9" r="8.2" stroke="#6688FF" stroke-width="1.6"/>
</svg>
