<svg width="73" height="24" viewBox="0 0 73 24" fill="none" xmlns="http://www.w3.org/2000/svg">
<path d="M37.082 6.62109C37.0781 7.69922 36.9316 8.69531 36.6426 9.60938C36.3574 10.5195 35.8613 11.3691 35.1543 12.1582C34.4512 12.9473 33.5 13.6367 32.3008 14.2266L31.7852 13.5234C32.7383 13.0586 33.5234 12.5293 34.1406 11.9355C34.7578 11.3418 35.2285 10.6836 35.5527 9.96094L31.9844 10.3008L31.832 9.49219L35.834 9.22266C36.0137 8.66016 36.125 8.04688 36.168 7.38281H32.3594V6.62109H37.082ZM38.8281 5.53125H39.7422V9.77344H41.4297V10.5469H39.7422V15.9492H38.8281V5.53125ZM47.4531 6.62109C47.4492 7.69922 47.3027 8.69531 47.0137 9.60938C46.7285 10.5195 46.2324 11.3691 45.5254 12.1582C44.8223 12.9473 43.8711 13.6367 42.6719 14.2266L42.1562 13.5234C43.1094 13.0586 43.8945 12.5293 44.5117 11.9355C45.1289 11.3418 45.5996 10.6836 45.9238 9.96094L42.3555 10.3008L42.2031 9.49219L46.2051 9.22266C46.3848 8.66016 46.4961 8.04688 46.5391 7.38281H42.7305V6.62109H47.4531ZM49.1992 5.53125H50.1133V9.77344H51.8008V10.5469H50.1133V15.9492H49.1992V5.53125ZM57.168 6.21094C57.9023 6.21484 58.5586 6.33008 59.1367 6.55664C59.7148 6.7832 60.166 7.10352 60.4902 7.51758C60.8145 7.92773 60.9766 8.40234 60.9766 8.94141C60.9766 9.44922 60.834 9.90039 60.5488 10.2949C60.2676 10.6895 59.873 11.0039 59.3652 11.2383C58.8574 11.4727 58.2734 11.6113 57.6133 11.6543V13.8398H61.9609V14.6133H52.4219V13.8398H56.7109V11.6543C56.0547 11.6074 55.4727 11.4668 54.9648 11.2324C54.4609 10.998 54.0664 10.6855 53.7812 10.2949C53.5 9.90039 53.3594 9.44922 53.3594 8.94141C53.3594 8.40234 53.5215 7.92773 53.8457 7.51758C54.1738 7.10352 54.625 6.7832 55.1992 6.55664C55.7773 6.33008 56.4336 6.21484 57.168 6.21094ZM54.25 8.94141C54.25 9.33594 54.375 9.68359 54.625 9.98438C54.875 10.2812 55.2207 10.5137 55.6621 10.6816C56.1035 10.8457 56.6055 10.9297 57.168 10.9336C57.7305 10.9297 58.2324 10.8457 58.6738 10.6816C59.1152 10.5137 59.4609 10.2812 59.7109 9.98438C59.9609 9.68359 60.0859 9.33594 60.0859 8.94141C60.0859 8.55469 59.9609 8.21289 59.7109 7.91602C59.4609 7.61523 59.1133 7.38281 58.668 7.21875C58.2266 7.05469 57.7266 6.97266 57.168 6.97266C56.6094 6.97266 56.1074 7.05469 55.6621 7.21875C55.2207 7.38281 54.875 7.61523 54.625 7.91602C54.375 8.21289 54.25 8.55469 54.25 8.94141ZM72.2852 11.9062H62.7812V11.1562H67.0703V10.043H64.0469V5.8125H71.1016V6.55078H64.9727V7.54688H70.8203V8.26172H64.9727V9.32812H71.1602V10.043H67.9844V11.1562H72.2852V11.9062ZM63.8477 12.832H71.0547V15.9492H70.1172V13.582H63.8477V12.832Z" fill="#161616"/>
<path d="M11.929 3C6.6601 3 2.38965 6.46621 2.38965 10.7444C2.38965 13.5255 4.19866 15.9666 6.91218 17.3317C6.71447 18.098 6.19055 20.1027 6.08675 20.534C5.95824 21.0669 6.27952 21.0618 6.48711 20.9147C6.65022 20.803 9.10177 19.0927 10.1595 18.3518C10.7328 18.4381 11.326 18.4837 11.929 18.4837C17.1978 18.4837 21.4683 15.0175 21.4683 10.7393C21.4683 6.46621 17.1978 3 11.929 3Z" fill="#391B1B"/>
<path d="M8.08881 8.46094H5.30115C5.03919 8.46094 4.82666 8.67916 4.82666 8.94813C4.82666 9.2171 5.03919 9.43532 5.30115 9.43532H6.2106V12.8659C6.2106 12.9928 6.26003 13.1146 6.349 13.2009C6.43302 13.2872 6.55164 13.3379 6.67521 13.3379H6.77901C6.90257 13.3379 7.02119 13.2872 7.10522 13.2009C7.19419 13.1095 7.24361 12.9877 7.24361 12.8659V9.43532H8.09869C8.36065 9.43532 8.57319 9.2171 8.57319 8.94813C8.5633 8.67916 8.35077 8.46094 8.08881 8.46094Z" fill="#FAE300"/>
<path d="M14.7957 12.4292H13.5007V8.92233C13.5007 8.62798 13.2684 8.39453 12.9867 8.39453C12.7 8.39453 12.4727 8.63306 12.4727 8.92233V12.6981C12.4727 12.7286 12.4776 12.754 12.4825 12.7844C12.4776 12.8098 12.4727 12.8402 12.4727 12.8707C12.4727 13.1143 12.6654 13.3122 12.9027 13.3122H14.8007C15.0379 13.3122 15.2307 13.1143 15.2307 12.8707C15.2257 12.6271 15.033 12.4292 14.7957 12.4292Z" fill="#FAE300"/>
<path d="M18.9428 12.5865L17.4947 10.6377L18.7995 9.29787C18.9774 9.11518 18.9774 8.82083 18.7995 8.63813C18.6216 8.45543 18.3349 8.45543 18.157 8.63813L16.5407 10.2976V8.92233C16.5407 8.62798 16.3084 8.39453 16.0267 8.39453C15.7401 8.39453 15.5127 8.63305 15.5127 8.92233V12.8148C15.5127 13.1092 15.745 13.3426 16.0267 13.3426C16.3134 13.3426 16.5407 13.1041 16.5407 12.8148V11.6121L16.8324 11.3126L18.2014 13.1548C18.3547 13.3629 18.6413 13.4086 18.844 13.2513C19.0516 13.0939 19.096 12.7996 18.9428 12.5865Z" fill="#FAE300"/>
<path d="M12.0825 12.7145L10.6936 8.80677L10.6886 8.8017C10.5997 8.56317 10.3427 8.39062 10.0362 8.39062C9.69517 8.39062 9.41838 8.60377 9.35907 8.8829C9.34918 8.9032 9.33929 8.9235 9.33435 8.94887L7.96523 12.7145C7.88121 12.9632 8.00972 13.2322 8.24697 13.3184C8.48916 13.4047 8.75112 13.2728 8.83514 13.0292L9.07239 12.3339H10.9753L11.2126 13.0292C11.2966 13.2778 11.5586 13.4047 11.8007 13.3184C12.0429 13.2322 12.1665 12.9632 12.0825 12.7145ZM9.37389 11.4508L10.0115 9.57817C10.0164 9.57817 10.0263 9.57817 10.0313 9.57817L10.6689 11.4508H9.37389Z" fill="#FAE300"/>
</svg>
