<svg width="130" height="16" viewBox="0 0 130 16" fill="none" xmlns="http://www.w3.org/2000/svg">
<line x1="89" y1="13.5" x2="129" y2="13.5" stroke="#161616"/>
<line x1="117.354" y1="1.64645" x2="129.374" y2="13.6673" stroke="#161616"/>
<path d="M5.008 14L0.048 2.8H1.328L5.968 13.344H5.264L9.936 2.8H11.136L6.176 14H5.008ZM12.7615 14V2.8H13.9455V14H12.7615ZM18.6456 7.808H24.5656V8.816H18.6456V7.808ZM18.7736 12.976H25.5096V14H17.5896V2.8H25.2696V3.824H18.7736V12.976ZM30.6805 14L26.9045 2.8H28.1205L31.6565 13.344H31.0485L34.6965 2.8H35.7845L39.3845 13.344H38.8085L42.3765 2.8H43.5125L39.7365 14H38.4885L35.0485 4H35.3685L31.9125 14H30.6805ZM48.3133 14L53.4333 2.8H54.6013L59.7213 14H58.4733L53.7693 3.488H54.2493L49.5453 14H48.3133ZM50.3293 11.008L50.6813 10.048H57.1933L57.5453 11.008H50.3293ZM61.574 14V2.8H62.758V12.976H69.03V14H61.574ZM70.9959 14V2.8H72.1799V12.976H78.4519V14H70.9959Z" fill="#161616"/>
</svg>
