<svg width="48" height="48" viewBox="0 0 48 48" fill="none" xmlns="http://www.w3.org/2000/svg">
<path d="M23.929 15C18.6601 15 14.3896 18.4662 14.3896 22.7444C14.3896 25.5255 16.1987 27.9666 18.9122 29.3317C18.7145 30.098 18.1905 32.1027 18.0868 32.534C17.9582 33.0669 18.2795 33.0618 18.4871 32.9147C18.6502 32.803 21.1018 31.0927 22.1595 30.3518C22.7328 30.4381 23.326 30.4837 23.929 30.4837C29.1978 30.4837 33.4683 27.0175 33.4683 22.7393C33.4683 18.4662 29.1978 15 23.929 15Z" fill="#391B1B"/>
<path d="M20.0886 20.4609H17.3009C17.0389 20.4609 16.8264 20.6792 16.8264 20.9481C16.8264 21.2171 17.0389 21.4353 17.3009 21.4353H18.2104V24.8659C18.2104 24.9928 18.2598 25.1146 18.3488 25.2009C18.4328 25.2872 18.5514 25.3379 18.675 25.3379H18.7788C18.9023 25.3379 19.021 25.2872 19.105 25.2009C19.1939 25.1095 19.2434 24.9877 19.2434 24.8659V21.4353H20.0984C20.3604 21.4353 20.5729 21.2171 20.5729 20.9481C20.5631 20.6792 20.3505 20.4609 20.0886 20.4609Z" fill="#FAE300"/>
<path d="M26.7957 24.4292H25.5007V20.9223C25.5007 20.628 25.2684 20.3945 24.9867 20.3945C24.7 20.3945 24.4727 20.6331 24.4727 20.9223V24.6981C24.4727 24.7286 24.4776 24.754 24.4825 24.7844C24.4776 24.8098 24.4727 24.8402 24.4727 24.8707C24.4727 25.1143 24.6654 25.3122 24.9027 25.3122H26.8007C27.0379 25.3122 27.2307 25.1143 27.2307 24.8707C27.2257 24.6271 27.033 24.4292 26.7957 24.4292Z" fill="#FAE300"/>
<path d="M30.9428 24.5865L29.4947 22.6377L30.7995 21.2979C30.9774 21.1152 30.9774 20.8208 30.7995 20.6381C30.6216 20.4554 30.3349 20.4554 30.157 20.6381L28.5407 22.2976V20.9223C28.5407 20.628 28.3084 20.3945 28.0267 20.3945C27.7401 20.3945 27.5127 20.6331 27.5127 20.9223V24.8148C27.5127 25.1092 27.745 25.3426 28.0267 25.3426C28.3134 25.3426 28.5407 25.1041 28.5407 24.8148V23.6121L28.8324 23.3126L30.2014 25.1548C30.3547 25.3629 30.6413 25.4086 30.844 25.2513C31.0516 25.0939 31.096 24.7996 30.9428 24.5865Z" fill="#FAE300"/>
<path d="M24.0822 24.7145L22.6933 20.8068L22.6884 20.8017C22.5994 20.5632 22.3424 20.3906 22.036 20.3906C21.6949 20.3906 21.4181 20.6038 21.3588 20.8829C21.3489 20.9032 21.3391 20.9235 21.3341 20.9489L19.965 24.7145C19.881 24.9632 20.0095 25.2322 20.2467 25.3184C20.4889 25.4047 20.7509 25.2728 20.8349 25.0292L21.0721 24.3339H22.9751L23.2123 25.0292C23.2963 25.2778 23.5583 25.4047 23.8005 25.3184C24.0427 25.2322 24.1663 24.9632 24.0822 24.7145ZM21.3736 23.4508L22.0113 21.5782C22.0162 21.5782 22.0261 21.5782 22.031 21.5782L22.6686 23.4508H21.3736Z" fill="#FAE300"/>
<rect x="0.5" y="0.5" width="47" height="47" stroke="#ECECEC"/>
</svg>
