<svg width="65" height="24" viewBox="0 0 65 24" fill="none" xmlns="http://www.w3.org/2000/svg">
<path d="M35.2949 7.66797V13.5039C36.4258 13.4922 37.4922 13.4277 38.7402 13.1641L38.8691 13.9609C37.4805 14.2539 36.3086 14.3066 35.0371 14.3125H34.3809V7.66797H35.2949ZM37.2988 10.8086V10.0469H39.6777V6.78906H40.5566V16.4219H39.6777V10.8086H37.2988ZM41.9043 16.9492V6.53125H42.7832V16.9492H41.9043ZM52.8262 6.53125V16.9727H51.9004V6.53125H52.8262ZM44.623 10.9727C44.6289 8.75781 45.7305 7.3457 47.2832 7.33984C48.8301 7.3457 49.9492 8.75781 49.9434 10.9727C49.9492 13.1934 48.8301 14.5996 47.2832 14.5938C45.7305 14.5996 44.6289 13.1934 44.623 10.9727ZM45.5137 10.9727C45.5137 12.666 46.2402 13.7793 47.2832 13.7734C48.332 13.7793 49.0527 12.666 49.0527 10.9727C49.0527 9.2793 48.332 8.16602 47.2832 8.16016C46.2402 8.16602 45.5137 9.2793 45.5137 10.9727ZM63.2441 6.53125V16.9727H62.3301V11.1719H59.834V14.3359H55.0293V7.35156H55.9551V10.0703H58.9316V7.35156H59.834V10.4102H62.3301V6.53125H63.2441ZM55.9551 13.5742H58.9316V10.8086H55.9551V13.5742Z" fill="#161616"/>
<path d="M14.1666 5V12.064L9.28111 5H4V19H9.26497V11.944L14.1504 19H19.4235V5H14.1666Z" fill="#1EC800"/>
</svg>
