<svg width="53" height="52" viewBox="0 0 53 52" fill="none" xmlns="http://www.w3.org/2000/svg">
<circle cx="26.0698" cy="26" r="26" fill="white"/>
<path d="M31.7663 40.8983C34.089 38.4135 35.9058 35.5018 37.1157 32.325L35.8414 31.8351H35.8417C34.695 34.8477 32.9732 37.6092 30.7715 39.9658L31.7663 40.8983Z" fill="#161616"/>
<path d="M16.381 25.49C17.1903 24.0983 17.393 22.4151 16.9386 20.8591C16.7955 20.298 16.7014 19.7244 16.6568 19.1458L15.4311 19.2413C15.4809 19.8865 15.5854 20.526 15.7435 21.1523C16.111 22.3665 15.9731 23.6851 15.3638 24.7893L16.381 25.49Z" fill="#161616"/>
<path d="M26.8003 9.17648C26.0463 9.17739 25.2957 9.27328 24.5662 9.46203C22.277 10.0483 20.3171 11.5188 19.1209 13.5474C17.9245 15.5759 17.5902 17.995 18.1922 20.2697C18.8754 22.9886 18.281 25.6599 16.573 27.2708C16.2113 27.6119 15.8048 27.9026 15.3638 28.1341L16.0061 29.3373V29.337C16.559 29.0475 17.0693 28.684 17.5228 28.2564C19.5724 26.3056 20.358 23.1109 19.5245 19.9234V19.9231C19.0234 18.0062 19.3073 15.9694 20.3141 14.2604C21.3208 12.5513 22.9681 11.3097 24.8941 10.8081C26.8229 10.3098 28.8715 10.5944 30.5895 11.5989C32.3075 12.6033 33.5543 14.2455 34.0558 16.1643C36.2624 24.6131 33.8917 33.4021 27.8593 39.0986C27.2652 39.6606 26.6403 40.1892 25.9872 40.6823L26.8003 41.8039C27.4939 41.2793 28.1575 40.7164 28.7882 40.1183C35.1759 34.0824 37.6696 24.7837 35.3672 15.8517H35.3675C34.8856 13.9512 33.7825 12.2643 32.2316 11.056C30.6808 9.84766 28.7703 9.1865 26.8004 9.17679L26.8003 9.17648Z" fill="#161616"/>
<path d="M26.9161 37.8593C32.5797 32.5387 34.8042 24.3148 32.7229 16.3943V16.3946C32.1563 14.3095 30.5141 12.6788 28.4094 12.1105C26.3045 11.542 24.053 12.1214 22.4945 13.6325C20.9361 15.1436 20.3049 17.3592 20.8361 19.4533C21.7914 23.0929 20.8839 26.7728 18.4545 29.0484H18.4548C17.569 29.871 16.5147 30.495 15.3638 30.8784L15.814 32.1547V32.1544C17.1498 31.7128 18.3738 30.9921 19.4031 30.041C22.187 27.4278 23.2447 23.2415 22.1325 19.1294C21.8126 17.9171 21.9924 16.6284 22.6321 15.5471C23.2721 14.4659 24.3194 13.6804 25.5443 13.3629C26.7695 13.0464 28.0718 13.2242 29.1645 13.8573C30.2572 14.4903 31.051 15.5269 31.3718 16.739C33.3232 24.1664 31.2491 31.9041 25.913 36.8876C24.7402 37.9893 23.4309 38.9401 22.0168 39.7165L22.6992 40.8981C24.2296 40.067 25.6467 39.0458 26.9161 37.8597L26.9161 37.8593Z" fill="#161616"/>
<path d="M24.9864 36.4251C29.9769 31.6803 31.9343 24.3147 30.0871 17.1974C29.7778 16.0046 28.8565 15.0677 27.6696 14.7392C26.4831 14.4107 25.2113 14.7407 24.3337 15.6046C23.456 16.4688 23.1055 17.7358 23.4148 18.9282C24.6349 23.6179 23.4148 28.4046 20.2441 31.4249C18.8659 32.7177 17.1895 33.6491 15.3638 34.1352L15.7361 35.4662C17.7815 34.9207 19.6598 33.8757 21.2021 32.4249C24.6968 29.0663 26.0753 23.7628 24.7451 18.5836C24.607 18.0522 24.6858 17.4879 24.9636 17.0143C25.2415 16.5411 25.696 16.1976 26.2271 16.0596C26.7582 15.9214 27.3222 15.9999 27.7952 16.2782C28.2684 16.5562 28.6118 17.011 28.7497 17.5424C30.4729 24.177 28.6669 31.0251 24.0349 35.4255H24.0352C22.5612 36.8242 20.8441 37.9413 18.969 38.722L19.4998 39.9912H19.4995C21.5307 39.1473 23.3903 37.9388 24.9863 36.4256L24.9864 36.4251Z" fill="#161616"/>
<path d="M17.1763 36.0306L17.647 37.272L17.6473 37.2723C19.679 36.5863 21.5375 35.5019 23.1031 34.0892C27.3889 30.2061 29.0574 24.144 27.451 18.2397L26.101 18.5896C27.5757 24.0113 26.0596 29.5854 22.1406 33.1183C20.7175 34.4093 19.0262 35.4014 17.1763 36.0306Z" fill="#161616"/>
</svg>
