<svg width="34" height="34" viewBox="0 0 34 34" fill="none" xmlns="http://www.w3.org/2000/svg">
<g id="icon">
<g id="Group 35651">
<path id="Polygon 4" d="M21.25 11.0047L10 16.4999L21.25 21.9951" stroke="#161616"/>
<path id="Ellipse 530" d="M23.7857 11.1715C23.7857 12.7731 22.4873 14.0715 20.8857 14.0715C19.2841 14.0715 17.9857 12.7731 17.9857 11.1715C17.9857 9.56986 19.2841 8.27148 20.8857 8.27148C22.4873 8.27148 23.7857 9.56986 23.7857 11.1715Z" fill="white" stroke="#161616"/>
<path id="Ellipse 531" d="M23.7857 22.8287C23.7857 24.4303 22.4873 25.7287 20.8857 25.7287C19.2841 25.7287 17.9857 24.4303 17.9857 22.8287C17.9857 21.2271 19.2841 19.9287 20.8857 19.9287C22.4873 19.9287 23.7857 21.2271 23.7857 22.8287Z" fill="white" stroke="#161616"/>
<path id="Ellipse 532" d="M14.0715 17.0001C14.0715 18.6017 12.7731 19.9001 11.1715 19.9001C9.56986 19.9001 8.27148 18.6017 8.27148 17.0001C8.27148 15.3985 9.56986 14.1001 11.1715 14.1001C12.7731 14.1001 14.0715 15.3985 14.0715 17.0001Z" fill="white" stroke="#161616"/>
</g>
</g>
</svg>
