<svg width="48" height="48" viewBox="0 0 48 48" fill="none" xmlns="http://www.w3.org/2000/svg">
<path d="M19 18.5107C19 17.6695 19.6695 17 20.5107 17H24.6223C27.9099 17 29.8927 18.9485 29.8927 21.7554V21.7983C29.8927 24.9828 27.412 26.6309 24.3305 26.6309H22.03V29.4807C22.03 30.3305 21.3605 30.9914 20.5193 30.9914C19.6781 30.9914 19.0086 30.3219 19.0086 29.4807V18.5107H19ZM24.4249 23.9356C25.9356 23.9356 26.8197 23.0343 26.8197 21.8498V21.8069C26.8197 20.4506 25.8755 19.721 24.3648 19.721H22.0215V23.927H24.4163L24.4249 23.9356Z" fill="#E72922"/>
<rect x="0.5" y="0.5" width="47" height="47" stroke="#ECECEC"/>
</svg>
