<svg width="24" height="24" viewBox="0 0 24 24" fill="none" xmlns="http://www.w3.org/2000/svg">
<path fill-rule="evenodd" clip-rule="evenodd" d="M15.8299 3.5H18.1746V6.31142H15.8299V3.5ZM5.82653 3.5H8.17057V6.31142H5.8264V3.5H5.82653ZM3.37831 5.2041C3.16955 5.20436 3.0005 5.37248 3.00023 5.5801V9.03421H20.9998L21 5.5801C20.9998 5.37262 20.8308 5.20436 20.6222 5.2041H18.7744V6.48563C18.7738 6.71891 18.5838 6.90793 18.3492 6.90807H15.6547C15.4201 6.90794 15.2298 6.71891 15.2294 6.48549V5.2041H8.77064V6.48563C8.77038 6.71891 8.58031 6.90793 8.34587 6.90807H5.651C5.41655 6.90781 5.22649 6.71878 5.22622 6.48549V5.2041H3.37831ZM16.35 9.63099V12.8553H12.2999V9.63099H16.35ZM11.7 12.8553H7.64994V9.63099H11.7V12.8553ZM7.0501 12.8553H3V9.63099H7.0501V12.8553ZM7.0501 13.4521V16.6782H3V13.4531L7.0501 13.4521ZM7.65014 13.4521H11.6999V16.6782H7.64981V13.4531L7.65014 13.4521ZM11.6999 17.2748V20.4999H7.64981V17.2748H11.6999ZM12.3 17.2748H16.3497V20.4999H12.2996V17.2748H12.3ZM12.3 16.678L12.2998 13.4529H16.3499V16.678H12.3ZM16.9499 13.4529H21V16.678H16.9499V13.4529ZM16.9499 12.8562V9.63083H21V12.8551L16.9499 12.8562ZM3.00007 20.1241V17.2749H7.05017V20.5H3.37837C3.16962 20.4999 3.00056 20.3316 3.0003 20.1241H3.00007ZM20.622 20.5H16.9499V17.2749H21V20.1241C20.9999 20.3316 20.8308 20.4999 20.6222 20.5H20.622Z" fill="#161616"/>
</svg>
