<svg width="66" height="24" viewBox="0 0 66 24" fill="none" xmlns="http://www.w3.org/2000/svg">
<path d="M43.8301 16.9492H42.9395V6.53125H43.8301V16.9492ZM34.748 13.5859C35.2129 13.5859 35.5801 13.584 35.8496 13.5801V8.62891H34.9707V7.86719H39.7637V8.62891H38.8848V13.457C39.373 13.4141 39.7441 13.375 39.998 13.3398L40.0566 14.0195C39.3496 14.1523 38.5547 14.2441 37.6719 14.2949C36.7891 14.3457 35.918 14.3711 35.0586 14.3711H34.8652L34.748 13.5859ZM36.6934 13.5625C37.1504 13.5508 37.5957 13.5332 38.0293 13.5098V8.62891H36.6934V13.5625ZM39.459 10.4922H40.9121V6.78906H41.791V16.3984H40.9121V11.3242H39.459V10.4922ZM53.8262 16.9727H52.9004V6.53125H53.8262V16.9727ZM45.623 10.9727C45.623 10.2461 45.7363 9.60938 45.9629 9.0625C46.1895 8.51172 46.5039 8.08789 46.9062 7.79102C47.3086 7.49023 47.7676 7.33984 48.2832 7.33984C48.7988 7.33984 49.2578 7.49023 49.6602 7.79102C50.0625 8.08789 50.377 8.51172 50.6035 9.0625C50.8301 9.60938 50.9434 10.2461 50.9434 10.9727C50.9434 11.6992 50.8301 12.3379 50.6035 12.8887C50.377 13.4355 50.0625 13.8574 49.6602 14.1543C49.2578 14.4473 48.7988 14.5938 48.2832 14.5938C47.7676 14.5938 47.3086 14.4473 46.9062 14.1543C46.5039 13.8574 46.1895 13.4355 45.9629 12.8887C45.7363 12.3379 45.623 11.6992 45.623 10.9727ZM46.5137 10.9727C46.5137 11.5312 46.5879 12.0234 46.7363 12.4492C46.8848 12.8711 47.0938 13.1973 47.3633 13.4277C47.6328 13.6582 47.9395 13.7734 48.2832 13.7734C48.6309 13.7734 48.9375 13.6582 49.2031 13.4277C49.4727 13.1973 49.6816 12.8711 49.8301 12.4492C49.9785 12.0234 50.0527 11.5312 50.0527 10.9727C50.0527 10.4141 49.9785 9.92383 49.8301 9.50195C49.6816 9.07617 49.4727 8.74609 49.2031 8.51172C48.9375 8.27734 48.6309 8.16016 48.2832 8.16016C47.9395 8.16016 47.6328 8.27734 47.3633 8.51172C47.0938 8.74609 46.8848 9.07617 46.7363 9.50195C46.5879 9.92773 46.5137 10.418 46.5137 10.9727ZM63.9395 8.55859V8.76367C63.9355 9.31836 63.9238 9.80078 63.9043 10.2109C63.8887 10.6211 63.8496 11.0957 63.7871 11.6348C63.7246 12.1738 63.6309 12.7539 63.5059 13.375L62.6035 13.2695C62.7793 12.4414 62.9004 11.6074 62.9668 10.7676L56.6035 11.1484L56.4512 10.3398L63.0078 10.0703C63.0273 9.60938 63.0371 9.10547 63.0371 8.55859V8.3125H56.7559V7.55078H63.9395V8.55859ZM55.6074 14.7461H59.334V12.0508H60.2363V14.7461H65.0996V15.5312H55.6074V14.7461Z" fill="#161616"/>
<path d="M7 6.51073C7 5.66953 7.66953 5 8.51073 5H12.6223C15.9099 5 17.8927 6.9485 17.8927 9.75536V9.79828C17.8927 12.9828 15.412 14.6309 12.3305 14.6309H10.03V17.4807C10.03 18.3305 9.36052 18.9914 8.51931 18.9914C7.67811 18.9914 7.00858 18.3219 7.00858 17.4807V6.51073H7ZM12.4249 11.9356C13.9356 11.9356 14.8197 11.0343 14.8197 9.84979V9.80687C14.8197 8.45064 13.8755 7.72103 12.3648 7.72103H10.0215V11.927H12.4163L12.4249 11.9356Z" fill="#E72922"/>
</svg>
