<svg width="84" height="84" viewBox="0 0 84 84" fill="none" xmlns="http://www.w3.org/2000/svg">
<path d="M73.4533 22.5196H46.3991L54.694 19.661C56.0513 19.1923 57.122 18.0928 57.5585 16.7188C57.965 15.4385 57.7614 14.0966 57.0001 13.0387C56.8581 12.8405 56.6994 12.653 56.5227 12.4762C54.7556 10.7111 51.881 10.7111 50.1152 12.4762L43.2873 19.3041V11.3713C43.2873 10.6134 42.6733 10 41.9159 10C41.1586 10 40.5446 10.6134 40.5446 11.3713V19.3028L33.718 12.4762C31.9509 10.7111 29.0763 10.7111 27.3105 12.4762C27.1338 12.653 26.9751 12.8405 26.8331 13.0373C26.0718 14.0966 25.8682 15.4385 26.2747 16.7188C26.7113 18.0928 27.782 19.1923 29.1399 19.661L37.434 22.5196H10.3713C9.61712 22.5196 9 23.1366 9 23.8909V30.3228C9 31.0801 9.61403 31.6941 10.3713 31.6941H73.4533C74.2107 31.6941 74.8247 31.0801 74.8247 30.3228V23.8909C74.8247 23.1366 74.2075 22.5196 73.4533 22.5196ZM52.0544 14.4154C52.4033 14.0672 52.8613 13.8931 53.3193 13.8931C53.7773 13.8931 54.2346 14.0672 54.5835 14.4154C54.6531 14.485 54.7167 14.56 54.773 14.639C55.1158 15.1158 55.0274 15.6273 54.9444 15.8885C54.7716 16.4322 54.3331 16.8849 53.8001 17.0683L47.0893 19.3811L52.0544 14.4154ZM30.0338 17.0683C29.5002 16.8849 29.0616 16.4322 28.8888 15.8885C28.8058 15.6273 28.7174 15.1158 29.0602 14.6377C29.1165 14.56 29.1801 14.485 29.2497 14.4154C29.5986 14.0672 30.0566 13.8931 30.5146 13.8931C30.9726 13.8931 31.4299 14.0672 31.7788 14.4154L36.7439 19.3811L30.0338 17.0683Z" fill="#161616"/>
<path d="M14.4854 55.3254L33.1599 74H49.4167L14.4854 39.0692V55.3254Z" fill="#161616"/>
<path d="M14.4854 34.4368V35.1911L53.2945 74H67.9679C68.4068 74 68.777 73.7807 69.0238 73.4653L29.9953 34.4368H14.4854Z" fill="#161616"/>
<path d="M14.4854 72.6286C14.4854 73.3829 15.1025 74 15.8567 74H29.2816L14.4854 59.2037V72.6286Z" fill="#161616"/>
<path d="M33.8625 34.4368L69.3393 69.9134V53.6494L50.1267 34.4368H33.8625Z" fill="#161616"/>
<path d="M69.3393 49.7684V34.4368H54.0076L69.3393 49.7684Z" fill="#161616"/>
</svg>
