<svg width="62" height="62" viewBox="0 0 62 62" fill="none" xmlns="http://www.w3.org/2000/svg">
<rect x="1" y="2" width="58" height="58" rx="20" fill="#161616"/>
<path d="M13.754 30V18.8H15.834V28.24H21.69V30H13.754ZM23.3321 30V18.8H25.4121V30H23.3321ZM36.5234 18.8H38.6034L33.7234 30H31.6754L26.7794 18.8H29.0354L32.7634 27.44L36.5234 18.8ZM41.8653 28.256H48.1853V30H39.7853V18.8H47.9613V20.544H41.8653V23.456H47.2733V25.168H41.8653V28.256Z" fill="white"/>
<path d="M18.3141 46.16C14.8421 46.16 12.2821 43.712 12.2821 40.4C12.2821 37.088 14.8421 34.64 18.3141 34.64C21.7861 34.64 24.3461 37.072 24.3461 40.4C24.3461 43.728 21.7861 46.16 18.3141 46.16ZM18.3141 44.336C20.5701 44.336 22.2501 42.688 22.2501 40.4C22.2501 38.112 20.5701 36.464 18.3141 36.464C16.0581 36.464 14.3781 38.112 14.3781 40.4C14.3781 42.688 16.0581 44.336 18.3141 44.336ZM34.4389 34.8H36.5029V46H34.7909L28.6149 38.416V46H26.5509V34.8H28.2629L34.4389 42.384V34.8Z" fill="white"/>
<circle cx="55" cy="7" r="6" fill="#F20042"/>
</svg>
