<svg width="84" height="84" viewBox="0 0 84 84" fill="none" xmlns="http://www.w3.org/2000/svg">
<path d="M22.233 30.8088H34.92H35.0838L36.9418 19.5401H29.3648L22.233 30.8088ZM30.9043 78.1271C32.0471 78.4541 33.16 78.7314 34.3275 78.9631L34.9684 75.6387C33.9071 75.4328 32.8848 75.1741 31.8451 74.8761L30.9043 78.1271ZM4.44516 47.8108C4.61312 48.9634 4.86146 50.1502 5.14999 51.2801L8.41655 50.443C8.15172 49.4208 7.92708 48.3281 7.77561 47.2831L4.44516 47.8108ZM9.17085 61.0869C9.76439 62.104 10.4105 63.0911 11.0988 64.0461L13.8275 62.0595C13.1989 61.179 12.6136 60.2881 12.0664 59.3538L9.17085 61.0869ZM18.4244 71.681C19.3425 72.3908 20.3173 73.1161 21.3025 73.7287L23.1078 70.8698C22.3041 70.2428 21.3375 69.6613 20.4884 69.0043L18.4244 71.681ZM52.0957 5.87288C50.9519 5.54592 49.839 5.26862 48.6725 5.03685L48.0305 8.3613C49.0929 8.56721 50.1152 8.82588 51.1539 9.12387L52.0957 5.87288ZM78.5548 36.1892C78.3869 35.0366 78.1375 33.8498 77.85 32.7199L74.5834 33.557C74.8483 34.5792 75.0719 35.6719 75.2244 36.7169L78.5548 36.1892ZM73.8291 22.9131C73.2346 21.896 72.5895 20.9089 71.9012 19.9539L69.1725 21.9405C69.8011 22.821 70.3864 23.7119 70.9325 24.6462L73.8291 22.9131ZM64.5756 12.319C63.6575 11.6092 62.6827 10.8839 61.6975 10.2713L59.8922 13.1302C60.6949 13.7572 61.6625 14.3387 62.5116 14.9957L64.5756 12.319ZM45.1319 84L39.1171 77.9605L45.1319 71.9211L47.5143 74.3143L45.8418 75.9936C53.5311 75.0148 60.4218 71.4648 65.6329 66.2324C71.8074 60.0315 75.6273 51.4643 75.6273 42H79C79 52.3965 74.8019 61.8112 68.0153 68.6246C62.0871 74.5781 54.1803 78.5472 45.3709 79.4546L47.5143 81.6078L45.1319 84ZM35.4857 9.6857L37.1561 8.00847C29.4689 8.98832 22.5771 12.5363 17.3671 17.7676C11.1926 23.9685 7.37167 32.5368 7.37167 42H4C4 31.6045 8.19913 22.1889 14.9837 15.3754C20.9129 9.42186 28.8207 5.4528 37.6291 4.54538L35.4857 2.3922L37.8681 0L43.8829 6.03947L37.8681 12.0789L35.4857 9.6857ZM45.9603 64.461V56.0148L41.4964 57.8297L37.0376 56.0148V64.461H45.9603ZM34.92 64.461V52.8621L41.4985 55.5399L48.079 52.8621V64.461H61.6326V32.9351H48.2634H48.079V44.5339L41.4985 41.8572L34.92 44.5339V32.9351H34.7335H21.3674V64.461H34.92ZM37.2241 30.8088H41.4985H45.7749L43.918 19.5401H39.08L37.2241 30.8088ZM47.9141 30.8088H48.079H60.765L53.6321 19.5401H46.0551L47.9141 30.8088ZM37.0376 32.9351V41.3813L41.4964 39.5643L45.9603 41.3813V32.9351H41.4985H37.0376Z" fill="#161616"/>
</svg>
