<svg width="62" height="24" viewBox="0 0 62 24" fill="none" xmlns="http://www.w3.org/2000/svg">
<path d="M43.918 8.41016C44.3672 8.41016 44.7598 8.55859 45.0957 8.85547C45.4355 9.15234 45.6992 9.57422 45.8867 10.1211C46.0742 10.6641 46.168 11.3008 46.168 12.0312C46.168 12.7617 46.0742 13.4004 45.8867 13.9473C45.6992 14.4941 45.4355 14.916 45.0957 15.2129C44.7598 15.5059 44.3672 15.6523 43.918 15.6523C43.4688 15.6523 43.0762 15.5059 42.7402 15.2129C42.4043 14.916 42.1426 14.4941 41.9551 13.9473C41.7715 13.4004 41.6797 12.7617 41.6797 12.0312C41.6797 11.3008 41.7715 10.6641 41.9551 10.1211C42.1426 9.57422 42.4043 9.15234 42.7402 8.85547C43.0762 8.55859 43.4688 8.41016 43.918 8.41016ZM42.5469 12.0312C42.543 12.5898 42.5957 13.0762 42.7051 13.4902C42.8184 13.9043 42.9785 14.2227 43.1855 14.4453C43.3965 14.668 43.6406 14.7773 43.918 14.7734C44.1953 14.7773 44.4375 14.6699 44.6445 14.4512C44.8555 14.2285 45.0176 13.9121 45.1309 13.502C45.2441 13.0918 45.3008 12.6113 45.3008 12.0605C45.3008 11.4941 45.2441 11.002 45.1309 10.584C45.0215 10.166 44.8613 9.84375 44.6504 9.61719C44.4434 9.39062 44.1992 9.27734 43.918 9.27734C43.6367 9.27734 43.3926 9.39062 43.1855 9.61719C42.9785 9.83984 42.8184 10.1582 42.7051 10.5723C42.5957 10.9863 42.543 11.4727 42.5469 12.0312ZM47.2578 7.75391H48.1367V11.668H49.5898V7.53125H50.4805V17.9492H49.5898V12.4297H48.1367V17.4219H47.2578V7.75391ZM60.5117 8.58594H58.9062V10.6016H60.4766V11.3164H52.8477V10.6016H54.418V8.58594H52.8125V7.85938H60.5117V8.58594ZM51.9219 12.1953H61.4141V12.9336H51.9219V12.1953ZM53.0703 13.8711H60.1953V16.1328H54.0078V17.1289H60.5117V17.832H53.0938V15.4648H59.293V14.5625H53.0703V13.8711ZM57.9922 10.6016V8.58594H55.332V10.6016H57.9922Z" fill="#161616"/>
<path d="M17.3463 12.5742C17.3552 11.8843 17.5402 11.2078 17.884 10.6077C18.2278 10.0076 18.7192 9.50347 19.3125 9.14211C18.9356 8.60882 18.4383 8.16994 17.8603 7.86034C17.2822 7.55074 16.6392 7.37893 15.9824 7.35857C14.5813 7.21287 13.223 8.18917 12.5091 8.18917C11.7813 8.18917 10.682 7.37304 9.49827 7.39717C8.7326 7.42167 7.9864 7.64225 7.33236 8.03742C6.67832 8.43258 6.13876 8.98885 5.76625 9.65202C4.15264 12.4198 5.35625 16.4875 6.90198 18.7248C7.67535 19.8204 8.57919 21.0441 9.76186 21.0007C10.9192 20.9532 11.3514 20.2696 12.7484 20.2696C14.1324 20.2696 14.5379 21.0007 15.7446 20.9731C16.9864 20.9532 17.7688 19.8727 18.5151 18.7668C19.0707 17.9862 19.4983 17.1235 19.782 16.2106C19.0605 15.9082 18.4448 15.4022 18.0117 14.7556C17.5785 14.1089 17.3471 13.3503 17.3463 12.5742Z" fill="black"/>
<path d="M15.0672 5.88535C15.7443 5.08007 16.0779 4.04502 15.9971 3C14.9626 3.10764 14.0071 3.59745 13.3208 4.37183C12.9853 4.75013 12.7283 5.19025 12.5646 5.667C12.4008 6.14376 12.3336 6.64782 12.3666 7.15035C12.884 7.15563 13.3959 7.04452 13.8637 6.8254C14.3314 6.60628 14.743 6.28486 15.0672 5.88535V5.88535Z" fill="black"/>
</svg>
