<svg width="14" height="14" viewBox="0 0 14 14" fill="none" xmlns="http://www.w3.org/2000/svg">
<path d="M8.97388 10.2026V10.5315C8.97388 11.3732 8.23059 12.0556 7.31369 12.0556C6.3968 12.0556 5.6535 11.3732 5.6535 10.5315L5.6535 10.2026" stroke="white"/>
<path d="M10.3539 8.78737L10.3639 8.80574L10.3753 8.82322L10.9525 9.70276H3.2591L3.83595 8.82307L3.84736 8.80566L3.85729 8.78736C3.91979 8.6722 3.95345 8.54272 3.95345 8.40973V5.16352C3.95345 3.48255 5.28877 2.05566 7.10602 2.05566C8.92311 2.05566 10.2577 3.48239 10.2577 5.16352V8.40973C10.2577 8.54271 10.2914 8.6722 10.3539 8.78737Z" stroke="white"/>
</svg>
