<svg width="84" height="84" viewBox="0 0 84 84" fill="none" xmlns="http://www.w3.org/2000/svg">
<path d="M4 10V48.1276H42.0712V10H31.1937V20.8936C31.1924 23.1363 28.6362 24.4161 26.8438 23.0717L23.0356 20.2128L19.2274 23.0717C17.435 24.4161 14.879 23.1361 14.8775 20.8936V10H4ZM17.5969 10V20.8936L23.0356 16.8085L28.4744 20.8936V10H17.5969ZM46.1503 27.7021C45.7897 27.7021 45.4439 27.8456 45.1889 28.101C44.9339 28.3564 44.7906 28.7027 44.7906 29.0638V50.851H5.35969C4.99909 50.8511 4.65327 50.9945 4.39829 51.2498C4.14331 51.5052 4.00004 51.8516 4 52.2128V65.8298C4.00004 66.191 4.14331 66.5373 4.39829 66.7926C4.65327 67.048 4.99909 67.1914 5.35969 67.1914H8.17466C8.11804 66.7442 8.07906 66.2916 8.07906 65.8298C8.07906 59.8457 12.9813 54.9362 18.9566 54.9362C24.9318 54.9362 29.8341 59.8457 29.8341 65.8298C29.8341 66.2915 29.795 66.7442 29.7385 67.1914H54.404C54.3474 66.7442 54.3085 66.2916 54.3085 65.8298C54.3085 59.8457 59.2107 54.9362 65.186 54.9362C71.1612 54.9362 76.0634 59.8457 76.0634 65.8298C76.0634 66.2915 76.0244 66.7442 75.9679 67.1914H78.7828C79.1434 67.1914 79.4892 67.048 79.7442 66.7926C79.9992 66.5373 80.1425 66.191 80.1425 65.8298V49.4893C80.1425 49.2651 80.0872 49.0444 79.9816 48.8468C79.876 48.6491 79.7233 48.4808 79.537 48.3564L71.6577 43.0957L63.659 28.4121C63.5421 28.1975 63.3698 28.0183 63.16 27.8934C62.9502 27.7684 62.7107 27.7024 62.4666 27.7021H46.1503ZM50.2294 33.149H60.0419L65.9773 44.0424H50.2294V33.149ZM27.1147 37.234H37.9922C39.8309 37.2082 39.8309 39.9835 37.9922 39.9574H27.1147C25.276 39.9831 25.276 37.2079 27.1147 37.234ZM27.1147 42.6809H32.5534C34.3922 42.6551 34.3922 45.4303 32.5534 45.4043H27.1147C25.276 45.43 25.276 42.6548 27.1147 42.6809ZM18.9566 57.6595C16.7929 57.6595 14.7178 58.5203 13.1879 60.0525C11.6579 61.5847 10.7984 63.663 10.7984 65.8298C10.7984 67.9967 11.6579 70.0748 13.1879 71.607C14.7178 73.1392 16.7929 74 18.9566 74C21.1202 74 23.1953 73.1392 24.7252 71.607C26.2552 70.0748 27.1147 67.9967 27.1147 65.8298C27.1147 63.663 26.2552 61.5847 24.7252 60.0525C23.1953 58.5203 21.1202 57.6595 18.9566 57.6595ZM65.1859 57.6595C63.0223 57.6595 60.9472 58.5203 59.4173 60.0525C57.8873 61.5847 57.0278 63.663 57.0278 65.8298C57.0278 67.9967 57.8873 70.0748 59.4173 71.607C60.9472 73.1392 63.0223 74 65.1859 74C67.3496 74 69.4246 73.1392 70.9546 71.607C72.4845 70.0748 73.344 67.9967 73.344 65.8298C73.344 63.663 72.4845 61.5847 70.9546 60.0525C69.4246 58.5203 67.3496 57.6595 65.1859 57.6595ZM18.9566 63.1064C20.4423 63.1064 21.6759 64.3418 21.6759 65.8298C21.6759 67.3178 20.4423 68.5531 18.9566 68.5531C17.4708 68.5531 16.2372 67.3178 16.2372 65.8298C16.2372 64.3418 17.4708 63.1064 18.9566 63.1064ZM65.1859 63.1064C66.6717 63.1064 67.9053 64.3418 67.9053 65.8298C67.9053 67.3178 66.6717 68.5531 65.1859 68.5531C63.7002 68.5531 62.4665 67.3178 62.4665 65.8298C62.4665 64.3418 63.7002 63.1064 65.1859 63.1064Z" fill="#161616"/>
</svg>
