<svg width="48" height="48" viewBox="0 0 48 48" fill="none" xmlns="http://www.w3.org/2000/svg">
<path d="M29.3463 22.5742C29.3552 21.8843 29.5402 21.2078 29.884 20.6077C30.2278 20.0076 30.7192 19.5035 31.3125 19.1421C30.9356 18.6088 30.4383 18.1699 29.8603 17.8603C29.2822 17.5507 28.6392 17.3789 27.9824 17.3586C26.5813 17.2129 25.223 18.1892 24.5091 18.1892C23.7813 18.1892 22.682 17.373 21.4983 17.3972C20.7326 17.4217 19.9864 17.6423 19.3324 18.0374C18.6783 18.4326 18.1388 18.9888 17.7662 19.652C16.1526 22.4198 17.3562 26.4875 18.902 28.7248C19.6754 29.8204 20.5792 31.0441 21.7619 31.0007C22.9192 30.9532 23.3514 30.2696 24.7484 30.2696C26.1324 30.2696 26.5379 31.0007 27.7446 30.9731C28.9864 30.9532 29.7688 29.8727 30.5151 28.7668C31.0707 27.9862 31.4983 27.1235 31.782 26.2106C31.0605 25.9082 30.4448 25.4022 30.0117 24.7556C29.5785 24.1089 29.3471 23.3503 29.3463 22.5742Z" fill="black"/>
<path d="M27.0669 15.8853C27.7441 15.0801 28.0776 14.045 27.9969 13C26.9624 13.1076 26.0068 13.5974 25.3206 14.3718C24.9851 14.7501 24.7281 15.1902 24.5643 15.667C24.4006 16.1438 24.3333 16.6478 24.3663 17.1504C24.8837 17.1556 25.3956 17.0445 25.8634 16.8254C26.3312 16.6063 26.7427 16.2849 27.0669 15.8853V15.8853Z" fill="black"/>
<rect x="0.5" y="0.5" width="47" height="47" stroke="#ECECEC"/>
</svg>
