<svg width="30" height="30" viewBox="0 0 30 30" fill="none" xmlns="http://www.w3.org/2000/svg">
<path d="M23.3391 7.57151C22.8406 7.07304 22.2488 6.67768 21.5975 6.40804C20.9461 6.13839 20.248 5.99974 19.5431 6C18.8381 6.00027 18.1402 6.13944 17.489 6.40958C16.8379 6.67972 16.2464 7.07552 15.7483 7.57436L15.0981 8.23247L14.4533 7.57578L14.4491 7.57159C13.9509 7.07336 13.3594 6.67813 12.7084 6.40849C12.0575 6.13885 11.3598 6.00006 10.6551 6.00006C9.95054 6.00006 9.25283 6.13885 8.60185 6.40849C7.95088 6.67813 7.35939 7.07336 6.86116 7.57159L6.57151 7.86125C5.56529 8.86747 5 10.2322 5 11.6552C5 13.0782 5.56529 14.443 6.57151 15.4492L14.2162 23.0938L15.0795 23.9983L15.1001 23.9777L15.1224 24L15.9313 23.1466L23.6287 15.449C24.6334 14.442 25.1977 13.0776 25.1977 11.6551C25.1977 10.2326 24.6334 8.86814 23.6287 7.86112L23.3391 7.57151ZM22.68 14.5006L15.1001 22.0807L7.51994 14.5006C6.76528 13.7459 6.34132 12.7224 6.34132 11.6551C6.34132 10.5878 6.76528 9.5643 7.51994 8.80964L7.80964 8.51998C8.56393 7.76569 9.58686 7.34176 10.6536 7.34136C11.7203 7.34096 12.7436 7.76412 13.4984 8.51785L15.0952 10.1437L16.6996 8.51998C17.0733 8.14631 17.5169 7.84989 18.0051 7.64766C18.4933 7.44543 19.0166 7.34134 19.5451 7.34134C20.0735 7.34134 20.5968 7.44543 21.085 7.64766C21.5733 7.84989 22.0169 8.14631 22.3906 8.51998L22.6802 8.80959C23.4337 9.56488 23.8569 10.5882 23.8569 11.6551C23.8568 12.722 23.4336 13.7453 22.68 14.5006Z" fill="#ffffff"/>
</svg>
