<svg width="73" height="24" viewBox="0 0 73 24" fill="none" xmlns="http://www.w3.org/2000/svg">
<path d="M4.06659 18.2439L0.606905 0.5H72.3931L68.9334 18.2439C68.3382 21.2967 65.6638 23.5 62.5535 23.5H10.4465C7.33622 23.5 4.66182 21.2967 4.06659 18.2439Z" stroke="#ECECEC"/>
<path d="M26.7305 8.30078H22.875V13.6094H23.0977C24.0195 13.6094 24.8047 13.5859 25.4531 13.5391C26.1055 13.4883 26.7656 13.3984 27.4336 13.2695L27.5508 14.0312C26.8125 14.1719 26.0879 14.2676 25.377 14.3184C24.6699 14.3691 23.793 14.3945 22.7461 14.3945H21.9492V7.52734H26.7305V8.30078ZM26.1094 10.3281H29.1445V6.53125H30.0703V16.9727H29.1445V11.0898H26.1094V10.3281ZM41.332 15.6133H31.793V14.8516H36.082V12.6016H32.918V7.26953H33.8438V9.15625H39.2578V7.26953H40.1602V12.6016H36.9844V14.8516H41.332V15.6133ZM39.2578 11.8516V9.90625H33.8438V11.8516H39.2578ZM50.7773 16.9492H49.8516V6.53125H50.7773V16.9492ZM42.293 14.2422C43.6836 13.582 44.748 12.7617 45.4863 11.7812C46.2285 10.8008 46.6523 9.67969 46.7578 8.41797H42.7734V7.66797H47.6953C47.6875 9.23828 47.2891 10.6504 46.5 11.9043C45.7109 13.1582 44.4766 14.1875 42.7969 14.9922L42.293 14.2422Z" fill="#888888"/>
</svg>
