<svg width="15" height="14" viewBox="0 0 15 14" fill="none" xmlns="http://www.w3.org/2000/svg">
<path d="M14.4985 4.06107V4.1719C14.4704 5.24553 14.0335 6.38795 13.1339 7.29641L13.1339 7.29651C12.4386 7.99904 10.9788 9.46903 9.67443 10.7779C9.02223 11.4324 8.40929 12.0462 7.95039 12.5035C7.77606 12.6772 7.62429 12.828 7.50121 12.9497C7.37804 12.828 7.22615 12.6771 7.05168 12.5032C6.59262 12.0459 5.9796 11.4319 5.32741 10.7774C4.02309 9.46834 2.56363 7.99834 1.86906 7.29651L1.86871 7.29616C0.935324 6.35485 0.5 5.16477 0.5 4.06107C0.5 3.15749 0.79115 2.32771 1.31829 1.73075C1.83839 1.14176 2.61296 0.75 3.65258 0.75C4.28736 0.75 4.95317 0.971103 5.57777 1.31098C6.1996 1.64934 6.75064 2.08929 7.14645 2.4851L7.4997 2.83835L7.85325 2.4854C8.25 2.08933 8.80117 1.64931 9.42282 1.31095C10.0473 0.971079 10.7127 0.75 11.3474 0.75C12.3877 0.75 13.1618 1.14205 13.6813 1.73108C14.208 2.32816 14.4985 3.158 14.4985 4.06107Z" stroke="#888888"/>
</svg>
