<svg version="1.1" id="레이어_1" xmlns="http://www.w3.org/2000/svg" xmlns:xlink="http://www.w3.org/1999/xlink" x="0px"
	 y="0px" viewBox="0 0 24 24" style="enable-background:new 0 0 24 24;" xml:space="preserve">
<path d="M20.2,9.6c-0.1-0.1-0.2-0.1-0.4-0.1c-0.1,0-0.2,0.1-0.3,0.2l-0.9,1.5c-0.2-2-1.2-3.9-2.8-5.1c-1.6-1.3-3.7-1.9-5.8-1.6
	C7.9,4.8,6.1,6,4.9,7.7c-1.2,1.7-1.6,3.8-1.2,5.9c0.4,2,1.7,3.8,3.5,4.9c1.2,0.7,2.5,1.1,3.9,1.1c0.7,0,1.4-0.1,2-0.3
	c0.1,0,0.2-0.1,0.3-0.2c0.1-0.1,0.1-0.3,0-0.4c0-0.1-0.1-0.2-0.2-0.3c-0.1-0.1-0.3-0.1-0.4,0c-1.8,0.5-3.7,0.2-5.2-0.7
	c-1.6-1-2.6-2.6-3-4.4c-0.3-1.8,0.1-3.7,1.2-5.1c1.1-1.5,2.8-2.4,4.6-2.6c1.8-0.2,3.6,0.4,5,1.6c1.3,1.2,2.1,2.9,2.2,4.7l-1.9-1.2
	c-0.1-0.1-0.2-0.1-0.4-0.1c-0.1,0-0.2,0.1-0.3,0.2c-0.1,0.2-0.1,0.5,0.2,0.7l3.1,2l0,0l2-3.2c0.1-0.1,0.1-0.2,0.1-0.4
	C20.4,9.8,20.3,9.7,20.2,9.6z"/>
</svg>
