<svg width="47" height="45" viewBox="0 0 47 45" fill="none" xmlns="http://www.w3.org/2000/svg">
<path d="M28.7384 3.56704H18.2617L21.9835 0.537709C22.4118 0.18995 22.9473 0 23.4998 0C24.0523 0 24.5879 0.189958 25.0162 0.537709L28.7384 3.56704Z" fill="#FAE300"/>
<path d="M15.7224 30.6521L0.000488281 43.4687V18.6324C0.00281962 18.4878 0.0870782 18.3572 0.218301 18.2956C0.349524 18.2339 0.504723 18.2518 0.618288 18.342L15.7224 30.6521Z" fill="#FAE300"/>
<path d="M46.9987 18.6321V43.4684L31.2769 30.6518L46.3815 18.341C46.495 18.2508 46.6502 18.2329 46.7814 18.2946C46.9127 18.3562 46.9969 18.4869 46.9993 18.6314L46.9987 18.6321Z" fill="#FAE300"/>
<path d="M46.9772 44.7507C46.9236 44.9006 46.7807 45.0004 46.6209 44.9997H0.379456C0.218929 45.0004 0.0757183 44.9002 0.021766 44.7497C-0.0318547 44.5992 0.0157713 44.4315 0.140661 44.3314L21.9842 26.5279C22.4125 26.1802 22.948 25.9902 23.5005 25.9902C24.053 25.9902 24.5886 26.1802 25.0169 26.5279L46.8604 44.3314C46.9846 44.4321 47.0319 44.6002 46.978 44.7504L46.9772 44.7507Z" fill="#FAE300"/>
<path d="M5.65491 13.8398V21.4686C5.5057 21.3635 1.12353 17.7451 0.966309 17.6658L5.65491 13.8398Z" fill="#FAE300"/>
<path d="M46.0333 17.6658C45.8925 17.7301 41.4782 21.3768 41.3447 21.4686V13.8398L46.0333 17.6658Z" fill="#FAE300"/>
<path d="M38.1913 4.32227H8.80913C8.17435 4.32227 7.56553 4.5729 7.1163 5.01911C6.66736 5.46565 6.41457 6.07104 6.41357 6.70287V22.0884L16.3216 30.1657L21.5028 25.9436C22.0667 25.4848 22.7721 25.2348 23.5001 25.2348C24.2282 25.2348 24.9339 25.4851 25.4978 25.9439L30.679 30.1661L40.587 22.0884V6.70286C40.586 6.071 40.3332 5.46567 39.8843 5.0191C39.435 4.57289 38.8261 4.32227 38.1913 4.32227Z" fill="#FAE300"/>
<path d="M22.5455 18.1955C20.8932 18.2037 19.7288 16.8192 19.7374 14.7177C19.7288 12.6328 20.9018 11.2565 22.5455 11.2565C23.7185 11.2565 24.4633 11.9982 24.7201 12.7729H24.7715V11.3719H25.5591L25.5763 16.1352C25.5848 17.0582 26.0814 17.5691 26.8434 17.5691C28.1104 17.5691 28.9323 16.2176 28.9323 14.1903C28.9409 10.9186 26.4838 8.67707 22.9051 8.68531C19.3265 8.68531 16.9036 11.2648 16.895 14.7177C16.895 18.3356 19.1638 20.7831 22.8709 20.7667C23.9068 20.7584 24.6773 20.6842 25.5763 20.47V21.1787C24.7801 21.36 23.8126 21.4754 22.8709 21.4754C18.7871 21.4754 16.1416 18.8135 16.1416 14.7177C16.1331 10.7868 18.9498 7.96834 22.9051 7.97658C26.9375 7.96834 29.7029 10.5725 29.7029 14.1738C29.6943 16.6956 28.5043 18.2614 26.8091 18.2614C25.7218 18.2614 24.8999 17.5856 24.8314 16.6132H24.7715C24.4975 17.4043 23.7527 18.2037 22.5455 18.1955ZM20.5251 14.7177C20.5336 16.3165 21.3469 17.4702 22.6654 17.4702C23.9753 17.462 24.7972 16.3 24.7886 14.7177C24.7886 13.1355 23.9753 11.9982 22.6654 11.9982C21.3469 11.99 20.5336 13.119 20.5251 14.7177Z" fill="white"/>
</svg>
