<svg width="94" height="12" viewBox="0 0 94 12" fill="none" xmlns="http://www.w3.org/2000/svg">
<path d="M0 11.272V0.189453H4.11393C5.87748 0.189453 7.33845 0.693766 7.33845 3.05943C7.33845 4.33395 6.70882 5.25699 5.44958 5.5015V5.53207C7.09088 5.7613 7.52183 6.82187 7.52183 8.34091C7.52183 11.1498 5.07976 11.272 4.09865 11.272H0ZM2.31982 4.71906H3.86942C4.37678 4.71906 5.08281 4.3798 5.08281 3.307C5.08281 2.49399 4.5296 1.89494 3.74716 1.89494H2.31982V4.72212V4.71906ZM2.31982 9.56958H3.60657C4.09865 9.56958 5.20507 9.55431 5.20507 8.0047C5.20507 7.02054 4.83524 6.42148 3.67075 6.42148H2.31982V9.56958Z" fill="black"/>
<path d="M9.27051 11.272L12.3422 0.189453H15.3986L18.4061 11.272H15.9641L15.3497 8.81465H12.1863L11.5598 11.272H9.27051ZM13.739 2.32283H13.7115L12.6509 7.11529H14.8607L13.739 2.32283Z" fill="black"/>
<path d="M23.2712 11.4554C20.4012 11.4554 19.8633 9.76524 19.9856 7.84582H22.3054C22.3054 8.90639 22.3512 9.79581 23.6258 9.79581C24.4082 9.79581 24.7903 9.28844 24.7903 8.53656C24.7903 6.54072 20.1231 6.41847 20.1231 3.11755C20.1231 1.38456 20.9514 0 23.7755 0C26.0312 0 27.1529 1.01473 27 3.33455H24.7444C24.7444 2.50626 24.6069 1.65963 23.6685 1.65963C22.9167 1.65963 22.4704 2.07531 22.4704 2.84247C22.4704 4.94528 27.1376 4.76189 27.1376 8.24926C27.1376 11.1192 25.0378 11.4585 23.2682 11.4585" fill="black"/>
<path d="M31.8812 0.186523H29.5645V11.2691H31.8812V0.186523Z" fill="black"/>
<path d="M34.4951 5.72772C34.4951 2.79661 34.4951 0 38.3187 0C40.6844 0 41.6349 1.30509 41.5432 3.68603H39.2692C39.2692 2.21284 39.0094 1.65963 38.3187 1.65963C37.0136 1.65963 36.8455 2.88831 36.8455 5.72772C36.8455 8.56712 37.0136 9.79581 38.3187 9.79581C39.3915 9.79581 39.3456 8.41431 39.3793 7.54017H41.6655C41.6655 10.5049 40.4826 11.4554 38.3187 11.4554C34.4951 11.4554 34.4951 8.62825 34.4951 5.72772Z" fill="black"/>
<path d="M53.13 4.62443V0.186523H55.4498V11.2721H53.13V6.32686H50.474V11.2721H48.1572V0.186523H50.474V4.62443H53.13Z" fill="black"/>
<path d="M58.1211 5.72772C58.1211 2.79661 58.1211 0 61.9447 0C65.7682 0 65.7682 2.79661 65.7682 5.72772C65.7682 8.65882 65.7682 11.4554 61.9447 11.4554C58.1211 11.4554 58.1211 8.62825 58.1211 5.72772ZM63.4148 5.72772C63.4148 2.88831 63.2498 1.65963 61.9416 1.65963C60.6335 1.65963 60.4654 2.88831 60.4654 5.72772C60.4654 8.56712 60.6365 9.79581 61.9416 9.79581C63.2467 9.79581 63.4148 8.56712 63.4148 5.72772Z" fill="black"/>
<path d="M75.8662 0.186523V8.04762C75.8662 9.70419 74.9309 11.4555 72.1068 11.4555C69.5578 11.4555 68.3291 10.1321 68.3291 8.04762V0.186523H70.6459V7.8948C70.6459 9.25796 71.2296 9.79589 72.0732 9.79589C73.0879 9.79589 73.5464 9.12042 73.5464 7.8948V0.186523H75.8662Z" fill="black"/>
<path d="M81.5329 11.4554C78.663 11.4554 78.125 9.76524 78.2473 7.84582H80.5641C80.5641 8.90639 80.6099 9.79581 81.8875 9.79581C82.6699 9.79581 83.052 9.28844 83.052 8.53656C83.052 6.54072 78.3848 6.41847 78.3848 3.11755C78.3848 1.38456 79.2131 0 82.0372 0C84.2929 0 85.4146 1.01473 85.2618 3.33455H83.0061C83.0061 2.50626 82.8686 1.65963 81.9303 1.65963C81.1784 1.65963 80.7322 2.07531 80.7322 2.84247C80.7322 4.94528 85.4024 4.76189 85.4024 8.24926C85.4024 11.1192 83.2965 11.4585 81.5329 11.4585" fill="black"/>
<path d="M87.8262 11.2721V0.186523H93.8779V1.88894H90.146V4.62443H93.5845V6.32686H90.146V9.56665H94.0001V11.2721H87.8262Z" fill="black"/>
</svg>
