<svg width="105" height="13" viewBox="0 0 105 13" fill="none" xmlns="http://www.w3.org/2000/svg">
<path d="M0.0113636 12V0.363636H4.67045C5.52652 0.363636 6.24053 0.49053 6.8125 0.744318C7.38447 0.998106 7.81439 1.35038 8.10227 1.80114C8.39015 2.24811 8.53409 2.76326 8.53409 3.34659C8.53409 3.80114 8.44318 4.20076 8.26136 4.54545C8.07955 4.88636 7.82955 5.16667 7.51136 5.38636C7.19697 5.60227 6.83712 5.75568 6.43182 5.84659V5.96023C6.875 5.97917 7.28977 6.10417 7.67614 6.33523C8.06629 6.56629 8.38258 6.89015 8.625 7.30682C8.86742 7.7197 8.98864 8.21212 8.98864 8.78409C8.98864 9.40152 8.83523 9.95265 8.52841 10.4375C8.22538 10.9186 7.77652 11.2992 7.18182 11.5795C6.58712 11.8598 5.85417 12 4.98295 12H0.0113636ZM2.47159 9.98864H4.47727C5.16288 9.98864 5.66288 9.85795 5.97727 9.59659C6.29167 9.33144 6.44886 8.97917 6.44886 8.53977C6.44886 8.2178 6.37121 7.93371 6.21591 7.6875C6.06061 7.44129 5.83902 7.24811 5.55114 7.10795C5.26705 6.9678 4.92803 6.89773 4.53409 6.89773H2.47159V9.98864ZM2.47159 5.23295H4.29545C4.63258 5.23295 4.93182 5.17424 5.19318 5.05682C5.45833 4.93561 5.66667 4.76515 5.81818 4.54545C5.97348 4.32576 6.05114 4.0625 6.05114 3.75568C6.05114 3.33523 5.90152 2.99621 5.60227 2.73864C5.30682 2.48106 4.88636 2.35227 4.34091 2.35227H2.47159V5.23295ZM10.5895 12V0.363636H15.1804C16.0592 0.363636 16.8092 0.520833 17.4304 0.835227C18.0554 1.14583 18.5308 1.58712 18.8565 2.15909C19.1861 2.72727 19.3509 3.39583 19.3509 4.16477C19.3509 4.9375 19.1842 5.60227 18.8509 6.15909C18.5175 6.71212 18.0346 7.13636 17.402 7.43182C16.7732 7.72727 16.0118 7.875 15.1179 7.875H12.044V5.89773H14.7202C15.1899 5.89773 15.58 5.83333 15.8906 5.70455C16.2012 5.57576 16.4323 5.38258 16.5838 5.125C16.7391 4.86742 16.8168 4.54735 16.8168 4.16477C16.8168 3.77841 16.7391 3.45265 16.5838 3.1875C16.4323 2.92235 16.1993 2.72159 15.8849 2.58523C15.5743 2.44508 15.1823 2.375 14.7088 2.375H13.0497V12H10.5895ZM16.8736 6.70455L19.7656 12H17.0497L14.2202 6.70455H16.8736ZM23.0952 12H20.4588L24.4759 0.363636H27.6463L31.6577 12H29.0213L26.1065 3.02273H26.0156L23.0952 12ZM22.9304 7.42614H29.1577V9.34659H22.9304V7.42614ZM42.7912 0.363636V12H40.6662L35.6037 4.67614H35.5185V12H33.0582V0.363636H35.2173L40.2401 7.68182H40.3423V0.363636H42.7912ZM48.9489 12H44.8239V0.363636H48.983C50.1534 0.363636 51.161 0.596591 52.0057 1.0625C52.8504 1.52462 53.5 2.18939 53.9545 3.05682C54.4129 3.92424 54.642 4.96212 54.642 6.17045C54.642 7.38258 54.4129 8.42424 53.9545 9.29545C53.5 10.1667 52.8466 10.8352 51.9943 11.3011C51.1458 11.767 50.1307 12 48.9489 12ZM47.2841 9.89205H48.8466C49.5739 9.89205 50.1856 9.76326 50.6818 9.50568C51.1818 9.24432 51.5568 8.84091 51.8068 8.29545C52.0606 7.74621 52.1875 7.03788 52.1875 6.17045C52.1875 5.31061 52.0606 4.60795 51.8068 4.0625C51.5568 3.51705 51.1837 3.11553 50.6875 2.85795C50.1913 2.60038 49.5795 2.47159 48.8523 2.47159H47.2841V9.89205ZM60.1676 12V0.363636H62.6278V9.97159H67.6165V12H60.1676ZM79.4858 6.18182C79.4858 7.45076 79.2453 8.5303 78.7642 9.42045C78.2869 10.3106 77.6354 10.9905 76.8097 11.4602C75.9877 11.9261 75.0634 12.1591 74.0369 12.1591C73.0028 12.1591 72.0748 11.9242 71.2528 11.4545C70.4309 10.9848 69.7813 10.3049 69.304 9.41477C68.8267 8.52462 68.5881 7.44697 68.5881 6.18182C68.5881 4.91288 68.8267 3.83333 69.304 2.94318C69.7813 2.05303 70.4309 1.375 71.2528 0.909091C72.0748 0.439394 73.0028 0.204545 74.0369 0.204545C75.0634 0.204545 75.9877 0.439394 76.8097 0.909091C77.6354 1.375 78.2869 2.05303 78.7642 2.94318C79.2453 3.83333 79.4858 4.91288 79.4858 6.18182ZM76.9915 6.18182C76.9915 5.35985 76.8684 4.66667 76.6222 4.10227C76.3797 3.53788 76.0369 3.10985 75.5938 2.81818C75.1506 2.52652 74.6316 2.38068 74.0369 2.38068C73.4422 2.38068 72.9233 2.52652 72.4801 2.81818C72.0369 3.10985 71.6922 3.53788 71.446 4.10227C71.2036 4.66667 71.0824 5.35985 71.0824 6.18182C71.0824 7.00379 71.2036 7.69697 71.446 8.26136C71.6922 8.82576 72.0369 9.25379 72.4801 9.54545C72.9233 9.83712 73.4422 9.98295 74.0369 9.98295C74.6316 9.98295 75.1506 9.83712 75.5938 9.54545C76.0369 9.25379 76.3797 8.82576 76.6222 8.26136C76.8684 7.69697 76.9915 7.00379 76.9915 6.18182ZM89.0241 4.125C88.9446 3.84848 88.8329 3.60417 88.6889 3.39205C88.545 3.17614 88.3688 2.99432 88.1605 2.84659C87.956 2.69508 87.7211 2.57955 87.456 2.5C87.1946 2.42045 86.9048 2.38068 86.5866 2.38068C85.992 2.38068 85.4692 2.52841 85.0185 2.82386C84.5715 3.11932 84.223 3.54924 83.973 4.11364C83.723 4.67424 83.598 5.35985 83.598 6.17045C83.598 6.98106 83.7211 7.67045 83.9673 8.23864C84.2135 8.80682 84.562 9.24053 85.0128 9.53977C85.4635 9.83523 85.9957 9.98295 86.6094 9.98295C87.1662 9.98295 87.6416 9.88447 88.0355 9.6875C88.4332 9.48674 88.7363 9.20455 88.9446 8.84091C89.1567 8.47727 89.2628 8.04735 89.2628 7.55114L89.7628 7.625H86.7628V5.77273H91.6321V7.23864C91.6321 8.26136 91.4162 9.14015 90.9844 9.875C90.5526 10.6061 89.9579 11.1705 89.2003 11.5682C88.4427 11.9621 87.5753 12.1591 86.598 12.1591C85.5071 12.1591 84.5488 11.9186 83.723 11.4375C82.8973 10.9527 82.2533 10.2652 81.7912 9.375C81.3329 8.48106 81.1037 7.42045 81.1037 6.19318C81.1037 5.25 81.2401 4.40909 81.5128 3.67045C81.7893 2.92803 82.1757 2.29924 82.6719 1.78409C83.1681 1.26894 83.7457 0.876893 84.4048 0.607954C85.0639 0.339015 85.7779 0.204545 86.5469 0.204545C87.206 0.204545 87.8196 0.301136 88.3878 0.494318C88.956 0.683712 89.4598 0.952651 89.8991 1.30114C90.3423 1.64962 90.7041 2.06439 90.9844 2.54545C91.2647 3.02273 91.4446 3.54924 91.5241 4.125H89.0241ZM104.173 6.18182C104.173 7.45076 103.933 8.5303 103.452 9.42045C102.974 10.3106 102.323 10.9905 101.497 11.4602C100.675 11.9261 99.7509 12.1591 98.7244 12.1591C97.6903 12.1591 96.7623 11.9242 95.9403 11.4545C95.1184 10.9848 94.4688 10.3049 93.9915 9.41477C93.5142 8.52462 93.2756 7.44697 93.2756 6.18182C93.2756 4.91288 93.5142 3.83333 93.9915 2.94318C94.4688 2.05303 95.1184 1.375 95.9403 0.909091C96.7623 0.439394 97.6903 0.204545 98.7244 0.204545C99.7509 0.204545 100.675 0.439394 101.497 0.909091C102.323 1.375 102.974 2.05303 103.452 2.94318C103.933 3.83333 104.173 4.91288 104.173 6.18182ZM101.679 6.18182C101.679 5.35985 101.556 4.66667 101.31 4.10227C101.067 3.53788 100.724 3.10985 100.281 2.81818C99.8381 2.52652 99.3191 2.38068 98.7244 2.38068C98.1297 2.38068 97.6108 2.52652 97.1676 2.81818C96.7244 3.10985 96.3797 3.53788 96.1335 4.10227C95.8911 4.66667 95.7699 5.35985 95.7699 6.18182C95.7699 7.00379 95.8911 7.69697 96.1335 8.26136C96.3797 8.82576 96.7244 9.25379 97.1676 9.54545C97.6108 9.83712 98.1297 9.98295 98.7244 9.98295C99.3191 9.98295 99.8381 9.83712 100.281 9.54545C100.724 9.25379 101.067 8.82576 101.31 8.26136C101.556 7.69697 101.679 7.00379 101.679 6.18182Z" fill="white"/>
</svg>
