<svg width="104" height="22" viewBox="0 0 104 22" fill="none" xmlns="http://www.w3.org/2000/svg">
<path d="M12.4012 16.171V16.0633H12.5089H14.9739V15.1587H12.5089H11.3698V21.0555H12.5089H14.9739V20.1509H12.5089H12.4012V20.0432V18.5833V18.4757H12.5089H14.6939V17.571H12.5089H12.4012V17.4633V16.171Z" fill="black"/>
<path d="M6.67677 20.9621H5.88223V16.0585L4.02751 19.4089H3.59195L1.73722 16.0585V20.9621H1.00012V15.252H2.01483L3.83366 18.5378L5.6477 15.252H6.67198V20.9621H6.67677Z" fill="black" stroke="black" stroke-width="0.22" stroke-miterlimit="10"/>
<path d="M24.9512 20.9621H24.0298L20.7942 16.0058V20.9621H20.0571V15.252H21.158L24.2141 19.9354V15.252H24.9512V20.9621Z" fill="black" stroke="black" stroke-width="0.22" stroke-miterlimit="10"/>
<path d="M16.4145 0.555664H14.811V9.7144H16.4145V0.555664Z" fill="black"/>
<path d="M52.9011 9.71675C54.7223 9.71675 55.469 8.46032 55.469 7.01962C55.469 5.17926 53.9038 4.97584 53.9038 4.97584C53.9038 4.97584 55.1914 4.47327 55.1914 3.09C55.1914 1.11562 53.643 0.553223 52.3195 0.553223L51.5322 0.560402L49.1725 0.553223V9.71675H52.9011ZM50.8812 1.90538H52.3195C52.9777 1.90538 53.8392 2.23564 53.8392 3.10436C53.8392 3.97309 52.9753 4.29138 52.3195 4.30335L50.8812 4.31053V1.90777V1.90538ZM50.8812 5.65311H52.9011C53.7794 5.65311 54.112 6.22269 54.112 7.01962C54.112 7.81655 53.6573 8.36459 52.9011 8.36459H50.8812V5.65072V5.65311Z" fill="black"/>
<path d="M71.5561 0.555664H69.9526V9.7144H71.5561V0.555664Z" fill="black"/>
<path d="M100.006 2.12799V1.96047H100.174H104V0.555664H100.174H98.4028V9.7144H100.174H104V8.31199H100.174H100.006V8.14207V5.87333V5.70581H100.174H103.567V4.3034H100.174H100.006V4.13588V2.12799Z" fill="black"/>
<path d="M36.5939 9.71675C39.2623 9.71675 40.4804 7.40014 40.4804 5.13379C40.4804 2.86744 39.3963 0.553223 36.5939 0.553223H33.0543V9.71675H36.5939ZM34.6578 1.90538H36.5939C38.0776 1.90538 39.1306 2.86744 39.1306 5.13618C39.1306 7.07227 38.0776 8.36699 36.5939 8.36699H34.6578V1.90777V1.90538Z" fill="black"/>
<path d="M79.4392 9.71675C82.1076 9.71675 83.3257 7.40014 83.3257 5.13379C83.3257 2.86744 82.2416 0.553223 79.4392 0.553223H75.8997V9.71675H79.4392ZM77.5031 1.90538H79.4392C80.923 1.90538 81.976 2.86744 81.976 5.13618C81.976 7.07227 80.923 8.36699 79.4392 8.36699H77.5031V1.90777V1.90538Z" fill="black"/>
<path d="M62.1148 6.14137L64.6085 9.71679H66.5925L64.0916 6.14137C64.0916 6.14137 65.92 5.51675 65.92 3.34852C65.92 1.18029 64.5056 0.555664 63.2373 0.555664H59.4297V9.71918H61.0235V6.14376H62.1172L62.1148 6.14137ZM61.0212 1.90542H63.2325C64.0198 1.90542 64.5655 2.38645 64.5655 3.34852C64.5655 4.31058 63.9672 4.79161 63.2325 4.79161H61.0212V1.90782V1.90542Z" fill="black"/>
<path d="M90.7399 6.31342H92.4558V7.9743L92.3816 8.0078C92.0107 8.16815 91.5607 8.25191 91.0845 8.25191C89.2202 8.25191 87.9183 6.97394 87.9183 5.14794C87.9183 3.32194 89.2441 2.04397 91.0725 2.04397C91.9987 2.04397 92.9679 2.37663 93.729 2.95817L93.772 2.99168V1.30208L93.7625 1.2973C93.2192 0.974218 92.3074 0.591309 91.0582 0.591309C88.3108 0.591309 86.3173 2.51304 86.3173 5.1623C86.3173 7.81156 88.2916 9.68543 91.0103 9.68543C92.0777 9.68543 93.2096 9.38149 94.0401 8.86935L94.0544 8.85978V4.96127H90.7351V6.31582L90.7399 6.31342Z" fill="black"/>
<path d="M10.4675 0.555664H10.3861H8.86402L5.73134 5.82547L2.60344 0.555664H1.18906H1V9.7144H1.18906H2.60344V3.24561L5.145 7.64908H5.73134H6.24587H6.31767L8.86402 3.23843V9.7144H10.3861H10.4675V0.555664Z" fill="black"/>
<path d="M28.7107 0.555664H27.1072V0.562843V6.83539V7.37625L26.8009 6.92873L22.4405 0.555664H20.8419H20.7605V9.7144H22.3639V9.70722V3.43946V2.8962L22.6703 3.34373L27.0283 9.7144H28.6293H28.7107V0.555664Z" fill="black"/>
</svg>
