<svg width="128" height="10" viewBox="0 0 128 10" fill="none" xmlns="http://www.w3.org/2000/svg">
<path d="M2.847 9.5V2.441H0.052V0.399999H8.203V2.441H5.421V9.5H2.847ZM9.16195 9.5V0.399999H13.816C15.012 0.399999 15.9046 0.620999 16.494 1.063C17.0833 1.49633 17.378 2.06833 17.378 2.779C17.378 3.247 17.2523 3.65867 17.001 4.014C16.7583 4.36067 16.4116 4.638 15.961 4.846C15.519 5.04533 14.9903 5.145 14.375 5.145L14.635 4.521C15.2763 4.521 15.8353 4.62067 16.312 4.82C16.7886 5.01067 17.157 5.29233 17.417 5.665C17.6856 6.029 17.82 6.47533 17.82 7.004C17.82 7.79267 17.4993 8.408 16.858 8.85C16.2253 9.28333 15.298 9.5 14.076 9.5H9.16195ZM11.71 7.641H13.868C14.31 7.641 14.6436 7.56733 14.869 7.42C15.103 7.264 15.22 7.03 15.22 6.718C15.22 6.406 15.103 6.17633 14.869 6.029C14.6436 5.873 14.31 5.795 13.868 5.795H11.528V4.014H13.478C13.9113 4.014 14.2363 3.94033 14.453 3.793C14.6696 3.64567 14.778 3.42467 14.778 3.13C14.778 2.83533 14.6696 2.61867 14.453 2.48C14.2363 2.33267 13.9113 2.259 13.478 2.259H11.71V7.641ZM25.2372 0.399999H27.8112V9.5H25.2372V0.399999ZM21.7272 9.5H19.1532V0.399999H21.7272V9.5ZM25.4192 5.951H21.5452V3.819H25.4192V5.951Z" fill="#2C3A94"/>
<path d="M36.251 9.63C35.5403 9.63 34.86 9.53033 34.21 9.331C33.56 9.123 33.0443 8.85867 32.663 8.538L33.248 7.225C33.612 7.511 34.0627 7.74933 34.6 7.94C35.1373 8.13067 35.6877 8.226 36.251 8.226C36.7277 8.226 37.1133 8.174 37.408 8.07C37.7027 7.966 37.9193 7.82733 38.058 7.654C38.1967 7.472 38.266 7.26833 38.266 7.043C38.266 6.76567 38.1663 6.54467 37.967 6.38C37.7677 6.20667 37.5077 6.07233 37.187 5.977C36.875 5.873 36.524 5.77767 36.134 5.691C35.7527 5.60433 35.367 5.50467 34.977 5.392C34.5957 5.27067 34.2447 5.119 33.924 4.937C33.612 4.74633 33.3563 4.495 33.157 4.183C32.9577 3.871 32.858 3.47233 32.858 2.987C32.858 2.493 32.988 2.04233 33.248 1.635C33.5167 1.219 33.9197 0.889666 34.457 0.646999C35.003 0.395666 35.692 0.27 36.524 0.27C37.07 0.27 37.6117 0.339333 38.149 0.478C38.6863 0.616666 39.1543 0.816 39.553 1.076L39.02 2.389C38.6127 2.14633 38.1923 1.96867 37.759 1.856C37.3257 1.73467 36.9097 1.674 36.511 1.674C36.043 1.674 35.6617 1.73033 35.367 1.843C35.081 1.95567 34.8687 2.103 34.73 2.285C34.6 2.467 34.535 2.675 34.535 2.909C34.535 3.18633 34.6303 3.41167 34.821 3.585C35.0203 3.74967 35.276 3.87967 35.588 3.975C35.9087 4.07033 36.264 4.16567 36.654 4.261C37.044 4.34767 37.4297 4.44733 37.811 4.56C38.201 4.67267 38.552 4.82 38.864 5.002C39.1847 5.184 39.4403 5.431 39.631 5.743C39.8303 6.055 39.93 6.44933 39.93 6.926C39.93 7.41133 39.7957 7.862 39.527 8.278C39.267 8.68533 38.864 9.01467 38.318 9.266C37.772 9.50867 37.083 9.63 36.251 9.63ZM48.0018 0.399999H49.6918V9.5H48.0018V0.399999ZM43.2958 9.5H41.6058V0.399999H43.2958V9.5ZM48.1318 5.6H43.1528V4.157H48.1318V5.6ZM56.3942 9.63C55.6835 9.63 55.0292 9.513 54.4312 9.279C53.8332 9.045 53.3132 8.72 52.8712 8.304C52.4292 7.87933 52.0869 7.38533 51.8442 6.822C51.6015 6.25 51.4802 5.626 51.4802 4.95C51.4802 4.274 51.6015 3.65433 51.8442 3.091C52.0869 2.519 52.4292 2.025 52.8712 1.609C53.3132 1.18433 53.8332 0.855 54.4312 0.621C55.0292 0.387 55.6792 0.27 56.3812 0.27C57.0919 0.27 57.7419 0.387 58.3312 0.621C58.9292 0.855 59.4492 1.18433 59.8912 1.609C60.3332 2.025 60.6755 2.519 60.9182 3.091C61.1609 3.65433 61.2822 4.274 61.2822 4.95C61.2822 5.626 61.1609 6.25 60.9182 6.822C60.6755 7.394 60.3332 7.888 59.8912 8.304C59.4492 8.72 58.9292 9.045 58.3312 9.279C57.7419 9.513 57.0962 9.63 56.3942 9.63ZM56.3812 8.148C56.8405 8.148 57.2652 8.07 57.6552 7.914C58.0452 7.758 58.3832 7.537 58.6692 7.251C58.9552 6.95633 59.1762 6.61833 59.3322 6.237C59.4969 5.847 59.5792 5.418 59.5792 4.95C59.5792 4.482 59.4969 4.05733 59.3322 3.676C59.1762 3.286 58.9552 2.948 58.6692 2.662C58.3832 2.36733 58.0452 2.142 57.6552 1.986C57.2652 1.83 56.8405 1.752 56.3812 1.752C55.9219 1.752 55.4972 1.83 55.1072 1.986C54.7259 2.142 54.3879 2.36733 54.0932 2.662C53.8072 2.948 53.5819 3.286 53.4172 3.676C53.2612 4.05733 53.1832 4.482 53.1832 4.95C53.1832 5.40933 53.2612 5.834 53.4172 6.224C53.5819 6.614 53.8072 6.95633 54.0932 7.251C54.3792 7.537 54.7172 7.758 55.1072 7.914C55.4972 8.07 55.9219 8.148 56.3812 8.148ZM63.0736 9.5V0.399999H66.8176C67.6236 0.399999 68.3126 0.53 68.8846 0.79C69.4652 1.05 69.9116 1.42267 70.2236 1.908C70.5356 2.39333 70.6916 2.96967 70.6916 3.637C70.6916 4.30433 70.5356 4.88067 70.2236 5.366C69.9116 5.85133 69.4652 6.224 68.8846 6.484C68.3126 6.744 67.6236 6.874 66.8176 6.874H64.0096L64.7636 6.081V9.5H63.0736ZM64.7636 6.263L64.0096 5.444H66.7396C67.4849 5.444 68.0439 5.288 68.4166 4.976C68.7979 4.65533 68.9886 4.209 68.9886 3.637C68.9886 3.05633 68.7979 2.61 68.4166 2.298C68.0439 1.986 67.4849 1.83 66.7396 1.83H64.0096L64.7636 0.997999V6.263ZM76.1404 9.5V0.399999H77.2064L81.2884 7.277H80.7164L84.7464 0.399999H85.8124L85.8254 9.5H84.5774L84.5644 2.363H84.8634L81.2754 8.395H80.6774L77.0634 2.363H77.3884V9.5H76.1404ZM92.6644 9.604C91.9711 9.604 91.3254 9.487 90.7274 9.253C90.1381 9.019 89.6267 8.694 89.1934 8.278C88.7601 7.85333 88.4221 7.35933 88.1794 6.796C87.9367 6.23267 87.8154 5.61733 87.8154 4.95C87.8154 4.28267 87.9367 3.66733 88.1794 3.104C88.4221 2.54067 88.7601 2.051 89.1934 1.635C89.6267 1.21033 90.1381 0.880999 90.7274 0.646999C91.3167 0.413 91.9624 0.296 92.6644 0.296C93.3577 0.296 93.9947 0.413 94.5754 0.646999C95.1647 0.872333 95.6761 1.19733 96.1094 1.622C96.5514 2.038 96.8894 2.52767 97.1234 3.091C97.3661 3.65433 97.4874 4.274 97.4874 4.95C97.4874 5.626 97.3661 6.24567 97.1234 6.809C96.8894 7.37233 96.5514 7.86633 96.1094 8.291C95.6761 8.707 95.1647 9.032 94.5754 9.266C93.9947 9.49133 93.3577 9.604 92.6644 9.604ZM92.6644 8.447C93.1671 8.447 93.6307 8.36033 94.0554 8.187C94.4887 8.01367 94.8614 7.771 95.1734 7.459C95.4941 7.13833 95.7411 6.76567 95.9144 6.341C96.0964 5.91633 96.1874 5.45267 96.1874 4.95C96.1874 4.44733 96.0964 3.98367 95.9144 3.559C95.7411 3.13433 95.4941 2.766 95.1734 2.454C94.8614 2.13333 94.4887 1.88633 94.0554 1.713C93.6307 1.53967 93.1671 1.453 92.6644 1.453C92.1531 1.453 91.6807 1.53967 91.2474 1.713C90.8227 1.88633 90.4501 2.13333 90.1294 2.454C89.8087 2.766 89.5574 3.13433 89.3754 3.559C89.2021 3.98367 89.1154 4.44733 89.1154 4.95C89.1154 5.45267 89.2021 5.91633 89.3754 6.341C89.5574 6.76567 89.8087 7.13833 90.1294 7.459C90.4501 7.771 90.8227 8.01367 91.2474 8.187C91.6807 8.36033 92.1531 8.447 92.6644 8.447ZM99.4744 9.5V0.399999H103.556C104.605 0.399999 105.411 0.612333 105.974 1.037C106.538 1.453 106.819 2.025 106.819 2.753C106.819 3.247 106.707 3.663 106.481 4.001C106.265 4.339 105.97 4.599 105.597 4.781C105.225 4.963 104.822 5.054 104.388 5.054L104.622 4.664C105.142 4.664 105.602 4.755 106 4.937C106.399 5.119 106.715 5.38767 106.949 5.743C107.183 6.08967 107.3 6.523 107.3 7.043C107.3 7.823 107.006 8.42967 106.416 8.863C105.836 9.28767 104.969 9.5 103.816 9.5H99.4744ZM100.774 8.447H103.764C104.484 8.447 105.034 8.32567 105.415 8.083C105.797 7.84033 105.987 7.459 105.987 6.939C105.987 6.41033 105.797 6.02467 105.415 5.782C105.034 5.53933 104.484 5.418 103.764 5.418H100.657V4.365H103.439C104.098 4.365 104.609 4.24367 104.973 4.001C105.337 3.75833 105.519 3.39433 105.519 2.909C105.519 2.42367 105.337 2.05967 104.973 1.817C104.609 1.57433 104.098 1.453 103.439 1.453H100.774V8.447ZM109.313 9.5V0.399999H110.613V9.5H109.313ZM113.338 9.5V0.399999H114.638V8.369H119.565V9.5H113.338ZM122.239 4.326H126.919V5.431H122.239V4.326ZM122.356 8.369H127.66V9.5H121.056V0.399999H127.478V1.531H122.356V8.369Z" fill="#161616"/>
</svg>
