<svg width="94" height="13" viewBox="0 0 94 13" fill="none" xmlns="http://www.w3.org/2000/svg">
<path d="M3.77579 3.25316H0V0.195312H11.0487V3.25316H7.27288V12.7679H3.77579V3.25316Z" fill="black"/>
<path d="M13.3447 0.195312H19.7251C20.5081 0.195312 21.1817 0.288073 21.7391 0.483537C22.2898 0.679001 22.761 0.963911 23.126 1.32833C23.3715 1.57681 23.5672 1.87498 23.7099 2.20959C23.8493 2.5442 23.9223 2.92849 23.9223 3.35917V3.39893C23.9223 4.12777 23.7431 4.72412 23.3814 5.17137C23.0198 5.61861 22.5652 5.96647 22.0111 6.205C22.7709 6.45347 23.3748 6.81789 23.826 7.29164C24.264 7.76208 24.4963 8.428 24.4963 9.27611V9.30592C24.4963 10.3992 24.0749 11.244 23.252 11.8602C22.4292 12.4698 21.2646 12.7713 19.7749 12.7713H13.3447V0.198629V0.195312ZM18.8857 5.2078C19.4132 5.2078 19.8213 5.11835 20.1033 4.93945C20.3754 4.76056 20.5181 4.48558 20.5181 4.11122V4.07478C20.5181 3.72692 20.3887 3.46189 20.1232 3.26974C19.8644 3.08752 19.4663 2.99144 18.9487 2.99144H16.7058V5.20117H18.8857V5.2078ZM19.38 9.96851C19.9142 9.96851 20.3256 9.87243 20.611 9.67365C20.8963 9.47487 21.0257 9.19329 21.0257 8.81892V8.78578C21.0257 8.43792 20.8963 8.16295 20.6309 7.95754C20.3522 7.75214 19.9242 7.65608 19.3402 7.65608H16.7058V9.96851H19.38Z" fill="black"/>
<path d="M26.3145 0.195312H29.8049V4.90633H34.2841V0.195312H37.7746V12.7679H34.2841V7.99398H29.8049V12.7679H26.3145V0.195312Z" fill="black"/>
<path d="M44.3139 10.9495L45.6344 9.3725C46.8421 10.4128 48.0731 11.0025 49.6126 11.0025C50.9762 11.0025 51.8455 10.3564 51.8455 9.42218V9.38906C51.8455 8.49457 51.3412 8.00094 49.0054 7.46756C46.3212 6.82153 44.8082 6.03636 44.8082 3.71398V3.68086C44.8082 1.52745 46.6132 0.0366211 49.1049 0.0366211C50.9464 0.0366211 52.3963 0.58987 53.6704 1.61688L52.4859 3.28994C51.3512 2.44514 50.2231 1.99788 49.0718 1.99788C47.7778 1.99788 47.0213 2.66046 47.0213 3.48207V3.51853C47.0213 4.48591 47.592 4.91989 50.0273 5.48972C52.6883 6.14237 54.052 7.08989 54.052 9.17042V9.20686C54.052 11.559 52.1972 12.9637 49.5562 12.9637C47.6318 12.9637 45.8202 12.2978 44.3105 10.9495H44.3139Z" fill="black"/>
<path d="M56.2051 0.21875H58.4181V5.43996H64.4236V0.21875H66.6333V12.7814H64.4236V7.49067H58.4181V12.7814H56.2051V0.21875Z" fill="black"/>
<path d="M68.8633 6.52981V6.5C68.8633 2.96509 71.5972 0 75.4626 0C79.328 0 82.0222 2.92863 82.0222 6.46686V6.5033C82.0222 10.0382 79.2915 13 75.4261 13C71.5608 13 68.8633 10.068 68.8633 6.53312V6.52981ZM79.7029 6.52981V6.5C79.7029 4.05505 77.9245 2.0474 75.4261 2.0474C72.9277 2.0474 71.1792 4.01859 71.1792 6.46354V6.5C71.1792 8.93833 72.9675 10.9493 75.4626 10.9493C77.9577 10.9493 79.7029 8.97145 79.7029 6.53312V6.52981Z" fill="black"/>
<path d="M84.2549 0.21875H89.2152C92.1615 0.21875 93.9996 1.88184 93.9996 4.41625V4.45269C93.9996 7.26869 91.7335 8.73964 88.963 8.73964H86.4646V12.7814H84.2549V0.21875ZM89.036 6.74858C90.7049 6.74858 91.7468 5.81432 91.7468 4.5057V4.46927C91.7468 2.99832 90.6883 2.22639 89.036 2.22639H86.4646V6.74858H89.036Z" fill="black"/>
</svg>
