<svg width="50" height="50" viewBox="0 0 50 50" fill="none" xmlns="http://www.w3.org/2000/svg">
<rect width="50" height="50" rx="11" fill="white"/>
<path d="M6.60672 23.3864H5V22.0833H9.70156V23.3864H8.09484V27.4413H6.60672V23.3864Z" fill="#161616"/>
<path d="M10.6786 22.0833H13.3936C13.7268 22.0833 14.0135 22.1228 14.2506 22.2061C14.485 22.2894 14.6855 22.4108 14.8408 22.5661C14.9453 22.672 15.0286 22.7991 15.0893 22.9417C15.1486 23.0843 15.1797 23.2481 15.1797 23.4316V23.4485C15.1797 23.7592 15.1034 24.0133 14.9495 24.2039C14.7956 24.3945 14.6022 24.5428 14.3664 24.6444C14.6897 24.7503 14.9467 24.9056 15.1387 25.1075C15.3251 25.308 15.4239 25.5918 15.4239 25.9532V25.9659C15.4239 26.4318 15.2446 26.7919 14.8945 27.0545C14.5443 27.3143 14.0487 27.4428 13.4148 27.4428H10.6786V22.0847V22.0833ZM13.0364 24.2194C13.2609 24.2194 13.4346 24.1813 13.5546 24.1051C13.6704 24.0288 13.7311 23.9116 13.7311 23.7521V23.7366C13.7311 23.5883 13.676 23.4754 13.5631 23.3935C13.4529 23.3158 13.2835 23.2749 13.0633 23.2749H12.1088V24.2166H13.0364V24.2194ZM13.2468 26.2483C13.4741 26.2483 13.6492 26.2074 13.7706 26.1226C13.892 26.0379 13.9471 25.9179 13.9471 25.7584V25.7443C13.9471 25.596 13.892 25.4788 13.7791 25.3913C13.6605 25.3038 13.4783 25.2628 13.2299 25.2628H12.1088V26.2483H13.2468Z" fill="#161616"/>
<path d="M16.1976 22.0833H17.6829V24.091H19.589V22.0833H21.0743V27.4413H19.589V25.4068H17.6829V27.4413H16.1976V22.0833Z" fill="#161616"/>
<path d="M23.8571 26.6664L24.4191 25.9943C24.933 26.4376 25.4568 26.6889 26.1119 26.6889C26.6922 26.6889 27.0621 26.4136 27.0621 26.0155V26.0014C27.0621 25.6202 26.8475 25.4098 25.8535 25.1825C24.7113 24.9072 24.0675 24.5725 24.0675 23.5828V23.5687C24.0675 22.651 24.8356 22.0156 25.8959 22.0156C26.6795 22.0156 27.2965 22.2514 27.8386 22.6891L27.3346 23.4021C26.8517 23.0421 26.3717 22.8515 25.8818 22.8515C25.3311 22.8515 25.0092 23.1338 25.0092 23.484V23.4995C25.0092 23.9118 25.2521 24.0967 26.2884 24.3396C27.4207 24.6177 28.001 25.0215 28.001 25.9082V25.9237C28.001 26.9261 27.2118 27.5248 26.0879 27.5248C25.269 27.5248 24.4981 27.241 23.8557 26.6664H23.8571Z" fill="#161616"/>
<path d="M28.9173 22.093H29.859V24.3181H32.4145V22.093H33.3548V27.4469H32.4145V25.1921H29.859V27.4469H28.9173V22.093Z" fill="#161616"/>
<path d="M34.3036 24.7828V24.7701C34.3036 23.2636 35.467 22 37.1118 22C38.7567 22 39.9031 23.2481 39.9031 24.756V24.7715C39.9031 26.278 38.7411 27.5402 37.0963 27.5402C35.4514 27.5402 34.3036 26.2907 34.3036 24.7842V24.7828ZM38.9162 24.7828V24.7701C38.9162 23.7281 38.1594 22.8725 37.0963 22.8725C36.0331 22.8725 35.2891 23.7126 35.2891 24.7546V24.7701C35.2891 25.8093 36.0501 26.6663 37.1118 26.6663C38.1736 26.6663 38.9162 25.8234 38.9162 24.7842V24.7828Z" fill="#161616"/>
<path d="M40.8534 22.093H42.9642C44.2179 22.093 45.0001 22.8018 45.0001 23.8819V23.8974C45.0001 25.0975 44.0358 25.7244 42.8569 25.7244H41.7937V27.4469H40.8534V22.093ZM42.8879 24.8758C43.5981 24.8758 44.0414 24.4777 44.0414 23.92V23.9045C44.0414 23.2776 43.591 22.9486 42.8879 22.9486H41.7937V24.8758H42.8879Z" fill="#161616"/>
</svg>
