<svg width="100" height="40" viewBox="0 0 100 40" fill="none" xmlns="http://www.w3.org/2000/svg">
<rect width="100" height="40" fill="white"/>
<rect x="0.5" y="0.5" width="99" height="39" rx="4.5" fill="white" stroke="#ECECEC"/>
<path d="M79.1374 18.6232C78.4236 17.7994 77.4104 17.3472 76.2724 17.3472C74.0489 17.3472 72.3723 19.0964 72.3723 21.4166C72.3723 23.7369 74.0489 25.4861 76.2724 25.4861C77.448 25.4861 78.5146 24.9883 79.2149 24.1159V25.3777H80.3981V17.4556H79.1367V18.6232H79.1374ZM76.4679 24.2639C74.8711 24.2639 73.712 23.0664 73.712 21.4166C73.712 19.7669 74.8711 18.5694 76.4679 18.5694C78.0648 18.5694 79.1141 19.6458 79.2157 21.1842V21.6484C79.1134 23.1883 77.9836 24.2639 76.4679 24.2639Z" fill="#888888"/>
<path d="M87.6222 17.4253L85.0106 23.5153L82.4682 17.4253H81.0752L84.3141 24.976L83.0625 27.9204H84.369L85.4499 25.3557L89.0002 17.4253H87.6222Z" fill="#888888"/>
<path d="M67.676 17.3472C66.5003 17.3472 65.4338 17.845 64.7335 18.7174V17.4713H63.5503V27.92H64.8117V24.2101C65.5255 25.0339 66.5387 25.4861 67.6768 25.4861C69.9002 25.4861 71.5768 23.7369 71.5768 21.4166C71.5768 19.0964 69.9002 17.3472 67.6768 17.3472H67.676ZM67.4812 24.2639C65.9648 24.2639 64.835 23.1875 64.7335 21.6491V21.1864C64.835 19.6458 65.9656 18.5694 67.4812 18.5694C69.0781 18.5694 70.2372 19.7669 70.2372 21.4166C70.2372 23.0664 69.0781 24.2639 67.4812 24.2639Z" fill="#888888"/>
<path d="M30.839 22.4493V19.1774H29.1226V17.4559H30.839V15.386L32.9376 14.8276V17.4552H35.5515V19.1767H32.9376V22.4179C32.9376 23.2791 33.4055 23.7829 34.2096 23.7829C34.6699 23.7829 35.0054 23.6902 35.3566 23.4345L36.1058 24.9856C35.5522 25.4117 34.8181 25.6128 34.0223 25.6128C31.9861 25.6128 30.839 24.4736 30.839 22.4493Z" fill="#888888"/>
<path d="M36.2095 21.4251C36.2095 19.045 38.0666 17.2622 40.5706 17.2622C43.0746 17.2622 44.9318 19.0458 44.9318 21.4251C44.9318 23.8045 43.0746 25.5895 40.5706 25.5895C38.0666 25.5895 36.2095 23.806 36.2095 21.4251ZM40.5706 23.729C41.8501 23.729 42.8099 22.7437 42.8099 21.4251C42.8099 20.1065 41.8501 19.1228 40.5706 19.1228C39.2912 19.1228 38.3314 20.1065 38.3314 21.4251C38.3314 22.7437 39.2912 23.729 40.5706 23.729Z" fill="#888888"/>
<path d="M45.4729 23.5122L47.5564 22.9538C47.6888 23.5967 48.2898 23.9615 49.2654 23.9615C50.0612 23.9615 50.6389 23.6049 50.6389 23.131C50.6389 22.7826 50.2335 22.5344 49.6091 22.4021L48.0566 22.0762C46.5824 21.766 45.6767 20.9833 45.6767 19.8673C45.6767 18.308 47.0344 17.2622 49.0315 17.2622C50.8104 17.2622 52.1681 18.0688 52.5269 19.371L50.5682 19.898C50.4433 19.2775 49.8273 18.8656 48.969 18.8656C48.2515 18.8656 47.7678 19.1998 47.7678 19.6722C47.7678 20.037 48.0958 20.2306 48.6336 20.3547L50.4516 20.7666C51.8401 21.0768 52.6833 21.852 52.6833 22.9687C52.6833 24.6043 51.3098 25.5895 49.0789 25.5895C47.1202 25.5895 45.7632 24.8054 45.4744 23.5114L45.4729 23.5122Z" fill="#888888"/>
<path d="M53.1909 23.5122L55.2745 22.9538C55.4068 23.5967 56.0078 23.9615 56.9834 23.9615C57.7792 23.9615 58.3569 23.6049 58.3569 23.131C58.3569 22.7826 57.9515 22.5344 57.3272 22.4021L55.7747 22.0762C54.3004 21.766 53.3948 20.9833 53.3948 19.8673C53.3948 18.308 54.7524 17.2622 56.7495 17.2622C58.5284 17.2622 59.8861 18.0688 60.2449 19.371L58.2862 19.898C58.1613 19.2775 57.5453 18.8656 56.6871 18.8656C55.9695 18.8656 55.4858 19.1998 55.4858 19.6722C55.4858 20.037 55.8138 20.2306 56.3516 20.3547L58.1696 20.7666C59.5581 21.0768 60.4013 21.852 60.4013 22.9687C60.4013 24.6043 59.0279 25.5895 56.7969 25.5895C54.8382 25.5895 53.4813 24.8054 53.1924 23.5114L53.1909 23.5122Z" fill="#888888"/>
<path d="M19.8992 16.3907L20.5649 13.269C20.5965 13.1136 20.4634 12.973 20.2986 13.0044C19.3276 13.1756 18.3249 13.4716 17.323 13.9C12.8355 15.7904 10.1178 19.4951 11.2612 22.1809C12.1224 24.1888 14.9107 25.0447 18.1526 24.5468L17.487 27.667C17.4554 27.8224 17.5885 27.963 17.7532 27.9316C18.7243 27.7604 19.727 27.4644 20.7289 27.0376C25.2239 25.1456 27.9333 21.4409 26.79 18.7566C25.9287 16.7487 23.1404 15.8928 19.8985 16.3907H19.8992Z" fill="#888888"/>
</svg>
