<svg width="100" height="40" viewBox="0 0 100 40" fill="none" xmlns="http://www.w3.org/2000/svg">
<rect x="0.5" y="0.5" width="99" height="39" rx="4.5" fill="white" stroke="#ECECEC"/>
<path d="M50.2678 14.2095H54.2786C54.9103 14.2095 55.4597 14.2897 55.927 14.45C56.3922 14.6104 56.7793 14.8349 57.0841 15.1195C57.3889 15.4041 57.6175 15.7449 57.7679 16.1398C57.9183 16.5346 57.9925 16.9596 57.9925 17.4166V17.7433C57.9925 18.2003 57.9123 18.6293 57.7519 19.0282C57.5914 19.4271 57.3548 19.7778 57.046 20.0785C56.7351 20.3792 56.3501 20.6177 55.8889 20.7941C55.4276 20.9705 54.8922 21.0587 54.2806 21.0587H51.81V25.4344H50.2678V14.2095ZM51.81 15.5484V19.7217H54.0219C55.6422 19.7217 56.4524 19.0522 56.4524 17.7132V17.4326C56.4524 16.7892 56.2579 16.3141 55.8688 16.0075C55.4798 15.7008 54.9203 15.5484 54.1943 15.5484H51.812H51.81Z" fill="#888888"/>
<path d="M61.9495 25.5587C61.0872 25.5587 60.4054 25.3462 59.902 24.9213C59.3987 24.4963 59.146 23.909 59.146 23.1614V22.7405C59.146 22.0148 59.3907 21.4215 59.878 20.9665C60.3653 20.5095 61.1554 20.281 62.2463 20.281H64.4121V19.7819C64.4121 19.2106 64.2737 18.7877 63.999 18.5131C63.7243 18.2385 63.2751 18.1002 62.6514 18.1002C62.152 18.1002 61.7189 18.1783 61.3499 18.3347C60.9809 18.491 60.5999 18.6975 60.2048 18.9581L59.4568 17.8376C59.8719 17.5469 60.3392 17.2944 60.8586 17.0819C61.378 16.8694 61.9796 16.7632 62.6654 16.7632C63.1427 16.7632 63.5799 16.8233 63.9729 16.9416C64.368 17.0618 64.7069 17.2382 64.9937 17.4708C65.2784 17.7053 65.503 17.9899 65.6634 18.3267C65.8239 18.6634 65.9041 19.0463 65.9041 19.4712V25.4344H64.4562V24.4061H64.4402C64.3559 24.5625 64.2457 24.7048 64.1053 24.8351C63.9649 24.9654 63.8125 25.0756 63.646 25.1698C63.4174 25.2941 63.1708 25.3903 62.9061 25.4585C62.6414 25.5266 62.3225 25.5587 61.9475 25.5587H61.9495ZM64.4101 21.5578H62.2764C61.6848 21.5578 61.2617 21.6721 61.007 21.9006C60.7523 22.1291 60.626 22.4458 60.626 22.8507V23.0692C60.626 23.4841 60.7703 23.7848 61.0611 23.9712C61.3519 24.1576 61.6988 24.2518 62.1039 24.2518C62.4769 24.2518 62.8018 24.2077 63.0765 24.1195C63.3513 24.0313 63.6039 23.899 63.8325 23.7226C64.0411 23.5663 64.1875 23.3879 64.2757 23.1854C64.364 22.983 64.4081 22.7204 64.4081 22.3997V21.5598L64.4101 21.5578Z" fill="#888888"/>
<path d="M71.1703 23.7225L73.4123 16.9194H75.0005L70.5767 28.9541L69.207 28.4711L70.312 25.5606L67.2117 16.9194H68.848L71.1061 23.7225H71.1683H71.1703Z" fill="#888888"/>
<path d="M44.6526 10H25V29.6436H44.6526V10Z" fill="#888888"/>
<path d="M36.3884 24.3181L33.2179 19.6638V24.3181H29.9131V15.3262H33.2641L36.4345 19.9805V15.3262H39.7394V24.3181H36.3884Z" fill="white"/>
</svg>
