<svg width="100" height="40" viewBox="0 0 100 40" fill="none" xmlns="http://www.w3.org/2000/svg">
<rect width="100" height="40" fill="white"/>
<rect x="0.5" y="0.5" width="99" height="39" rx="4.5" fill="white" stroke="#ECECEC"/>
<path fill-rule="evenodd" clip-rule="evenodd" d="M33.3322 13C29.2851 13 26 15.5933 26 18.7915C26 20.8468 27.3602 22.6515 29.4021 23.6808L28.7103 26.2607C28.6836 26.3409 28.707 26.4245 28.7638 26.4813C28.8039 26.5214 28.8573 26.5415 28.9142 26.5415C28.9576 26.5415 29.001 26.5247 29.0411 26.4947L32.0121 24.4895C32.4432 24.5497 32.8844 24.5864 33.3322 24.5864C37.3792 24.5864 40.6643 21.9931 40.6643 18.7949C40.6643 15.5967 37.3826 13.0033 33.3322 13.0033V13Z" fill="#888888"/>
<path d="M46.8434 23.604V27.3436H44.1799V13.5515H46.0581L46.3856 14.4271C46.9504 13.8623 47.8093 13.2607 49.1962 13.2607C51.8062 13.2607 53.046 15.2124 53.026 18.3672C53.026 21.669 51.1111 23.7844 48.374 23.7844C47.846 23.7844 47.445 23.7477 46.8434 23.6006V23.604ZM46.8434 15.7772V21.7425C46.9905 21.7592 47.3548 21.796 47.7023 21.796C49.6005 21.796 50.3291 20.4659 50.3291 18.3672C50.3291 16.5258 49.8378 15.4129 48.3239 15.4129C47.8327 15.4129 47.2846 15.56 46.8468 15.7772H46.8434Z" fill="#888888"/>
<path d="M58.8243 17.4377H60.3382V17.1102C60.3382 16.0174 59.7166 15.5061 58.6405 15.5061C57.8183 15.5061 56.7623 15.7434 55.9034 16.1645L55.1749 14.3765C56.124 13.7182 57.5811 13.2637 58.8777 13.2637C61.431 13.2637 62.8179 14.6138 62.8179 17.1871V23.5167H60.9397L60.6657 22.6779C59.5896 23.4632 58.6037 23.7907 57.7114 23.7907C55.7597 23.7907 54.6636 22.6244 54.6636 20.6527C54.6636 18.5539 56.124 17.4411 58.8209 17.4411L58.8243 17.4377ZM60.3382 20.9568V19.1321H59.115C57.7482 19.1321 57.053 19.6233 57.053 20.6092C57.053 21.3578 57.4374 21.7221 58.2194 21.7221C58.9479 21.7221 59.8803 21.3578 60.3348 20.9568H60.3382Z" fill="#888888"/>
<path d="M70.8818 22.4911C69.9528 24.9708 68.8399 26.7788 67.2158 27.7814L65.5749 26.2675C66.524 25.4454 67.1991 24.6433 67.7805 23.5672L64.2415 13.9191L66.8849 13.2072L69.1474 21.034L71.3898 13.1738L73.9999 13.9024L70.8818 22.4944V22.4911Z" fill="#888888"/>
</svg>
