<svg width="100" height="40" viewBox="0 0 100 40" fill="none" xmlns="http://www.w3.org/2000/svg">
<rect width="100" height="40" rx="5" fill="#0058A7"/>
<g clip-path="url(#clip0_3026_159875)">
<path d="M65 14.0003V22.9394H66.6581V20.3923H68.0328C68.5175 20.3923 68.9639 20.311 69.3253 20.1489C69.7017 19.9814 70.0447 19.7477 70.3387 19.4591C70.6354 19.1731 70.8691 18.829 71.0258 18.4483C71.349 17.6438 71.349 16.7455 71.0258 15.941C70.6957 15.1801 70.0889 14.5727 69.3279 14.242C68.9171 14.0773 68.4782 13.9949 68.0355 13.9997H65V14.0003ZM66.6155 15.4968H67.9079C68.1427 15.4941 68.3753 15.5355 68.595 15.6185C68.7938 15.7014 68.9731 15.8252 69.1212 15.9819C69.252 16.1419 69.3608 16.319 69.4443 16.5081C69.6064 16.9238 69.6064 17.3847 69.4443 17.8005C69.3764 17.9976 69.266 18.1769 69.1212 18.3266C68.9736 18.4838 68.7943 18.6077 68.595 18.6906C68.377 18.7735 68.1454 18.815 67.9122 18.8129H66.6198V15.4968H66.6155ZM75.1082 15.7396C74.6521 15.738 74.1998 15.8199 73.7738 15.9819C73.3694 16.1435 72.9661 16.3454 72.643 16.6691C72.3075 16.9938 72.0334 17.3772 71.8352 17.7999C71.6333 18.2447 71.5525 18.7692 71.5525 19.3374C71.5498 19.8667 71.6597 20.3901 71.8756 20.8737C72.0738 21.2964 72.3479 21.6798 72.6834 22.0046C73.0199 22.2943 73.4023 22.5264 73.8142 22.6917C74.2267 22.85 74.6645 22.9319 75.1066 22.934C75.5493 22.9399 75.9887 22.8575 76.399 22.6917C76.8034 22.4898 77.1675 22.2469 77.4098 21.9232V22.934H79.0679V15.7396H77.4157V16.6691C77.1298 16.3729 76.7857 16.1386 76.405 15.9819C76.0409 15.8204 75.5956 15.7396 75.1104 15.7396H75.1082ZM79.6381 15.78L82.5493 22.6141L81.0533 26.2135H82.7518L87 15.78H85.2606L83.4006 20.6728L81.3786 15.78H79.6381ZM75.3915 17.2765C75.6747 17.2765 75.9575 17.3169 76.2407 17.479C76.4976 17.5786 76.7318 17.7299 76.9278 17.9232C77.1303 18.0848 77.2509 18.3277 77.3726 18.5695C77.4943 18.8112 77.5342 19.0945 77.5342 19.3772C77.5342 19.6599 77.4933 19.9421 77.3726 20.185C77.2623 20.4241 77.112 20.6427 76.9278 20.8312C76.7259 21.0331 76.4836 21.1543 76.2407 21.2765C75.9978 21.3987 75.7151 21.4381 75.3915 21.4381C75.1012 21.4311 74.8142 21.3761 74.5417 21.2765C74.2989 21.1548 74.0571 21.0331 73.8546 20.8312C73.6844 20.619 73.5369 20.3901 73.4136 20.1478C73.2924 19.9049 73.252 19.6217 73.252 19.34C73.252 19.0584 73.2929 18.7735 73.4136 18.5323C73.4943 18.2894 73.6559 18.0875 73.8584 17.8861C74.0539 17.6917 74.2876 17.5393 74.5444 17.4386C74.8131 17.3266 75.1023 17.2711 75.3936 17.2765H75.3915Z" fill="white"/>
</g>
<path d="M16.4895 23.3606C17.7308 23.3606 18.751 22.9388 18.914 21.7933C18.9983 21.2005 18.9368 20.8119 18.9083 20.6682C18.6187 19.2309 16.0141 18.8023 15.8204 17.9987C15.793 17.879 15.7919 17.757 15.8147 17.6385C15.8625 17.4185 16.0119 17.1768 16.4416 17.1768C16.844 17.1768 17.0776 17.4253 17.0776 17.798V18.2232H18.7909V17.7411C18.7909 16.2478 17.4492 16.0142 16.4792 16.0142C15.2573 16.0142 14.261 16.4177 14.0787 17.5382C14.0308 17.8448 14.0228 18.1184 14.0957 18.4626C14.3944 19.8635 16.8314 20.2704 17.1859 21.1572C17.252 21.3236 17.2315 21.5357 17.1996 21.6645C17.1437 21.8936 16.9887 22.1273 16.5316 22.1273C16.103 22.1273 15.842 21.8788 15.842 21.506V20.8415H14V21.3692C14 22.9001 15.2037 23.3617 16.494 23.3617H16.4895V23.3606Z" fill="white"/>
<path d="M22.863 16.8677H22.9017L23.8159 23.0936H25.6602L24.395 16.2305L21.3435 16.2327L20.0703 23.0936H21.9237L22.863 16.8677Z" fill="white"/>
<path d="M28.7892 16.9258H28.8269L29.9736 23.0936H31.7153L32.8608 16.9281H32.8985L32.9429 23.0936H34.6573L34.5068 16.2305L31.7096 16.2327L30.8627 21.4784H30.8239L29.9793 16.2327H27.1809L27.0293 23.0936H28.7471L28.7892 16.9258Z" fill="white"/>
<path d="M41.2234 21.7803C41.3077 21.1875 41.2462 20.7988 41.2177 20.6552C40.9281 19.2178 38.3235 18.7892 38.1298 17.9856C38.1024 17.866 38.1013 17.744 38.1241 17.6254C38.1719 17.4055 38.3213 17.1638 38.751 17.1638C39.1534 17.1638 39.387 17.4123 39.387 17.785V18.2102H41.1003V17.728C41.1003 16.2337 39.7586 16 38.7886 16C37.5667 16 36.5704 16.4047 36.3881 17.5251C36.3402 17.8318 36.3322 18.1053 36.4052 18.4496C36.7038 19.8505 39.1408 20.2574 39.4953 21.1442C39.5614 21.3106 39.5409 21.5226 39.509 21.6514C39.4532 21.8806 39.2981 22.1142 38.841 22.1142C38.4125 22.1142 38.1514 21.8657 38.1514 21.493V20.8285H36.3105V21.3562C36.3105 22.8871 37.5142 23.3487 38.8046 23.3487C40.0949 23.3487 41.0661 22.927 41.2291 21.7814H41.2245L41.2234 21.7803Z" fill="white"/>
<path d="M59.5738 20.2388H60.2782V21.2373C60.2782 21.3228 60.2771 21.4197 60.2611 21.4949C60.2315 21.6807 60.0559 21.9942 59.5601 21.9942C59.0642 21.9942 58.891 21.6807 58.8579 21.4961C58.8442 21.4197 58.8408 21.3228 58.8408 21.2351V18.0981C58.8408 17.9864 58.8488 17.8645 58.8693 17.7744C58.9069 17.6057 59.0528 17.2752 59.5521 17.2752C60.0764 17.2752 60.2064 17.624 60.2383 17.7744C60.26 17.8736 60.26 18.0355 60.26 18.0355V18.4196H61.9891V18.1893C61.9891 18.1893 61.9948 17.9568 61.972 17.7379C61.8466 16.4522 60.7797 16.043 59.5635 16.043C58.3473 16.043 57.3077 16.4545 57.155 17.7391C57.1413 17.8519 57.1265 18.0674 57.1265 18.1905V21.0766C57.1265 21.2043 57.131 21.2977 57.1504 21.528C57.2655 22.7784 58.3473 23.2241 59.5635 23.2241C60.7797 23.2241 61.8649 22.7773 61.9766 21.528C61.9982 21.2989 62.0005 21.2054 62.0005 21.0766V19.2369H59.5692V20.2354L59.5726 20.2388H59.5738Z" fill="white"/>
<path d="M51.1666 17.4491H51.2042L52.8969 23.0219H55.3408V16.2329H53.6413L53.7347 21.6188H53.6983L52.1195 16.2329H49.5742V23.0219H51.2601L51.1666 17.4491Z" fill="white"/>
<path d="M45.2481 23.2988C46.5088 23.2988 47.521 22.8827 47.643 21.6027C47.6532 21.4522 47.6601 21.3029 47.6601 21.1513V16.2327H45.9229V21.3074C45.9229 21.3963 45.9218 21.4955 45.9058 21.5696C45.8728 21.7372 45.7246 22.0654 45.2481 22.0654C44.7717 22.0654 44.6212 21.7372 44.5893 21.5696C44.5745 21.4955 44.5711 21.3963 44.5722 21.3051V16.2305H42.835V21.1513C42.8339 21.2766 42.8453 21.5343 42.8521 21.6027C42.973 22.8827 43.9852 23.2988 45.2481 23.2988Z" fill="white"/>
<defs>
<clipPath id="clip0_3026_159875">
<rect width="22" height="12.2138" fill="white" transform="translate(65 14)"/>
</clipPath>
</defs>
</svg>
