<svg width="100" height="40" viewBox="0 0 100 40" fill="none" xmlns="http://www.w3.org/2000/svg">
<rect width="100" height="40" rx="5" fill="#E7231E"/>
<path d="M26 16.2447C26 15.5988 26.5111 15.0898 27.1549 15.0898H30.2901C32.7966 15.0898 34.3108 16.5741 34.3108 18.7213V18.7512C34.3108 21.1829 32.4202 22.4425 30.0656 22.4425H28.3097V24.6176C28.3097 25.2634 27.7986 25.7724 27.1549 25.7724C26.5111 25.7724 26 25.2613 26 24.6176V16.2447ZM30.1404 20.3852C31.2953 20.3852 31.9711 19.6944 31.9711 18.794V18.7641C31.9711 17.7289 31.2504 17.1729 30.0955 17.1729H28.3097V20.383H30.1404V20.3852Z" fill="white"/>
<path d="M33.945 24.1985L37.6064 15.9305C37.8609 15.3595 38.3271 15.0151 38.9559 15.0151H39.0906C39.7215 15.0151 40.1706 15.3595 40.4251 15.9305L44.0865 24.1985C44.1613 24.3632 44.2063 24.5129 44.2063 24.6626C44.2063 25.2785 43.7251 25.7726 43.1113 25.7726C42.5702 25.7726 42.2109 25.4582 42.0013 24.977L41.2955 23.326H36.6739L35.9382 25.0518C35.7436 25.501 35.3522 25.7726 34.8732 25.7726C34.2722 25.7726 33.8081 25.2914 33.8081 24.6926C33.8081 24.5279 33.868 24.3632 33.9428 24.1985H33.945ZM40.4422 21.2878L38.9879 17.8211L37.5315 21.2878H40.4422Z" fill="white"/>
<path d="M46.6508 21.6318L43.261 17.0252C43.0963 16.8006 42.9766 16.529 42.9766 16.1996C42.9766 15.5837 43.4877 15.0897 44.1314 15.0897C44.6575 15.0897 44.9869 15.3741 45.2713 15.7954L47.8228 19.4718L50.4191 15.7655C50.7035 15.3463 51.05 15.0747 51.529 15.0747C52.2348 15.0747 52.654 15.5687 52.654 16.1996C52.654 16.514 52.5043 16.8006 52.3546 17.0102L48.9648 21.5869V24.6174C48.9648 25.2633 48.4537 25.7723 47.8099 25.7723C47.1662 25.7723 46.6551 25.2611 46.6551 24.6174V21.6318H46.6508Z" fill="white"/>
<path d="M52.7227 20.4621V20.4322C52.7227 17.4466 54.9725 15 58.1998 15C59.7759 15 60.841 15.4192 61.7114 16.065C61.951 16.2447 62.1605 16.5741 62.1605 16.9804C62.1605 17.6113 61.6515 18.1053 61.0206 18.1053C60.7063 18.1053 60.4967 17.9856 60.3299 17.8808C59.684 17.3996 59.0103 17.1301 58.1848 17.1301C56.414 17.1301 55.1393 18.6015 55.1393 20.4001V20.43C55.1393 22.2308 56.384 23.73 58.1848 23.73C59.16 23.73 59.8059 23.4306 60.4646 22.9045C60.6442 22.7548 60.8838 22.65 61.1554 22.65C61.7414 22.65 62.2354 23.1312 62.2354 23.715C62.2354 24.0743 62.0558 24.3609 61.8462 24.5405C60.9009 25.3661 59.7909 25.8601 58.1099 25.8601C55.0196 25.8601 52.7248 23.4755 52.7248 20.46L52.7227 20.4621Z" fill="white"/>
<path d="M62.8362 20.4621V20.4322C62.8362 17.4466 65.1908 15 68.433 15C71.6753 15 74 17.4145 74 20.4001V20.43C74 23.4156 71.6453 25.8622 68.4031 25.8622C65.1609 25.8622 62.8362 23.4456 62.8362 20.4621ZM71.5833 20.4621V20.4322C71.5833 18.6314 70.2637 17.1322 68.4031 17.1322C66.5425 17.1322 65.2529 18.6036 65.2529 20.4022V20.4322C65.2529 22.2329 66.5724 23.7321 68.433 23.7321C70.2937 23.7321 71.5833 22.2607 71.5833 20.4621Z" fill="white"/>
</svg>
