<svg width="80" height="32" viewBox="0 0 80 32" fill="none" xmlns="http://www.w3.org/2000/svg">
<rect x="0.5" y="0.5" width="79" height="31" rx="4.5" fill="white" stroke="#ECECEC"/>
<g clip-path="url(#clip0_3527_186741)">
<path d="M51.9177 11.0001V18.3474H53.2805V16.2538H54.4105C54.8088 16.2538 55.1757 16.187 55.4727 16.0538C55.7821 15.9161 56.064 15.724 56.3057 15.4868C56.5496 15.2518 56.7417 14.969 56.8705 14.656C57.136 13.9948 57.136 13.2565 56.8705 12.5953C56.5992 11.9699 56.1003 11.4706 55.4749 11.1989C55.1372 11.0634 54.7765 10.9957 54.4127 10.9997H51.9177V11.0001ZM53.2455 12.2301H54.3078C54.5008 12.2279 54.692 12.262 54.8726 12.3301C55.0359 12.3983 55.1833 12.5001 55.305 12.6289C55.4125 12.7604 55.5019 12.906 55.5705 13.0613C55.7038 13.403 55.7038 13.7819 55.5705 14.1236C55.5148 14.2856 55.424 14.433 55.305 14.556C55.1837 14.6853 55.0363 14.7871 54.8726 14.8552C54.6933 14.9234 54.503 14.9575 54.3113 14.9557H53.2491V12.2301H53.2455ZM60.2259 12.4297C59.851 12.4284 59.4792 12.4957 59.1291 12.6289C58.7967 12.7617 58.4652 12.9277 58.1996 13.1937C57.9239 13.4606 57.6986 13.7757 57.5357 14.1231C57.3697 14.4887 57.3033 14.9198 57.3033 15.3868C57.3011 15.8219 57.3914 16.2521 57.5689 16.6495C57.7318 16.997 57.9571 17.3121 58.2328 17.579C58.5094 17.8171 58.8237 18.0079 59.1623 18.1438C59.5013 18.2739 59.8612 18.3412 60.2245 18.3429C60.5884 18.3478 60.9495 18.2801 61.2868 18.1438C61.6192 17.9778 61.9184 17.7782 62.1176 17.5122V18.3429H63.4803V12.4297H62.1224V13.1937C61.8874 12.9502 61.6046 12.7577 61.2917 12.6289C60.9925 12.4961 60.6264 12.4297 60.2276 12.4297H60.2259ZM63.9491 12.4629L66.3418 18.08L65.1122 21.0384H66.5082L69.9999 12.4629H68.5703L67.0415 16.4844L65.3796 12.4629H63.9491ZM60.4587 13.6929C60.6915 13.6929 60.9239 13.7261 61.1567 13.8594C61.3678 13.9412 61.5603 14.0656 61.7214 14.2245C61.8878 14.3573 61.987 14.5569 62.087 14.7556C62.187 14.9544 62.2198 15.1872 62.2198 15.4195C62.2198 15.6519 62.1862 15.8838 62.087 16.0834C61.9963 16.28 61.8728 16.4597 61.7214 16.6146C61.5555 16.7805 61.3563 16.8801 61.1567 16.9806C60.9571 17.0811 60.7247 17.1134 60.4587 17.1134C60.2201 17.1076 59.9842 17.0625 59.7602 16.9806C59.5606 16.8806 59.3619 16.7805 59.1955 16.6146C59.0556 16.4402 58.9343 16.2521 58.833 16.0529C58.7334 15.8533 58.7002 15.6205 58.7002 15.389C58.7002 15.1575 58.7338 14.9234 58.833 14.7251C58.8994 14.5255 59.0322 14.3595 59.1986 14.194C59.3592 14.0342 59.5513 13.9089 59.7625 13.8262C59.9833 13.7341 60.221 13.6885 60.4604 13.6929H60.4587Z" fill="#888888"/>
</g>
<path d="M12.0461 18.6939C13.0664 18.6939 13.9049 18.3473 14.0389 17.4057C14.1082 16.9185 14.0576 16.5991 14.0342 16.481C13.7962 15.2996 11.6555 14.9474 11.4962 14.2869C11.4737 14.1885 11.4728 14.0882 11.4915 13.9908C11.5309 13.81 11.6536 13.6114 12.0068 13.6114C12.3375 13.6114 12.5296 13.8156 12.5296 14.122V14.4714H13.9377V14.0751C13.9377 12.8478 12.835 12.6558 12.0377 12.6558C11.0334 12.6558 10.2145 12.9874 10.0646 13.9084C10.0253 14.1604 10.0187 14.3852 10.0787 14.6682C10.3242 15.8196 12.3272 16.1541 12.6186 16.8829C12.6729 17.0197 12.656 17.194 12.6298 17.2999C12.5839 17.4882 12.4565 17.6802 12.0808 17.6802C11.7285 17.6802 11.514 17.476 11.514 17.1696V16.6234H10V17.0572C10 18.3154 10.9893 18.6949 12.0499 18.6949H12.0461V18.6939Z" fill="#888888"/>
<path d="M17.2846 13.3572H17.3165L18.0678 18.4744H19.5837L18.5438 12.8335L16.0357 12.8354L14.9893 18.4744H16.5126L17.2846 13.3572Z" fill="#888888"/>
<path d="M22.1555 13.405H22.1864L23.1289 18.4744H24.5605L25.502 13.4069H25.533L25.5695 18.4744H26.9786L26.8549 12.8335L24.5558 12.8354L23.8597 17.1469H23.8278L23.1336 12.8354H20.8336L20.709 18.4744H22.1209L22.1555 13.405Z" fill="#888888"/>
<path d="M32.3753 17.3949C32.4447 16.9078 32.3941 16.5883 32.3706 16.4702C32.1327 15.2888 29.9919 14.9366 29.8327 14.2761C29.8102 14.1777 29.8092 14.0775 29.828 13.98C29.8673 13.7992 29.9901 13.6006 30.3433 13.6006C30.674 13.6006 30.866 13.8048 30.866 14.1112V14.4606H32.2742V14.0643C32.2742 12.8361 31.1714 12.644 30.3742 12.644C29.3698 12.644 28.551 12.9766 28.4011 13.8976C28.3618 14.1496 28.3552 14.3745 28.4152 14.6574C28.6606 15.8088 30.6637 16.1433 30.955 16.8722C31.0094 17.0089 30.9925 17.1832 30.9663 17.2891C30.9204 17.4774 30.793 17.6694 30.4173 17.6694C30.065 17.6694 29.8505 17.4652 29.8505 17.1588V16.6126H28.3374V17.0464C28.3374 18.3046 29.3267 18.6841 30.3873 18.6841C31.4478 18.6841 32.246 18.3374 32.38 17.3959H32.3763L32.3753 17.3949Z" fill="#888888"/>
<path d="M47.4582 16.1278H48.0372V16.9485C48.0372 17.0188 48.0363 17.0984 48.0232 17.1603C47.9988 17.313 47.8545 17.5706 47.447 17.5706C47.0395 17.5706 46.8971 17.313 46.8699 17.1612C46.8586 17.0984 46.8558 17.0188 46.8558 16.9467V14.3684C46.8558 14.2766 46.8624 14.1763 46.8793 14.1023C46.9102 13.9637 47.0301 13.692 47.4404 13.692C47.8714 13.692 47.9782 13.9786 48.0044 14.1023C48.0222 14.1838 48.0222 14.3169 48.0222 14.3169V14.6326H49.4435V14.4433C49.4435 14.4433 49.4482 14.2522 49.4294 14.0723C49.3264 13.0155 48.4495 12.6792 47.4498 12.6792C46.4502 12.6792 45.5957 13.0174 45.4702 14.0733C45.459 14.166 45.4468 14.3431 45.4468 14.4443V16.8164C45.4468 16.9214 45.4505 16.9982 45.4665 17.1874C45.5611 18.2152 46.4502 18.5815 47.4498 18.5815C48.4495 18.5815 49.3414 18.2143 49.4332 17.1874C49.451 16.9991 49.4529 16.9223 49.4529 16.8164V15.3043H47.4545V16.125L47.4573 16.1278H47.4582Z" fill="#888888"/>
<path d="M40.5478 13.8351H40.5787L41.97 18.4155H43.9787V12.8354H42.5818L42.6586 17.2622H42.6286L41.3311 12.8354H39.239V18.4155H40.6247L40.5478 13.8351Z" fill="#888888"/>
<path d="M35.6841 18.6431C36.7203 18.6431 37.5522 18.3011 37.6525 17.249C37.6609 17.1253 37.6665 17.0026 37.6665 16.878V12.8354H36.2387V17.0063C36.2387 17.0794 36.2378 17.1609 36.2247 17.2218C36.1975 17.3595 36.0757 17.6294 35.6841 17.6294C35.2925 17.6294 35.1688 17.3595 35.1426 17.2218C35.1304 17.1609 35.1276 17.0794 35.1285 17.0045V12.8335H33.7007V16.878C33.6998 16.981 33.7092 17.1928 33.7148 17.249C33.8141 18.3011 34.6461 18.6431 35.6841 18.6431Z" fill="#888888"/>
<defs>
<clipPath id="clip0_3527_186741">
<rect width="18.0822" height="10.0387" fill="white" transform="translate(51.9177 11)"/>
</clipPath>
</defs>
</svg>
