<svg width="80" height="32" viewBox="0 0 80 32" fill="none" xmlns="http://www.w3.org/2000/svg">
<rect x="0.5" y="0.5" width="79" height="31" rx="4.5" fill="white" stroke="#ECECEC"/>
<path d="M63.5093 14.4598C62.9382 13.8064 62.1277 13.4478 61.2172 13.4478C59.4385 13.4478 58.0972 14.835 58.0972 16.6753C58.0972 18.5155 59.4385 19.9028 61.2172 19.9028C62.1578 19.9028 63.011 19.5079 63.5713 18.8161V19.8168H64.5178V13.5337H63.5087V14.4598H63.5093ZM61.3737 18.9335C60.0962 18.9335 59.1689 17.9837 59.1689 16.6753C59.1689 15.3668 60.0962 14.4171 61.3737 14.4171C62.6512 14.4171 63.4906 15.2708 63.5719 16.4909V16.8591C63.49 18.0803 62.5862 18.9335 61.3737 18.9335Z" fill="#888888"/>
<path d="M70.2972 13.5098L68.2079 18.3398L66.174 13.5098H65.0596L67.6507 19.4982L66.6494 21.8335H67.6946L68.5593 19.7994L71.3996 13.5098H70.2972Z" fill="#888888"/>
<path d="M54.3401 13.4478C53.3996 13.4478 52.5463 13.8426 51.9861 14.5345V13.5462H51.0396V21.8331H52.0487V18.8908C52.6197 19.5441 53.4303 19.9028 54.3407 19.9028C56.1195 19.9028 57.4608 18.5155 57.4608 16.6753C57.4608 14.835 56.1195 13.4478 54.3407 13.4478H54.3401ZM54.1843 18.9335C52.9712 18.9335 52.0673 18.0798 51.9861 16.8597V16.4927C52.0673 15.2708 52.9718 14.4171 54.1843 14.4171C55.4618 14.4171 56.3891 15.3668 56.3891 16.6753C56.3891 17.9837 55.4618 18.9335 54.1843 18.9335Z" fill="#888888"/>
<path d="M24.8705 17.4945V14.8995H23.4973V13.5342H24.8705V11.8926L26.5494 11.4497V13.5336H28.6404V14.899H26.5494V17.4696C26.5494 18.1526 26.9237 18.5521 27.5669 18.5521C27.9352 18.5521 28.2036 18.4786 28.4846 18.2759L29.0839 19.5061C28.641 19.844 28.0537 20.0035 27.4171 20.0035C25.7882 20.0035 24.8705 19.0999 24.8705 17.4945Z" fill="#888888"/>
<path d="M29.1667 16.682C29.1667 14.7943 30.6525 13.3804 32.6557 13.3804C34.6589 13.3804 36.1446 14.7949 36.1446 16.682C36.1446 18.5691 34.6589 19.9848 32.6557 19.9848C30.6525 19.9848 29.1667 18.5702 29.1667 16.682ZM32.6557 18.5092C33.6792 18.5092 34.4471 17.7278 34.4471 16.682C34.4471 15.6362 33.6792 14.856 32.6557 14.856C31.6321 14.856 30.8643 15.6362 30.8643 16.682C30.8643 17.7278 31.6321 18.5092 32.6557 18.5092Z" fill="#888888"/>
<path d="M36.5774 18.3373L38.2442 17.8944C38.3501 18.4042 38.8309 18.6936 39.6114 18.6936C40.248 18.6936 40.7102 18.4108 40.7102 18.0349C40.7102 17.7586 40.3858 17.5618 39.8864 17.4569L38.6444 17.1984C37.465 16.9523 36.7405 16.3316 36.7405 15.4465C36.7405 14.2098 37.8266 13.3804 39.4243 13.3804C40.8474 13.3804 41.9335 14.0201 42.2206 15.0528L40.6536 15.4708C40.5537 14.9787 40.0609 14.6521 39.3743 14.6521C38.8002 14.6521 38.4133 14.9171 38.4133 15.2917C38.4133 15.5811 38.6757 15.7346 39.1059 15.833L40.5603 16.1597C41.6712 16.4057 42.3457 17.0205 42.3457 17.9062C42.3457 19.2034 41.2469 19.9848 39.4622 19.9848C37.8952 19.9848 36.8097 19.3629 36.5786 18.3367L36.5774 18.3373Z" fill="#888888"/>
<path d="M42.752 18.3373L44.4188 17.8944C44.5247 18.4042 45.0055 18.6936 45.786 18.6936C46.4226 18.6936 46.8847 18.4108 46.8847 18.0349C46.8847 17.7586 46.5604 17.5618 46.061 17.4569L44.819 17.1984C43.6395 16.9523 42.915 16.3316 42.915 15.4465C42.915 14.2098 44.0012 13.3804 45.5988 13.3804C47.0219 13.3804 48.1081 14.0201 48.3951 15.0528L46.8282 15.4708C46.7283 14.9787 46.2355 14.6521 45.5489 14.6521C44.9748 14.6521 44.5879 14.9171 44.5879 15.2917C44.5879 15.5811 44.8502 15.7346 45.2805 15.833L46.7349 16.1597C47.8457 16.4057 48.5203 17.0205 48.5203 17.9062C48.5203 19.2034 47.4215 19.9848 45.6367 19.9848C44.0698 19.9848 42.9842 19.3629 42.7532 18.3367L42.752 18.3373Z" fill="#888888"/>
<path d="M16.1186 12.6892L16.6512 10.2134C16.6765 10.0901 16.5699 9.97861 16.4382 10.0035C15.6613 10.1393 14.8592 10.374 14.0577 10.7138C10.4676 12.2131 8.29354 15.1513 9.20819 17.2814C9.89719 18.8739 12.1279 19.5527 14.7214 19.1578L14.1888 21.6324C14.1636 21.7557 14.2701 21.8672 14.4019 21.8423C15.1787 21.7065 15.9808 21.4718 16.7824 21.1332C20.3784 19.6327 22.5459 16.6945 21.6312 14.5656C20.9422 12.9731 18.7116 12.2943 16.118 12.6892H16.1186Z" fill="#888888"/>
</svg>
