<svg width="80" height="32" viewBox="0 0 80 32" fill="none" xmlns="http://www.w3.org/2000/svg">
<rect width="80" height="32" rx="5" fill="#00C73C"/>
<path d="M40.2148 11.3379H43.4234C43.9288 11.3379 44.3684 11.4015 44.7422 11.5287C45.1144 11.6558 45.424 11.8339 45.6678 12.0596C45.9117 12.2854 46.0946 12.5556 46.2149 12.8688C46.3352 13.182 46.3946 13.519 46.3946 13.8815V14.1406C46.3946 14.5031 46.3304 14.8433 46.2021 15.1596C46.0737 15.476 45.8844 15.7542 45.6374 15.9926C45.3887 16.2311 45.0807 16.4203 44.7117 16.5602C44.3427 16.7001 43.9143 16.77 43.425 16.77H41.4485V20.2404H40.2148V11.3379ZM41.4485 12.3998V15.7097H43.2181C44.5144 15.7097 45.1625 15.1787 45.1625 14.1167V13.8942C45.1625 13.3839 45.0069 13.0071 44.6956 12.7639C44.3844 12.5207 43.9368 12.3998 43.3561 12.3998H41.4502H41.4485Z" fill="white"/>
<path d="M49.5592 20.339C48.8694 20.339 48.3239 20.1705 47.9212 19.8335C47.5185 19.4965 47.3164 19.0307 47.3164 18.4377V18.1039C47.3164 17.5284 47.5121 17.0578 47.902 16.697C48.2918 16.3345 48.9239 16.1533 49.7966 16.1533H51.5293V15.7574C51.5293 15.3043 51.4186 14.9689 51.1988 14.7511C50.979 14.5333 50.6197 14.4236 50.1207 14.4236C49.7212 14.4236 49.3747 14.4856 49.0795 14.6096C48.7843 14.7336 48.4795 14.8974 48.1635 15.104L47.5651 14.2154C47.8972 13.9849 48.271 13.7846 48.6865 13.616C49.102 13.4475 49.5833 13.3633 50.1319 13.3633C50.5138 13.3633 50.8635 13.411 51.1779 13.5048C51.494 13.6002 51.7651 13.74 51.9945 13.9245C52.2223 14.1105 52.402 14.3362 52.5304 14.6033C52.6587 14.8704 52.7229 15.174 52.7229 15.511V20.2405H51.5646V19.4249H51.5517C51.4844 19.5489 51.3961 19.6618 51.2838 19.7651C51.1715 19.8685 51.0496 19.9559 50.9164 20.0306C50.7336 20.1292 50.5362 20.2055 50.3245 20.2596C50.1127 20.3136 49.8576 20.339 49.5576 20.339H49.5592ZM51.5277 17.1659H49.8207C49.3474 17.1659 49.0089 17.2565 48.8052 17.4378C48.6014 17.619 48.5004 17.8702 48.5004 18.1913V18.3646C48.5004 18.6937 48.6159 18.9321 48.8485 19.08C49.0811 19.2278 49.3587 19.3025 49.6827 19.3025C49.9811 19.3025 50.241 19.2676 50.4608 19.1976C50.6806 19.1277 50.8828 19.0227 51.0656 18.8828C51.2325 18.7588 51.3496 18.6174 51.4202 18.4568C51.4908 18.2962 51.5261 18.088 51.5261 17.8336V17.1675L51.5277 17.1659Z" fill="white"/>
<path d="M56.9364 18.8829L58.73 13.4873H60.0006L56.4615 23.0321L55.3658 22.649L56.2498 20.3407L53.7695 13.4873H55.0786L56.8851 18.8829H56.9348H56.9364Z" fill="white"/>
<path d="M35.7221 7.99951H20V23.5789H35.7221V7.99951Z" fill="white"/>
<path d="M29.11 19.3552L26.5736 15.6638V19.3552H23.9297V12.2236H26.6105L29.1469 15.915V12.2236H31.7907V19.3552H29.11Z" fill="#00C73C"/>
</svg>
