<svg width="80" height="32" viewBox="0 0 80 32" fill="none" xmlns="http://www.w3.org/2000/svg">
<rect x="0.5" y="0.5" width="79" height="31" rx="4.5" fill="white" stroke="#ECECEC"/>
<path d="M40.2144 11.3379H43.4229C43.9283 11.3379 44.3679 11.4015 44.7417 11.5287C45.1139 11.6558 45.4235 11.8339 45.6674 12.0596C45.9112 12.2854 46.0941 12.5556 46.2144 12.8688C46.3347 13.182 46.3941 13.519 46.3941 13.8815V14.1406C46.3941 14.5031 46.3299 14.8433 46.2016 15.1596C46.0732 15.476 45.8839 15.7542 45.6369 15.9926C45.3882 16.2311 45.0802 16.4203 44.7112 16.5602C44.3422 16.7001 43.9139 16.77 43.4246 16.77H41.4481V20.2404H40.2144V11.3379ZM41.4481 12.3998V15.7097H43.2176C44.5139 15.7097 45.162 15.1787 45.162 14.1167V13.8942C45.162 13.3839 45.0064 13.0071 44.6952 12.7639C44.3839 12.5207 43.9363 12.3998 43.3556 12.3998H41.4497H41.4481Z" fill="#888888"/>
<path d="M49.5597 20.339C48.8699 20.339 48.3244 20.1705 47.9217 19.8335C47.519 19.4965 47.3169 19.0307 47.3169 18.4377V18.1039C47.3169 17.5284 47.5126 17.0578 47.9025 16.697C48.2923 16.3345 48.9244 16.1533 49.7971 16.1533H51.5298V15.7574C51.5298 15.3043 51.4191 14.9689 51.1993 14.7511C50.9795 14.5333 50.6201 14.4236 50.1212 14.4236C49.7217 14.4236 49.3752 14.4856 49.08 14.6096C48.7848 14.7336 48.48 14.8974 48.164 15.104L47.5656 14.2154C47.8977 13.9849 48.2714 13.7846 48.687 13.616C49.1025 13.4475 49.5838 13.3633 50.1324 13.3633C50.5143 13.3633 50.864 13.411 51.1784 13.5048C51.4945 13.6002 51.7656 13.74 51.995 13.9245C52.2228 14.1105 52.4025 14.3362 52.5309 14.6033C52.6592 14.8704 52.7234 15.174 52.7234 15.511V20.2405H51.5651V19.4249H51.5522C51.4849 19.5489 51.3966 19.6618 51.2843 19.7651C51.172 19.8685 51.0501 19.9559 50.9169 20.0306C50.734 20.1292 50.5367 20.2055 50.3249 20.2596C50.1132 20.3136 49.8581 20.339 49.5581 20.339H49.5597ZM51.5282 17.1659H49.8212C49.3479 17.1659 49.0094 17.2565 48.8057 17.4378C48.6019 17.619 48.5009 17.8702 48.5009 18.1913V18.3646C48.5009 18.6937 48.6164 18.9321 48.849 19.08C49.0816 19.2278 49.3592 19.3025 49.6832 19.3025C49.9816 19.3025 50.2415 19.2676 50.4613 19.1976C50.6811 19.1277 50.8832 19.0227 51.0661 18.8828C51.233 18.7588 51.3501 18.6174 51.4207 18.4568C51.4913 18.2962 51.5266 18.088 51.5266 17.8336V17.1675L51.5282 17.1659Z" fill="#888888"/>
<path d="M56.9364 18.8829L58.73 13.4873H60.0006L56.4615 23.0321L55.3658 22.649L56.2498 20.3407L53.7695 13.4873H55.0786L56.8851 18.8829H56.9348H56.9364Z" fill="#888888"/>
<path d="M35.7221 7.99951H20V23.5789H35.7221V7.99951Z" fill="#888888"/>
<path d="M29.1109 19.3552L26.5745 15.6638V19.3552H23.9307V12.2236H26.6114L29.1478 15.915V12.2236H31.7917V19.3552H29.1109Z" fill="white"/>
</svg>
