<svg width="80" height="32" viewBox="0 0 80 32" fill="none" xmlns="http://www.w3.org/2000/svg">
<rect width="80" height="32" rx="5" fill="#E7231E"/>
<path d="M21 12.9877C21 12.4755 21.4089 12.0718 21.9239 12.0718H24.4321C26.4373 12.0718 27.6487 13.2489 27.6487 14.9519V14.9756C27.6487 16.9042 26.1362 17.9032 24.2525 17.9032H22.8478V19.6282C22.8478 20.1405 22.4389 20.5442 21.9239 20.5442C21.4089 20.5442 21 20.1388 21 19.6282V12.9877ZM24.3124 16.2715C25.2362 16.2715 25.7769 15.7236 25.7769 15.0096V14.9858C25.7769 14.1649 25.2003 13.7239 24.2764 13.7239H22.8478V16.2698H24.3124V16.2715Z" fill="white"/>
<path d="M27.3556 19.2956L30.2847 12.7382C30.4883 12.2853 30.8613 12.0122 31.3643 12.0122H31.4721C31.9768 12.0122 32.3361 12.2853 32.5397 12.7382L35.4688 19.2956C35.5287 19.4262 35.5646 19.5449 35.5646 19.6637C35.5646 20.1522 35.1797 20.544 34.6886 20.544C34.2558 20.544 33.9683 20.2946 33.8006 19.913L33.236 18.6035H29.5387L28.9502 19.9724C28.7945 20.3286 28.4814 20.544 28.0981 20.544C27.6174 20.544 27.2461 20.1623 27.2461 19.6874C27.2461 19.5568 27.294 19.4262 27.3539 19.2956H27.3556ZM32.5534 16.9871L31.39 14.2376L30.2248 16.9871H32.5534Z" fill="white"/>
<path d="M37.5214 17.2605L34.8096 13.607C34.6778 13.4289 34.582 13.2135 34.582 12.9522C34.582 12.4637 34.9909 12.0719 35.5059 12.0719C35.9268 12.0719 36.1903 12.2975 36.4179 12.6317L38.459 15.5474L40.5361 12.6079C40.7636 12.2755 41.0408 12.0601 41.424 12.0601C41.9886 12.0601 42.324 12.4519 42.324 12.9522C42.324 13.2016 42.2042 13.4289 42.0844 13.5951L39.3726 17.2249V19.6284C39.3726 20.1406 38.9637 20.5443 38.4487 20.5443C37.9337 20.5443 37.5248 20.1389 37.5248 19.6284V17.2605H37.5214Z" fill="white"/>
<path d="M42.3789 16.3325V16.3088C42.3789 13.9409 44.1788 12.0005 46.7606 12.0005C48.0215 12.0005 48.8736 12.3329 49.5699 12.8452C49.7615 12.9877 49.9292 13.2489 49.9292 13.5711C49.9292 14.0715 49.522 14.4633 49.0173 14.4633C48.7658 14.4633 48.5981 14.3683 48.4647 14.2852C47.948 13.9036 47.409 13.6899 46.7486 13.6899C45.332 13.6899 44.3123 14.8568 44.3123 16.2833V16.3071C44.3123 17.7353 45.308 18.9243 46.7486 18.9243C47.5288 18.9243 48.0455 18.6868 48.5725 18.2696C48.7162 18.1508 48.9078 18.0677 49.1251 18.0677C49.5939 18.0677 49.9891 18.4493 49.9891 18.9124C49.9891 19.1974 49.8454 19.4246 49.6777 19.5671C48.9215 20.2219 48.0335 20.6137 46.6887 20.6137C44.2164 20.6137 42.3806 18.7224 42.3806 16.3308L42.3789 16.3325Z" fill="white"/>
<path d="M50.4688 16.3325V16.3088C50.4688 13.9409 52.3525 12.0005 54.9462 12.0005C57.54 12.0005 59.3998 13.9155 59.3998 16.2833V16.3071C59.3998 18.6749 57.516 20.6154 54.9223 20.6154C52.3285 20.6154 50.4688 18.6987 50.4688 16.3325ZM57.4664 16.3325V16.3088C57.4664 14.8806 56.4108 13.6916 54.9223 13.6916C53.4338 13.6916 52.4021 14.8585 52.4021 16.285V16.3088C52.4021 17.737 53.4577 18.926 54.9462 18.926C56.4347 18.926 57.4664 17.759 57.4664 16.3325Z" fill="white"/>
</svg>
