<svg width="80" height="32" viewBox="0 0 80 32" fill="none" xmlns="http://www.w3.org/2000/svg">
<rect width="80" height="32" rx="5" fill="#FFEB00"/>
<path fill-rule="evenodd" clip-rule="evenodd" d="M26.8657 10C23.6281 10 21 12.0568 21 14.5933C21 16.2233 22.0881 17.6546 23.7217 18.471L23.1682 20.5171C23.1468 20.5807 23.1656 20.647 23.211 20.6921C23.2431 20.7239 23.2859 20.7398 23.3313 20.7398C23.3661 20.7398 23.4008 20.7265 23.4329 20.7027L25.8097 19.1124C26.1546 19.1601 26.5075 19.1892 26.8657 19.1892C30.1034 19.1892 32.7315 17.1325 32.7315 14.5959C32.7315 12.0594 30.1061 10.0027 26.8657 10.0027V10Z" fill="black"/>
<path d="M37.6757 18.4098V21.3757H35.5449V10.4371H37.0474L37.3095 11.1316C37.7613 10.6836 38.4484 10.2065 39.5579 10.2065C41.6459 10.2065 42.6378 11.7544 42.6218 14.2565C42.6218 16.8752 41.0898 18.5529 38.9002 18.5529C38.4778 18.5529 38.157 18.5238 37.6757 18.4072V18.4098ZM37.6757 12.2024V16.9335C37.7934 16.9467 38.0848 16.9759 38.3628 16.9759C39.8814 16.9759 40.4642 15.921 40.4642 14.2565C40.4642 12.7961 40.0712 11.9135 38.8601 11.9135C38.4671 11.9135 38.0286 12.0301 37.6784 12.2024H37.6757Z" fill="black"/>
<path d="M47.2602 13.5199H48.4713V13.2602C48.4713 12.3935 47.974 11.988 47.1131 11.988C46.4555 11.988 45.6106 12.1761 44.9235 12.5101L44.3407 11.0921C45.1 10.5699 46.2656 10.2095 47.303 10.2095C49.3456 10.2095 50.4551 11.2803 50.4551 13.3211V18.3412H48.9525L48.7333 17.6759C47.8724 18.2988 47.0837 18.5585 46.3699 18.5585C44.8086 18.5585 43.9316 17.6335 43.9316 16.0697C43.9316 14.4052 45.1 13.5226 47.2575 13.5226L47.2602 13.5199ZM48.4713 16.3109V14.8637H47.4928C46.3993 14.8637 45.8432 15.2534 45.8432 16.0352C45.8432 16.629 46.1507 16.9179 46.7763 16.9179C47.3591 16.9179 48.105 16.629 48.4686 16.3109H48.4713Z" fill="black"/>
<path d="M56.9061 17.5273C56.1628 19.4939 55.2725 20.9278 53.9732 21.723L52.6605 20.5223C53.4198 19.8703 53.9598 19.2342 54.425 18.3807L51.5938 10.7288L53.7085 10.1642L55.5185 16.3716L57.3124 10.1377L59.4005 10.7155L56.9061 17.5299V17.5273Z" fill="black"/>
</svg>
