<svg width="80" height="32" viewBox="0 0 80 32" fill="none" xmlns="http://www.w3.org/2000/svg">
<rect width="80" height="32" rx="5" fill="#0058A7"/>
<g clip-path="url(#clip0_3026_157411)">
<path d="M51.918 11.0001V18.3474H53.2808V16.2538H54.4107C54.8091 16.2538 55.176 16.187 55.473 16.0538C55.7824 15.9161 56.0643 15.724 56.306 15.4868C56.5498 15.2518 56.7419 14.969 56.8707 14.656C57.1363 13.9948 57.1363 13.2565 56.8707 12.5953C56.5994 11.9699 56.1006 11.4706 55.4752 11.1989C55.1375 11.0634 54.7768 10.9957 54.4129 10.9997H51.918V11.0001ZM53.2458 12.2301H54.308C54.501 12.2279 54.6922 12.262 54.8728 12.3301C55.0361 12.3983 55.1835 12.5001 55.3052 12.6289C55.4128 12.7604 55.5022 12.906 55.5708 13.0613C55.704 13.403 55.704 13.7819 55.5708 14.1236C55.515 14.2856 55.4243 14.433 55.3052 14.556C55.184 14.6853 55.0366 14.7871 54.8728 14.8552C54.6935 14.9234 54.5032 14.9575 54.3116 14.9557H53.2493V12.2301H53.2458ZM60.2261 12.4297C59.8512 12.4284 59.4794 12.4957 59.1293 12.6289C58.7969 12.7617 58.4654 12.9277 58.1999 13.1937C57.9241 13.4606 57.6988 13.7757 57.536 14.1231C57.37 14.4887 57.3036 14.9198 57.3036 15.3868C57.3014 15.8219 57.3917 16.2521 57.5692 16.6495C57.732 16.997 57.9573 17.3121 58.2331 17.579C58.5097 17.8171 58.8239 18.0079 59.1625 18.1438C59.5016 18.2739 59.8614 18.3412 60.2248 18.3429C60.5886 18.3478 60.9498 18.2801 61.287 18.1438C61.6194 17.9778 61.9186 17.7782 62.1178 17.5122V18.3429H63.4806V12.4297H62.1227V13.1937C61.8877 12.9502 61.6048 12.7577 61.2919 12.6289C60.9927 12.4961 60.6267 12.4297 60.2279 12.4297H60.2261ZM63.9493 12.4629L66.342 18.08L65.1125 21.0384H66.5084L70.0002 12.4629H68.5705L67.0418 16.4844L65.3798 12.4629H63.9493ZM60.4589 13.6929C60.6917 13.6929 60.9241 13.7261 61.1569 13.8594C61.368 13.9412 61.5606 14.0656 61.7217 14.2245C61.8881 14.3573 61.9872 14.5569 62.0873 14.7556C62.1873 14.9544 62.22 15.1872 62.22 15.4195C62.22 15.6519 62.1864 15.8838 62.0873 16.0834C61.9965 16.28 61.873 16.4597 61.7217 16.6146C61.5557 16.7805 61.3565 16.8801 61.1569 16.9806C60.9573 17.0811 60.7249 17.1134 60.4589 17.1134C60.2204 17.1076 59.9844 17.0625 59.7605 16.9806C59.5609 16.8806 59.3621 16.7805 59.1957 16.6146C59.0559 16.4402 58.9346 16.2521 58.8332 16.0529C58.7336 15.8533 58.7005 15.6205 58.7005 15.389C58.7005 15.1575 58.7341 14.9234 58.8332 14.7251C58.8996 14.5255 59.0324 14.3595 59.1988 14.194C59.3595 14.0342 59.5516 13.9089 59.7627 13.8262C59.9836 13.7341 60.2212 13.6885 60.4607 13.6929H60.4589Z" fill="white"/>
</g>
<path d="M12.0461 18.6939C13.0664 18.6939 13.9049 18.3473 14.0389 17.4057C14.1082 16.9185 14.0576 16.5991 14.0342 16.481C13.7962 15.2996 11.6555 14.9474 11.4962 14.2869C11.4737 14.1885 11.4728 14.0882 11.4915 13.9908C11.5309 13.81 11.6536 13.6114 12.0068 13.6114C12.3375 13.6114 12.5296 13.8156 12.5296 14.122V14.4714H13.9377V14.0751C13.9377 12.8478 12.835 12.6558 12.0377 12.6558C11.0334 12.6558 10.2145 12.9874 10.0646 13.9084C10.0253 14.1604 10.0187 14.3852 10.0787 14.6682C10.3242 15.8196 12.3272 16.1541 12.6186 16.8829C12.6729 17.0197 12.656 17.194 12.6298 17.2999C12.5839 17.4882 12.4565 17.6802 12.0808 17.6802C11.7285 17.6802 11.514 17.476 11.514 17.1696V16.6234H10V17.0572C10 18.3154 10.9893 18.6949 12.0499 18.6949H12.0461V18.6939Z" fill="white"/>
<path d="M17.2856 13.3572H17.3174L18.0688 18.4744H19.5847L18.5447 12.8335L16.0367 12.8354L14.9902 18.4744H16.5136L17.2856 13.3572Z" fill="white"/>
<path d="M22.1555 13.405H22.1864L23.1289 18.4744H24.5605L25.502 13.4069H25.533L25.5695 18.4744H26.9786L26.8549 12.8335L24.5558 12.8354L23.8597 17.1469H23.8278L23.1336 12.8354H20.8336L20.709 18.4744H22.1209L22.1555 13.405Z" fill="white"/>
<path d="M32.3758 17.3949C32.4452 16.9078 32.3946 16.5883 32.3711 16.4702C32.1332 15.2888 29.9924 14.9366 29.8331 14.2761C29.8107 14.1777 29.8097 14.0775 29.8285 13.98C29.8678 13.7992 29.9905 13.6006 30.3437 13.6006C30.6745 13.6006 30.8665 13.8048 30.8665 14.1112V14.4606H32.2746V14.0643C32.2746 12.8361 31.1719 12.644 30.3747 12.644C29.3703 12.644 28.5515 12.9766 28.4016 13.8976C28.3622 14.1496 28.3557 14.3745 28.4157 14.6574C28.6611 15.8088 30.6642 16.1433 30.9555 16.8722C31.0099 17.0089 30.993 17.1832 30.9668 17.2891C30.9209 17.4774 30.7934 17.6694 30.4178 17.6694C30.0655 17.6694 29.8509 17.4652 29.8509 17.1588V16.6126H28.3379V17.0464C28.3379 18.3046 29.3272 18.6841 30.3878 18.6841C31.4483 18.6841 32.2465 18.3374 32.3805 17.3959H32.3768L32.3758 17.3949Z" fill="white"/>
<path d="M47.4587 16.1278H48.0377V16.9485C48.0377 17.0188 48.0368 17.0984 48.0237 17.1603C47.9993 17.313 47.855 17.5706 47.4475 17.5706C47.04 17.5706 46.8975 17.313 46.8704 17.1612C46.8591 17.0984 46.8563 17.0188 46.8563 16.9467V14.3684C46.8563 14.2766 46.8629 14.1763 46.8797 14.1023C46.9107 13.9637 47.0306 13.692 47.4409 13.692C47.8719 13.692 47.9787 13.9786 48.0049 14.1023C48.0227 14.1838 48.0227 14.3169 48.0227 14.3169V14.6326H49.444V14.4433C49.444 14.4433 49.4487 14.2522 49.4299 14.0723C49.3269 13.0155 48.45 12.6792 47.4503 12.6792C46.4507 12.6792 45.5962 13.0174 45.4707 14.0733C45.4594 14.166 45.4473 14.3431 45.4473 14.4443V16.8164C45.4473 16.9214 45.451 16.9982 45.4669 17.1874C45.5616 18.2152 46.4507 18.5815 47.4503 18.5815C48.45 18.5815 49.3419 18.2143 49.4337 17.1874C49.4515 16.9991 49.4533 16.9223 49.4533 16.8164V15.3043H47.455V16.125L47.4578 16.1278H47.4587Z" fill="white"/>
<path d="M40.5471 13.8351H40.578L41.9693 18.4155H43.9779V12.8354H42.5811L42.6579 17.2622H42.6279L41.3303 12.8354H39.2383V18.4155H40.6239L40.5471 13.8351Z" fill="white"/>
<path d="M35.6846 18.6431C36.7208 18.6431 37.5527 18.3011 37.653 17.249C37.6614 17.1253 37.667 17.0026 37.667 16.878V12.8354H36.2392V17.0063C36.2392 17.0794 36.2383 17.1609 36.2252 17.2218C36.198 17.3595 36.0762 17.6294 35.6846 17.6294C35.293 17.6294 35.1693 17.3595 35.1431 17.2218C35.1309 17.1609 35.1281 17.0794 35.129 17.0045V12.8335H33.7012V16.878C33.7003 16.981 33.7097 17.1928 33.7153 17.249C33.8146 18.3011 34.6465 18.6431 35.6846 18.6431Z" fill="white"/>
<defs>
<clipPath id="clip0_3026_157411">
<rect width="18.0822" height="10.0387" fill="white" transform="translate(51.918 11)"/>
</clipPath>
</defs>
</svg>
