<svg width="80" height="32" viewBox="0 0 80 32" fill="none" xmlns="http://www.w3.org/2000/svg">
<rect x="0.5" y="0.5" width="79" height="31" rx="4.5" fill="white" stroke="#ECECEC"/>
<path d="M20.9993 12.9877C20.9993 12.4755 21.4082 12.0718 21.9232 12.0718H24.4314C26.4366 12.0718 27.6479 13.2489 27.6479 14.9519V14.9756C27.6479 16.9042 26.1355 17.9032 24.2517 17.9032H22.8471V19.6282C22.8471 20.1405 22.4382 20.5442 21.9232 20.5442C21.4082 20.5442 20.9993 20.1388 20.9993 19.6282V12.9877ZM24.3116 16.2715C25.2355 16.2715 25.7762 15.7236 25.7762 15.0096V14.9858C25.7762 14.1649 25.1996 13.7239 24.2757 13.7239H22.8471V16.2698H24.3116V16.2715Z" fill="#888888"/>
<path d="M27.3553 19.2956L30.2845 12.7382C30.4881 12.2853 30.861 12.0122 31.364 12.0122H31.4718C31.9766 12.0122 32.3359 12.2853 32.5395 12.7382L35.4686 19.2956C35.5284 19.4262 35.5644 19.5449 35.5644 19.6637C35.5644 20.1522 35.1794 20.544 34.6884 20.544C34.2555 20.544 33.9681 20.2946 33.8004 19.913L33.2358 18.6035H29.5385L28.9499 19.9724C28.7942 20.3286 28.4811 20.544 28.0979 20.544C27.6171 20.544 27.2458 20.1623 27.2458 19.6874C27.2458 19.5568 27.2938 19.4262 27.3536 19.2956H27.3553ZM32.5531 16.9871L31.3897 14.2376L30.2246 16.9871H32.5531Z" fill="#888888"/>
<path d="M37.5199 17.2605L34.8081 13.607C34.6764 13.4289 34.5806 13.2135 34.5806 12.9522C34.5806 12.4637 34.9895 12.0719 35.5045 12.0719C35.9254 12.0719 36.1888 12.2975 36.4164 12.6317L38.4575 15.5474L40.5346 12.6079C40.7621 12.2755 41.0393 12.0601 41.4226 12.0601C41.9872 12.0601 42.3225 12.4519 42.3225 12.9522C42.3225 13.2016 42.2027 13.4289 42.083 13.5951L39.3712 17.2249V19.6284C39.3712 20.1406 38.9622 20.5443 38.4473 20.5443C37.9323 20.5443 37.5234 20.1389 37.5234 19.6284V17.2605H37.5199Z" fill="#888888"/>
<path d="M42.3772 16.3325V16.3088C42.3772 13.9409 44.1771 12.0005 46.7589 12.0005C48.0198 12.0005 48.8719 12.3329 49.5682 12.8452C49.7598 12.9877 49.9275 13.2489 49.9275 13.5711C49.9275 14.0715 49.5203 14.4633 49.0156 14.4633C48.7641 14.4633 48.5964 14.3683 48.463 14.2852C47.9463 13.9036 47.4073 13.6899 46.7469 13.6899C45.3303 13.6899 44.3105 14.8568 44.3105 16.2833V16.3071C44.3105 17.7353 45.3063 18.9243 46.7469 18.9243C47.5271 18.9243 48.0438 18.6868 48.5707 18.2696C48.7145 18.1508 48.9061 18.0677 49.1234 18.0677C49.5922 18.0677 49.9874 18.4493 49.9874 18.9124C49.9874 19.1974 49.8437 19.4246 49.676 19.5671C48.9198 20.2219 48.0318 20.6137 46.687 20.6137C44.2147 20.6137 42.3789 18.7224 42.3789 16.3308L42.3772 16.3325Z" fill="#888888"/>
<path d="M50.4683 16.3325V16.3088C50.4683 13.9409 52.352 12.0005 54.9458 12.0005C57.5395 12.0005 59.3993 13.9155 59.3993 16.2833V16.3071C59.3993 18.6749 57.5156 20.6154 54.9218 20.6154C52.328 20.6154 50.4683 18.6987 50.4683 16.3325ZM57.4659 16.3325V16.3088C57.4659 14.8806 56.4103 13.6916 54.9218 13.6916C53.4333 13.6916 52.4016 14.8585 52.4016 16.285V16.3088C52.4016 17.737 53.4572 18.926 54.9458 18.926C56.4343 18.926 57.4659 17.759 57.4659 16.3325Z" fill="#888888"/>
</svg>
