<svg width="80" height="32" viewBox="0 0 80 32" fill="none" xmlns="http://www.w3.org/2000/svg">
<rect width="80" height="32" rx="5" fill="#0064FF"/>
<path d="M63.5117 14.4598C62.9407 13.8064 62.1301 13.4478 61.2197 13.4478C59.4409 13.4478 58.0996 14.835 58.0996 16.6753C58.0996 18.5155 59.4409 19.9028 61.2197 19.9028C62.1602 19.9028 63.0135 19.5079 63.5737 18.8161V19.8168H64.5202V13.5337H63.5111V14.4598H63.5117ZM61.3761 18.9335C60.0986 18.9335 59.1713 17.9837 59.1713 16.6753C59.1713 15.3668 60.0986 14.4171 61.3761 14.4171C62.6536 14.4171 63.4931 15.2708 63.5743 16.4909V16.8591C63.4925 18.0803 62.5886 18.9335 61.3761 18.9335Z" fill="white"/>
<path d="M70.2981 13.5098L68.2089 18.3398L66.175 13.5098H65.0605L67.6517 19.4982L66.6504 21.8335H67.6956L68.5603 19.7994L71.4005 13.5098H70.2981Z" fill="white"/>
<path d="M54.3416 13.4478C53.4011 13.4478 52.5478 13.8426 51.9876 14.5345V13.5462H51.041V21.8331H52.0501V18.8908C52.6212 19.5441 53.4318 19.9028 54.3422 19.9028C56.121 19.9028 57.4622 18.5155 57.4622 16.6753C57.4622 14.835 56.121 13.4478 54.3422 13.4478H54.3416ZM54.1857 18.9335C52.9726 18.9335 52.0688 18.0798 51.9876 16.8597V16.4927C52.0688 15.2708 52.9732 14.4171 54.1857 14.4171C55.4632 14.4171 56.3905 15.3668 56.3905 16.6753C56.3905 17.9837 55.4632 18.9335 54.1857 18.9335Z" fill="white"/>
<path d="M24.8712 17.4945V14.8995H23.498V13.5342H24.8712V11.8926L26.5501 11.4497V13.5336H28.6412V14.899H26.5501V17.4696C26.5501 18.1526 26.9244 18.5521 27.5677 18.5521C27.9359 18.5521 28.2043 18.4786 28.4853 18.2759L29.0847 19.5061C28.6418 19.844 28.0545 20.0035 27.4178 20.0035C25.7889 20.0035 24.8712 19.0999 24.8712 17.4945Z" fill="white"/>
<path d="M29.168 16.682C29.168 14.7943 30.6537 13.3804 32.6569 13.3804C34.6601 13.3804 36.1458 14.7949 36.1458 16.682C36.1458 18.5691 34.6601 19.9848 32.6569 19.9848C30.6537 19.9848 29.168 18.5702 29.168 16.682ZM32.6569 18.5092C33.6805 18.5092 34.4483 17.7278 34.4483 16.682C34.4483 15.6362 33.6805 14.856 32.6569 14.856C31.6333 14.856 30.8655 15.6362 30.8655 16.682C30.8655 17.7278 31.6333 18.5092 32.6569 18.5092Z" fill="white"/>
<path d="M36.5781 18.3373L38.245 17.8944C38.3509 18.4042 38.8317 18.6936 39.6121 18.6936C40.2488 18.6936 40.7109 18.4108 40.7109 18.0349C40.7109 17.7586 40.3866 17.5618 39.8871 17.4569L38.6451 17.1984C37.4657 16.9523 36.7412 16.3316 36.7412 15.4465C36.7412 14.2098 37.8273 13.3804 39.425 13.3804C40.8481 13.3804 41.9343 14.0201 42.2213 15.0528L40.6543 15.4708C40.5545 14.9787 40.0616 14.6521 39.375 14.6521C38.801 14.6521 38.4141 14.9171 38.4141 15.2917C38.4141 15.5811 38.6764 15.7346 39.1067 15.833L40.5611 16.1597C41.6719 16.4057 42.3465 17.0205 42.3465 17.9062C42.3465 19.2034 41.2477 19.9848 39.4629 19.9848C37.8959 19.9848 36.8104 19.3629 36.5793 18.3367L36.5781 18.3373Z" fill="white"/>
<path d="M42.752 18.3373L44.4188 17.8944C44.5247 18.4042 45.0055 18.6936 45.786 18.6936C46.4226 18.6936 46.8847 18.4108 46.8847 18.0349C46.8847 17.7586 46.5604 17.5618 46.061 17.4569L44.819 17.1984C43.6395 16.9523 42.915 16.3316 42.915 15.4465C42.915 14.2098 44.0012 13.3804 45.5988 13.3804C47.0219 13.3804 48.1081 14.0201 48.3951 15.0528L46.8282 15.4708C46.7283 14.9787 46.2355 14.6521 45.5489 14.6521C44.9748 14.6521 44.5879 14.9171 44.5879 15.2917C44.5879 15.5811 44.8502 15.7346 45.2805 15.833L46.7349 16.1597C47.8457 16.4057 48.5203 17.0205 48.5203 17.9062C48.5203 19.2034 47.4215 19.9848 45.6367 19.9848C44.0698 19.9848 42.9842 19.3629 42.7532 18.3367L42.752 18.3373Z" fill="white"/>
<path d="M16.1194 12.6892L16.6519 10.2134C16.6772 10.0901 16.5707 9.97861 16.4389 10.0035C15.662 10.1393 14.8599 10.374 14.0584 10.7138C10.4684 12.2131 8.29427 15.1513 9.20892 17.2814C9.89792 18.8739 12.1286 19.5527 14.7221 19.1578L14.1896 21.6324C14.1643 21.7557 14.2708 21.8672 14.4026 21.8423C15.1794 21.7065 15.9816 21.4718 16.7831 21.1332C20.3791 19.6327 22.5466 16.6945 21.632 14.5656C20.943 12.9731 18.7123 12.2943 16.1188 12.6892H16.1194Z" fill="white"/>
</svg>
