<svg width="80" height="32" viewBox="0 0 80 32" fill="none" xmlns="http://www.w3.org/2000/svg">
<rect x="0.5" y="0.5" width="79" height="31" rx="4.5" fill="white" stroke="#ECECEC"/>
<path fill-rule="evenodd" clip-rule="evenodd" d="M26.865 10C23.6274 10 20.9993 12.0568 20.9993 14.5933C20.9993 16.2233 22.0874 17.6546 23.7209 18.471L23.1675 20.5171C23.1461 20.5807 23.1648 20.647 23.2103 20.6921C23.2424 20.7239 23.2851 20.7398 23.3306 20.7398C23.3653 20.7398 23.4001 20.7265 23.4322 20.7027L25.809 19.1124C26.1538 19.1601 26.5068 19.1892 26.865 19.1892C30.1027 19.1892 32.7307 17.1325 32.7307 14.5959C32.7307 12.0594 30.1053 10.0027 26.865 10.0027V10Z" fill="#888888"/>
<path d="M37.674 18.4098V21.3757H35.5432V10.4371H37.0457L37.3077 11.1316C37.7596 10.6836 38.4467 10.2065 39.5562 10.2065C41.6442 10.2065 42.6361 11.7544 42.6201 14.2565C42.6201 16.8752 41.0881 18.5529 38.8985 18.5529C38.4761 18.5529 38.1553 18.5238 37.674 18.4072V18.4098ZM37.674 12.2024V16.9335C37.7917 16.9467 38.0831 16.9759 38.3611 16.9759C39.8797 16.9759 40.4625 15.921 40.4625 14.2565C40.4625 12.7961 40.0695 11.9135 38.8584 11.9135C38.4654 11.9135 38.0269 12.0301 37.6767 12.2024H37.674Z" fill="#888888"/>
<path d="M47.2587 13.5199H48.4698V13.2602C48.4698 12.3935 47.9726 11.988 47.1117 11.988C46.454 11.988 45.6092 12.1761 44.9221 12.5101L44.3392 11.0921C45.0985 10.5699 46.2642 10.2095 47.3015 10.2095C49.3441 10.2095 50.4536 11.2803 50.4536 13.3211V18.3412H48.9511L48.7318 17.6759C47.871 18.2988 47.0823 18.5585 46.3684 18.5585C44.8071 18.5585 43.9302 17.6335 43.9302 16.0697C43.9302 14.4052 45.0985 13.5226 47.2561 13.5226L47.2587 13.5199ZM48.4698 16.3109V14.8637H47.4913C46.3978 14.8637 45.8418 15.2534 45.8418 16.0352C45.8418 16.629 46.1492 16.9179 46.7748 16.9179C47.3576 16.9179 48.1036 16.629 48.4672 16.3109H48.4698Z" fill="#888888"/>
<path d="M56.9048 17.5273C56.1616 19.4939 55.2713 20.9278 53.972 21.723L52.6593 20.5223C53.4186 19.8703 53.9586 19.2342 54.4238 18.3807L51.5925 10.7288L53.7073 10.1642L55.5173 16.3716L57.3112 10.1377L59.3993 10.7155L56.9048 17.5299V17.5273Z" fill="#888888"/>
</svg>
