<svg width="28" height="28" viewBox="0 0 28 28" fill="none" xmlns="http://www.w3.org/2000/svg">
<g id="Icon">
<path id="Icon/error" fill-rule="evenodd" clip-rule="evenodd" d="M15.5163 3.06181C14.7285 1.64524 13.4537 1.64697 12.6668 3.06181L1.33471 23.4382C0.546901 24.8548 1.19749 26 2.78569 26H25.3974C26.9807 26 27.6352 24.8531 26.8484 23.4382L15.5163 3.06181ZM14.0908 18.3637C13.356 18.3637 12.7425 17.803 12.6766 17.0711L12.1047 10.7185C11.9996 9.55126 12.9189 8.54548 14.0908 8.54548C15.2628 8.54548 16.1821 9.55126 16.077 10.7185L15.505 17.0711C15.4391 17.803 14.8257 18.3637 14.0908 18.3637ZM11.9091 21.6364C11.9091 22.8439 12.8741 23.8183 14.0909 23.8183C15.3077 23.8183 16.2727 22.8439 16.2727 21.6364C16.2727 20.429 15.3077 19.4546 14.0909 19.4546C12.8741 19.4546 11.9091 20.429 11.9091 21.6364Z" fill="#DC3545"/>
</g>
</svg>
