<svg width="94" height="13" viewBox="0 0 94 13" fill="none" xmlns="http://www.w3.org/2000/svg">
<path d="M3.77013 3.25316H0V0.195312H11.0321V3.25316H7.26198V12.7679H3.77013V3.25316Z" fill="#2C3A94"/>
<path d="M13.3247 0.195312H19.6955C20.4774 0.195312 21.1499 0.288073 21.7065 0.483537C22.2564 0.679001 22.7268 0.96391 23.0913 1.32833C23.3364 1.57681 23.5319 1.87498 23.6744 2.20959C23.8135 2.5442 23.8864 2.92849 23.8864 3.35917V3.39893C23.8864 4.12777 23.7075 4.72412 23.3464 5.17136C22.9853 5.61861 22.5314 5.96647 21.9781 6.205C22.7368 6.45347 23.3397 6.81789 23.7903 7.29164C24.2276 7.76208 24.4595 8.428 24.4595 9.27611V9.30592C24.4595 10.3992 24.0388 11.244 23.2172 11.8602C22.3956 12.4698 21.2327 12.7713 19.7452 12.7713H13.3247V0.198629V0.195312ZM18.8573 5.2078C19.3841 5.2078 19.7916 5.11835 20.0732 4.93945C20.3448 4.76056 20.4873 4.48558 20.4873 4.11122V4.07478C20.4873 3.72692 20.3581 3.46189 20.0931 3.26974C19.8346 3.08752 19.4371 2.99144 18.9203 2.99144H16.6807V5.20117H18.8573V5.2078ZM19.351 9.9685C19.8843 9.9685 20.2951 9.87242 20.5801 9.67365C20.865 9.47487 20.9942 9.19329 20.9942 8.81892V8.78578C20.9942 8.43792 20.865 8.16295 20.5999 7.95754C20.3217 7.75214 19.8943 7.65607 19.3112 7.65607H16.6807V9.9685H19.351Z" fill="#2C3A94"/>
<path d="M26.2751 0.195312H29.7604V4.90633H34.2328V0.195312H37.7181V12.7679H34.2328V7.99398H29.7604V12.7679H26.2751V0.195312Z" fill="#2C3A94"/>
<path d="M44.2475 10.9495L45.566 9.3725C46.7719 10.4128 48.001 11.0025 49.5382 11.0025C50.8998 11.0025 51.7678 10.3564 51.7678 9.42218V9.38906C51.7678 8.49457 51.2643 8.00094 48.932 7.46756C46.2518 6.82153 44.7411 6.03636 44.7411 3.71398V3.68086C44.7411 1.52745 46.5433 0.0366211 49.0313 0.0366211C50.87 0.0366211 52.3178 0.58987 53.59 1.61688L52.4072 3.28994C51.2742 2.44514 50.1478 1.99788 48.9982 1.99788C47.7062 1.99788 46.9508 2.66046 46.9508 3.48207V3.51853C46.9508 4.48591 47.5206 4.91989 49.9523 5.48972C52.6093 6.14237 53.971 7.08989 53.971 9.17042V9.20686C53.971 11.559 52.119 12.9637 49.4819 12.9637C47.5604 12.9637 45.7515 12.2978 44.2441 10.9495H44.2475Z" fill="#161616"/>
<path d="M56.1213 0.21875H58.3311V5.43996H64.3275V0.21875H66.5339V12.7814H64.3275V7.49067H58.3311V12.7814H56.1213V0.21875Z" fill="#161616"/>
<path d="M68.76 6.52981V6.5C68.76 2.96509 71.4899 0 75.3495 0C79.209 0 81.8992 2.92863 81.8992 6.46686V6.5033C81.8992 10.0382 79.1726 13 75.313 13C71.4534 13 68.76 10.068 68.76 6.53312V6.52981ZM79.5834 6.52981V6.5C79.5834 4.05505 77.8077 2.0474 75.313 2.0474C72.8184 2.0474 71.0725 4.01859 71.0725 6.46354V6.5C71.0725 8.93833 72.8581 10.9493 75.3495 10.9493C77.8408 10.9493 79.5834 8.97145 79.5834 6.53312V6.52981Z" fill="#161616"/>
<path d="M84.1287 0.21875H89.0815C92.0234 0.21875 93.8588 1.88184 93.8588 4.41625V4.45269C93.8588 7.26869 91.596 8.73964 88.8297 8.73964H86.3351V12.7814H84.1287V0.21875ZM88.9026 6.74858C90.569 6.74858 91.6093 5.81432 91.6093 4.5057V4.46927C91.6093 2.99832 90.5525 2.22639 88.9026 2.22639H86.3351V6.74858H88.9026Z" fill="#161616"/>
</svg>
