<svg width="94" height="14" viewBox="0 0 94 14" fill="none" xmlns="http://www.w3.org/2000/svg">
<path d="M3.77579 3.75316H0V0.695312H11.0487V3.75316H7.27288V13.268H3.77579V3.75316Z" fill="white"/>
<path d="M13.3447 0.695312H19.7251C20.5081 0.695312 21.1817 0.788073 21.7391 0.983537C22.2898 1.179 22.761 1.46391 23.126 1.82833C23.3715 2.07681 23.5672 2.37498 23.7099 2.70959C23.8493 3.0442 23.9223 3.42849 23.9223 3.85917V3.89893C23.9223 4.62777 23.7431 5.22412 23.3814 5.67137C23.0198 6.11861 22.5652 6.46647 22.0111 6.705C22.7709 6.95347 23.3748 7.31789 23.826 7.79164C24.264 8.26208 24.4963 8.928 24.4963 9.77611V9.80592C24.4963 10.8992 24.0749 11.744 23.252 12.3602C22.4292 12.9698 21.2646 13.2713 19.7749 13.2713H13.3447V0.698629V0.695312ZM18.8857 5.7078C19.4132 5.7078 19.8213 5.61835 20.1033 5.43946C20.3754 5.26056 20.5181 4.98558 20.5181 4.61122V4.57478C20.5181 4.22692 20.3887 3.96189 20.1232 3.76974C19.8644 3.58752 19.4663 3.49144 18.9487 3.49144H16.7058V5.70117H18.8857V5.7078ZM19.38 10.4685C19.9142 10.4685 20.3256 10.3724 20.611 10.1736C20.8963 9.97487 21.0257 9.69329 21.0257 9.31892V9.28578C21.0257 8.93792 20.8963 8.66295 20.6309 8.45754C20.3522 8.25214 19.9242 8.15608 19.3402 8.15608H16.7058V10.4685H19.38Z" fill="white"/>
<path d="M26.3145 0.695312H29.8049V5.40633H34.2841V0.695312H37.7746V13.268H34.2841V8.49398H29.8049V13.268H26.3145V0.695312Z" fill="white"/>
<path d="M44.3139 11.4495L45.6344 9.8725C46.8421 10.9128 48.0731 11.5025 49.6126 11.5025C50.9762 11.5025 51.8455 10.8564 51.8455 9.92218V9.88906C51.8455 8.99457 51.3412 8.50094 49.0054 7.96756C46.3212 7.32153 44.8082 6.53636 44.8082 4.21398V4.18086C44.8082 2.02745 46.6132 0.536621 49.1049 0.536621C50.9464 0.536621 52.3963 1.08987 53.6704 2.11688L52.4859 3.78994C51.3512 2.94514 50.2231 2.49788 49.0718 2.49788C47.7778 2.49788 47.0213 3.16046 47.0213 3.98207V4.01853C47.0213 4.98591 47.592 5.41989 50.0273 5.98972C52.6883 6.64237 54.052 7.58989 54.052 9.67042V9.70686C54.052 12.059 52.1972 13.4637 49.5562 13.4637C47.6318 13.4637 45.8202 12.7978 44.3105 11.4495H44.3139Z" fill="white"/>
<path d="M56.2051 0.71875H58.4181V5.93996H64.4236V0.71875H66.6333V13.2814H64.4236V7.99067H58.4181V13.2814H56.2051V0.71875Z" fill="white"/>
<path d="M68.8633 7.02981V7C68.8633 3.46509 71.5972 0.5 75.4626 0.5C79.328 0.5 82.0222 3.42863 82.0222 6.96686V7.0033C82.0222 10.5382 79.2915 13.5 75.4261 13.5C71.5608 13.5 68.8633 10.568 68.8633 7.03312V7.02981ZM79.7029 7.02981V7C79.7029 4.55505 77.9245 2.5474 75.4261 2.5474C72.9277 2.5474 71.1792 4.51859 71.1792 6.96354V7C71.1792 9.43833 72.9675 11.4493 75.4626 11.4493C77.9577 11.4493 79.7029 9.47145 79.7029 7.03312V7.02981Z" fill="white"/>
<path d="M84.2549 0.71875H89.2152C92.1615 0.71875 93.9996 2.38184 93.9996 4.91625V4.95269C93.9996 7.76869 91.7335 9.23964 88.963 9.23964H86.4646V13.2814H84.2549V0.71875ZM89.036 7.24858C90.7049 7.24858 91.7468 6.31432 91.7468 5.0057V4.96927C91.7468 3.49832 90.6883 2.72639 89.036 2.72639H86.4646V7.24858H89.036Z" fill="white"/>
</svg>
