<svg width="140" height="20" viewBox="0 0 140 20" fill="none" xmlns="http://www.w3.org/2000/svg">
<path d="M5.62352 4.85258H0V0.291504H16.4555V4.85258H10.832V19.0448H5.62352V4.85258Z" fill="#2C3A94"/>
<path d="M19.875 0.291504H29.3777C30.5439 0.291504 31.547 0.429866 32.3772 0.721419C33.1975 1.01297 33.8992 1.43794 34.4428 1.98152C34.8085 2.35214 35.1 2.7969 35.3125 3.296C35.5201 3.7951 35.6288 4.3683 35.6288 5.01071V5.07001C35.6288 6.15716 35.3619 7.04666 34.8233 7.71377C34.2847 8.38089 33.6077 8.89975 32.7824 9.25554C33.914 9.62616 34.8134 10.1697 35.4855 10.8764C36.1377 11.5781 36.4837 12.5714 36.4837 13.8364V13.8809C36.4837 15.5116 35.8561 16.7717 34.6306 17.6908C33.4051 18.6001 31.6706 19.0498 29.4518 19.0498H19.875V0.29645V0.291504ZM28.1274 7.76812C28.9132 7.76812 29.521 7.6347 29.941 7.36786C30.3462 7.10101 30.5587 6.69086 30.5587 6.13246V6.07811C30.5587 5.55924 30.366 5.16392 29.9707 4.87731C29.5852 4.60552 28.9922 4.4622 28.2213 4.4622H24.8808V7.75823H28.1274V7.76812ZM28.8637 14.8692C29.6593 14.8692 30.2721 14.7259 30.6971 14.4294C31.122 14.1329 31.3148 13.7129 31.3148 13.1545V13.105C31.3148 12.5862 31.122 12.176 30.7267 11.8696C30.3116 11.5633 29.6742 11.42 28.8044 11.42H24.8808V14.8692H28.8637Z" fill="#2C3A94"/>
<path d="M39.1914 0.291504H44.39V7.31845H51.0611V0.291504H56.2596V19.0448H51.0611V11.924H44.39V19.0448H39.1914V0.291504Z" fill="#2C3A94"/>
<path d="M65.9991 16.3318L67.9658 13.9796C69.7646 15.5312 71.5979 16.4108 73.8908 16.4108C75.9218 16.4108 77.2165 15.4472 77.2165 14.0537V14.0043C77.2165 12.6701 76.4654 11.9338 72.9865 11.1382C68.9887 10.1746 66.7354 9.00339 66.7354 5.53934V5.48994C66.7354 2.27791 69.4236 0.0541992 73.1347 0.0541992C75.8773 0.0541992 78.0368 0.879423 79.9343 2.41131L78.1702 4.90684C76.4802 3.64673 74.8 2.97961 73.0853 2.97961C71.1581 2.97961 70.0314 3.96792 70.0314 5.19343V5.24781C70.0314 6.69075 70.8814 7.33807 74.5085 8.18803C78.4716 9.16152 80.5026 10.5748 80.5026 13.6781V13.7325C80.5026 17.241 77.7403 19.3362 73.8068 19.3362C70.9407 19.3362 68.2426 18.343 65.9941 16.3318H65.9991Z" fill="#161616"/>
<path d="M83.71 0.326172H87.006V8.11411H95.9503V0.326172H99.2414V19.0646H95.9503V11.173H87.006V19.0646H83.71V0.326172Z" fill="#161616"/>
<path d="M102.562 9.73984V9.69538C102.562 4.42271 106.633 0 112.39 0C118.147 0 122.16 4.36834 122.16 9.64595V9.7003C122.16 14.973 118.093 19.3908 112.336 19.3908C106.579 19.3908 102.562 15.0175 102.562 9.74479V9.73984ZM118.706 9.73984V9.69538C118.706 6.0485 116.057 3.05389 112.336 3.05389C108.615 3.05389 106.011 5.99412 106.011 9.641V9.69538C106.011 13.3324 108.674 16.3319 112.39 16.3319C116.106 16.3319 118.706 13.3818 118.706 9.74479V9.73984Z" fill="#161616"/>
<path d="M125.485 0.326172H132.873C137.261 0.326172 139.999 2.80684 139.999 6.58715V6.6415C139.999 10.8418 136.624 13.0359 132.497 13.0359H128.776V19.0646H125.485V0.326172ZM132.606 10.066C135.092 10.066 136.643 8.67251 136.643 6.72058V6.66623C136.643 4.47217 135.067 3.32077 132.606 3.32077H128.776V10.066H132.606Z" fill="#161616"/>
</svg>
