<svg width="90" height="21" viewBox="0 0 90 21" fill="none" xmlns="http://www.w3.org/2000/svg">
<path d="M35.8767 12.043C35.6139 12.043 34.7898 13.5425 34.3648 13.5425C34.2805 13.5425 34.2642 13.3899 34.2642 13.3235C34.2642 13.2041 34.2999 13.088 34.3162 12.9686C34.5789 11.741 34.8093 10.5135 35.1045 9.28269C35.2668 8.55945 35.4517 7.83621 35.6334 7.09638C35.6626 7.01012 35.682 6.91391 35.682 6.82765C35.682 6.47267 35.27 6.49257 35.0234 6.49257C34.6276 6.49257 34.381 6.47599 34.2837 6.9305C33.9074 8.52627 33.0314 9.99266 32.1619 11.3695C31.8828 11.7908 31.5876 12.2453 31.2729 12.6501C31.1074 12.8856 30.4034 13.7582 30.0757 13.7582C29.9427 13.7582 29.9427 13.569 29.9427 13.4894C29.9427 13.0183 30.1082 12.4477 30.2022 12.0098C30.4488 10.968 30.6824 9.92299 30.9257 8.88126C31.0425 8.39025 31.2567 7.63384 31.2567 7.14947C31.2567 6.7779 31.0425 6.47599 30.6629 6.47599C29.7772 6.47599 28.2783 8.27414 27.6846 8.95093C27.6521 8.98411 27.6359 9.01727 27.6359 9.08363C27.6359 9.21965 27.8014 9.3225 27.9182 9.3225C28.181 9.3225 29.1997 7.89261 29.5112 7.89261C29.5955 7.89261 29.628 8.02531 29.628 8.07508C29.628 8.16134 29.6118 8.24428 29.5955 8.31064C29.3165 9.62441 28.9856 10.9183 28.7066 12.232C28.606 12.67 28.3756 13.5259 28.3756 13.9638C28.3756 14.6041 28.6903 14.9724 29.3295 14.9724C30.8609 14.9724 33.3623 10.3775 33.4596 10.1618H33.5278L33.1838 11.542C33.0184 12.1823 32.7037 13.6619 32.7037 14.2359C32.7037 14.6041 32.8529 14.9425 33.2617 14.9425C34.0501 14.9425 34.8417 14.0335 35.3187 13.4596C35.4809 13.2572 36.1428 12.4975 36.1428 12.3316C36.1428 12.2121 36.026 12.0463 35.88 12.0463L35.8767 12.043ZM26.27 6.6087C23.4733 6.6087 20.495 10.7623 20.495 13.3036C20.495 13.8577 20.6766 15.052 21.4164 15.052C22.2729 15.052 23.5869 13.6553 24.1319 13.0681L24.544 12.6467H24.5926L23.2365 19.0697C23.0905 19.7763 22.8569 19.9123 22.5779 19.9123H21.9517C21.77 19.9123 21.6727 20.0649 21.6727 20.1645C21.6727 20.2806 21.7213 20.4 22.0036 20.4H25.9845C26.1175 20.4 26.1954 20.3171 26.1954 20.1479C26.1954 19.9986 26.1629 19.9123 25.9683 19.9123H25.0631C24.5537 19.9123 24.6673 19.408 24.6673 19.408L27.1914 7.44805C27.2076 7.31534 27.2239 7.1959 27.2239 7.09306C27.2239 6.80443 27.026 6.60538 26.27 6.60538V6.6087ZM25.527 8.22438L24.8879 11.1339C24.7062 12.0098 23.6193 12.9686 22.9607 13.5425C22.818 13.6752 22.6006 13.8278 22.4027 13.8278C22.0912 13.8278 22.075 13.4065 22.075 13.1709C22.075 11.6913 23.3241 7.47127 25.2188 7.47127C25.4654 7.47127 25.5789 7.65374 25.5789 7.90588C25.5789 8.00872 25.566 8.12485 25.5303 8.2277L25.527 8.22438ZM19.8201 14.2027H18.8014C18.0779 12.5937 12.5137 0.0199057 12.5137 0H8.26027L3.19899 12.4079L1.17123 14.0368C0.986302 14.1894 0.901946 14.206 0.668348 14.206H0.233596C0.100575 14.206 0 14.3089 0 14.4449V14.6008C0 14.7368 0.100575 14.843 0.233596 14.843H6.49856C6.61536 14.843 6.73216 14.7402 6.73216 14.6008V14.4449C6.73216 14.3089 6.61536 14.206 6.49856 14.206H5.55768C5.35652 14.206 5.21053 14.1198 5.1067 14.0003L3.98414 12.6302L5.07426 9.99265H9.71701L11.4917 14.206H10.1842C10.0674 14.206 9.96683 14.3089 9.96683 14.4449V14.6008C9.96683 14.7368 10.0674 14.843 10.1842 14.843H19.8201C19.9531 14.843 20.0732 14.7402 20.0732 14.6008V14.4449C20.0732 14.3089 19.9531 14.206 19.8201 14.206V14.2027ZM5.36301 9.30592L7.35508 4.36599L9.42826 9.30592H5.36301ZM76.7304 12.043C76.4676 12.043 75.6435 13.5425 75.2347 13.5425C75.1341 13.5425 75.1179 13.3899 75.1179 13.3235C75.1179 13.2041 75.1503 13.088 75.186 12.9686C75.4326 11.741 75.6629 10.5135 75.9582 9.28269C76.1236 8.55945 76.3183 7.83621 76.487 7.09638C76.5195 7.01012 76.5357 6.91391 76.5357 6.82765C76.5357 6.47267 76.1237 6.49257 75.8933 6.49257C75.4813 6.49257 75.2347 6.47599 75.1374 6.9305C74.761 8.52627 73.8883 9.99266 73.0155 11.3695C72.7365 11.7908 72.4575 12.2453 72.1298 12.6501C71.9643 12.8856 71.2538 13.7582 70.9261 13.7582C70.8126 13.7582 70.7963 13.569 70.7963 13.4894C70.7963 13.0183 70.9585 12.4477 71.0591 12.0098C71.3057 10.968 71.5523 9.92299 71.7826 8.88126C71.8962 8.39025 72.1103 7.63384 72.1103 7.14947C72.1103 6.7779 71.8962 6.47599 71.5198 6.47599C70.6309 6.47599 69.1352 8.27414 68.5577 8.95093C68.5285 8.98411 68.4928 9.01727 68.4928 9.08363C68.4928 9.21965 68.6583 9.3225 68.7913 9.3225C69.0346 9.3225 70.0599 7.89261 70.3681 7.89261C70.4524 7.89261 70.4849 8.02531 70.4849 8.07508C70.4849 8.16134 70.4654 8.24428 70.4524 8.31064C70.1734 9.62441 69.8457 10.9183 69.5635 12.232C69.4661 12.67 69.2358 13.5259 69.2358 13.9638C69.2358 14.6041 69.5472 14.9724 70.1896 14.9724C71.7177 14.9724 74.2192 10.3775 74.3198 10.1618H74.3847L74.0407 11.542C73.8947 12.1823 73.5638 13.6619 73.5638 14.2359C73.5638 14.6041 73.7131 14.9425 74.1218 14.9425C74.9297 14.9425 75.7019 14.0335 76.1821 13.4596C76.3443 13.2572 77.0029 12.4975 77.0029 12.3316C77.0029 12.2121 76.8893 12.0463 76.7401 12.0463L76.7304 12.043ZM67.4676 12.1093C67.2859 12.1093 66.1471 13.6089 65.8064 13.6089C65.7058 13.6089 65.6896 13.4894 65.6896 13.4065C65.6896 13.2904 65.7253 13.1543 65.7415 13.0349L66.9582 7.9855C67.075 7.46463 67.1074 7.27884 67.6817 7.27884L68.8172 7.25894C69.0963 7.25894 69.2098 7.20254 69.2098 6.90727C69.2098 6.68831 69.1222 6.62528 68.9957 6.62528L67.7336 6.60206C67.4221 6.59542 67.2729 6.4959 67.3216 6.23049L67.7141 4.39916C67.7466 4.21337 67.6298 4.07736 67.4319 4.07736H66.6759C66.4942 4.07736 66.4456 4.21337 66.3969 4.37925L65.9686 6.03142C65.8875 6.3665 65.8551 6.56889 65.443 6.58547L64.5898 6.61864C64.4081 6.61864 64.1128 6.65182 64.1128 6.88737C64.1128 7.14282 64.1777 7.24235 64.4405 7.25562H65.1997C65.3976 7.27552 65.5598 7.34189 65.5598 7.57744C65.5598 7.64379 65.5599 7.71346 65.5436 7.7599L64.0934 13.6155C64.0447 13.8013 64.0285 13.9705 64.0285 14.1563C64.0285 14.5909 64.1777 14.979 64.6676 14.979C65.2743 14.979 66.0335 14.2558 66.4293 13.8345L67.6298 12.5406C67.6622 12.4875 67.6979 12.4411 67.6979 12.3714C67.6979 12.2685 67.5649 12.0993 67.4676 12.0993V12.1093ZM89.7275 12.043C89.5004 12.043 88.5919 13.5591 88.2123 13.5591C88.115 13.5591 88.0631 13.4065 88.0631 13.3401C88.0631 13.2207 88.0988 13.0548 88.1474 12.9354C88.4427 12.0429 89.6269 7.98881 89.6269 7.40159C89.6269 6.894 89.2473 6.51248 88.7704 6.51248C87.385 6.51248 85.6265 9.16988 84.9679 10.1784L84.3937 11.0543H84.345L85.0847 8.17792C85.1496 7.94237 85.2177 7.63715 85.2177 7.38833C85.2177 6.76462 84.9874 6.40963 84.3645 6.40963C83.9492 6.40963 83.5891 6.54565 83.2419 6.86414C82.1745 7.8727 80.7761 9.80686 80.004 11.051H79.9521L80.283 9.77369C80.5101 8.88126 80.6918 8.20778 80.8767 7.28216C80.9092 7.18264 80.9092 7.0798 80.9092 6.98027C80.9092 6.66178 80.7113 6.30679 80.3673 6.30679C79.6244 6.30679 77.9308 8.1746 77.3857 8.90116C77.3565 8.95093 77.3241 8.98411 77.3241 9.05046C77.3241 9.18316 77.4863 9.31918 77.6193 9.31918C77.8691 9.31918 78.9041 7.80635 79.248 7.80635C79.3291 7.80635 79.3486 7.8893 79.3486 7.95565C79.3486 8.03859 79.3162 8.13812 79.2967 8.22438C79.0988 9.11681 78.8522 10.0059 78.6413 10.915C78.3753 11.9899 78.0963 13.0847 77.801 14.1629C77.7523 14.279 77.7231 14.3951 77.7231 14.5278C77.7231 14.7833 77.8529 14.8662 78.0833 14.8662H78.6283C78.8262 14.8662 78.9885 14.7999 79.0404 14.6108C79.2383 14.0103 79.4038 13.4861 79.6828 12.8956C80.257 11.7178 80.8994 10.5401 81.7073 9.51491C82.0544 9.07367 82.9888 7.64379 83.5501 7.64379C83.748 7.64379 83.7123 7.99876 83.5988 8.41678C83.3684 9.31254 83.1381 10.3012 82.8753 11.2467C82.6287 12.1723 82.3659 13.0946 82.1226 14.0236C82.0707 14.1928 82.022 14.3752 82.022 14.561C82.022 14.8297 82.1226 14.8629 82.3659 14.8629H82.9921C83.3879 14.8629 83.4722 14.6075 83.602 14.07C83.9622 12.6268 84.6208 11.6316 85.2794 10.6396C85.6395 10.122 87.1871 7.74664 87.9106 7.74664C88.141 7.74664 88.0436 8.15139 87.8457 8.80828L86.5966 13.2671C86.5123 13.5657 86.4474 13.8709 86.4474 14.1928C86.4474 14.561 86.5966 14.9326 87.0054 14.9326C87.81 14.9326 88.7022 14.0236 89.1759 13.4496C89.3446 13.2472 90 12.4875 90 12.3216C90 12.2022 89.8865 12.0363 89.7372 12.0363L89.7275 12.043ZM63.1071 12.043C62.8443 12.043 62.0202 13.5425 61.6082 13.5425C61.5108 13.5425 61.5108 13.3899 61.5108 13.3235C61.5108 13.2041 61.527 13.088 61.5595 12.9686C61.8061 11.741 62.0397 10.5135 62.3317 9.28269C62.4939 8.55945 62.6918 7.83621 62.8572 7.09638C62.8897 7.01012 62.9059 6.91391 62.9059 6.82765C62.9059 6.47267 62.4906 6.49257 62.2635 6.49257C61.8515 6.49257 61.6211 6.47599 61.5076 6.9305C61.128 8.52627 60.2585 9.99266 59.3857 11.3695C59.1067 11.7908 58.8277 12.2453 58.513 12.6501C58.3345 12.8856 57.6402 13.7582 57.3125 13.7582C57.1795 13.7582 57.1633 13.569 57.1633 13.4894C57.1633 13.0183 57.345 12.4477 57.4423 12.0098C57.6727 10.968 57.9193 9.92299 58.1496 8.88126C58.2664 8.39025 58.4805 7.63384 58.4805 7.14947C58.4805 6.7779 58.2664 6.47599 57.903 6.47599C56.9978 6.47599 55.5022 8.27414 54.9279 8.95093C54.8955 8.98411 54.8598 9.01727 54.8598 9.08363C54.8598 9.21965 55.0252 9.3225 55.1583 9.3225C55.4016 9.3225 56.4236 7.89261 56.7383 7.89261C56.8162 7.89261 56.8518 8.02531 56.8518 8.07508C56.8518 8.16134 56.8324 8.24428 56.8162 8.31064C56.5371 9.62441 56.2095 10.9183 55.9304 12.232C55.8331 12.67 55.6027 13.5259 55.6027 13.9638C55.6027 14.6041 55.9142 14.9724 56.5566 14.9724C58.0847 14.9724 60.5894 10.3775 60.703 10.1618H60.7711L60.4077 11.542C60.2617 12.1823 59.934 13.6619 59.934 14.2359C59.934 14.6041 60.08 14.9425 60.4953 14.9425C61.2999 14.9425 62.0721 14.0335 62.549 13.4596C62.7145 13.2572 63.3731 12.4975 63.3731 12.3316C63.3731 12.2121 63.2596 12.0463 63.1103 12.0463L63.1071 12.043ZM47.0148 6.40631C45.9117 6.40631 44.8086 7.29545 44.8086 8.47652C44.8086 8.8315 44.9903 9.28269 45.1557 9.58791L46.8331 12.7363C46.9791 12.9885 47.0959 13.2738 47.0959 13.5757C47.0959 14.1496 46.6838 14.5046 46.1388 14.5046C45.0844 14.5046 44.6431 12.8392 44.3284 12.8392C44.0818 12.8392 43.5562 13.3269 43.5562 13.5757C43.5562 13.7781 43.7704 14.0003 43.9196 14.133C44.4452 14.6207 45.2044 14.9425 45.9117 14.9425C47.1575 14.9425 48.2606 14.1662 48.2606 12.8358C48.2606 12.5671 48.212 12.232 48.0043 11.8439L46.2102 8.42675C46.1258 8.31063 46.0415 8.00872 46.0415 7.67364C46.0415 7.26557 46.4535 6.91724 46.8331 6.91724C47.6864 6.91724 48.0173 8.29735 48.4618 8.29735C48.6435 8.29735 49.1399 7.9092 49.1399 7.70683C49.1399 7.55754 49.0555 7.43809 48.9744 7.32197C48.5169 6.73144 47.7415 6.41295 47.018 6.41295L47.0148 6.40631ZM44.0007 12.4311C44.0007 12.2951 43.8872 12.1259 43.7412 12.1259C43.5108 12.1259 42.4239 13.7913 42.0119 13.7913C41.8821 13.7913 41.8302 13.6553 41.8302 13.5226C41.8302 13.3899 41.8627 13.2539 41.8951 13.1378L43.1312 7.67032C43.1474 7.55089 43.1637 7.43479 43.1637 7.31535C43.1637 6.72482 42.7873 6.54234 42.2779 6.54234C40.8472 6.54234 39.1341 8.15802 38.2776 9.19975C37.3919 10.3277 36.5353 11.8572 36.5353 13.3401C36.5353 13.9804 36.7462 14.9525 37.5379 14.9525C38.1316 14.9525 38.5761 14.5676 39.0173 14.2127C39.2671 14.0269 40.3183 12.952 40.6947 12.5472H40.7271C40.6428 13.0183 40.3832 13.9406 40.3832 14.415C40.3832 14.8895 40.5616 15.0188 40.9899 15.0188C41.7783 15.0188 42.651 14.143 43.128 13.569C43.407 13.234 43.7022 12.8989 43.9683 12.5273C43.9845 12.5107 43.9975 12.461 43.9975 12.4278L44.0007 12.4311ZM41.6518 8.10825L40.9932 10.9017C40.8764 11.3529 40.7628 11.6747 40.4676 12.043C40.0717 12.5505 39.611 13.0515 39.1179 13.4728C38.9524 13.6055 38.6896 13.8245 38.4593 13.8245C38.1608 13.8245 38.1316 13.4198 38.1316 13.2008C38.1316 12.514 38.2484 11.8041 38.4268 11.1505C38.7578 9.90641 39.9257 7.44805 41.3565 7.44805C41.5544 7.44805 41.7037 7.5144 41.7037 7.72009C41.7037 7.80635 41.6712 8.0054 41.655 8.10493L41.6518 8.10825ZM53.6626 6.39305C52.2318 6.39305 51.0768 7.74 50.2722 9.14998C49.6136 10.278 49.1561 11.4889 49.1561 12.8027C49.1561 13.8444 49.8309 14.9525 50.934 14.9525C52.2188 14.9525 53.1759 13.7615 53.7307 12.9022C53.8151 12.7662 54.0292 12.4112 54.0292 12.2486C54.0292 12.1657 53.88 12.0297 53.7469 12.0297C53.6334 12.0297 53.6139 12.096 53.549 12.179C53.4517 12.315 53.3673 12.4775 53.27 12.6136C52.9748 13.0714 52.235 14.0766 51.6446 14.0766C51.0022 14.0766 50.7037 13.4231 50.7037 12.4776C50.7037 10.9979 51.2974 8.64239 52.1993 7.5144C52.3973 7.27885 52.6438 7.11296 52.9715 7.11296C53.6983 7.11296 54.1395 7.86939 54.3861 7.86939C54.6489 7.86939 55.0447 7.48121 55.0447 7.21249C55.0447 6.74139 54.0422 6.38973 53.6626 6.38973V6.39305Z" fill="black"/>
</svg>
