<svg width="90" height="11" viewBox="0 0 90 11" fill="none" xmlns="http://www.w3.org/2000/svg">
<path d="M0 10.7923V0.181396H3.93887C5.62737 0.181396 7.02617 0.664249 7.02617 2.92924C7.02617 4.14953 6.42334 5.03329 5.21768 5.2674V5.29666C6.78913 5.51614 7.20175 6.53158 7.20175 7.98598C7.20175 10.6753 4.86359 10.7923 3.92424 10.7923H0ZM2.2211 4.51825H3.70476C4.19053 4.51825 4.86652 4.19343 4.86652 3.16628C4.86652 2.38787 4.33685 1.81431 3.5877 1.81431H2.2211V4.52118V4.51825ZM2.2211 9.16237H3.45309C3.92424 9.16237 4.98358 9.14774 4.98358 7.66408C4.98358 6.72179 4.62949 6.14823 3.51455 6.14823H2.2211V9.16237Z" fill="black"/>
<path d="M8.87549 10.7923L11.8165 0.181396H14.7428L17.6224 10.7923H15.2842L14.696 8.43956H11.6672L11.0673 10.7923H8.87549ZM13.1538 2.22399H13.1275L12.112 6.81251H14.2278L13.1538 2.22399Z" fill="black"/>
<path d="M22.2811 10.968C19.5333 10.968 19.0182 9.3497 19.1353 7.51195H21.3564C21.3564 8.52739 21.4003 9.37896 22.6206 9.37896C23.3697 9.37896 23.7355 8.89318 23.7355 8.1733C23.7355 6.26239 19.267 6.14534 19.267 2.98488C19.267 1.32564 20.06 0 22.764 0C24.9236 0 25.9976 0.97155 25.8513 3.19265H23.6916C23.6916 2.39961 23.5599 1.58901 22.6615 1.58901C21.9417 1.58901 21.5144 1.987 21.5144 2.72151C21.5144 4.73484 25.9829 4.55925 25.9829 7.89822C25.9829 10.6461 23.9725 10.9709 22.2782 10.9709" fill="black"/>
<path d="M30.5248 0.178589H28.3066V10.7895H30.5248V0.178589Z" fill="black"/>
<path d="M33.0269 5.48398C33.0269 2.67761 33.0269 0 36.6877 0C38.9527 0 39.8628 1.24955 39.775 3.52918H37.5978C37.5978 2.11868 37.3491 1.58901 36.6877 1.58901C35.4382 1.58901 35.2772 2.7654 35.2772 5.48398C35.2772 8.20256 35.4382 9.37896 36.6877 9.37896C37.7149 9.37896 37.671 8.05625 37.7032 7.21931H39.8921C39.8921 10.0579 38.7596 10.968 36.6877 10.968C33.0269 10.968 33.0269 8.26109 33.0269 5.48398Z" fill="black"/>
<path d="M50.8691 4.42765V0.178589H53.0902V10.7925H50.8691V6.05763H48.3261V10.7925H46.1079V0.178589H48.3261V4.42765H50.8691Z" fill="black"/>
<path d="M55.6475 5.48398C55.6475 2.67761 55.6475 0 59.3083 0C62.9692 0 62.9692 2.67761 62.9692 5.48398C62.9692 8.29035 62.9692 10.968 59.3083 10.968C55.6475 10.968 55.6475 8.26109 55.6475 5.48398ZM60.7159 5.48398C60.7159 2.7654 60.5579 1.58901 59.3054 1.58901C58.0529 1.58901 57.892 2.7654 57.892 5.48398C57.892 8.20256 58.0558 9.37896 59.3054 9.37896C60.555 9.37896 60.7159 8.20256 60.7159 5.48398Z" fill="black"/>
<path d="M72.6383 0.178589V7.70516C72.6383 9.29124 71.7428 10.968 69.0388 10.968C66.5983 10.968 65.4219 9.70093 65.4219 7.70516V0.178589H67.64V7.55885C67.64 8.864 68.199 9.37904 69.0067 9.37904C69.9782 9.37904 70.4172 8.73231 70.4172 7.55885V0.178589H72.6383Z" fill="black"/>
<path d="M78.0633 10.968C75.3155 10.968 74.8005 9.3497 74.9175 7.51195H77.1357C77.1357 8.52739 77.1796 9.37896 78.4028 9.37896C79.1519 9.37896 79.5177 8.89318 79.5177 8.1733C79.5177 6.26239 75.0492 6.14534 75.0492 2.98488C75.0492 1.32564 75.8422 0 78.5462 0C80.7058 0 81.7798 0.97155 81.6335 3.19265H79.4738C79.4738 2.39961 79.3422 1.58901 78.4438 1.58901C77.7239 1.58901 77.2966 1.987 77.2966 2.72151C77.2966 4.73484 81.7681 4.55925 81.7681 7.89822C81.7681 10.6461 79.7518 10.9709 78.0633 10.9709" fill="black"/>
<path d="M84.0884 10.7925V0.178589H89.8826V1.80856H86.3095V4.42765H89.6016V6.05763H86.3095V9.15956H89.9996V10.7925H84.0884Z" fill="black"/>
</svg>
