<svg width="80" height="20" viewBox="0 0 80 20" fill="none" xmlns="http://www.w3.org/2000/svg">
<path d="M27.964 17.6359C28.1063 17.8493 28.3553 18.122 28.8533 18.1843C29.4996 18.2851 29.9413 18.0213 30.2822 17.7367C30.9315 17.1942 31.6103 16.2307 32.1736 14.7336C31.8831 14.0933 28.9897 7.56841 28.5806 6.67609C28.1893 5.79563 27.8365 4.83514 26.9561 4.83514V4.7373H31.4769V4.83514C30.8099 4.83514 30.7536 5.14937 31.1627 6.14544C31.5332 7.06444 33.1311 10.8145 33.3653 11.4015C34.2072 9.09216 34.7171 7.71071 34.815 7.45873C35.1855 6.4419 35.1944 4.83514 34.2754 4.83514V4.7373H37.2103V4.83514C36.3298 5.01004 36.2498 5.88161 35.7784 7.0763C35.5057 7.82039 33.389 13.7702 33.0955 14.535C32.135 17.1378 30.6558 19.0351 29.2506 19.0351C28.7081 19.047 28.3405 18.961 27.961 18.6349" fill="black"/>
<path d="M70.754 17.6359C70.8963 17.8494 71.1453 18.1221 71.6434 18.1843C72.2896 18.2851 72.7313 18.0213 73.0723 17.7367C73.7215 17.1942 74.4004 16.2307 74.9636 14.7337C74.6731 14.0933 71.7797 7.56847 71.3706 6.67615C70.9793 5.7957 70.6266 4.8352 69.7461 4.8352V4.73737H74.267V4.8352C73.5999 4.8352 73.5436 5.14943 73.9527 6.1455C74.3233 7.0645 75.9212 10.8146 76.1553 11.4016C76.9973 9.09222 77.5072 7.71077 77.605 7.45879C77.9756 6.44196 77.9844 4.8352 77.0655 4.8352V4.73737H80.0003V4.8352C79.1199 5.01011 79.0398 5.88167 78.5685 7.07636C78.2957 7.82045 76.1791 13.7702 75.8856 14.5351C74.9251 17.1379 73.4458 19.0352 72.0406 19.0352C71.4981 19.047 71.1305 18.9611 70.7511 18.635" fill="black"/>
<path d="M26.6007 12.2819V13.3432C25.8566 13.948 25.071 14.4519 23.5383 14.5498C20.6301 14.7336 17.7101 13.3551 17.4848 9.99925C17.2447 6.64343 19.7319 4.7758 22.6401 4.52085C23.4968 4.43785 24.5492 4.64833 25.2103 4.81434C25.8566 4.98331 26.3605 5.05446 26.3605 4.09692H26.4317V7.63654H26.3605C26.3605 6.76498 25.1392 4.96256 22.6519 5.15822C20.5027 5.34202 19.7586 7.63654 19.9276 9.86881C20.1114 12.1159 21.3179 13.8205 23.5354 13.7642C24.8546 13.7375 25.8536 12.9934 26.5977 12.276L26.6007 12.2819Z" fill="black"/>
<path d="M6.00905 0.705543V0.803368C4.89439 0.803368 4.79657 1.52671 4.77582 2.9556V13.6041C4.77582 16.9718 2.07515 18.0479 0 18.2435V18.125C1.23323 17.6744 1.74313 16.6368 1.74313 14.3067V2.95263C1.74313 1.52374 1.62455 0.8004 0.509895 0.8004V0.702576H6.01201L6.00905 0.705543Z" fill="black"/>
<path d="M16.0678 12.1752C16.0678 13.7613 16.2427 14.3097 17.301 14.3097V14.4075H12.7979V14.3097C12.9165 14.2504 13.0143 13.8798 13.0706 13.1358C12.4629 14.0547 11.7188 14.6032 10.1743 14.6032C8.09917 14.6032 6.70882 13.5063 6.70882 10.9806V6.96662C6.70882 5.36283 6.53391 4.83218 5.47559 4.83218V4.73435H9.99645V4.83218C9.8008 4.93 9.66443 5.79267 9.66443 7.76703V11.3689C9.66443 12.7 9.5666 13.6931 10.9747 13.6931C11.7574 13.6931 12.62 13.1269 13.0706 12.2256C13.1092 11.8136 13.1092 11.9974 13.1092 11.3689V6.96365C13.1092 5.35986 12.9343 4.82921 11.8759 4.82921V4.73138H16.3968V4.82921C16.2012 4.92704 16.0648 5.78972 16.0648 7.76407V12.1693L16.0678 12.1752Z" fill="black"/>
<path d="M57.6713 12.1752C57.6713 13.7612 57.8462 14.3097 58.9045 14.3097V14.4075H54.4014V14.3097C54.52 14.2504 54.6178 13.8798 54.6742 13.1357C54.0664 14.0547 53.3223 14.6031 51.7778 14.6031C49.7027 14.6031 48.3123 13.5063 48.3123 10.9805V6.96658C48.3123 5.36279 48.1374 4.83214 47.0791 4.83214V4.73431H51.6V4.83214C51.4043 4.92997 51.2679 5.79264 51.2679 7.767V11.3689C51.2679 12.6999 51.1701 13.9006 52.5783 13.9006C53.3609 13.9006 54.2236 13.3343 54.6742 12.4331C54.7127 12.0211 54.7127 11.9973 54.7127 11.3718V6.96658C54.7127 5.36279 54.5378 4.83214 53.4795 4.83214V4.73431H58.0003V4.83214C57.8047 4.92997 57.6683 5.79264 57.6683 7.767V12.1723L57.6713 12.1752Z" fill="black"/>
<path d="M47.6131 0.705543V0.803368C46.4984 0.803368 46.4006 1.52671 46.3798 2.9556V13.6041C46.3798 16.9718 43.6792 18.0479 41.604 18.2435V18.125C42.8372 17.6744 43.3471 16.6368 43.3471 14.3067V2.95263C43.3471 1.52374 43.2286 0.8004 42.1139 0.8004V0.702576H47.616L47.6131 0.705543Z" fill="black"/>
<path d="M69.0731 12.1752C69.0731 13.7612 69.248 14.3097 70.3064 14.3097V14.4075H65.7855V14.3097C65.9219 14.2504 66.0197 13.8413 66.079 12.9578C65.5306 14.114 64.5908 14.6031 63.4762 14.6031C60.7548 14.6031 58.816 12.8007 58.9553 9.57238C59.0917 6.4389 61.069 5.30349 63.1441 4.77581C64.3181 4.48233 65.1808 4.52086 66.1205 4.58015V2.23227C66.1205 0.646261 65.9456 0.0978246 64.8873 0.0978246V0H69.3903V0.0978246C69.2154 0.195653 69.0761 1.05832 69.0761 3.03268V12.1752H69.0731ZM66.1175 5.24421C65.2964 5.16713 64.161 5.18492 63.6125 5.41911C62.3793 5.92901 61.9494 7.10591 61.9109 9.61092C61.8516 12.273 62.6165 13.696 63.9653 13.696C64.9643 13.696 65.6877 12.9727 66.0997 12.0507C66.1205 11.6594 66.1205 11.3007 66.1205 10.7523V5.24124L66.1175 5.24421Z" fill="black"/>
</svg>
