<svg width="90" height="19" viewBox="0 0 90 19" fill="none" xmlns="http://www.w3.org/2000/svg">
<path d="M52.9511 13.6462V13.5521H53.0452H55.199V12.7617H53.0452H52.0498V17.9141H53.0452H55.199V17.1237H53.0452H52.9511V17.0296V15.754V15.66H53.0452H54.9543V14.8695H53.0452H52.9511V14.7754V13.6462Z" fill="black"/>
<path d="M25 12.8433H25.6942L26.493 17.2931L28.2767 13.2385H28.6573L30.4765 17.3286L31.2398 12.8433H31.8838L30.9219 17.8326H30.0353L28.4461 13.9997L26.8611 17.8326H25.9661L25.0042 12.8433H25Z" fill="black" stroke="black" stroke-width="0.22" stroke-miterlimit="10"/>
<path d="M36.8334 17.9351C36.0367 17.9351 35.4094 17.7071 34.9556 17.2492C34.5019 16.7913 34.2739 16.1556 34.2739 15.34C34.2739 14.5245 34.5019 13.8909 34.9577 13.4309C35.4136 12.9709 36.0388 12.7408 36.8334 12.7408C37.628 12.7408 38.2553 12.9709 38.7112 13.4309C39.167 13.8909 39.395 14.5266 39.395 15.34C39.395 16.1535 39.167 16.7871 38.7112 17.245C38.2553 17.7051 37.6301 17.9351 36.8334 17.9351ZM36.8355 13.2657C36.2542 13.2657 35.8025 13.4476 35.4805 13.8094C35.1564 14.1711 34.9974 14.6814 34.9974 15.338C34.9974 15.9946 35.1584 16.5048 35.4805 16.8665C35.8025 17.2283 36.2542 17.4081 36.8355 17.4081C37.4168 17.4081 37.8643 17.2283 38.1884 16.8665C38.5125 16.5048 38.6715 15.9946 38.6715 15.338C38.6715 14.6814 38.5104 14.1649 38.1884 13.8052C37.8664 13.4455 37.4147 13.2657 36.8355 13.2657Z" fill="black" stroke="black" stroke-width="0.22" stroke-miterlimit="10"/>
<path d="M47.7091 17.8326H47.0148V13.548L45.3942 16.4755H45.0137L43.3931 13.548V17.8326H42.749V12.8433H43.6356L45.2249 15.7143L46.8099 12.8433H47.7049V17.8326H47.7091Z" fill="black" stroke="black" stroke-width="0.22" stroke-miterlimit="10"/>
<path d="M64.1576 17.8326H63.3525L60.5254 13.502V17.8326H59.8813V12.8433H60.8432L63.5135 16.9355V12.8433H64.1576V17.8326Z" fill="black" stroke="black" stroke-width="0.22" stroke-miterlimit="10"/>
<path d="M13.4689 0.0020752H12.0679V8.00462H13.4689V0.0020752Z" fill="black"/>
<path d="M45.3492 8.00672C46.9405 8.00672 47.5929 6.90891 47.5929 5.65008C47.5929 4.04204 46.2254 3.86431 46.2254 3.86431C46.2254 3.86431 47.3504 3.42518 47.3504 2.21654C47.3504 0.491401 45.9974 0 44.8411 0L44.1531 0.00627297L42.0913 0V8.00672H45.3492ZM43.5843 1.18146H44.8411C45.4161 1.18146 46.1689 1.47002 46.1689 2.22908C46.1689 2.98814 45.414 3.26626 44.8411 3.27671L43.5843 3.28299V1.18355V1.18146ZM43.5843 4.45608H45.3492C46.1166 4.45608 46.4073 4.95375 46.4073 5.65008C46.4073 6.34641 46.01 6.82527 45.3492 6.82527H43.5843V4.45399V4.45608Z" fill="black"/>
<path d="M61.6491 0.0020752H60.248V8.00462H61.6491V0.0020752Z" fill="black"/>
<path d="M86.508 1.37382V1.22745H86.6543H90V0.0020752H86.6543H85.1069V8.00462H86.6543H90V6.77716H86.6543H86.508V6.63078V4.64844V4.50207H86.6543H89.6195V3.27461H86.6543H86.508V3.12823V1.37382Z" fill="black"/>
<path d="M31.1005 8.00672C33.4321 8.00672 34.4964 5.98256 34.4964 4.00232C34.4964 2.02207 33.5492 0 31.1005 0H28.0078V8.00672H31.1005ZM29.4088 1.18146H31.1005C32.397 1.18146 33.3171 2.02207 33.3171 4.00441C33.3171 5.69609 32.397 6.82736 31.1005 6.82736H29.4088V1.18355V1.18146Z" fill="black"/>
<path d="M68.537 8.00672C70.8686 8.00672 71.9329 5.98256 71.9329 4.00232C71.9329 2.02207 70.9857 0 68.537 0H65.4443V8.00672H68.537ZM66.8454 1.18146H68.537C69.8335 1.18146 70.7536 2.02207 70.7536 4.00441C70.7536 5.69609 69.8335 6.82736 68.537 6.82736H66.8454V1.18355V1.18146Z" fill="black"/>
<path d="M53.3999 4.88057L55.5788 8.00463H57.3123L55.1271 4.88057C55.1271 4.88057 56.7247 4.3348 56.7247 2.44028C56.7247 0.54577 55.4889 0 54.3806 0H51.0537V8.00672H52.4464V4.88266H53.402L53.3999 4.88057ZM52.4443 1.17937H54.3764C55.0644 1.17937 55.5412 1.59967 55.5412 2.44028C55.5412 3.2809 55.0184 3.7012 54.3764 3.7012H52.4443V1.18146V1.17937Z" fill="black"/>
<path d="M78.4112 5.03315H79.9105V6.48435L79.8457 6.51363C79.5215 6.65373 79.1284 6.72692 78.7123 6.72692C77.0834 6.72692 75.9458 5.61028 75.9458 4.01479C75.9458 2.4193 77.1043 1.30267 78.7018 1.30267C79.5111 1.30267 80.358 1.59333 81.0229 2.10146L81.0606 2.13073V0.654436L81.0522 0.650256C80.5775 0.367961 79.7808 0.0333862 78.6893 0.0333862C76.2887 0.0333862 74.5469 1.71252 74.5469 4.02734C74.5469 6.34216 76.272 7.97947 78.6475 7.97947C79.5801 7.97947 80.5692 7.71391 81.2948 7.26642L81.3073 7.25805V3.85169H78.407V5.03524L78.4112 5.03315Z" fill="black"/>
<path d="M8.27229 0.00213623H8.20119H6.87127L4.13405 4.60668L1.40102 0.00213623H0.165195H0V8.00468H0.165195H1.40102V2.35251L3.62174 6.20008H4.13405H4.58364H4.64637L6.87127 2.34623V8.00468H8.20119H8.27229V0.00213623Z" fill="black"/>
<path d="M24.2127 0.0020752H22.8116V0.00834816V5.48696V5.96164L22.544 5.57061L18.734 0.0020752H17.3372H17.2661V8.00462H18.6671V7.99834V2.52182V2.04715L18.9348 2.43818L22.7426 8.00462H24.1416H24.2127V0.0020752Z" fill="black"/>
</svg>
