<svg width="90" height="20" viewBox="0 0 90 20" fill="none" xmlns="http://www.w3.org/2000/svg">
<path d="M44.9623 14.8936V14.7995H45.0564H47.2103V14.0091H45.0564H44.061V19.1616H45.0564H47.2103V18.3712H45.0564H44.9623V18.2771V17.0015V16.9074H45.0564H46.9656V16.1169H45.0564H44.9623V16.0228V14.8936Z" fill="black"/>
<path d="M39.9602 19.0801H39.2659V14.7953L37.6453 17.7229H37.2647L35.6441 14.7953V19.0801H35V14.0906H35.8866L37.4759 16.9618L39.061 14.0906H39.956V19.0801H39.9602Z" fill="black" stroke="black" stroke-width="0.22" stroke-miterlimit="10"/>
<path d="M55.9282 19.0801H55.1231L52.2959 14.7493V19.0801H51.6519V14.0906H52.6138L55.2841 18.183V14.0906H55.9282V19.0801Z" fill="black" stroke="black" stroke-width="0.22" stroke-miterlimit="10"/>
<path d="M13.4689 0.00213623H12.0679V8.00488H13.4689V0.00213623Z" fill="black"/>
<path d="M45.3503 8.00692C46.9416 8.00692 47.594 6.90908 47.594 5.65022C47.594 4.04215 46.2264 3.8644 46.2264 3.8644C46.2264 3.8644 47.3515 3.42527 47.3515 2.21659C47.3515 0.491414 45.9985 0 44.8421 0L44.1541 0.00627312L42.0923 0V8.00692H45.3503ZM43.5853 1.18149H44.8421C45.4172 1.18149 46.17 1.47006 46.17 2.22914C46.17 2.98822 45.4151 3.26634 44.8421 3.27679L43.5853 3.28307V1.18358V1.18149ZM43.5853 4.45619H45.3503C46.1177 4.45619 46.4084 4.95388 46.4084 5.65022C46.4084 6.34657 46.0111 6.82544 45.3503 6.82544H43.5853V4.4541V4.45619Z" fill="black"/>
<path d="M61.6506 0.00213623H60.2495V8.00488H61.6506V0.00213623Z" fill="black"/>
<path d="M86.5099 1.37601V1.22963H86.6563H90V0.00213623H86.6563H85.1089V8.00488H86.6563H90V6.77948H86.6563H86.5099V6.63101V4.64862V4.50224H86.6563H89.6215V3.27684H86.6563H86.5099V3.13046V1.37601Z" fill="black"/>
<path d="M31.1011 8.00692C33.4327 8.00692 34.4971 5.98271 34.4971 4.00242C34.4971 2.02212 33.5498 0 31.1011 0H28.0083V8.00692H31.1011ZM29.4094 1.18149H31.1011C32.3976 1.18149 33.3177 2.02212 33.3177 4.00451C33.3177 5.69623 32.3976 6.82753 31.1011 6.82753H29.4094V1.18358V1.18149Z" fill="black"/>
<path d="M68.5391 8.00692C70.8707 8.00692 71.9351 5.98271 71.9351 4.00242C71.9351 2.02212 70.9878 0 68.5391 0H65.4463V8.00692H68.5391ZM66.8473 1.18149H68.5391C69.8356 1.18149 70.7557 2.02212 70.7557 4.00451C70.7557 5.69623 69.8356 6.82753 68.5391 6.82753H66.8473V1.18358V1.18149Z" fill="black"/>
<path d="M53.4009 4.88283L55.5799 8.00697H57.3134L55.1282 4.88283C55.1282 4.88283 56.7258 4.33704 56.7258 2.44248C56.7258 0.54792 55.49 0.00213623 54.3817 0.00213623H51.0547V8.00906H52.4474V4.88492H53.403L53.4009 4.88283ZM52.4453 1.18153H54.3775C55.0655 1.18153 55.5422 1.60185 55.5422 2.44248C55.5422 3.28311 55.0195 3.70343 54.3775 3.70343H52.4453V1.18362V1.18153Z" fill="black"/>
<path d="M78.4127 5.03333H79.9121V6.48457L79.8473 6.51385C79.5231 6.65395 79.13 6.72714 78.7139 6.72714C77.0849 6.72714 75.9473 5.61048 75.9473 4.01495C75.9473 2.41942 77.1058 1.30276 78.7034 1.30276C79.5127 1.30276 80.3596 1.59343 81.0246 2.10157L81.0622 2.13085V0.654511L81.0538 0.650329C80.5791 0.368027 79.7824 0.0334473 78.6909 0.0334473C76.2902 0.0334473 74.5483 1.71262 74.5483 4.0275C74.5483 6.34238 76.2735 7.97973 78.649 7.97973C79.5817 7.97973 80.5708 7.71416 81.2964 7.26665L81.3089 7.25829V3.85184H78.4086V5.03542L78.4127 5.03333Z" fill="black"/>
<path d="M8.2725 0.00213623H8.2014H6.87144L4.13416 4.6068L1.40105 0.00213623H0.165199H0V8.00488H0.165199H1.40105V2.35256L3.62183 6.20024H4.13416H4.58375H4.64648L6.87144 2.34629V8.00488H8.2014H8.2725V0.00213623Z" fill="black"/>
<path d="M24.2133 0.00213623H22.8123V0.00840936V5.48925V5.96185L22.5446 5.57081L18.7346 0.00213623H17.3377H17.2666V8.00488H18.6677V7.99861V2.52194V2.04726L18.9353 2.4383L22.7433 8.00488H24.1422H24.2133V0.00213623Z" fill="black"/>
</svg>
