<svg width="63" height="16" viewBox="0 0 63 16" fill="none" xmlns="http://www.w3.org/2000/svg">
<path d="M11.3125 8.34375C11.3125 9.54688 11.0833 10.5859 10.625 11.4609C10.1667 12.3359 9.53646 13.0052 8.73438 13.4688C7.9375 13.9271 7.03646 14.1562 6.03125 14.1562C5.02083 14.1562 4.11458 13.9271 3.3125 13.4688C2.51042 13.0052 1.88021 12.3359 1.42188 11.4609C0.963542 10.5807 0.734375 9.54167 0.734375 8.34375C0.734375 7.14062 0.963542 6.10156 1.42188 5.22656C1.88021 4.35156 2.51042 3.6849 3.3125 3.22656C4.11458 2.76302 5.02083 2.53125 6.03125 2.53125C7.03646 2.53125 7.9375 2.76302 8.73438 3.22656C9.53646 3.6849 10.1667 4.35156 10.625 5.22656C11.0833 6.10156 11.3125 7.14062 11.3125 8.34375ZM3.125 8.34375C3.125 9.13542 3.24219 9.8125 3.47656 10.375C3.71615 10.9323 4.05469 11.3542 4.49219 11.6406C4.92969 11.9271 5.44271 12.0729 6.03125 12.0781C6.61458 12.0729 7.1224 11.9271 7.55469 11.6406C7.99219 11.349 8.32812 10.9245 8.5625 10.3672C8.80208 9.8099 8.92188 9.13542 8.92188 8.34375C8.92188 7.55208 8.80208 6.8776 8.5625 6.32031C8.32812 5.75781 7.99219 5.33333 7.55469 5.04688C7.1224 4.76042 6.61458 4.61458 6.03125 4.60938C5.44271 4.61458 4.92969 4.76042 4.49219 5.04688C4.05469 5.33333 3.71615 5.75781 3.47656 6.32031C3.24219 6.8776 3.125 7.55208 3.125 8.34375ZM22.3594 2.6875V10.0312C22.3594 10.849 22.1641 11.5703 21.7734 12.1953C21.3828 12.8203 20.8333 13.3047 20.125 13.6484C19.4167 13.987 18.599 14.1562 17.6719 14.1562C16.7448 14.1562 15.9271 13.987 15.2188 13.6484C14.5156 13.3047 13.9688 12.8203 13.5781 12.1953C13.1927 11.5703 13 10.849 13 10.0312V2.6875H15.3438V9.84375C15.3438 10.276 15.4401 10.6641 15.6328 11.0078C15.8307 11.3464 16.1042 11.612 16.4531 11.8047C16.8073 11.9974 17.2135 12.0938 17.6719 12.0938C18.1354 12.0938 18.5443 11.9974 18.8984 11.8047C19.2526 11.612 19.5234 11.3464 19.7109 11.0078C19.9036 10.6641 20 10.276 20 9.84375V2.6875H22.3594ZM23.8281 2.6875H33.0938V4.625H29.625V14H27.2969V4.625H23.8281V2.6875ZM34.5469 2.6875H36.8906V12.0625H41.7656V14H34.5469V2.6875ZM43.2812 2.6875H50.875V4.625H45.625V7.375H50.4844V9.3125H45.625V12.0625H50.8906V14H43.2812V2.6875ZM52.2656 2.6875H61.5312V4.625H58.0625V14H55.7344V4.625H52.2656V2.6875Z" fill="#161616"/>
</svg>
