<svg width="80" height="12" viewBox="0 0 80 12" fill="none" xmlns="http://www.w3.org/2000/svg">
<path d="M3.21345 2.7729H0V0.166565H9.40314V2.7729H6.1897V10.8828H3.21345V2.7729Z" fill="#2C3A94"/>
<path d="M11.3574 0.166382H16.7875C17.4539 0.166382 18.0272 0.245446 18.5016 0.412048C18.9703 0.57865 19.3713 0.821491 19.6819 1.13211C19.8908 1.34389 20.0574 1.59804 20.1789 1.88324C20.2975 2.16844 20.3596 2.49599 20.3596 2.86308V2.89696C20.3596 3.51819 20.2071 4.02648 19.8993 4.40768C19.5915 4.78889 19.2047 5.08539 18.7331 5.2887C19.3797 5.50048 19.8937 5.81109 20.2777 6.21489C20.6504 6.61586 20.8481 7.18345 20.8481 7.90634V7.93174C20.8481 8.86358 20.4895 9.58365 19.7892 10.1089C19.0889 10.6284 18.0978 10.8854 16.8299 10.8854H11.3574V0.169208V0.166382ZM16.0731 4.43874C16.5221 4.43874 16.8694 4.3625 17.1094 4.21002C17.341 4.05753 17.4624 3.82316 17.4624 3.50408V3.47302C17.4624 3.17652 17.3523 2.95062 17.1264 2.78685C16.9061 2.63154 16.5673 2.54964 16.1268 2.54964H14.2179V4.43309H16.0731V4.43874ZM16.4939 8.49649C16.9485 8.49649 17.2986 8.4146 17.5415 8.24517C17.7843 8.07575 17.8944 7.83574 17.8944 7.51665V7.48841C17.8944 7.19191 17.7843 6.95754 17.5584 6.78247C17.3212 6.60739 16.9569 6.52551 16.46 6.52551H14.2179V8.49649H16.4939Z" fill="#2C3A94"/>
<path d="M22.3955 0.166382H25.3661V4.18179H29.1782V0.166382H32.1488V10.8826H29.1782V6.81352H25.3661V10.8826H22.3955V0.166382Z" fill="#2C3A94"/>
<path d="M37.7142 9.33268L38.8381 7.98856C39.866 8.87522 40.9136 9.37785 42.2238 9.37785C43.3844 9.37785 44.1242 8.82721 44.1242 8.03091V8.00268C44.1242 7.24026 43.695 6.81952 41.7071 6.3649C39.4226 5.81426 38.135 5.14502 38.135 3.16556V3.13733C38.135 1.30188 39.6711 0.031189 41.7918 0.031189C43.359 0.031189 44.5929 0.502746 45.6773 1.37811L44.6692 2.80413C43.7035 2.08407 42.7434 1.70285 41.7635 1.70285C40.6623 1.70285 40.0184 2.2676 40.0184 2.9679V2.99897C40.0184 3.82351 40.5041 4.19341 42.5768 4.6791C44.8414 5.23538 46.002 6.04299 46.002 7.81632V7.84737C46.002 9.85225 44.4235 11.0495 42.1758 11.0495C40.538 11.0495 38.9962 10.482 37.7114 9.33268H37.7142Z" fill="#161616"/>
<path d="M47.835 0.18634H49.7184V4.6366H54.8294V0.18634H56.7101V10.8941H54.8294V6.38451H49.7184V10.8941H47.835V0.18634Z" fill="#161616"/>
<path d="M58.6069 5.56563V5.54023C58.6069 2.52727 60.9337 0 64.2234 0C67.5131 0 69.806 2.4962 69.806 5.51198V5.54304C69.806 8.556 67.482 11.0805 64.1923 11.0805C60.9027 11.0805 58.6069 8.58142 58.6069 5.56846V5.56563ZM67.8322 5.56563V5.54023C67.8322 3.45629 66.3186 1.74509 64.1923 1.74509C62.066 1.74509 60.5779 3.42522 60.5779 5.50916V5.54023C60.5779 7.61852 62.0999 9.33255 64.2234 9.33255C66.3469 9.33255 67.8322 7.64675 67.8322 5.56846V5.56563Z" fill="#161616"/>
<path d="M71.7065 0.18634H75.9281C78.4356 0.18634 80 1.60387 80 3.76405V3.79511C80 6.19531 78.0713 7.44906 75.7135 7.44906H73.5872V10.8941H71.7065V0.18634ZM75.7756 5.75199C77.1959 5.75199 78.0826 4.95568 78.0826 3.8403V3.80924C78.0826 2.55549 77.1818 1.89754 75.7756 1.89754H73.5872V5.75199H75.7756Z" fill="#161616"/>
</svg>
