<svg width="56" height="56" viewBox="0 0 56 56" fill="none" xmlns="http://www.w3.org/2000/svg">
<g id="Live_on">
<g id="Group 35184">
<rect id="Rectangle 1679" x="3" y="2.8667" width="50" height="50" rx="18" fill="#161616"/>
<path id="text" d="M13.6932 28.1333V18.3333H15.5132V26.5933H20.6372V28.1333H13.6932ZM22.0741 28.1333V18.3333H23.8941V28.1333H22.0741ZM33.6164 18.3333H35.4364L31.1664 28.1333H29.3744L25.0904 18.3333H27.0644L30.3264 25.8933L33.6164 18.3333ZM38.2905 26.6073H43.8205V28.1333H36.4705V18.3333H43.6245V19.8593H38.2905V22.4073H43.0225V23.9053H38.2905V26.6073Z" fill="white"/>
<path id="text_2" d="M17.4416 42.14C14.4036 42.14 12.1636 39.998 12.1636 37.1C12.1636 34.202 14.4036 32.06 17.4416 32.06C20.4796 32.06 22.7196 34.188 22.7196 37.1C22.7196 40.012 20.4796 42.14 17.4416 42.14ZM17.4416 40.544C19.4156 40.544 20.8856 39.102 20.8856 37.1C20.8856 35.098 19.4156 33.656 17.4416 33.656C15.4676 33.656 13.9976 35.098 13.9976 37.1C13.9976 39.102 15.4676 40.544 17.4416 40.544ZM31.5508 32.2H33.3568V42H31.8588L26.4548 35.364V42H24.6488V32.2H26.1468L31.5508 38.836V32.2Z" fill="white"/>
<ellipse id="Ellipse 481" cx="49.8001" cy="7.2" rx="5.2" ry="5.2" fill="#F20042"/>
</g>
</g>
</svg>
