<svg width="24" height="24" viewBox="0 0 24 24" fill="none" xmlns="http://www.w3.org/2000/svg">
<path d="M4.77791 7.37752H18.6446L16.9112 14.8886H6.51124M16.9112 17.1997H7.08902L4.20013 5.06641H2.4668" stroke="white" stroke-width="1.3" stroke-linecap="round" stroke-linejoin="round"/>
<path d="M15.7552 20.6671C16.3934 20.6671 16.9107 20.1497 16.9107 19.5115C16.9107 18.8733 16.3934 18.356 15.7552 18.356C15.117 18.356 14.5996 18.8733 14.5996 19.5115C14.5996 20.1497 15.117 20.6671 15.7552 20.6671Z" stroke="white" stroke-width="1.3" stroke-linecap="round" stroke-linejoin="round"/>
<path d="M8.24442 20.6671C8.88262 20.6671 9.39998 20.1497 9.39998 19.5115C9.39998 18.8733 8.88262 18.356 8.24442 18.356C7.60623 18.356 7.08887 18.8733 7.08887 19.5115C7.08887 20.1497 7.60623 20.6671 8.24442 20.6671Z" stroke="white" stroke-width="1.3" stroke-linecap="round" stroke-linejoin="round"/>
</svg>
