<svg width="26" height="24" viewBox="0 0 26 24" fill="none" xmlns="http://www.w3.org/2000/svg">
<path d="M13.3564 0.0717773C6.45209 0.0717773 0.856445 4.65703 0.856445 10.3165C0.856445 13.9986 3.22826 17.2272 6.78598 19.0335C6.52501 20.044 5.83994 22.6997 5.70178 23.2666C5.53291 23.9708 5.94932 23.9629 6.22565 23.7739C6.44057 23.6247 9.65096 21.3609 11.0364 20.3842C11.7887 20.4995 12.5639 20.5612 13.3564 20.5612C20.2608 20.5612 25.8564 15.976 25.8564 10.3165C25.8564 4.65703 20.2608 0.0717773 13.3564 0.0717773Z" fill="#161616"/>
<path d="M4.63611 8.42848H5.9218C5.9218 8.42848 5.92948 12.0927 5.9218 12.9461C5.9218 13.5687 7.26122 13.5767 7.25931 12.956L7.26506 8.47821C7.26506 8.47821 7.69682 8.48219 8.545 8.48219C9.3452 8.48219 9.3452 7.17922 8.545 7.17723C7.64309 7.17723 4.63227 7.15137 4.63227 7.15137C3.87813 7.15137 3.88005 8.43047 4.63227 8.43047" fill="white"/>
<mask id="mask0_397_2274" style="mask-type:luminance" maskUnits="userSpaceOnUse" x="4" y="7" width="6" height="7">
<path d="M4.63538 8.42677H5.92107C5.92107 8.42677 5.92875 12.091 5.92107 12.9444C5.92107 13.567 7.26049 13.575 7.25857 12.9543L7.26433 8.4765C7.26433 8.4765 7.69609 8.48048 8.54427 8.48048C9.34447 8.48048 9.34447 7.17751 8.54427 7.17552C7.64236 7.17552 4.63154 7.14966 4.63154 7.14966C3.87739 7.14966 3.87931 8.42876 4.63154 8.42876" fill="white"/>
</mask>
<g mask="url(#mask0_397_2274)">
<path d="M9.34402 7.14746H3.87695V13.5748H9.34402V7.14746Z" fill="white"/>
</g>
<path d="M10.793 8.66623L11.5087 10.9917H10.0158L10.793 8.66623ZM9.99085 7.57611C9.67422 8.29822 8.53053 11.7118 8.15058 12.6169C7.87617 13.2714 9.06016 13.8045 9.33457 13.15L9.59171 12.2171H11.9463C11.9463 12.2171 11.8657 12.2549 12.1784 13.1103C12.4317 13.8025 13.6541 13.3231 13.4008 12.6308C13.0401 11.6422 11.7889 8.0794 11.5605 7.57611C11.455 7.34337 11.0789 7.17627 10.7143 7.17627C10.4111 7.17627 10.1175 7.28966 9.99277 7.57611" fill="white"/>
<mask id="mask1_397_2274" style="mask-type:luminance" maskUnits="userSpaceOnUse" x="8" y="7" width="6" height="7">
<path d="M10.792 8.66501L11.5078 10.9905H10.0148L10.792 8.66501ZM9.98987 7.57489C9.67325 8.29699 8.52956 11.7106 8.14961 12.6157C7.8752 13.2702 9.05919 13.8033 9.33359 13.1488L9.59073 12.2158H11.9453C11.9453 12.2158 11.8647 12.2536 12.1775 13.109C12.4308 13.8013 13.6531 13.3219 13.3998 12.6296C13.0391 11.641 11.7879 8.07818 11.5596 7.57489C11.454 7.34215 11.0779 7.17505 10.7133 7.17505C10.4101 7.17505 10.1165 7.28844 9.99179 7.57489" fill="white"/>
</mask>
<g mask="url(#mask1_397_2274)">
<path d="M13.6539 7.17505H7.87598V13.8053H13.6539V7.17505Z" fill="white"/>
</g>
<path d="M13.8513 7.7906C13.8532 8.95034 13.857 12.6902 13.857 12.6902C13.857 12.6902 13.7534 13.4341 14.3675 13.4341C14.9816 13.4341 16.3459 13.4282 16.9504 13.4282C17.5549 13.4282 17.551 12.0954 16.9465 12.0954C16.3421 12.0954 15.2387 12.0894 15.2387 12.0894C15.2387 12.0894 15.2444 8.63206 15.2425 7.7906C15.2425 7.38479 14.8933 7.18188 14.5459 7.18188C14.1986 7.18188 13.8475 7.38678 13.8494 7.79458" fill="white"/>
<mask id="mask2_397_2274" style="mask-type:luminance" maskUnits="userSpaceOnUse" x="13" y="7" width="5" height="7">
<path d="M13.8503 7.79109C13.8522 8.95083 13.8561 12.6906 13.8561 12.6906C13.8561 12.6906 13.7525 13.4346 14.3665 13.4346C14.9806 13.4346 16.3449 13.4287 16.9494 13.4287C17.5539 13.4287 17.55 12.0959 16.9456 12.0959C16.3411 12.0959 15.2377 12.0899 15.2377 12.0899C15.2377 12.0899 15.2435 8.63255 15.2416 7.79109C15.2416 7.38528 14.8923 7.18237 14.545 7.18237C14.1976 7.18237 13.8465 7.38727 13.8484 7.79507" fill="white"/>
</mask>
<g mask="url(#mask2_397_2274)">
<path d="M17.5558 7.17896H13.7544V13.4332H17.5558V7.17896Z" fill="white"/>
</g>
<path d="M17.7163 7.60637C17.7297 8.11562 17.7009 12.7148 17.7009 13.055C17.7009 13.5921 19.0231 13.5921 19.0212 13.055C19.0212 12.4303 19.0212 11.2447 19.0212 11.2447L19.4088 10.9225L21.1051 13.3215C21.4486 13.791 22.5271 12.9436 22.1855 12.4741L20.3836 10.0154C20.3836 10.0154 21.606 8.64476 22.0876 8.14745C22.3697 7.859 21.4985 6.94792 21.2164 7.23835C20.9439 7.51884 19.0288 9.50612 19.0288 9.50612C19.0288 9.50612 19.0461 8.25885 19.0288 7.56857C19.0212 7.30599 18.7122 7.18066 18.3956 7.18066C18.0559 7.18066 17.7086 7.32588 17.7163 7.60637Z" fill="white"/>
<mask id="mask3_397_2274" style="mask-type:luminance" maskUnits="userSpaceOnUse" x="17" y="7" width="6" height="7">
<path d="M17.7153 7.60734C17.7287 8.1166 17.7 12.7158 17.7 13.0559C17.7 13.593 19.0221 13.593 19.0202 13.0559C19.0202 12.4313 19.0202 11.2457 19.0202 11.2457L19.4078 10.9234L21.1042 13.3225C21.4476 13.792 22.5261 12.9445 22.1845 12.4751L20.3826 10.0163C20.3826 10.0163 21.605 8.64574 22.0867 8.14842C22.3687 7.85998 21.4975 6.9489 21.2155 7.23933C20.943 7.51982 19.0279 9.50709 19.0279 9.50709C19.0279 9.50709 19.0451 8.25982 19.0279 7.56955C19.0202 7.30696 18.7112 7.18164 18.3946 7.18164C18.055 7.18164 17.7076 7.32686 17.7153 7.60734Z" fill="white"/>
</mask>
<g mask="url(#mask3_397_2274)">
<path d="M22.528 6.95044H17.7V13.7915H22.528V6.95044Z" fill="white"/>
</g>
</svg>
