<svg width="25" height="24" viewBox="0 0 25 24" fill="none" xmlns="http://www.w3.org/2000/svg">
<g id="Frame 36431">
<path id="Vector" d="M19.0316 13.7997L15.9886 12.4469C15.7655 12.3488 15.5233 12.3016 15.2797 12.309C15.0361 12.3163 14.7972 12.378 14.5804 12.4894C14.3636 12.6009 14.1745 12.7593 14.0268 12.9532C13.8791 13.1471 13.7765 13.3715 13.7266 13.61C13.6956 13.7628 13.6272 13.9056 13.5274 14.0253C13.4276 14.1451 13.2995 14.2382 13.1548 14.2962C13.0191 14.3518 12.8719 14.3733 12.726 14.3587C12.5801 14.3441 12.44 14.2939 12.318 14.2125C11.4052 13.4555 10.5648 12.6151 9.80779 11.7022C9.72639 11.5803 9.67619 11.4402 9.6616 11.2943C9.64701 11.1484 9.66847 11.0011 9.72411 10.8655C9.78208 10.7207 9.87515 10.5927 9.99493 10.4929C10.1147 10.3931 10.2574 10.3246 10.4102 10.2937C10.6488 10.2438 10.8732 10.1412 11.0671 9.99348C11.2609 9.84576 11.4194 9.65662 11.5308 9.43986C11.6423 9.22311 11.7039 8.9842 11.7113 8.74058C11.7186 8.49696 11.6715 8.25477 11.5733 8.03169L10.2038 4.97197C10.0403 4.59634 9.74034 4.29674 9.3645 4.13367C8.98866 3.9706 8.56495 3.9562 8.17891 4.09339L5.09967 5.15327C4.76151 5.26897 4.47089 5.49287 4.27275 5.79033C4.07461 6.08779 3.97999 6.44224 4.00353 6.79888C4.25622 10.2158 5.72781 13.4283 8.15029 15.8513C10.5728 18.2743 13.785 19.7466 17.2019 20H17.319C17.6582 19.9964 17.9879 19.8869 18.2619 19.6869C18.5359 19.4869 18.7406 19.2063 18.8475 18.8843L19.9101 15.8163C20.0449 15.4313 20.0292 15.0096 19.8663 14.6357C19.7034 14.2617 19.4053 13.9631 19.0316 13.7997ZM19.383 15.6405L18.3203 18.7086C18.2449 18.9304 18.0987 19.1213 17.9041 19.2518C17.7096 19.3824 17.4775 19.4453 17.2437 19.431C13.9622 19.1884 10.8768 17.7758 8.54876 15.4504C6.22076 13.1249 4.80484 10.0411 4.55858 6.75983C4.5438 6.5259 4.60657 6.29363 4.73717 6.09899C4.86777 5.90436 5.0589 5.75822 5.28097 5.68321L8.34905 4.62054C8.60309 4.53023 8.88192 4.53959 9.12933 4.64674C9.37674 4.75388 9.57433 4.95083 9.68227 5.1979L11.0406 8.24088C11.1055 8.38763 11.1368 8.54703 11.1322 8.70744C11.1276 8.86784 11.0872 9.02519 11.0139 9.16796C10.9407 9.31073 10.8364 9.43532 10.7088 9.53262C10.5812 9.62991 10.4334 9.69745 10.2764 9.73029C10.034 9.78 9.80772 9.88874 9.61748 10.0469C9.42725 10.205 9.27897 10.4076 9.1858 10.6368C9.09372 10.8589 9.05777 11.1003 9.08112 11.3396C9.10447 11.579 9.1864 11.8089 9.31968 12.009C10.1194 12.9845 11.0135 13.8786 11.9889 14.6783C12.1891 14.8116 12.419 14.8935 12.6583 14.9168C12.8976 14.9402 13.139 14.9042 13.3612 14.8122C13.5903 14.719 13.793 14.5707 13.9511 14.3805C14.1092 14.1902 14.218 13.9639 14.2677 13.7216C14.301 13.5643 14.3691 13.4164 14.4671 13.2889C14.565 13.1614 14.6903 13.0574 14.8337 12.9847C14.9771 12.9119 15.135 12.8722 15.2957 12.8684C15.4565 12.8647 15.616 12.897 15.7627 12.9629L18.8056 14.3157C19.051 14.4241 19.2466 14.6208 19.3535 14.8668C19.4605 15.1127 19.471 15.39 19.383 15.6433V15.6405Z" fill="#6688FF"/>
</g>
</svg>
