<svg width="48" height="48" viewBox="0 0 48 48" fill="none" xmlns="http://www.w3.org/2000/svg">
<path d="M32.7995 21.3999C30.4871 21.3999 28.6006 23.2862 28.6006 25.5988C28.6006 27.9112 30.4868 29.802 32.7995 29.802C35.1119 29.802 36.9984 27.9112 36.9984 25.5988C36.9984 23.2864 35.1121 21.3999 32.7995 21.3999ZM32.7995 22.6002C34.4634 22.6002 35.7979 23.9346 35.7979 25.5986C35.7979 27.2626 34.4634 28.6015 32.7995 28.6015C31.1355 28.6015 29.8009 27.2626 29.8009 25.5986C29.8009 23.9346 31.1353 22.6002 32.7995 22.6002Z" fill="black" stroke="#161616" stroke-width="0.1"/>
<path d="M32.7995 30.9971C28.4886 30.9971 24.9995 34.4862 24.9995 38.7971V39.9973C24.999 40.1567 25.0617 40.3097 25.1736 40.4224C25.2859 40.5355 25.4383 40.5992 25.5974 40.5998H40.0008C40.1599 40.5992 40.3123 40.5355 40.4246 40.4224C40.5365 40.3097 40.5992 40.1567 40.5987 39.9973V38.7971C40.5987 34.4867 37.1098 30.9971 32.7987 30.9971H32.7995ZM32.7995 32.1973C36.4662 32.1973 39.399 35.1304 39.399 38.7968V39.3992H26.2003V38.7968C26.2003 35.1304 29.1329 32.1973 32.7998 32.1973H32.7995Z" fill="black" stroke="#161616" stroke-width="0.1"/>
<path d="M18.303 12.3154C17.9765 12.3213 17.7148 12.587 17.7137 12.9133V17.7987H7.59738C7.43827 17.7992 7.28586 17.863 7.17362 17.976C7.06166 18.0888 6.99898 18.2417 6.99952 18.4011V24.3982C6.99898 24.5573 7.06166 24.7102 7.17362 24.8232C7.28586 24.936 7.43827 25 7.59738 25.0003H17.7137V29.8857C17.7156 30.1273 17.8621 30.3443 18.0855 30.4362C18.3089 30.5281 18.5658 30.4769 18.7369 30.3065L27.2233 21.8201C27.4561 21.586 27.4561 21.2081 27.2233 20.9742L18.7369 12.4878C18.6215 12.374 18.4651 12.3116 18.303 12.3151V12.3154ZM18.9143 14.3616L25.9524 21.3997L18.9143 28.4379V24.3986H18.914C18.9135 24.2393 18.8497 24.0869 18.7369 23.9749C18.6239 23.8627 18.471 23.8 18.3119 23.8005H8.20031V18.9994H18.3119C18.471 19.0002 18.6239 18.9375 18.7369 18.8253C18.8497 18.7131 18.9137 18.5607 18.914 18.4016L18.9143 14.3616Z" fill="#6688FF" stroke="#6688FF" stroke-width="0.1"/>
<path d="M13.5422 7.0008C13.2353 7.03161 13.0017 7.29009 13.002 7.59839V15.9984C13.002 16.3297 13.2706 16.5984 13.602 16.5984C13.9333 16.5984 14.202 16.3297 14.202 15.9984V8.20113H32.202L32.1971 19.6011C32.1971 19.7602 32.2603 19.9127 32.3728 20.0252C32.4853 20.1379 32.638 20.2011 32.7971 20.2011C32.9562 20.2011 33.1089 20.1379 33.2214 20.0252C33.3339 19.9127 33.3971 19.7602 33.3971 19.6011V7.59839C33.3961 7.26892 33.129 7.00214 32.7995 7.0008H13.5995C13.5805 6.99973 13.5612 6.99973 13.5422 7.0008ZM13.602 26.2008C13.2706 26.2008 13.002 26.4695 13.002 26.8008V35.2008C13.003 35.5303 13.2701 35.7971 13.5995 35.7984H23.9038C24.2351 35.7984 24.5038 35.5297 24.5038 35.1984C24.5038 34.8671 24.2351 34.5984 23.9038 34.5984H14.2016V26.8011C14.2016 26.4698 13.9329 26.2011 13.6016 26.2011L13.602 26.2008Z" fill="black" stroke="#161616" stroke-width="0.1"/>
</svg>
