<svg width="29" height="29" viewBox="0 0 29 29" fill="none" xmlns="http://www.w3.org/2000/svg">
<circle cx="14.5" cy="14.5" r="14.5" fill="#2AA9E0"/>
<g clip-path="url(#clip0_2465_93658)">
<path d="M20.7215 10.9865C20.2684 11.2096 19.8153 11.2839 19.2866 11.3583C19.8153 11.0608 20.1929 10.6147 20.3439 10.0198C19.8908 10.3172 19.3621 10.466 18.758 10.6147C18.3049 10.1685 17.6252 9.87109 16.9455 9.87109C15.6616 9.87109 14.5288 10.9865 14.5288 12.3249C14.5288 12.548 14.5288 12.6967 14.6043 12.8455C12.5653 12.7711 10.6772 11.8044 9.46891 10.3172C9.24235 10.689 9.16683 11.0608 9.16683 11.5814C9.16683 12.3993 9.61995 13.1429 10.2996 13.589C9.92204 13.589 9.54443 13.4403 9.16683 13.2916C9.16683 14.4814 9.99756 15.448 11.1304 15.6711C10.9038 15.7455 10.6772 15.7455 10.4507 15.7455C10.2996 15.7455 10.1486 15.7455 9.99756 15.6711C10.2996 16.6378 11.2059 17.3814 12.3387 17.3814C11.508 18.0506 10.4507 18.4224 9.24235 18.4224C9.01579 18.4224 8.86475 18.4224 8.63818 18.4224C9.771 19.0916 11.0549 19.5378 12.4142 19.5378C16.9455 19.5378 19.4377 15.8198 19.4377 12.6224C19.4377 12.548 19.4377 12.3993 19.4377 12.3249C19.9663 11.9531 20.4194 11.507 20.7215 10.9865Z" fill="#F3F4F8"/>
</g>
<defs>
<clipPath id="clip0_2465_93658">
<rect width="12.0833" height="9.66667" fill="white" transform="translate(8.63818 9.87109)"/>
</clipPath>
</defs>
</svg>
