<svg width="22" height="22" viewBox="0 0 22 22" fill="none" xmlns="http://www.w3.org/2000/svg">
<path d="M17.6986 8.55703V8.66261C17.6718 9.70685 17.2474 10.8147 16.3768 11.694L16.3767 11.694C15.7276 12.3499 14.365 13.722 13.1475 14.9437C12.5388 15.5546 11.9665 16.1277 11.538 16.5547C11.3237 16.7682 11.1457 16.9449 11.0171 17.0714C11.0117 17.0768 11.0064 17.082 11.0012 17.0871C10.9959 17.082 10.9905 17.0767 10.9851 17.0713C10.8564 16.9448 10.6783 16.7681 10.4639 16.5545C10.0353 16.1274 9.46294 15.5542 8.85419 14.9432C7.63671 13.7213 6.27441 12.3492 5.62599 11.694L5.62578 11.6938C4.72308 10.7834 4.3 9.63026 4.3 8.55703C4.3 7.679 4.5829 6.86354 5.10547 6.27174C5.62383 5.68473 6.39295 5.30003 7.40907 5.30003C8.03859 5.30003 8.6878 5.5186 9.28558 5.84388C9.88169 6.16825 10.4086 6.58902 10.7879 6.96827L10.9998 7.18022L11.212 6.96845C11.592 6.58904 12.119 6.16823 12.715 5.84386C13.3126 5.51859 13.9614 5.30003 14.5909 5.30003C15.6077 5.30003 16.3764 5.68503 16.8942 6.27212C17.4163 6.86405 17.6986 7.67954 17.6986 8.55703Z" stroke="#D4D4D4" stroke-width="0.6"/>
</svg>
