<svg width="28" height="28" viewBox="0 0 28 28" fill="none" xmlns="http://www.w3.org/2000/svg">
<g id="Frame 36423">
<path id="Vector" d="M9.51724 8.64879C9.51724 7.72934 9.78015 6.83055 10.2727 6.06606C10.7653 5.30157 11.4654 4.70573 12.2845 4.35387C13.1036 4.00201 14.005 3.90995 14.8745 4.08933C15.7441 4.2687 16.5429 4.71146 17.1698 5.3616C17.7967 6.01174 18.2237 6.84008 18.3966 7.74185C18.5696 8.64363 18.4808 9.57835 18.1415 10.4278C17.8022 11.2773 17.2277 12.0033 16.4905 12.5141C15.7533 13.0249 14.8866 13.2976 14 13.2976C12.8117 13.2957 11.6725 12.8053 10.8322 11.9339C9.99194 11.0625 9.51906 9.88114 9.51724 8.64879ZM14 14.0128C11.349 14.0166 8.80754 15.1104 6.93296 17.0544C5.05839 18.9984 4.00365 21.6339 4 24.3831C4 24.478 4.03633 24.5689 4.101 24.636C4.16567 24.7031 4.25337 24.7407 4.34483 24.7407H23.6552C23.7466 24.7407 23.8343 24.7031 23.899 24.636C23.9637 24.5689 24 24.478 24 24.3831C23.9963 21.6339 22.9416 18.9984 21.067 17.0544C19.1925 15.1104 16.651 14.0166 14 14.0128Z" fill="black"/>
</g>
</svg>
