<svg width="45" height="45" viewBox="0 0 45 45" fill="none" xmlns="http://www.w3.org/2000/svg">
<circle cx="22.5" cy="22.5" r="22" stroke="#ECECEC"/>
<path d="M18 16.8547C18 15.9889 18.6891 15.2998 19.5548 15.2998H23.7865C27.1701 15.2998 29.2108 17.3052 29.2108 20.194V20.2382C29.2108 23.5158 26.6577 25.212 23.4861 25.212H21.1185V28.145C21.1185 29.0196 20.4294 29.6998 19.5637 29.6998C18.6979 29.6998 18.0088 29.0107 18.0088 28.145V16.8547H18ZM23.5833 22.438C25.1382 22.438 26.0481 21.5104 26.0481 20.2912V20.247C26.0481 18.8512 25.0763 18.1003 23.5215 18.1003H21.1097V22.4291H23.5745L23.5833 22.438Z" fill="#E72922"/>
</svg>
