<svg width="32" height="32" viewBox="0 0 32 32" fill="none" xmlns="http://www.w3.org/2000/svg">
<path d="M22.5563 17.8198H21.641C21.5193 17.8198 21.4026 17.8681 21.3165 17.9542C21.2305 18.0402 21.1821 18.1569 21.1821 18.2786C21.1821 18.4003 21.2305 18.5171 21.3165 18.6031C21.4026 18.6892 21.5193 18.7375 21.641 18.7375H22.5563C22.7731 18.7366 22.9837 18.8097 23.1532 18.9449C23.1831 18.9712 23.2097 18.9943 23.2345 19.0183C23.4096 19.1913 23.5106 19.4255 23.5161 19.6716C23.518 19.7952 23.4949 19.918 23.4482 20.0325C23.4016 20.1471 23.3323 20.251 23.2446 20.3382C23.1473 20.4383 23.0311 20.518 22.9027 20.5727C22.7743 20.6274 22.6363 20.656 22.4967 20.6568H18.1079C18.0367 20.6568 17.9665 20.6734 17.9027 20.7053C17.839 20.7371 17.7836 20.7834 17.7409 20.8404C17.6981 20.8974 17.6692 20.9635 17.6565 21.0336C17.6437 21.1037 17.6475 21.1758 17.6674 21.2442C18.8632 25.3418 17.3125 25.8811 16.8028 26.0584C16.7383 26.0808 16.6694 26.088 16.6017 26.0792C16.5339 26.0704 16.4692 26.0459 16.4125 26.0077C16.3546 25.9694 16.3065 25.9181 16.2718 25.8579C16.2372 25.7977 16.2171 25.7303 16.213 25.661C16.0895 23.6405 14.8418 21.5557 12.5045 19.4643C12.4599 19.4224 12.4074 19.3898 12.35 19.3685C12.2926 19.3471 12.2315 19.3375 12.1704 19.3401C12.1092 19.3428 12.0492 19.3576 11.9939 19.3838C11.9385 19.41 11.889 19.447 11.8482 19.4926C11.8073 19.5382 11.7761 19.5916 11.7562 19.6495C11.7363 19.7074 11.7282 19.7686 11.7323 19.8297C11.7365 19.8908 11.7528 19.9504 11.7804 20.0051C11.8079 20.0598 11.8461 20.1084 11.8928 20.148C14.043 22.0725 15.1885 23.9461 15.2968 25.717C15.3094 25.9271 15.3705 26.1315 15.4753 26.3142C15.58 26.4968 15.7256 26.6527 15.9007 26.7698C16.0757 26.8868 16.2754 26.9617 16.4842 26.9887C16.693 27.0157 16.9053 26.9941 17.1043 26.9254C18.901 26.3014 19.4392 24.5026 18.7076 21.5749H22.4967C22.7586 21.5738 23.0178 21.5206 23.259 21.4183C23.5001 21.3161 23.7186 21.1668 23.9015 20.9793C24.0752 20.8048 24.2118 20.597 24.3033 20.3684C24.3947 20.1398 24.4391 19.8951 24.4338 19.649C24.4232 19.1669 24.2258 18.7078 23.8832 18.3686C23.8433 18.3289 23.7998 18.2904 23.7558 18.2518C23.751 18.2476 23.7418 18.2397 23.7374 18.2359C23.4027 17.9666 22.9859 17.8198 22.5563 17.8198Z" fill="#888888"/>
<path d="M22.5555 15.6108H21.6401C21.5184 15.6108 21.4017 15.6591 21.3157 15.7452C21.2296 15.8312 21.1813 15.948 21.1813 16.0697C21.1813 16.1913 21.2296 16.3081 21.3157 16.3941C21.4017 16.4802 21.5184 16.5285 21.6401 16.5285H22.5555C22.7724 16.5277 22.983 16.601 23.1525 16.7363C23.1801 16.7603 23.2076 16.7846 23.2337 16.8097C23.3235 16.8983 23.3947 17.0039 23.4431 17.1203C23.4915 17.2368 23.5162 17.3618 23.5156 17.4879C23.5159 17.6314 23.4839 17.773 23.4221 17.9025C23.3603 18.0319 23.2701 18.1459 23.1584 18.2358C23.1099 18.2732 23.0694 18.3198 23.0393 18.3731C23.0091 18.4263 22.9899 18.485 22.9827 18.5458C22.9756 18.6065 22.9806 18.6681 22.9976 18.7269C23.0146 18.7856 23.0432 18.8404 23.0817 18.888C23.1202 18.9355 23.1678 18.9749 23.2217 19.0038C23.2756 19.0327 23.3348 19.0505 23.3957 19.0562C23.4566 19.0619 23.5181 19.0554 23.5764 19.037C23.6348 19.0186 23.6889 18.9887 23.7355 18.9491C23.9405 18.7835 24.1084 18.5766 24.2282 18.3419C24.348 18.1071 24.4169 17.8498 24.4307 17.5866C24.4444 17.3234 24.4025 17.0603 24.3078 16.8144C24.213 16.5684 24.0676 16.3452 23.8808 16.1592C23.8399 16.1181 23.7948 16.0781 23.7494 16.0384C23.7447 16.0342 23.7397 16.0302 23.7347 16.0262C23.4003 15.7576 22.9844 15.6111 22.5555 15.6108Z" fill="#888888"/>
<path d="M22.5555 13.4044H21.6401C21.5184 13.4044 21.4017 13.4528 21.3157 13.5388C21.2296 13.6249 21.1813 13.7416 21.1813 13.8633C21.1813 13.985 21.2296 14.1017 21.3157 14.1877C21.4017 14.2738 21.5184 14.3221 21.6401 14.3221H22.5555C22.6812 14.3215 22.8059 14.3459 22.9221 14.394C23.0383 14.4422 23.1437 14.513 23.2322 14.6024C23.3278 14.6971 23.4023 14.8109 23.4509 14.9363C23.4995 15.0618 23.5211 15.196 23.5143 15.3304C23.5075 15.4648 23.4725 15.5962 23.4114 15.7161C23.3504 15.836 23.2647 15.9416 23.1601 16.0262C23.0688 16.1034 23.0113 16.2132 22.9999 16.3322C22.9884 16.4512 23.0238 16.57 23.0985 16.6633C23.1733 16.7566 23.2816 16.817 23.4002 16.8317C23.5189 16.8464 23.6386 16.8142 23.7338 16.742C24.0358 16.4981 24.2548 16.1666 24.3605 15.7931C24.4663 15.4197 24.4537 15.0226 24.3245 14.6566C24.1953 14.2905 23.9558 13.9736 23.639 13.7493C23.3222 13.525 22.9436 13.4046 22.5555 13.4044Z" fill="#888888"/>
<path d="M21.8651 11.1979H14.6648C14.1246 11.1982 13.5923 11.3283 13.1127 11.5771C12.6332 11.826 12.2204 12.1863 11.9091 12.6279L11.8219 12.7514L12.572 13.2802L12.6592 13.1563C12.8858 12.8349 13.1862 12.5726 13.5352 12.3915C13.8842 12.2104 14.2716 12.1157 14.6648 12.1154H21.8651C22.1196 12.116 22.3635 12.2174 22.5434 12.3973C22.7234 12.5773 22.8247 12.8212 22.8252 13.0757C22.8267 13.2838 22.7587 13.4865 22.6321 13.6517L23.359 14.2117C23.5704 13.9333 23.6999 13.6014 23.7329 13.2534C23.766 12.9054 23.7012 12.555 23.546 12.2418C23.3907 11.9286 23.1511 11.665 22.8542 11.4805C22.5572 11.2961 22.2147 11.1982 21.8651 11.1979Z" fill="#888888"/>
<path d="M11.4019 11H8.25398C7.92149 11.0004 7.60273 11.1326 7.36765 11.3678C7.13256 11.6029 7.00034 11.9217 7 12.2541V20.5678C7.00039 20.9003 7.13263 21.219 7.36771 21.4541C7.60279 21.6891 7.92152 21.8214 8.25398 21.8218H11.4019C11.7344 21.8214 12.0531 21.6891 12.2882 21.4541C12.5233 21.219 12.6555 20.9003 12.6559 20.5678V12.2541C12.6556 11.9217 12.5234 11.6029 12.2883 11.3678C12.0532 11.1326 11.7344 11.0004 11.4019 11ZM8.25398 20.9042C8.16478 20.9041 8.07926 20.8687 8.01619 20.8056C7.95311 20.7425 7.91764 20.657 7.91754 20.5678V12.2541C7.91759 12.1649 7.95304 12.0794 8.01612 12.0162C8.0792 11.9531 8.16475 11.9176 8.25398 11.9175H11.4019C11.4912 11.9176 11.5767 11.9531 11.6398 12.0162C11.7029 12.0794 11.7383 12.1649 11.7384 12.2541V20.5678C11.7383 20.657 11.7028 20.7425 11.6397 20.8056C11.5767 20.8687 11.4911 20.9041 11.4019 20.9042H8.25398Z" fill="#888888"/>
</svg>
