<svg width="45" height="45" viewBox="0 0 45 45" fill="none" xmlns="http://www.w3.org/2000/svg">
<g id="Group 35531">
<circle id="Ellipse 524" cx="22.5" cy="22.5" r="22" stroke="#ECECEC"/>
<g id="Group 18617">
<path id="Vector" d="M23.0393 13.5C17.7705 13.5 13.5 16.9662 13.5 21.2444C13.5 24.0255 15.309 26.4666 18.0225 27.8317C17.8248 28.598 17.3009 30.6027 17.1971 31.034C17.0686 31.5669 17.3899 31.5618 17.5975 31.4147C17.7606 31.303 20.2121 29.5927 21.2699 28.8518C21.8432 28.9381 22.4363 28.9837 23.0393 28.9837C28.3082 28.9837 32.5786 25.5175 32.5786 21.2393C32.5786 16.9662 28.3082 13.5 23.0393 13.5Z" fill="#391B1B"/>
<g id="Group">
<path id="Vector_2" d="M19.1996 18.9609H16.412C16.15 18.9609 15.9375 19.1792 15.9375 19.4481C15.9375 19.7171 16.15 19.9353 16.412 19.9353H17.3214V23.3659C17.3214 23.4928 17.3709 23.6146 17.4598 23.7009C17.5439 23.7872 17.6625 23.8379 17.786 23.8379H17.8898C18.0134 23.8379 18.132 23.7872 18.2161 23.7009C18.305 23.6095 18.3545 23.4877 18.3545 23.3659V19.9353H19.2095C19.4715 19.9353 19.684 19.7171 19.684 19.4481C19.6741 19.1792 19.4616 18.9609 19.1996 18.9609Z" fill="#FAE300"/>
<path id="Vector_3" d="M25.9051 22.9292H24.6101V19.4223C24.6101 19.128 24.3778 18.8945 24.0961 18.8945C23.8094 18.8945 23.582 19.1331 23.582 19.4223V23.1981C23.582 23.2286 23.587 23.254 23.5919 23.2844C23.587 23.3098 23.582 23.3402 23.582 23.3707C23.582 23.6143 23.7748 23.8122 24.012 23.8122H25.91C26.1473 23.8122 26.34 23.6143 26.34 23.3707C26.3351 23.1271 26.1423 22.9292 25.9051 22.9292Z" fill="#FAE300"/>
<path id="Vector_4" d="M30.0551 23.0865L28.607 21.1377L29.9118 19.7979C30.0897 19.6152 30.0897 19.3208 29.9118 19.1381C29.7339 18.9554 29.4472 18.9554 29.2693 19.1381L27.653 20.7976V19.4223C27.653 19.128 27.4207 18.8945 27.139 18.8945C26.8524 18.8945 26.625 19.1331 26.625 19.4223V23.3148C26.625 23.6092 26.8573 23.8426 27.139 23.8426C27.4257 23.8426 27.653 23.6041 27.653 23.3148V22.1121L27.9447 21.8126L29.3137 23.6548C29.467 23.8629 29.7536 23.9086 29.9563 23.7513C30.1639 23.5939 30.2083 23.2996 30.0551 23.0865Z" fill="#FAE300"/>
<path id="Vector_5" d="M23.1938 23.2145L21.8049 19.3068L21.8 19.3017C21.711 19.0632 21.454 18.8906 21.1475 18.8906C20.8065 18.8906 20.5297 19.1038 20.4704 19.3829C20.4605 19.4032 20.4506 19.4235 20.4457 19.4489L19.0766 23.2145C18.9925 23.4632 19.121 23.7322 19.3583 23.8184C19.6005 23.9047 19.8624 23.7728 19.9465 23.5292L20.1837 22.8339H22.0866L22.3239 23.5292C22.4079 23.7778 22.6699 23.9047 22.9121 23.8184C23.1543 23.7322 23.2778 23.4632 23.1938 23.2145ZM20.4852 21.9508L21.1228 20.0782C21.1278 20.0782 21.1377 20.0782 21.1426 20.0782L21.7802 21.9508H20.4852Z" fill="#FAE300"/>
</g>
</g>
</g>
</svg>
