<svg width="48" height="48" viewBox="0 0 48 48" fill="none" xmlns="http://www.w3.org/2000/svg">
<rect x="9" y="28.2666" width="6.4" height="11.7333" stroke="black" stroke-width="1.1" stroke-linejoin="round"/>
<path d="M15.4004 29.8666H18.6004C18.7782 28.6222 19.7737 26.1333 22.3337 26.1333C23.4004 26.4889 25.9604 26.9866 27.6671 26.1333H29.2671C30.3337 26.3111 32.1471 27.2 30.8671 29.3333C29.8004 30.9333 31.4004 31.2664 31.4004 32.5333C31.4004 34.1333 30.8671 34.1333 30.3337 35.2C29.8004 36.2666 30.2271 39.4666 27.6671 39.4666H21.8004C20.7337 39.4666 19.1337 38.9333 18.0671 37.8666H15.4004" stroke="black" stroke-width="1.1" stroke-linejoin="round"/>
<line x1="22.3498" y1="24" x2="22.3498" y2="26.1333" stroke="black" stroke-width="1.1"/>
<line x1="27.6833" y1="24" x2="27.6833" y2="26.1333" stroke="black" stroke-width="1.1"/>
<rect x="11.1338" y="8" width="27.7333" height="16" stroke="black" stroke-width="1.1" stroke-linejoin="round"/>
<path d="M17.534 12.8L18.2524 15.0112H20.5774L18.6965 16.3778L19.4149 18.5889L17.534 17.2223L15.6531 18.5889L16.3715 16.3778L14.4906 15.0112H16.8155L17.534 12.8Z" stroke="#6688FF" stroke-width="0.8" stroke-linejoin="round"/>
<path d="M25.0003 12.8L25.7187 15.0112H28.0437L26.1628 16.3778L26.8812 18.5889L25.0003 17.2223L23.1194 18.5889L23.8378 16.3778L21.9569 15.0112H24.2818L25.0003 12.8Z" stroke="#6688FF" stroke-width="0.8" stroke-linejoin="round"/>
<path d="M32.4671 12.8L33.1855 15.0112H35.5105L33.6296 16.3778L34.348 18.5889L32.4671 17.2223L30.5862 18.5889L31.3046 16.3778L29.4237 15.0112H31.7486L32.4671 12.8Z" stroke="#6688FF" stroke-width="0.8" stroke-linejoin="round"/>
</svg>
