<svg width="30" height="30" viewBox="0 0 30 30" fill="none" xmlns="http://www.w3.org/2000/svg">
<path d="M8.66667 8.66667H24.6667L22.6667 17.3333H10.6667M22.6667 20H11.3333L8 6H6" stroke="#161616" stroke-width="1.3" stroke-linecap="round" stroke-linejoin="round"/>
<path d="M21.3333 24.0007C22.0697 24.0007 22.6667 23.4037 22.6667 22.6673C22.6667 21.9309 22.0697 21.334 21.3333 21.334C20.597 21.334 20 21.9309 20 22.6673C20 23.4037 20.597 24.0007 21.3333 24.0007Z" stroke="#161616" stroke-width="1.3" stroke-linecap="round" stroke-linejoin="round"/>
<path d="M12.6663 24.0007C13.4027 24.0007 13.9997 23.4037 13.9997 22.6673C13.9997 21.9309 13.4027 21.334 12.6663 21.334C11.93 21.334 11.333 21.9309 11.333 22.6673C11.333 23.4037 11.93 24.0007 12.6663 24.0007Z" stroke="#161616" stroke-width="1.3" stroke-linecap="round" stroke-linejoin="round"/>
<circle cx="26" cy="7" r="3" fill="#FF0D0D"/>
</svg>
