<svg width="45" height="45" viewBox="0 0 45 45" fill="none" xmlns="http://www.w3.org/2000/svg">
<path d="M27.1964 21.7222C27.2054 21.0322 27.3904 20.3558 27.7342 19.7557C28.078 19.1556 28.5694 18.6514 29.1627 18.2901C28.7858 17.7568 28.2885 17.3179 27.7105 17.0083C27.1324 16.6987 26.4894 16.5269 25.8326 16.5065C24.4315 16.3608 23.0732 17.3371 22.3592 17.3371C21.6314 17.3371 20.5321 16.521 19.3484 16.5451C18.5827 16.5696 17.8365 16.7902 17.1825 17.1854C16.5284 17.5805 15.9889 18.1368 15.6164 18.8C14.0027 21.5678 15.2063 25.6356 16.7521 27.8729C17.5255 28.9684 18.4293 30.1921 19.612 30.1488C20.7693 30.1012 21.2015 29.4176 22.5985 29.4176C23.9825 29.4176 24.388 30.1488 25.5947 30.1212C26.8366 30.1012 27.619 29.0208 28.3652 27.9148C28.9209 27.1342 29.3485 26.2715 29.6322 25.3586C28.9107 25.0562 28.295 24.5502 27.8618 23.9036C27.4287 23.2569 27.1973 22.4983 27.1964 21.7222Z" fill="black"/>
<path d="M24.9173 15.0353C25.5944 14.23 25.928 13.1949 25.8472 12.1499C24.8128 12.2575 23.8572 12.7474 23.1709 13.5217C22.8354 13.9 22.5784 14.3402 22.4147 14.8169C22.2509 15.2937 22.1837 15.7977 22.2167 16.3003C22.7341 16.3056 23.246 16.1944 23.7138 15.9753C24.1816 15.7562 24.5931 15.4348 24.9173 15.0353Z" fill="black"/>
<circle cx="22.5" cy="22.5" r="22" stroke="#ECECEC"/>
</svg>
