<svg width="36" height="36" viewBox="0 0 36 36" fill="none" xmlns="http://www.w3.org/2000/svg">
<path d="M27.4981 14.0814V14.2314C27.46 15.7051 26.8608 17.2698 25.6304 18.5125L25.6303 18.5126C24.7031 19.4495 22.7565 21.4096 21.0173 23.1549C20.1477 24.0275 19.3302 24.8461 18.7182 25.456C18.4269 25.7462 18.1827 25.9887 18.0017 26.1671C17.8205 25.9887 17.5761 25.7461 17.2846 25.4557C16.6723 24.8457 15.8548 24.0269 14.9852 23.1542C13.2459 21.4087 11.2999 19.4485 10.3736 18.5126L10.3733 18.5122C9.09721 17.2253 8.5 15.5961 8.5 14.0814C8.5 12.842 8.89936 11.6946 9.63279 10.864C10.3592 10.0414 11.4381 9.5 12.8701 9.5C13.7535 9.5 14.6691 9.80701 15.5167 10.2682C16.3615 10.728 17.1089 11.3247 17.6464 11.8623L17.9997 12.2155L18.3533 11.8626C18.892 11.3247 19.6395 10.7279 20.4841 10.2682C21.3315 9.80699 22.2465 9.5 23.1299 9.5C24.5627 9.5 25.6411 10.0418 26.3668 10.8645C27.0995 11.6953 27.4981 12.8427 27.4981 14.0814Z" stroke="white"/>
</svg>
