<svg width="32" height="32" viewBox="0 0 32 32" fill="none" xmlns="http://www.w3.org/2000/svg">
<path d="M22.5563 17.1802H21.641C21.5193 17.1802 21.4026 17.1319 21.3165 17.0458C21.2305 16.9598 21.1821 16.8431 21.1821 16.7214C21.1821 16.5997 21.2305 16.4829 21.3165 16.3969C21.4026 16.3108 21.5193 16.2625 21.641 16.2625H22.5563C22.7731 16.2634 22.9837 16.1903 23.1532 16.0551C23.1831 16.0288 23.2097 16.0057 23.2345 15.9817C23.4096 15.8087 23.5106 15.5745 23.5161 15.3284C23.518 15.2048 23.4949 15.082 23.4482 14.9675C23.4016 14.8529 23.3323 14.749 23.2446 14.6618C23.1473 14.5617 23.0311 14.482 22.9027 14.4273C22.7743 14.3726 22.6363 14.344 22.4967 14.3432H18.1079C18.0367 14.3432 17.9665 14.3266 17.9027 14.2947C17.839 14.2629 17.7836 14.2166 17.7409 14.1596C17.6981 14.1026 17.6692 14.0365 17.6565 13.9664C17.6437 13.8963 17.6475 13.8242 17.6674 13.7558C18.8632 9.65819 17.3125 9.11894 16.8028 8.94163C16.7383 8.91915 16.6694 8.91203 16.6017 8.92082C16.5339 8.92961 16.4692 8.95409 16.4125 8.99229C16.3546 9.03062 16.3065 9.08191 16.2718 9.14209C16.2372 9.20227 16.2171 9.26969 16.213 9.33901C16.0895 11.3595 14.8418 13.4443 12.5045 15.5357C12.4599 15.5776 12.4074 15.6102 12.35 15.6315C12.2926 15.6529 12.2315 15.6625 12.1704 15.6599C12.1092 15.6572 12.0492 15.6424 11.9939 15.6162C11.9385 15.59 11.889 15.553 11.8482 15.5074C11.8073 15.4618 11.7761 15.4084 11.7562 15.3505C11.7363 15.2926 11.7282 15.2314 11.7323 15.1703C11.7365 15.1092 11.7528 15.0496 11.7804 14.9949C11.8079 14.9402 11.8461 14.8916 11.8928 14.852C14.043 12.9275 15.1885 11.0539 15.2968 9.28303C15.3094 9.07286 15.3705 8.86846 15.4753 8.68583C15.58 8.50319 15.7256 8.34727 15.9007 8.23025C16.0757 8.11323 16.2754 8.03828 16.4842 8.01128C16.693 7.98427 16.9053 8.00593 17.1043 8.07457C18.901 8.69862 19.4392 10.4974 18.7076 13.4251H22.4967C22.7586 13.4262 23.0178 13.4794 23.259 13.5817C23.5001 13.6839 23.7186 13.8332 23.9015 14.0207C24.0752 14.1952 24.2118 14.403 24.3033 14.6316C24.3947 14.8602 24.4391 15.1049 24.4338 15.351C24.4232 15.8331 24.2258 16.2922 23.8832 16.6314C23.8433 16.6711 23.7998 16.7096 23.7558 16.7482C23.751 16.7524 23.7418 16.7603 23.7374 16.7641C23.4027 17.0334 22.9859 17.1802 22.5563 17.1802Z" fill="#888888"/>
<path d="M22.5555 19.3892H21.6401C21.5184 19.3892 21.4017 19.3409 21.3157 19.2548C21.2296 19.1688 21.1813 19.052 21.1813 18.9303C21.1813 18.8087 21.2296 18.6919 21.3157 18.6059C21.4017 18.5198 21.5184 18.4715 21.6401 18.4715H22.5555C22.7724 18.4723 22.983 18.399 23.1525 18.2637C23.1801 18.2397 23.2076 18.2154 23.2337 18.1903C23.3235 18.1017 23.3947 17.9961 23.4431 17.8797C23.4915 17.7632 23.5162 17.6382 23.5156 17.5121C23.5159 17.3686 23.4839 17.227 23.4221 17.0975C23.3603 16.9681 23.2701 16.8541 23.1584 16.7642C23.1099 16.7268 23.0694 16.6802 23.0393 16.6269C23.0091 16.5737 22.9899 16.515 22.9827 16.4542C22.9756 16.3935 22.9806 16.3319 22.9976 16.2731C23.0146 16.2144 23.0432 16.1596 23.0817 16.112C23.1202 16.0645 23.1678 16.0251 23.2217 15.9962C23.2756 15.9673 23.3348 15.9495 23.3957 15.9438C23.4566 15.9381 23.5181 15.9446 23.5764 15.963C23.6348 15.9814 23.6889 16.0113 23.7355 16.0509C23.9405 16.2165 24.1084 16.4234 24.2282 16.6581C24.348 16.8929 24.4169 17.1502 24.4307 17.4134C24.4444 17.6766 24.4025 17.9397 24.3078 18.1856C24.213 18.4316 24.0676 18.6548 23.8808 18.8408C23.8399 18.8819 23.7948 18.9219 23.7494 18.9616C23.7447 18.9658 23.7397 18.9698 23.7347 18.9738C23.4003 19.2424 22.9844 19.3889 22.5555 19.3892Z" fill="#888888"/>
<path d="M22.5555 21.5956H21.6401C21.5184 21.5956 21.4017 21.5472 21.3157 21.4612C21.2296 21.3751 21.1813 21.2584 21.1813 21.1367C21.1813 21.015 21.2296 20.8983 21.3157 20.8123C21.4017 20.7262 21.5184 20.6779 21.6401 20.6779H22.5555C22.6812 20.6785 22.8059 20.6541 22.9221 20.606C23.0383 20.5578 23.1437 20.487 23.2322 20.3976C23.3278 20.3029 23.4023 20.1891 23.4509 20.0637C23.4995 19.9382 23.5211 19.804 23.5143 19.6696C23.5075 19.5352 23.4725 19.4038 23.4114 19.2839C23.3504 19.164 23.2647 19.0584 23.1601 18.9738C23.0688 18.8966 23.0113 18.7868 22.9999 18.6678C22.9884 18.5488 23.0238 18.43 23.0985 18.3367C23.1733 18.2434 23.2816 18.183 23.4002 18.1683C23.5189 18.1536 23.6386 18.1858 23.7338 18.258C24.0358 18.5019 24.2548 18.8334 24.3605 19.2069C24.4663 19.5803 24.4537 19.9774 24.3245 20.3434C24.1953 20.7095 23.9558 21.0264 23.639 21.2507C23.3222 21.475 22.9436 21.5954 22.5555 21.5956Z" fill="#888888"/>
<path d="M21.8651 23.8021H14.6648C14.1246 23.8018 13.5923 23.6717 13.1127 23.4229C12.6332 23.174 12.2204 22.8137 11.9091 22.3721L11.8219 22.2486L12.572 21.7198L12.6592 21.8437C12.8858 22.1651 13.1862 22.4274 13.5352 22.6085C13.8842 22.7896 14.2716 22.8843 14.6648 22.8846H21.8651C22.1196 22.884 22.3635 22.7826 22.5434 22.6027C22.7234 22.4227 22.8247 22.1788 22.8252 21.9243C22.8267 21.7162 22.7587 21.5135 22.6321 21.3483L23.359 20.7883C23.5704 21.0667 23.6999 21.3986 23.7329 21.7466C23.766 22.0946 23.7012 22.445 23.546 22.7582C23.3907 23.0714 23.1511 23.335 22.8542 23.5195C22.5572 23.7039 22.2147 23.8018 21.8651 23.8021Z" fill="#888888"/>
<path d="M11.4019 24H8.25398C7.92149 23.9996 7.60273 23.8674 7.36765 23.6322C7.13256 23.3971 7.00034 23.0783 7 22.7459V14.4322C7.00039 14.0997 7.13263 13.781 7.36771 13.5459C7.60279 13.3109 7.92152 13.1786 8.25398 13.1782H11.4019C11.7344 13.1786 12.0531 13.3109 12.2882 13.5459C12.5233 13.781 12.6555 14.0997 12.6559 14.4322V22.7459C12.6556 23.0783 12.5234 23.3971 12.2883 23.6322C12.0532 23.8674 11.7344 23.9996 11.4019 24ZM8.25398 14.0958C8.16478 14.0959 8.07926 14.1313 8.01619 14.1944C7.95311 14.2575 7.91764 14.343 7.91754 14.4322V22.7459C7.91759 22.8351 7.95304 22.9206 8.01612 22.9838C8.0792 23.0469 8.16475 23.0824 8.25398 23.0825H11.4019C11.4912 23.0824 11.5767 23.0469 11.6398 22.9838C11.7029 22.9206 11.7383 22.8351 11.7384 22.7459V14.4322C11.7383 14.343 11.7028 14.2575 11.6397 14.1944C11.5767 14.1313 11.4911 14.0959 11.4019 14.0958H8.25398Z" fill="#888888"/>
</svg>
