<svg width="14" height="14" viewBox="0 0 14 14" fill="none" xmlns="http://www.w3.org/2000/svg">
<path d="M2 3L11.1924 12.1924" stroke="#FE3839"/>
<path d="M8.97394 10.2027V10.5316C8.97394 11.3733 8.23065 12.0556 7.31375 12.0556C6.39686 12.0556 5.65356 11.3733 5.65356 10.5316L5.65356 10.2027" stroke="#FE3839"/>
<path d="M10.3538 8.78726L10.3638 8.80564L10.3753 8.82311L10.9525 9.70266H3.25904L3.83589 8.82296L3.8473 8.80555L3.85723 8.78726C3.91973 8.67209 3.95339 8.54261 3.95339 8.40962V5.16341C3.95339 3.48244 5.28871 2.05556 7.10596 2.05556C8.92305 2.05556 10.2577 3.48228 10.2577 5.16341V8.40962C10.2577 8.54261 10.2913 8.67209 10.3538 8.78726Z" stroke="#FE3839"/>
</svg>
