<svg width="24" height="24" viewBox="0 0 24 24" fill="none" xmlns="http://www.w3.org/2000/svg">
<path d="M4.31111 7.04451H18.1778L16.4444 14.5556H6.04444M16.4444 16.8667H6.62222L3.73333 4.7334H2" stroke="#161616" stroke-width="1.3" stroke-linecap="round" stroke-linejoin="round"/>
<path d="M15.2884 20.3336C15.9266 20.3336 16.4439 19.8162 16.4439 19.178C16.4439 18.5398 15.9266 18.0225 15.2884 18.0225C14.6502 18.0225 14.1328 18.5398 14.1328 19.178C14.1328 19.8162 14.6502 20.3336 15.2884 20.3336Z" stroke="#161616" stroke-width="1.3" stroke-linecap="round" stroke-linejoin="round"/>
<path d="M7.77763 20.3336C8.41582 20.3336 8.93318 19.8162 8.93318 19.178C8.93318 18.5398 8.41582 18.0225 7.77763 18.0225C7.13943 18.0225 6.62207 18.5398 6.62207 19.178C6.62207 19.8162 7.13943 20.3336 7.77763 20.3336Z" stroke="#161616" stroke-width="1.3" stroke-linecap="round" stroke-linejoin="round"/>
<path fill-rule="evenodd" clip-rule="evenodd" d="M18.0328 10.8C20.1867 10.8 21.9328 9.05391 21.9328 6.9C21.9328 4.74609 20.1867 3 18.0328 3C15.8789 3 14.1328 4.74609 14.1328 6.9C14.1328 9.05391 15.8789 10.8 18.0328 10.8Z" fill="#F00000"/>
</svg>
