<svg width="24" height="24" viewBox="0 0 24 24" fill="none" xmlns="http://www.w3.org/2000/svg">
<path d="M4.31111 7.04451H18.1778L16.4444 14.5556H6.04444M16.4444 16.8667H6.62222L3.73333 4.7334H2" stroke="#161616" stroke-width="1.3" stroke-linecap="round" stroke-linejoin="round"/>
<path d="M15.2884 20.3341C15.9266 20.3341 16.4439 19.8167 16.4439 19.1785C16.4439 18.5403 15.9266 18.0229 15.2884 18.0229C14.6502 18.0229 14.1328 18.5403 14.1328 19.1785C14.1328 19.8167 14.6502 20.3341 15.2884 20.3341Z" stroke="#161616" stroke-width="1.3" stroke-linecap="round" stroke-linejoin="round"/>
<path d="M7.77763 20.3341C8.41582 20.3341 8.93318 19.8167 8.93318 19.1785C8.93318 18.5403 8.41582 18.0229 7.77763 18.0229C7.13943 18.0229 6.62207 18.5403 6.62207 19.1785C6.62207 19.8167 7.13943 20.3341 7.77763 20.3341Z" stroke="#161616" stroke-width="1.3" stroke-linecap="round" stroke-linejoin="round"/>
</svg>
