<svg width="29" height="29" viewBox="0 0 29 29" fill="none" xmlns="http://www.w3.org/2000/svg">
<circle cx="14.5" cy="14.5" r="14.5" fill="#FDC300"/>
<path d="M17.663 8H11.2781C10.85 8 10.5 8.34844 10.5 8.77544V15.143C10.5 15.5734 10.8466 15.9184 11.2781 15.9184H14.2208C14.2004 16.6768 13.8844 17.5 13.4291 18.2311C12.916 19.0543 11.8252 19.9664 11.815 19.9733C11.7301 20.0553 11.6655 20.1509 11.6655 20.2841C11.6655 20.3866 11.7165 20.4652 11.7743 20.5472L13.8267 22.8598C13.8267 22.8598 13.9252 22.9657 14.0102 22.9862C14.1019 23.0067 14.2072 23.0101 14.282 22.9555C17.8363 20.2056 18.3528 16.7588 18.4412 14.8936C18.4412 14.8833 18.4412 8.77544 18.4412 8.77544C18.4412 8.34502 18.0946 8 17.663 8Z" fill="white"/>
</svg>
