<svg width="45" height="45" viewBox="0 0 45 45" fill="none" xmlns="http://www.w3.org/2000/svg">
<g id="Group 35529">
<g id="apple">
<g id="&#60;Group&#62;">
<path id="&#60;Path&#62;" d="M27.1979 21.7227C27.2069 21.0327 27.3919 20.3563 27.7356 19.7562C28.0794 19.1561 28.5708 18.6519 29.1641 18.2906C28.7872 17.7573 28.29 17.3184 27.7119 17.0088C27.1339 16.6992 26.4909 16.5274 25.8341 16.507C24.433 16.3613 23.0747 17.3376 22.3607 17.3376C21.6329 17.3376 20.5336 16.5215 19.3499 16.5456C18.5842 16.5701 17.838 16.7907 17.1839 17.1859C16.5299 17.581 15.9903 18.1373 15.6178 18.8005C14.0042 21.5683 15.2078 25.636 16.7536 27.8734C17.5269 28.9689 18.4308 30.1926 19.6135 30.1492C20.7708 30.1017 21.203 29.4181 22.6 29.4181C23.984 29.4181 24.3895 30.1492 25.5962 30.1217C26.838 30.1017 27.6205 29.0212 28.3667 27.9153C28.9224 27.1347 29.35 26.272 29.6336 25.359C28.9121 25.0567 28.2964 24.5507 27.8633 23.9041C27.4302 23.2574 27.1988 22.4987 27.1979 21.7227Z" fill="black"/>
<path id="&#60;Path&#62;_2" d="M24.9197 15.0338C25.5969 14.2285 25.9304 13.1935 25.8497 12.1484C24.8152 12.2561 23.8596 12.7459 23.1734 13.5203C22.8378 13.8986 22.5809 14.3387 22.4171 14.8155C22.2534 15.2922 22.1861 15.7963 22.2191 16.2988C22.7365 16.3041 23.2484 16.193 23.7162 15.9739C24.184 15.7547 24.5955 15.4333 24.9197 15.0338Z" fill="black"/>
</g>
</g>
<circle id="Ellipse 526" cx="22.5" cy="22.5" r="22" stroke="#ECECEC"/>
</g>
</svg>
