<svg width="28" height="28" viewBox="0 0 28 28" fill="none" xmlns="http://www.w3.org/2000/svg">
<g id="Frame 36425">
<path id="Vector" d="M7.88463 9.90284H11.9793H12.0322L12.6318 6.28073H10.1864L7.88463 9.90284ZM10.6833 25.1123C11.0521 25.2174 11.4113 25.3065 11.7881 25.381L11.995 24.3124C11.6524 24.2463 11.3225 24.1631 10.9869 24.0673L10.6833 25.1123ZM2.14367 15.3678C2.19788 15.7382 2.27804 16.1197 2.37116 16.4829L3.42543 16.2138C3.33996 15.8852 3.26745 15.534 3.21857 15.1981L2.14367 15.3678ZM3.66888 19.6351C3.86044 19.962 4.06897 20.2793 4.29113 20.5862L5.17179 19.9477C4.96892 19.6647 4.78002 19.3783 4.60342 19.078L3.66888 19.6351ZM6.65542 23.0403C6.95175 23.2685 7.26637 23.5016 7.58431 23.6985L8.16699 22.7796C7.90758 22.578 7.59562 22.3911 7.32158 22.1799L6.65542 23.0403ZM17.5227 1.88771C17.1536 1.78262 16.7944 1.69349 16.4179 1.61899L16.2107 2.68756C16.5536 2.75374 16.8835 2.83689 17.2188 2.93267L17.5227 1.88771ZM26.0623 11.6322C26.0081 11.2618 25.9276 10.8803 25.8349 10.5171L24.7806 10.7862C24.8661 11.1148 24.9382 11.466 24.9874 11.8019L26.0623 11.6322ZM24.5371 7.36494C24.3452 7.03801 24.137 6.72073 23.9149 6.41376L23.0342 7.05231C23.2371 7.33534 23.426 7.62169 23.6023 7.922L24.5371 7.36494ZM21.5506 3.95967C21.2543 3.73152 20.9396 3.49839 20.6217 3.3015L20.039 4.22041C20.2981 4.42195 20.6104 4.60886 20.8844 4.82005L21.5506 3.95967ZM15.2752 27L13.3339 25.0587L15.2752 23.1175L16.0441 23.8867L15.5043 24.4265C17.986 24.1119 20.21 22.9708 21.8918 21.289C23.8846 19.2958 25.1175 16.5421 25.1175 13.5H26.206C26.206 16.8417 24.8511 19.8679 22.6607 22.0579C20.7474 23.9715 18.1955 25.2473 15.3523 25.539L16.0441 26.2311L15.2752 27ZM12.1619 3.11326L12.701 2.57415C10.22 2.8891 7.99571 4.02951 6.3142 5.71103C4.32139 7.70417 3.08819 10.4582 3.08819 13.5H2C2 10.1586 3.35525 7.13213 5.54495 4.94211C7.4586 3.02845 10.0108 1.75269 12.8537 1.46101L12.1619 0.76892L12.9308 0L14.8721 1.94126L12.9308 3.88251L12.1619 3.11326ZM15.5426 20.7196V18.0048L14.1018 18.5881L12.6628 18.0048V20.7196H15.5426ZM11.9793 20.7196V16.9914L14.1025 17.8521L16.2264 16.9914V20.7196H20.6007V10.5863H16.2859H16.2264V14.3145L14.1025 13.4541L11.9793 14.3145V10.5863H11.9191H7.60527V20.7196H11.9793ZM12.723 9.90284H14.1025H15.4827L14.8834 6.28073H13.3219L12.723 9.90284ZM16.1731 9.90284H16.2264H20.3207L18.0186 6.28073H15.5732L16.1731 9.90284ZM12.6628 10.5863V13.3011L14.1018 12.7171L15.5426 13.3011V10.5863H14.1025H12.6628Z" fill="white"/>
</g>
</svg>
