<svg width="28" height="28" viewBox="0 0 28 28" fill="none" xmlns="http://www.w3.org/2000/svg">
<g id="Frame 36424">
<path id="Vector" d="M2 4V15.9149H13.8973V4H10.498V7.40426C10.4976 8.10509 9.69882 8.50504 9.13869 8.08492L7.94863 7.19149L6.75857 8.08492C6.19844 8.50504 5.3997 8.10504 5.39922 7.40426V4H2ZM6.24902 4V7.40426L7.94863 6.12764L9.64824 7.40426V4H6.24902ZM15.172 9.5319C15.0593 9.53191 14.9512 9.57676 14.8715 9.65657C14.7918 9.73637 14.7471 9.84458 14.7471 9.95744V16.7659H2.4249C2.31222 16.766 2.20415 16.8108 2.12447 16.8906C2.04478 16.9704 2.00001 17.0786 2 17.1915V21.4468C2.00001 21.5597 2.04478 21.6679 2.12447 21.7477C2.20415 21.8275 2.31222 21.8723 2.4249 21.8723H3.30458C3.28689 21.7325 3.27471 21.5911 3.27471 21.4468C3.27471 19.5768 4.80665 18.0426 6.67392 18.0426C8.5412 18.0426 10.0731 19.5768 10.0731 21.4468C10.0731 21.5911 10.061 21.7326 10.0433 21.8723H17.7513C17.7336 21.7325 17.7214 21.5911 17.7214 21.4468C17.7214 19.5768 19.2533 18.0426 21.1206 18.0426C22.9879 18.0426 24.5198 19.5768 24.5198 21.4468C24.5198 21.5911 24.5076 21.7326 24.49 21.8723H25.3696C25.4823 21.8723 25.5904 21.8275 25.6701 21.7477C25.7498 21.6679 25.7945 21.5597 25.7945 21.4468V16.3404C25.7945 16.2704 25.7773 16.2014 25.7442 16.1396C25.7112 16.0779 25.6635 16.0252 25.6053 15.9864L23.143 14.3424L20.6434 9.7538C20.6069 9.68672 20.5531 9.63073 20.4875 9.59168C20.4219 9.55263 20.3471 9.53199 20.2708 9.5319H15.172ZM16.4467 11.2341H19.5131L21.3679 14.6383H16.4467V11.2341ZM9.22334 12.5106H12.6226C13.1972 12.5026 13.1972 13.3698 12.6226 13.3617H9.22334C8.64873 13.3697 8.64873 12.5025 9.22334 12.5106ZM9.22334 14.2128H10.9229C11.4976 14.2047 11.4976 15.072 10.9229 15.0638H9.22334C8.64873 15.0719 8.64873 14.2046 9.22334 14.2128ZM6.67392 18.8936C5.99778 18.8936 5.34932 19.1626 4.87122 19.6414C4.39311 20.1202 4.12451 20.7697 4.12451 21.4468C4.12451 22.124 4.39311 22.7734 4.87122 23.2522C5.34932 23.731 5.99778 24 6.67392 24C7.35007 24 7.99852 23.731 8.47663 23.2522C8.95474 22.7734 9.22334 22.124 9.22334 21.4468C9.22334 20.7697 8.95474 20.1202 8.47663 19.6414C7.99852 19.1626 7.35007 18.8936 6.67392 18.8936ZM21.1206 18.8936C20.4445 18.8936 19.796 19.1626 19.3179 19.6414C18.8398 20.1202 18.5712 20.7697 18.5712 21.4468C18.5712 22.124 18.8398 22.7734 19.3179 23.2522C19.796 23.731 20.4445 24 21.1206 24C21.7967 24 22.4452 23.731 22.9233 23.2522C23.4014 22.7734 23.67 22.124 23.67 21.4468C23.67 20.7697 23.4014 20.1202 22.9233 19.6414C22.4452 19.1626 21.7967 18.8936 21.1206 18.8936ZM6.67392 20.5957C7.13822 20.5957 7.52373 20.9818 7.52373 21.4468C7.52373 21.9118 7.13822 22.2978 6.67392 22.2978C6.20963 22.2978 5.82412 21.9118 5.82412 21.4468C5.82412 20.9818 6.20963 20.5957 6.67392 20.5957ZM21.1206 20.5957C21.5849 20.5957 21.9704 20.9818 21.9704 21.4468C21.9704 21.9118 21.5849 22.2978 21.1206 22.2978C20.6563 22.2978 20.2708 21.9118 20.2708 21.4468C20.2708 20.9818 20.6563 20.5957 21.1206 20.5957Z" fill="white"/>
</g>
</svg>
