<svg width="24" height="24" viewBox="0 0 24 24" fill="none" xmlns="http://www.w3.org/2000/svg">
<path d="M14.384 17.8237V18.3875C14.384 19.8305 13.1098 21.0002 11.5379 21.0002C9.96611 21.0002 8.69189 19.8305 8.69189 18.3875L8.69189 17.8237" stroke="black" stroke-width="1.2"/>
<path d="M16.9756 15.2746L16.9875 15.2966L17.0013 15.3176L18.2521 17.2236H4.11094L5.36092 15.3174L5.37461 15.2965L5.38652 15.2746C5.47356 15.1142 5.52023 14.9343 5.52023 14.7498V9.18489C5.52023 6.16386 7.92185 3.6 11.1818 3.6C14.4415 3.6 16.8418 6.16367 16.8418 9.18489V14.7498C16.8418 14.9343 16.8885 15.1142 16.9756 15.2746Z" stroke="black" stroke-width="1.2"/>
</svg>
