<svg width="24" height="24" viewBox="0 0 24 24" fill="none" xmlns="http://www.w3.org/2000/svg">
<g id="Frame 36697">
<g id="Group">
<path id="Vector" fill-rule="evenodd" clip-rule="evenodd" d="M11.6378 4C8.52629 4 6 6.52629 6 9.63777C6 10.9959 6.55927 12.6173 7.33108 14.1784C8.44567 16.4324 9.98872 18.5663 10.7436 19.558L10.7442 19.5586C10.9573 19.8371 11.2877 20 11.6378 20C11.9879 20 12.3183 19.8365 12.5308 19.5586L12.5314 19.558C13.2868 18.5663 14.8299 16.4324 15.9445 14.1784C16.7163 12.6173 17.2755 10.9959 17.2755 9.63777C17.2755 6.52629 14.7493 4 11.6378 4ZM11.6372 18.8708C10.9071 17.9112 9.41705 15.8534 8.34193 13.6789C7.65356 12.2864 7.12755 10.8488 7.12755 9.63777C7.12755 7.1487 9.1487 5.12755 11.6378 5.12755C14.1268 5.12755 16.148 7.1487 16.148 9.63777C16.148 10.8488 15.622 12.2864 14.9336 13.6789C13.8585 15.8534 12.3679 17.9118 11.6372 18.8708ZM11.6378 6.25511C9.77111 6.25511 8.25511 7.77111 8.25511 9.63777C8.25511 11.5044 9.77111 13.0204 11.6378 13.0204C13.5044 13.0204 15.0204 11.5044 15.0204 9.63777C15.0204 7.77111 13.5044 6.25511 11.6378 6.25511ZM11.6378 7.38266C12.8826 7.38266 13.8929 8.39295 13.8929 9.63777C13.8929 10.8826 12.8826 11.8929 11.6378 11.8929C10.393 11.8929 9.38266 10.8826 9.38266 9.63777C9.38266 8.39295 10.393 7.38266 11.6378 7.38266Z" fill="black"/>
</g>
</g>
</svg>
