<?xml version="1.0" encoding="utf-8"?>
<!-- Generator: Adobe Illustrator 27.7.0, SVG Export Plug-In . SVG Version: 6.00 Build 0)  -->
<svg version="1.1" id="Layer_1" xmlns="http://www.w3.org/2000/svg" xmlns:xlink="http://www.w3.org/1999/xlink" x="0px" y="0px"
	 viewBox="0 0 23.6 23.6" style="enable-background:new 0 0 23.6 23.6;" xml:space="preserve">
<path d="M23.3,15.5c-0.3-0.6-0.7-1.1-1.3-1.3l-4.4-2c-0.4-0.2-0.7-0.2-1.1-0.2c-0.4,0-0.8,0.1-1.1,0.3c-0.3,0.2-0.6,0.4-0.9,0.7
	c-0.2,0.3-0.4,0.7-0.5,1c0,0.2-0.1,0.4-0.2,0.5c-0.1,0.1-0.3,0.3-0.5,0.3C13.2,15,13,15,12.9,15c-0.2,0-0.3-0.1-0.5-0.2
	c-1.3-1.1-2.5-2.3-3.6-3.6c-0.1-0.1-0.2-0.3-0.2-0.5c0-0.2,0-0.4,0.1-0.5C8.8,10,8.9,9.9,9,9.8c0.1-0.1,0.3-0.2,0.5-0.2
	c0.4-0.1,0.7-0.2,1-0.5c0.3-0.2,0.6-0.5,0.7-0.9c0.2-0.3,0.3-0.7,0.3-1.1S11.5,6.3,11.4,6l-2-4.4C9.1,0.9,8.7,0.5,8.1,0.2
	C7.5,0,6.8-0.1,6.2,0.1L1.7,1.7c-0.5,0.2-1,0.5-1.3,1C0.1,3.2,0,3.7,0,4.3c0.4,5,2.5,9.7,6.1,13.2c3.5,3.5,8.2,5.7,13.2,6.1h0.2
	c0.5,0,1.1-0.2,1.5-0.5c0.4-0.3,0.8-0.8,0.9-1.3l1.5-4.4C23.6,16.8,23.6,16.1,23.3,15.5z M7.5,9.7c-0.1,0.4-0.2,0.7-0.2,1.1
	c0,0.4,0.2,0.7,0.4,1.1c1.2,1.4,2.5,2.7,3.9,3.9c0.3,0.2,0.7,0.3,1.1,0.4c0.4,0,0.8,0,1.1-0.2c0.4-0.1,0.7-0.4,0.9-0.7
	c0.2-0.3,0.4-0.7,0.5-1c0-0.2,0.1-0.4,0.2-0.5c0.1-0.2,0.3-0.3,0.5-0.4c0.2-0.1,0.4-0.1,0.6-0.1c0.2,0,0.4,0,0.6,0.1l4.4,2
	c0.3,0.1,0.5,0.4,0.7,0.7c0.1,0.3,0.1,0.6,0.1,0.9l-1.6,4.5c-0.1,0.3-0.3,0.5-0.5,0.7c-0.2,0.2-0.5,0.2-0.8,0.2
	c-4.7-0.3-9.1-2.4-12.4-5.7C3.6,13.3,1.6,8.9,1.2,4.2c0-0.3,0.1-0.6,0.2-0.8c0.2-0.2,0.4-0.4,0.7-0.5l4.4-1.5C6.7,1.3,6.9,1.2,7,1.2
	c0.2,0,0.4,0,0.5,0.1C7.9,1.5,8.1,1.7,8.2,2l2,4.4c0.1,0.2,0.1,0.4,0.1,0.6c0,0.2-0.1,0.4-0.1,0.6C10.1,7.8,9.9,7.9,9.8,8
	C9.6,8.2,9.4,8.2,9.2,8.3c-0.4,0.1-0.7,0.3-1,0.5C7.9,9,7.7,9.4,7.5,9.7z"/>
</svg>
