<svg width="28" height="28" viewBox="0 0 28 28" fill="none" xmlns="http://www.w3.org/2000/svg">
<g id="Frame 36426">
<g id="Group">
<g id="Group_2">
<path id="Vector" d="M25.1558 7.3036H15.8559L18.7073 6.32098C19.1739 6.15986 19.5419 5.78191 19.692 5.30959C19.8317 4.86949 19.7617 4.40822 19.5 4.04454C19.4512 3.97641 19.3967 3.91196 19.3359 3.85119C18.7285 3.24445 17.7403 3.24445 17.1334 3.85119L14.7863 6.1983V3.4714C14.7863 3.21084 14.5752 3 14.3149 3C14.0545 3 13.8435 3.21084 13.8435 3.4714V6.19784L11.4968 3.85119C10.8894 3.24445 9.90123 3.24445 9.29425 3.85119C9.23348 3.91196 9.17893 3.97641 9.13014 4.04408C8.86843 4.40822 8.79845 4.86949 8.93817 5.30959C9.08824 5.78191 9.4563 6.15986 9.92309 6.32098L12.7742 7.3036H3.4714C3.21214 7.3036 3 7.51571 3 7.775V9.98596C3 10.2463 3.21107 10.4574 3.4714 10.4574H25.1558C25.4162 10.4574 25.6272 10.2463 25.6272 9.98596V7.775C25.6272 7.51571 25.4151 7.3036 25.1558 7.3036ZM17.7999 4.51778C17.9199 4.39809 18.0773 4.33824 18.2348 4.33824C18.3922 4.33824 18.5494 4.39809 18.6693 4.51778C18.6933 4.54172 18.7151 4.5675 18.7345 4.59466C18.8523 4.75855 18.8219 4.9344 18.7934 5.02417C18.734 5.21107 18.5832 5.36667 18.4 5.42974L16.0932 6.22477L17.7999 4.51778ZM10.2304 5.42974C10.0469 5.36667 9.89616 5.21107 9.83678 5.02417C9.80823 4.9344 9.77785 4.75855 9.8957 4.5942C9.91504 4.5675 9.9369 4.54172 9.96084 4.51778C10.0808 4.39809 10.2382 4.33824 10.3956 4.33824C10.5531 4.33824 10.7103 4.39809 10.8302 4.51778L12.537 6.22477L10.2304 5.42974Z" fill="white"/>
</g>
</g>
<g id="Group_3">
<g id="Group_4">
<path id="Vector_2" d="M4.88477 18.5807L11.3041 25H16.8924L4.88477 12.9926V18.5807Z" fill="white"/>
</g>
</g>
<g id="Group_5">
<g id="Group_6">
<path id="Vector_3" d="M4.88477 11.4001V11.6594L18.2254 25H23.2694C23.4202 25 23.5475 24.9246 23.6323 24.8162L10.2163 11.4001H4.88477Z" fill="white"/>
</g>
</g>
<g id="Group_7">
<g id="Group_8">
<path id="Vector_4" d="M4.88477 24.5286C4.88477 24.7879 5.0969 25 5.35617 25H9.97097L4.88477 19.9138V24.5286Z" fill="white"/>
</g>
</g>
<g id="Group_9">
<g id="Group_10">
<path id="Vector_5" d="M11.5469 11.4001L23.742 23.5952V18.0045L17.1377 11.4001H11.5469Z" fill="white"/>
</g>
</g>
<g id="Group_11">
<g id="Group_12">
<path id="Vector_6" d="M23.741 16.6704V11.4001H18.4707L23.741 16.6704Z" fill="white"/>
</g>
</g>
</g>
</svg>
