<svg width="21" height="21" viewBox="0 0 21 21" fill="none" xmlns="http://www.w3.org/2000/svg">
<path d="M6.50238 17.2275H14.5962" stroke="black" stroke-miterlimit="10"/>
<path d="M3.10138 11.5107V14.7695" stroke="black" stroke-miterlimit="10"/>
<path d="M3.58865 19.9999C5.21542 19.9999 6.53418 18.7587 6.53418 17.2275C6.53418 15.6963 5.21542 14.4551 3.58865 14.4551C1.96188 14.4551 0.643127 15.6963 0.643127 17.2275C0.643127 18.7587 1.96188 19.9999 3.58865 19.9999Z" stroke="black" stroke-miterlimit="10"/>
<path d="M17.5406 19.9999C19.1673 19.9999 20.4861 18.7587 20.4861 17.2275C20.4861 15.6963 19.1673 14.4551 17.5406 14.4551C15.9138 14.4551 14.595 15.6963 14.595 17.2275C14.595 18.7587 15.9138 19.9999 17.5406 19.9999Z" stroke="black" stroke-miterlimit="10"/>
<path d="M19.9037 6.86936L7.02021 1.1543H3.10138V11.4414H19.9037V6.86936Z" stroke="black" stroke-miterlimit="10"/>
<path d="M0 1.1543H2.58694" stroke="black" stroke-miterlimit="10"/>
</svg>
