<svg width="48" height="48" viewBox="0 0 48 48" fill="none" xmlns="http://www.w3.org/2000/svg">
<path d="M21.4698 23.6314C22.2377 23.6314 22.997 23.3415 23.5857 22.7613C24.1488 22.1983 24.4645 21.4475 24.4645 20.6454C24.4645 19.8517 24.1574 19.1011 23.5857 18.538C22.4168 17.3691 20.5314 17.3777 19.3625 18.538C18.2021 19.6984 18.2021 21.5924 19.3625 22.7613C19.9426 23.3412 20.7105 23.6314 21.4698 23.6314ZM19.9683 19.1436C20.3863 18.7257 20.9325 18.5209 21.4783 18.5209C22.0242 18.5209 22.5705 18.7257 22.9883 19.1436C23.3894 19.5447 23.6111 20.082 23.6111 20.6536C23.6111 21.2252 23.3891 21.7629 22.9883 22.1636C22.1608 22.9912 20.8042 22.9912 19.968 22.1636C19.1321 21.3277 19.1322 19.9712 19.9683 19.1436Z" fill="#6688FF" stroke="#6688FF" stroke-width="0.3"/>
<path d="M25.3948 24.5695C24.2258 25.7384 24.2258 27.6239 25.3948 28.7928C25.9749 29.373 26.7428 29.6629 27.5021 29.6629C28.27 29.6629 29.0293 29.3729 29.618 28.7928C30.7784 27.6239 30.7784 25.7384 29.618 24.5695C28.4577 23.4091 26.5637 23.4091 25.3948 24.5695ZM29.0122 25.1751C29.8397 26.0026 29.8397 27.3593 29.0122 28.1955C28.1846 29.023 26.828 29.0316 25.9918 28.1955C25.1642 27.3679 25.1642 26.0113 25.9918 25.1751C26.4097 24.7572 26.9559 24.5523 27.5018 24.5523C28.0566 24.5523 28.6028 24.7572 29.0122 25.1751Z" fill="#6688FF" stroke="#6688FF" stroke-width="0.3"/>
<path d="M20.5655 27.59C20.6509 27.6754 20.7617 27.718 20.864 27.718C20.9663 27.718 21.086 27.6754 21.1625 27.59L28.3976 20.3549C28.5682 20.1844 28.5682 19.9198 28.3976 19.749C28.2271 19.5785 27.9626 19.5785 27.7917 19.749L20.5566 26.9841C20.4035 27.1464 20.4035 27.4192 20.5655 27.59Z" fill="#6688FF" stroke="#6688FF" stroke-width="0.3"/>
<path d="M41.5537 13.0004H11.6923C11.4535 13.0004 11.2658 13.1881 11.2658 13.4269C11.2658 15.5429 9.54245 17.2663 7.4265 17.2663C7.18768 17.2663 7 17.454 7 17.6928V29.6372C7 29.876 7.18768 30.0637 7.4265 30.0637C9.54245 30.0637 11.2658 31.7871 11.2658 33.903C11.2658 34.1419 11.4535 34.3295 11.6923 34.3295H41.5537C41.7925 34.3295 41.9802 34.1419 41.9802 33.903L41.9805 13.4265C41.9805 13.1877 41.7928 13 41.5537 13V13.0004ZM41.1272 33.477H12.1017C11.8969 31.233 10.1052 29.4328 7.8527 29.228V18.1026C10.0966 17.8978 11.8969 16.1061 12.1017 13.8536H41.1272V33.477Z" fill="black" stroke="black" stroke-width="0.3"/>
<path d="M37.2878 26.2248C37.5266 26.2248 37.7143 26.0371 37.7143 25.7983V21.5325C37.7143 21.2936 37.5266 21.106 37.2878 21.106C37.049 21.106 36.8613 21.2936 36.8613 21.5325V25.7983C36.8613 26.0371 37.049 26.2248 37.2878 26.2248Z" fill="black" stroke="black" stroke-width="0.3"/>
</svg>
