<svg width="24" height="24" viewBox="0 0 24 24" fill="none" xmlns="http://www.w3.org/2000/svg">
<g id="Frame 36459">
<path id="Vector" d="M18.2339 5.10819C16.7637 3.62661 14.3597 3.63062 12.8816 5.1202L5.53054 12.5281L6.0908 13.0927L13.4418 5.6848C14.614 4.50755 16.5094 4.49954 17.6697 5.67278C18.818 6.83001 18.7981 8.72803 17.6299 9.90928L8.96764 18.6426C8.61399 18.9989 8.14512 19.1951 7.64445 19.1991C7.15174 19.2072 6.67491 19.0069 6.32524 18.6546C5.61001 17.9338 5.62193 16.7445 6.35306 16.0078L13.5809 8.62792C13.8908 8.31559 14.3955 8.31559 14.7054 8.62792C15.0153 8.94025 15.0153 9.44879 14.7054 9.76113L8.74512 15.7675L9.30539 16.3321L15.2657 10.3257C15.8855 9.70106 15.8855 8.68398 15.2657 8.05932C14.6458 7.43466 13.6365 7.43466 13.0167 8.06332L5.78882 15.4392C4.74775 16.4883 4.73583 18.1821 5.761 19.2192C6.26167 19.7237 6.92524 20 7.63651 20C7.64048 20 7.64445 20 7.64843 20C8.35969 19.996 9.02724 19.7157 9.53188 19.2112L18.1981 10.4779C19.6723 8.9843 19.6922 6.57775 18.2339 5.10819Z" fill="black"/>
</g>
</svg>
