<svg width="48" height="48" viewBox="0 0 48 48" fill="none" xmlns="http://www.w3.org/2000/svg">
<path d="M38.8028 31.9679H9.96809C9.75638 31.9679 9.58524 31.7965 9.58524 31.5851L9.58496 20.3445C9.58496 19.2887 10.444 18.4297 11.4998 18.4297H37.2704C38.3262 18.4297 39.1853 19.2887 39.1853 20.3445L39.1855 31.5851C39.1855 31.7968 39.0141 31.9682 38.8024 31.9682L38.8028 31.9679ZM10.3515 31.2019H38.4201L38.4204 20.3447C38.4204 19.7113 37.9051 19.1959 37.2716 19.1959H11.501C10.8675 19.1959 10.3522 19.7113 10.3522 20.3447L10.3515 31.2019Z" fill="black" stroke="black" stroke-width="0.3"/>
<path d="M38.0913 35.4329H10.6813C9.20321 35.4329 8.00049 34.2302 8.00049 32.7522V31.585C8.00049 31.3733 8.17191 31.2021 8.38334 31.2021H40.3895C40.6012 31.2021 40.7724 31.3736 40.7724 31.585V32.7519C40.7724 34.2299 39.5696 35.4329 38.0916 35.4329H38.0913ZM8.76657 31.9681V32.7521C8.76657 33.8079 9.62562 34.6669 10.6814 34.6669H38.0915C39.1473 34.6669 40.0063 33.8079 40.0063 32.7521V31.9681H8.76657Z" fill="black" stroke="black" stroke-width="0.3"/>
<path d="M28.8707 41.9998H19.9025C19.7592 41.9998 19.6278 41.9198 19.5622 41.7922C19.4963 41.6647 19.5075 41.5114 19.5905 41.3947L21.3411 38.9394C21.6717 38.4757 21.8465 37.9295 21.8465 37.3605V35.0498C21.8465 34.8381 22.0179 34.667 22.2293 34.667H26.5435C26.7552 34.667 26.9263 34.8384 26.9263 35.0498V37.3605C26.9263 37.9298 27.1011 38.4758 27.4317 38.9394L29.1823 41.3947C29.2654 41.5114 29.2765 41.6647 29.2107 41.7922C29.1456 41.9198 29.014 41.9998 28.8709 41.9998H28.8707ZM20.6458 41.2338H28.1267L26.8075 39.3837C26.3841 38.7894 26.1602 38.0896 26.1602 37.3602V35.4326H22.612V37.3602C22.612 38.0896 22.3881 38.7894 21.9646 39.3837L20.6458 41.2338Z" fill="black" stroke="black" stroke-width="0.3"/>
<path d="M18.5684 19.1959H14.6905C14.4788 19.1959 14.3076 19.0245 14.3076 18.8131V13.7277C14.3076 12.4605 15.3384 11.4297 16.6056 11.4297C17.9208 11.4297 18.9516 12.4604 18.9516 13.7277V18.8131C18.9516 19.0245 18.7801 19.1959 18.5684 19.1959ZM15.0733 18.4299H18.1853V13.7276C18.1853 12.8828 17.4982 12.1957 16.6533 12.1957C15.76 12.1957 15.073 12.8828 15.073 13.7276L15.0733 18.4299Z" fill="black" stroke="black" stroke-width="0.3"/>
<path d="M26.3248 19.1959H22.4468C22.2351 19.1959 22.064 19.0245 22.064 18.8131V13.7277C22.064 12.4605 23.0947 11.4297 24.3619 11.4297C25.6772 11.4297 26.7079 12.4604 26.7079 13.7277V18.8131C26.7079 19.0245 26.5365 19.1959 26.3248 19.1959ZM22.8296 18.4299H25.9416V13.7276C25.9416 12.8828 25.2545 12.1957 24.4096 12.1957C23.5164 12.1957 22.8293 12.8828 22.8293 13.7276L22.8296 18.4299Z" fill="black" stroke="black" stroke-width="0.3"/>
<path d="M34.0821 19.1959H30.2041C29.9924 19.1959 29.8213 19.0245 29.8213 18.8131V13.7277C29.8213 12.4605 30.852 11.4297 32.1193 11.4297C33.4345 11.4297 34.4652 12.4604 34.4652 13.7277V18.8131C34.465 19.0245 34.2938 19.1959 34.0821 19.1959ZM30.5869 18.4299H33.6989V13.7276C33.6989 12.8828 33.0118 12.1957 32.167 12.1957C31.2737 12.1957 30.5866 12.8828 30.5866 13.7276L30.5869 18.4299Z" fill="black" stroke="black" stroke-width="0.3"/>
<path d="M16.6295 12.196C15.3492 12.196 14.3076 11.1544 14.3076 9.87395C14.3076 8.70202 16.1235 6.40241 16.3305 6.14409C16.4755 5.96239 16.7831 5.96239 16.9281 6.14409C17.1354 6.40219 18.9515 8.70238 18.9515 9.87395C18.9518 11.1545 17.9102 12.196 16.6295 12.196ZM16.6295 7.00918C15.9338 7.93821 15.0736 9.28126 15.0736 9.87359C15.0736 10.7315 15.7715 11.4297 16.6295 11.4297C17.4874 11.4297 18.1856 10.7315 18.1856 9.87359C18.1859 9.28126 17.3257 7.93821 16.6295 7.00918Z" fill="#6688FF" stroke="#6688FF" stroke-width="0.3"/>
<path d="M24.386 12.1959C23.1055 12.1959 22.064 11.1542 22.064 9.87377C22.064 8.70185 23.8801 6.40203 24.0874 6.14391C24.1596 6.05279 24.2697 6 24.3861 6C24.5025 6 24.6122 6.05279 24.685 6.14364C24.8923 6.40202 26.7079 8.70193 26.7079 9.87349C26.7079 11.1543 25.6663 12.1959 24.386 12.1959ZM24.386 7.00872C23.6901 7.93775 22.8299 9.28109 22.8299 9.8737C22.8299 10.7316 23.5281 11.4298 24.386 11.4298C25.244 11.4298 25.9419 10.7316 25.9419 9.8737C25.9419 9.28025 25.082 7.93718 24.386 7.00872Z" fill="#6688FF" stroke="#6688FF" stroke-width="0.3"/>
<path d="M32.1434 12.1959C30.8628 12.1959 29.8213 11.1542 29.8213 9.87377C29.8213 8.70185 31.6375 6.40203 31.8447 6.14391C31.917 6.05279 32.027 6 32.1434 6C32.2598 6 32.3695 6.05279 32.4423 6.14364C32.6496 6.40202 34.4652 8.70193 34.4652 9.87349C34.4649 11.1543 33.4234 12.1959 32.1434 12.1959ZM32.1434 7.00872C31.4474 7.93775 30.5872 9.28109 30.5872 9.8737C30.5872 10.7316 31.2854 11.4298 32.1434 11.4298C33.0013 11.4298 33.6992 10.7316 33.6992 9.8737C33.6992 9.28025 32.8393 7.93718 32.1434 7.00872Z" fill="#6688FF" stroke="#6688FF" stroke-width="0.3"/>
<path d="M10.2174 25.474C10.0982 25.474 9.98066 25.4187 9.90592 25.3142C9.78256 25.1425 9.82174 24.9033 9.99372 24.7797L12.9476 22.6579C13.4024 22.3309 14.1159 22.3306 14.5715 22.6576L16.9367 24.3568C17.1281 24.4949 17.4749 24.496 17.6649 24.3588L20.0342 22.6568C20.4965 22.325 21.1936 22.3253 21.6567 22.6579L24.0219 24.3571C24.2133 24.4952 24.56 24.4963 24.7501 24.3591L27.1194 22.657C27.5817 22.3253 28.2788 22.3256 28.7419 22.6582L31.107 24.3574C31.299 24.4955 31.6455 24.4966 31.8352 24.3593L34.2045 22.6573C34.6668 22.3256 35.3639 22.3259 35.827 22.6584L38.7809 24.7805C38.9529 24.9039 38.9923 25.1434 38.8687 25.3151C38.7454 25.4868 38.5045 25.5259 38.3342 25.4029L35.3803 23.2808C35.1891 23.1438 34.8418 23.1424 34.6513 23.2794L32.2819 24.9806C31.828 25.3067 31.1154 25.3064 30.6599 24.9786L28.295 23.2799C28.1039 23.143 27.7566 23.1416 27.566 23.2785L25.1967 24.9806C24.7422 25.3067 24.0298 25.3065 23.5747 24.9786L21.2098 23.2799C21.0184 23.143 20.6708 23.1416 20.4808 23.2786L18.1117 24.9806C17.6577 25.3067 16.9451 25.3065 16.4897 24.9786L14.1248 23.28C13.9325 23.1416 13.5844 23.143 13.3943 23.28L10.4399 25.402C10.3726 25.4507 10.2946 25.474 10.217 25.474L10.2174 25.474Z" fill="#161616" stroke="black" stroke-width="0.3"/>
</svg>
