<svg width="18" height="18" viewBox="0 0 18 18" fill="none" xmlns="http://www.w3.org/2000/svg">
<path id="Vector" fill-rule="evenodd" clip-rule="evenodd" d="M12.8299 0.5H15.1746V3.31142H12.8299V0.5ZM2.82653 0.5H5.17057V3.31142H2.8264V0.5H2.82653ZM0.378306 2.2041C0.16955 2.20436 0.000498334 2.37248 0.000232623 2.5801V6.03421H17.9998L18 2.5801C17.9998 2.37262 17.8308 2.20436 17.6222 2.2041H15.7744V3.48563C15.7738 3.71891 15.5838 3.90793 15.3492 3.90807H12.6547C12.4201 3.90794 12.2298 3.71891 12.2294 3.48549V2.2041H5.77064V3.48563C5.77038 3.71891 5.58031 3.90793 5.34587 3.90807H2.651C2.41655 3.90781 2.22649 3.71878 2.22622 3.48549V2.2041H0.378306ZM13.35 6.63099V9.8553H9.29989V6.63099H13.35ZM8.70004 9.8553H4.64994V6.63099H8.70004V9.8553ZM4.0501 9.8553H0V6.63099H4.0501V9.8553ZM4.0501 10.4521V13.6782H0V10.4531L4.0501 10.4521ZM4.65014 10.4521H8.69991V13.6782H4.64981V10.4531L4.65014 10.4521ZM8.69991 14.2748V17.4999H4.64981V14.2748H8.69991ZM9.29995 14.2748H13.3497V17.4999H9.29962V14.2748H9.29995ZM9.29995 13.678L9.29982 10.4529H13.3499V13.678H9.29995ZM13.9499 10.4529H18V13.678H13.9499V10.4529ZM13.9499 9.85619V6.63083H18V9.85514L13.9499 9.85619ZM6.66447e-05 17.1241V14.2749H4.05017V17.5H0.378373C0.169617 17.4999 0.000564725 17.3316 0.000299014 17.1241H6.66447e-05ZM17.622 17.5H13.9499V14.2749H18V17.1241C17.9999 17.3316 17.8308 17.4999 17.6222 17.5H17.622Z" fill="#161616"/>
</svg>
