<svg width="45" height="45" viewBox="0 0 45 45" fill="none" xmlns="http://www.w3.org/2000/svg">
<circle cx="22.5" cy="22.5" r="22" stroke="#ECECEC"/>
<path d="M23.0393 13.5C17.7705 13.5 13.5 16.9662 13.5 21.2444C13.5 24.0255 15.309 26.4666 18.0225 27.8317C17.8248 28.598 17.3009 30.6027 17.1971 31.034C17.0686 31.5669 17.3899 31.5618 17.5975 31.4147C17.7606 31.303 20.2121 29.5927 21.2699 28.8518C21.8432 28.9381 22.4363 28.9837 23.0393 28.9837C28.3082 28.9837 32.5786 25.5175 32.5786 21.2393C32.5786 16.9662 28.3082 13.5 23.0393 13.5Z" fill="#391B1B"/>
<path d="M19.1987 18.9619H16.411C16.1491 18.9619 15.9365 19.1801 15.9365 19.4491C15.9365 19.7181 16.1491 19.9363 16.411 19.9363H17.3205V23.3669C17.3205 23.4938 17.3699 23.6156 17.4589 23.7019C17.5429 23.7881 17.6615 23.8389 17.7851 23.8389H17.8889C18.0124 23.8389 18.1311 23.7881 18.2151 23.7019C18.3041 23.6105 18.3535 23.4887 18.3535 23.3669V19.9363H19.2086C19.4705 19.9363 19.683 19.7181 19.683 19.4491C19.6732 19.1801 19.4606 18.9619 19.1987 18.9619Z" fill="#FAE300"/>
<path d="M25.9061 22.9301H24.6111V19.4233C24.6111 19.129 24.3788 18.8955 24.097 18.8955C23.8104 18.8955 23.583 19.134 23.583 19.4233V23.1991C23.583 23.2296 23.588 23.2549 23.5929 23.2854C23.588 23.3108 23.583 23.3412 23.583 23.3717C23.583 23.6153 23.7758 23.8132 24.013 23.8132H25.911C26.1483 23.8132 26.341 23.6153 26.341 23.3717C26.3361 23.1281 26.1433 22.9301 25.9061 22.9301Z" fill="#FAE300"/>
<path d="M30.0527 23.0874L28.6045 21.1386L29.9094 19.7989C30.0873 19.6162 30.0873 19.3218 29.9094 19.1391C29.7314 18.9564 29.4448 18.9564 29.2668 19.1391L27.6506 20.7986V19.4233C27.6506 19.129 27.4183 18.8955 27.1366 18.8955C26.8499 18.8955 26.6226 19.134 26.6226 19.4233V23.3158C26.6226 23.6101 26.8549 23.8436 27.1366 23.8436C27.4233 23.8436 27.6506 23.6051 27.6506 23.3158V22.113L27.9422 21.8136L29.3113 23.6558C29.4645 23.8639 29.7512 23.9096 29.9538 23.7522C30.1614 23.5949 30.2059 23.3006 30.0527 23.0874Z" fill="#FAE300"/>
<path d="M23.1923 23.2145L21.8034 19.3068L21.7985 19.3017C21.7095 19.0632 21.4525 18.8906 21.1461 18.8906C20.805 18.8906 20.5282 19.1038 20.4689 19.3829C20.459 19.4032 20.4492 19.4235 20.4442 19.4489L19.0751 23.2145C18.9911 23.4632 19.1196 23.7322 19.3568 23.8184C19.599 23.9047 19.861 23.7728 19.945 23.5292L20.1823 22.8339H22.0852L22.3224 23.5292C22.4065 23.7778 22.6684 23.9047 22.9106 23.8184C23.1528 23.7322 23.2764 23.4632 23.1923 23.2145ZM20.4838 21.9508L21.1214 20.0782C21.1263 20.0782 21.1362 20.0782 21.1411 20.0782L21.7787 21.9508H20.4838Z" fill="#FAE300"/>
</svg>
