<svg width="45" height="45" viewBox="0 0 45 45" fill="none" xmlns="http://www.w3.org/2000/svg">
<circle cx="22.5" cy="22.5" r="22" stroke="#ECECEC"/>
<path d="M18 16.8556C18 15.9899 18.6891 15.3008 19.5548 15.3008H23.7865C27.1701 15.3008 29.2108 17.3062 29.2108 20.195V20.2392C29.2108 23.5167 26.6577 25.2129 23.4861 25.2129H21.1185V28.1459C21.1185 29.0205 20.4294 29.7008 19.5637 29.7008C18.6979 29.7008 18.0088 29.0117 18.0088 28.1459V16.8556H18ZM23.5833 22.4389C25.1382 22.4389 26.0481 21.5113 26.0481 20.2922V20.248C26.0481 18.8522 25.0763 18.1013 23.5215 18.1013H21.1097V22.4301H23.5745L23.5833 22.4389Z" fill="#E72922"/>
</svg>
