<svg width="25" height="25" viewBox="0 0 25 25" fill="none" xmlns="http://www.w3.org/2000/svg">
<path d="M19.9107 9.41944H14.8965L15.6514 5.78792L15.6753 5.53363C15.6753 5.20783 15.5402 4.90586 15.3256 4.69131L14.4833 3.85693L9.25455 9.09363C8.96053 9.3797 8.78571 9.77703 8.78571 10.2141V18.1605C8.78571 19.0346 9.50089 19.7498 10.375 19.7498H17.5268C18.1863 19.7498 18.7505 19.3525 18.9889 18.7803L21.3888 13.1781C21.4603 12.9953 21.5 12.8046 21.5 12.598V11.0087C21.5 10.1346 20.7848 9.41944 19.9107 9.41944ZM19.9107 12.598L17.5268 18.1605H10.375V10.2141L13.8237 6.76533L12.9417 11.0087H19.9107V12.598ZM5.5 10.2141H7.19642V19.7498H5.5V10.2141Z" fill="#FF0D0D"/>
</svg>
