<svg width="10" height="10" viewBox="0 0 10 10" fill="none" xmlns="http://www.w3.org/2000/svg">
<path d="M9.66665 5.66669H8.00001C7.91162 5.66669 7.8268 5.70181 7.7643 5.7643C7.7018 5.8268 7.66668 5.91162 7.66668 6.00002V7.0433C6.55144 6.71317 5.53699 6.10798 4.71662 5.28336C3.97178 4.54727 3.40213 3.65294 3.04998 2.66663H3.99997C4.08836 2.66663 4.17318 2.63151 4.23568 2.56901C4.29818 2.50652 4.33329 2.42169 4.33329 2.3333V0.333329C4.33329 0.244938 4.29818 0.160116 4.23568 0.0976178C4.17318 0.0351195 4.08836 0 3.99997 0H0.333348C0.244957 0 0.160135 0.0351195 0.0976369 0.0976178C0.0351386 0.160116 1.9103e-05 0.244938 1.9103e-05 0.333329C-0.00251058 1.60318 0.246225 2.8611 0.731933 4.03442C1.21764 5.2077 1.93066 6.27344 2.83 7.17C3.72656 8.06932 4.79226 8.78232 5.96558 9.26807C7.13893 9.75378 8.39678 10.0025 9.66667 9.99998C9.75506 9.99998 9.83988 9.96486 9.90238 9.90236C9.96488 9.83987 10 9.75504 10 9.66665V6.00003C10 5.91164 9.96488 5.82682 9.90238 5.76432C9.83988 5.70183 9.75506 5.66671 9.66667 5.66671L9.66665 5.66669ZM9.33332 9.3333C7.06212 9.25525 4.90576 8.31478 3.3035 6.70343C1.68798 5.10033 0.745057 2.94139 0.666772 0.666753H3.66673V2.00007H2.61004C2.50513 2.00007 2.40633 2.04947 2.34338 2.1334C2.28155 2.21651 2.26183 2.32373 2.2901 2.42343C2.66197 3.74231 3.38123 4.93712 4.37274 5.88282C5.36425 6.82863 6.59157 7.49076 7.9266 7.79993C8.02526 7.82121 8.12816 7.79674 8.20666 7.73327C8.28619 7.6704 8.33284 7.57471 8.33329 7.47331V6.33329H9.33328L9.33332 9.3333Z" fill="black"/>
</svg>
