<svg width="25" height="24" viewBox="0 0 25 24" fill="none" xmlns="http://www.w3.org/2000/svg">
<g opacity="0.9">
<path d="M19.4985 9.06107V9.1719C19.4704 10.2455 19.0335 11.3879 18.1339 12.2964L18.1339 12.2965C17.4386 12.999 15.9788 14.469 14.6744 15.7779C14.0222 16.4324 13.4093 17.0462 12.9504 17.5035C12.7761 17.6772 12.6243 17.828 12.5012 17.9497C12.378 17.828 12.2262 17.6771 12.0517 17.5032C11.5926 17.0459 10.9796 16.4319 10.3274 15.7774C9.02309 14.4683 7.56363 12.9983 6.86906 12.2965L6.86871 12.2962C5.93532 11.3549 5.5 10.1648 5.5 9.06107C5.5 8.15749 5.79115 7.32771 6.31829 6.73075C6.83839 6.14176 7.61296 5.75 8.65258 5.75C9.28736 5.75 9.95317 5.9711 10.5778 6.31098C11.1996 6.64934 11.7506 7.08929 12.1464 7.4851L12.4997 7.83835L12.8533 7.4854C13.25 7.08933 13.8012 6.64931 14.4228 6.31095C15.0473 5.97108 15.7127 5.75 16.3474 5.75C17.3877 5.75 18.1618 6.14205 18.6813 6.73108C19.208 7.32816 19.4985 8.158 19.4985 9.06107Z" stroke="#888888"/>
</g>
</svg>
