<svg width="30" height="32" viewBox="0 0 30 32" fill="none" xmlns="http://www.w3.org/2000/svg">
<path d="M25.2827 22.8093H28.0001V6.24658H11.7412V12.1618V16.8941V22.8093H19.8062" stroke="#161616" stroke-miterlimit="10" stroke-linecap="round"/>
<path d="M4.43821 22.8095H3V18.0773L7.89124 10.979L11.7408 10.979V16.3027V22.8095" stroke="#161616" stroke-miterlimit="10" stroke-linecap="round"/>
<path d="M7.39314 25.7668C8.89389 25.7668 10.1105 24.4427 10.1105 22.8092C10.1105 21.1757 8.89389 19.8516 7.39314 19.8516C5.89238 19.8516 4.67578 21.1757 4.67578 22.8092C4.67578 24.4427 5.89238 25.7668 7.39314 25.7668Z" stroke="#161616" stroke-miterlimit="10"/>
<path d="M22.565 25.7668C24.0658 25.7668 25.2824 24.4427 25.2824 22.8092C25.2824 21.1757 24.0658 19.8516 22.565 19.8516C21.0643 19.8516 19.8477 21.1757 19.8477 22.8092C19.8477 24.4427 21.0643 25.7668 22.565 25.7668Z" stroke="#161616" stroke-miterlimit="10"/>
<path d="M24.7395 11.5703L19.3048 16.8941L16.0439 13.3449" stroke="#161616" stroke-linecap="round" stroke-linejoin="round"/>
<path d="M10.292 22.5137H11.3336" stroke="#161616"/>
</svg>
