<svg width="30" height="30" viewBox="0 0 30 30" fill="none" xmlns="http://www.w3.org/2000/svg">
<path d="M9 12.5898H5.91304L4 25.9811H9.73913H15H20.2609H26L24.087 12.5898H21" stroke="#161616" stroke-linecap="round" stroke-linejoin="round"/>
<path d="M21.5329 9.533C21.5329 14.2487 14.9998 20.82 14.9998 20.82C14.9998 20.82 8.45724 14.2773 8.46681 9.533C8.46681 5.92691 11.3938 3 14.9998 3C18.6059 3 21.5329 5.92691 21.5329 9.533Z" stroke="#161616" stroke-miterlimit="10"/>
<path d="M17.9646 9.31285C17.9646 10.9485 16.6351 12.278 14.9994 12.278C13.3638 12.278 12.0342 10.9485 12.0342 9.31285C12.0342 7.6772 13.3638 6.34766 14.9994 6.34766C16.6351 6.34766 17.9646 7.6772 17.9646 9.31285Z" stroke="#161616" stroke-miterlimit="10"/>
</svg>
