<svg width="24" height="24" viewBox="0 0 24 24" fill="none" xmlns="http://www.w3.org/2000/svg">
<circle cx="12" cy="12" r="12" fill="#888888"/>
<path d="M15.7806 7.20921L7.20921 15.7806C6.93026 16.0596 6.93026 16.5118 7.20921 16.7908C7.48816 17.0697 7.94042 17.0697 8.21936 16.7908L16.7908 8.21936C17.0697 7.94042 17.0697 7.48816 16.7908 7.20921C16.5118 6.93026 16.0596 6.93026 15.7806 7.20921Z" fill="white"/>
<path d="M7.20921 8.21936L15.7806 16.7908C16.0596 17.0697 16.5118 17.0697 16.7908 16.7908C17.0697 16.5118 17.0697 16.0596 16.7908 15.7806L8.21936 7.20921C7.94042 6.93026 7.48816 6.93026 7.20921 7.20921C6.93026 7.48816 6.93026 7.94042 7.20921 8.21936Z" fill="white"/>
</svg>
