<svg width="30" height="30" viewBox="0 0 30 30" fill="none" xmlns="http://www.w3.org/2000/svg">
<path d="M6.82609 20.2606H7.78261V12.6084H6.82609C4.71217 12.6084 3 14.3206 3 16.4345C3 18.5484 4.71217 20.2606 6.82609 20.2606Z" stroke="#161616" stroke-linecap="round" stroke-linejoin="round"/>
<path d="M23.1733 20.2606H22.2168V12.6084H23.1733C25.2872 12.6084 26.9994 14.3206 26.9994 16.4345C26.9994 18.5484 25.2872 20.2606 23.1733 20.2606Z" stroke="#161616" stroke-linecap="round" stroke-linejoin="round"/>
<path d="M7.82617 12.6087V11.1739C7.82617 7.21391 11.0401 4 15.0001 4C18.9601 4 22.174 7.21391 22.174 11.1739V12.6087" stroke="#161616" stroke-linecap="round" stroke-linejoin="round"/>
<path d="M22.1737 20.2607C22.1737 22.1738 21.2172 24.0868 18.3477 24.0868" stroke="#161616" stroke-linecap="round" stroke-linejoin="round"/>
<path d="M16.9133 25.9999H15.0002C14.2063 25.9999 13.5654 25.3591 13.5654 24.5652C13.5654 23.7712 14.2063 23.1304 15.0002 23.1304H16.9133C17.7072 23.1304 18.348 23.7712 18.348 24.5652C18.348 25.3591 17.7072 25.9999 16.9133 25.9999Z" stroke="#161616" stroke-linecap="round" stroke-linejoin="round"/>
</svg>
