<svg width="53" height="52" viewBox="0 0 53 52" fill="none" xmlns="http://www.w3.org/2000/svg">
<circle cx="26.0698" cy="26" r="26" fill="#161616"/>
<path d="M31.7663 40.8981C34.089 38.4134 35.9058 35.5016 37.1157 32.3249L35.8414 31.835H35.8417C34.695 34.8476 32.9732 37.6091 30.7715 39.9657L31.7663 40.8981Z" fill="white"/>
<path d="M16.381 25.4897C17.1903 24.098 17.393 22.4149 16.9386 20.8588C16.7955 20.2978 16.7014 19.7242 16.6568 19.1455L15.4311 19.2411C15.4809 19.8863 15.5854 20.5258 15.7435 21.152C16.111 22.3663 15.9731 23.6849 15.3638 24.7891L16.381 25.4897Z" fill="white"/>
<path d="M26.8003 9.17627C26.0463 9.17718 25.2957 9.27307 24.5662 9.46182C22.277 10.0481 20.3171 11.5186 19.1209 13.5472C17.9245 15.5757 17.5902 17.9948 18.1922 20.2695C18.8754 22.9884 18.281 25.6596 16.573 27.2706C16.2113 27.6117 15.8048 27.9024 15.3638 28.1339L16.0061 29.3371V29.3368C16.559 29.0473 17.0693 28.6838 17.5228 28.2562C19.5724 26.3053 20.358 23.1106 19.5245 19.9232V19.9228C19.0234 18.0059 19.3073 15.9692 20.3141 14.2602C21.3208 12.5511 22.9681 11.3094 24.8941 10.8078C26.8229 10.3096 28.8715 10.5942 30.5895 11.5987C32.3075 12.6031 33.5543 14.2453 34.0558 16.1641C36.2624 24.6129 33.8917 33.4019 27.8593 39.0984C27.2652 39.6604 26.6403 40.189 25.9872 40.6821L26.8003 41.8037C27.4939 41.2791 28.1575 40.7162 28.7882 40.1181C35.1759 34.0822 37.6696 24.7835 35.3672 15.8515H35.3675C34.8856 13.951 33.7825 12.2641 32.2316 11.0558C30.6808 9.84745 28.7703 9.18629 26.8004 9.17658L26.8003 9.17627Z" fill="white"/>
<path d="M26.9161 37.8594C32.5797 32.5387 34.8042 24.3148 32.7229 16.3943V16.3946C32.1563 14.3096 30.5141 12.6788 28.4094 12.1106C26.3045 11.5421 24.053 12.1214 22.4945 13.6326C20.9361 15.1437 20.3049 17.3592 20.8361 19.4533C21.7914 23.0929 20.8839 26.7729 18.4545 29.0484H18.4548C17.569 29.871 16.5147 30.495 15.3638 30.8784L15.814 32.1547V32.1544C17.1498 31.7128 18.3738 30.9921 19.4031 30.041C22.187 27.4279 23.2447 23.2415 22.1325 19.1295C21.8126 17.9171 21.9924 16.6285 22.6321 15.5472C23.2721 14.4659 24.3194 13.6804 25.5443 13.3629C26.7695 13.0464 28.0718 13.2243 29.1645 13.8573C30.2572 14.4903 31.051 15.527 31.3718 16.7391C33.3232 24.1665 31.2491 31.9041 25.913 36.8876C24.7402 37.9893 23.4309 38.9401 22.0168 39.7166L22.6992 40.8982C24.2296 40.0671 25.6467 39.0458 26.9161 37.8597L26.9161 37.8594Z" fill="white"/>
<path d="M24.9864 36.4251C29.9769 31.6803 31.9343 24.3147 30.0871 17.1974C29.7778 16.0046 28.8565 15.0677 27.6696 14.7392C26.4831 14.4107 25.2113 14.7407 24.3337 15.6046C23.456 16.4688 23.1055 17.7358 23.4148 18.9282C24.6349 23.6179 23.4148 28.4046 20.2441 31.4249C18.8659 32.7177 17.1895 33.6491 15.3638 34.1352L15.7361 35.4662C17.7815 34.9207 19.6598 33.8757 21.2021 32.4249C24.6968 29.0663 26.0753 23.7628 24.7451 18.5836C24.607 18.0522 24.6858 17.4879 24.9636 17.0143C25.2415 16.5411 25.696 16.1976 26.2271 16.0596C26.7582 15.9214 27.3222 15.9999 27.7952 16.2782C28.2684 16.5562 28.6118 17.011 28.7497 17.5424C30.4729 24.177 28.6669 31.0251 24.0349 35.4255H24.0352C22.5612 36.8242 20.8441 37.9413 18.969 38.722L19.4998 39.9912H19.4995C21.5307 39.1473 23.3903 37.9388 24.9863 36.4256L24.9864 36.4251Z" fill="white"/>
<path d="M17.1763 36.0302L17.647 37.2716L17.6473 37.2719C19.679 36.5859 21.5375 35.5016 23.1031 34.0888C27.3889 30.2057 29.0574 24.1436 27.451 18.2393L26.101 18.5892C27.5757 24.0109 26.0596 29.585 22.1406 33.1179C20.7175 34.4089 19.0262 35.401 17.1763 36.0302Z" fill="white"/>
</svg>
